<svg width="70" height="70" viewBox="0 0 70 70" fill="none" xmlns="http://www.w3.org/2000/svg">
<g clip-path="url(#clip0_920_1500)">
<path opacity="0.99" d="M70 34.9969C70 15.668 54.3258 0 34.9969 0C15.668 0 0 15.668 0 34.9969C0 54.3258 15.668 69.9938 34.9969 69.9938C54.3258 69.9938 69.9938 54.3258 69.9938 34.9969H70Z" fill="#0B317C"/>
<path d="M47.6282 45.546C43.0723 43.3977 42.2635 42.0581 38.5101 46.3547C35.0715 50.2872 28.5154 43.6631 27.4536 42.5458C26.33 41.4839 19.7122 34.9278 23.6446 31.4892C27.9351 27.7358 26.5955 26.9271 24.4472 22.365C22.2988 17.809 19.8912 15.3952 16.1316 19.6857C12.3905 23.9577 8.19881 33.6376 22.2247 47.7684C36.3556 61.7944 46.0355 57.6026 50.3075 53.8616C54.598 50.1082 52.1842 47.6944 47.622 45.546H47.6282Z" fill="white"/>
<path d="M43.5406 32.9404H47.9052C47.9052 26.9584 43.0406 22.0938 37.0586 22.0938V26.4583C40.633 26.4583 43.5406 29.366 43.5406 32.9404Z" fill="white"/>
<path d="M51.5108 18.4882C47.6524 14.6298 42.5162 12.5 37.0527 12.5V16.8646C41.3494 16.8646 45.3868 18.5376 48.4241 21.5749C51.4614 24.6122 53.1344 28.6496 53.1344 32.9462H57.499C57.499 27.4828 55.3753 22.3527 51.5108 18.4882Z" fill="white"/>
</g>
<defs>
<clipPath id="clip0_920_1500">
<rect width="70" height="70" fill="white"/>
</clipPath>
</defs>
</svg>
