<svg width="70" height="70" viewBox="0 0 70 70" fill="none" xmlns="http://www.w3.org/2000/svg">
<g clip-path="url(#clip0_981_383)">
<path opacity="0.99" d="M70 35C70 15.6694 54.3258 0 34.9969 0C15.668 0 0 15.6694 0 35C0 54.3306 15.668 70 34.9969 70C54.3258 70 69.9938 54.3306 69.9938 35H70Z" fill="#0B317C"/>
<path d="M38.6387 23.0107C38.6387 23.7824 38.009 24.4121 37.2373 24.4121H22.0693C21.2977 24.4121 20.668 23.7824 20.668 23.0107C20.668 22.2391 21.2977 21.6094 22.0693 21.6094H37.2373C38.009 21.6094 38.6387 22.2391 38.6387 23.0107Z" fill="#EEEFEF"/>
<path d="M38.6387 30.1045C38.6387 30.8762 38.009 31.5058 37.2373 31.5058H22.0693C21.2977 31.5058 20.668 30.8762 20.668 30.1045C20.668 29.3328 21.2977 28.7031 22.0693 28.7031H37.2373C38.009 28.7031 38.6387 29.3328 38.6387 30.1045Z" fill="#EEEFEF"/>
<path d="M17.3711 45.6062C15.1363 45.6062 13.5559 44.9826 13.3831 44.9085C12.8398 44.6863 12.4817 44.1615 12.4694 43.575C12.4571 42.9884 12.7904 42.4451 13.3213 42.1982C14.9017 41.4573 15.6857 40.0249 16.0685 38.7222C11.8829 35.5859 9.5 31.1715 9.5 26.4732C9.5 17.3358 18.5378 9.90234 29.6561 9.90234C40.7744 9.90234 49.8122 17.3358 49.8122 26.4732C49.8122 35.6106 40.7744 43.044 29.6561 43.044C28.1004 43.044 26.5447 42.8958 25.0199 42.5995C22.3221 45.069 19.4083 45.6062 17.3711 45.6062ZM17.3649 42.6365C19.7108 42.6365 21.7665 41.7351 23.4765 39.957C23.8346 39.5804 24.3717 39.4199 24.8779 39.5372C26.4336 39.8953 28.0387 40.0743 29.6499 40.0743C39.1261 40.0743 46.8366 33.9745 46.8366 26.4732C46.8366 18.9718 39.1261 12.872 29.6499 12.872C20.1738 12.872 12.4632 18.9718 12.4632 26.4732C12.4632 30.4739 14.6856 34.2585 18.5625 36.8577C19.0502 37.1849 19.3033 37.7715 19.1984 38.3518C18.8959 40.0311 18.2662 41.482 17.3711 42.6365H17.3649Z" fill="#EEEFEF"/>
<path d="M50.8003 51.0344C54.2698 48.7069 56.4799 45.1939 56.4799 41.2673C56.4799 36.3096 52.9549 32.0126 47.8248 29.9258C45.8925 36.5936 38.4906 41.5575 29.6503 41.5575C28.0699 41.5575 26.5451 41.3908 25.082 41.0882C25.082 41.15 25.082 41.2055 25.082 41.2673C25.082 48.2747 32.1135 53.9547 40.7871 53.9547C42.2749 53.9547 43.7133 53.7818 45.0776 53.4731C49.0903 57.6467 53.992 55.6217 53.992 55.6217C51.8375 54.6091 51.0782 52.5162 50.8065 51.0344H50.8003Z" fill="#EEEFEF"/>
</g>
<defs>
<clipPath id="clip0_981_383">
<rect width="70" height="70" fill="white"/>
</clipPath>
</defs>
</svg>
