<svg width="70" height="70" viewBox="0 0 70 70" fill="none" xmlns="http://www.w3.org/2000/svg">
<g clip-path="url(#clip0_920_1527)">
<path opacity="0.99" d="M70 35C70 15.6694 54.3258 0 34.9969 0C15.668 0 0 15.6694 0 35C0 54.3306 15.668 70 34.9969 70C54.3258 70 69.9938 54.3306 69.9938 35H70Z" fill="#0B317C"/>
<path d="M54.3448 25.9446H54.1966C53.5546 15.9119 45.1958 7.94141 34.9974 7.94141C24.799 7.94141 16.4402 15.9119 15.8044 25.9446H15.65C12.2608 25.9446 9.51367 28.692 9.51367 32.0815V40.4842C9.51367 43.8737 12.2608 46.6211 15.65 46.6211H20.0455V41.5831H20.0763V27.1794C20.0763 18.9495 26.7683 12.257 34.9974 12.257C43.2265 12.257 49.9185 18.9495 49.9185 27.1794V41.5831C49.9185 48.7819 44.7946 54.8015 38.01 56.1968C37.3371 55.2584 36.2444 54.6472 35.0036 54.6472C32.9602 54.6472 31.2995 56.308 31.2995 58.3515C31.2995 60.3951 32.9602 62.0559 35.0036 62.0559C36.2074 62.0559 37.2692 61.4817 37.9483 60.5927C45.4922 59.432 51.6038 53.8693 53.5731 46.6211H54.351C57.7402 46.6211 60.4873 43.8737 60.4873 40.4842V32.0815C60.4873 28.692 57.7402 25.9446 54.351 25.9446H54.3448Z" fill="white"/>
<path d="M31.836 31.6553C31.836 30.1181 30.5889 28.8711 29.0518 28.8711C27.5146 28.8711 26.2676 30.1181 26.2676 31.6553C26.2676 33.1925 27.5146 34.4395 29.0518 34.4395C30.5889 34.4395 31.836 33.1925 31.836 31.6553Z" fill="white"/>
<path d="M43.7325 31.6553C43.7325 30.1181 42.4854 28.8711 40.9483 28.8711C39.4111 28.8711 38.1641 30.1181 38.1641 31.6553C38.1641 33.1925 39.4111 34.4395 40.9483 34.4395C42.4854 34.4395 43.7325 33.1925 43.7325 31.6553Z" fill="white"/>
<path d="M42.3317 38.7422H27.6699C28.7873 41.6992 31.6518 43.8044 34.9977 43.8044C38.3437 43.8044 41.2082 41.6992 42.3255 38.7422H42.3317Z" fill="white"/>
</g>
<defs>
<clipPath id="clip0_920_1527">
<rect width="70" height="70" fill="white"/>
</clipPath>
</defs>
</svg>
