<svg width="70" height="70" viewBox="0 0 70 70" fill="none" xmlns="http://www.w3.org/2000/svg">
<g clip-path="url(#clip0_981_398)">
<path opacity="0.99" d="M70 35C70 15.6694 54.3258 0 34.9969 0C15.668 0 0 15.6694 0 35C0 54.3306 15.668 70 34.9969 70C54.3258 70 69.9938 54.3306 69.9938 35H70Z" fill="#0B317C"/>
<path d="M54.3428 25.9446H54.1947C53.5526 15.9119 45.1939 7.94141 34.9954 7.94141C24.797 7.94141 16.4383 15.9119 15.8024 25.9446H15.6481C12.2589 25.9446 9.51172 28.692 9.51172 32.0815V40.4842C9.51172 43.8737 12.2589 46.6211 15.6481 46.6211H20.0435V41.5831H20.0744V27.1794C20.0744 18.9495 26.7663 12.257 34.9954 12.257C43.2246 12.257 49.9165 18.9495 49.9165 27.1794V41.5831C49.9165 48.7819 44.7926 54.8015 38.0081 56.1968C37.3352 55.2584 36.2425 54.6472 35.0016 54.6472C32.9582 54.6472 31.2976 56.308 31.2976 58.3515C31.2976 60.3951 32.9582 62.0559 35.0016 62.0559C36.2054 62.0559 37.2673 61.4817 37.9463 60.5927C45.4902 59.432 51.6018 53.8693 53.5712 46.6211H54.349C57.7382 46.6211 60.4854 43.8737 60.4854 40.4842V32.0815C60.4854 28.692 57.7382 25.9446 54.349 25.9446H54.3428Z" fill="#EEEFEF"/>
<path d="M31.8379 31.6553C31.8379 30.1181 30.5909 28.8711 29.0537 28.8711C27.5166 28.8711 26.2695 30.1181 26.2695 31.6553C26.2695 33.1925 27.5166 34.4395 29.0537 34.4395C30.5909 34.4395 31.8379 33.1925 31.8379 31.6553Z" fill="white"/>
<path d="M43.7325 31.6553C43.7325 30.1181 42.4854 28.8711 40.9483 28.8711C39.4111 28.8711 38.1641 30.1181 38.1641 31.6553C38.1641 33.1925 39.4111 34.4395 40.9483 34.4395C42.4854 34.4395 43.7325 33.1925 43.7325 31.6553Z" fill="white"/>
<path d="M42.3298 38.7422H27.668C28.7854 41.6992 31.6498 43.8044 34.9958 43.8044C38.3417 43.8044 41.2062 41.6992 42.3236 38.7422H42.3298Z" fill="white"/>
</g>
<defs>
<clipPath id="clip0_981_398">
<rect width="70" height="70" fill="white"/>
</clipPath>
</defs>
</svg>
