<svg width="26" height="26" viewBox="0 0 26 26" fill="none" xmlns="http://www.w3.org/2000/svg">
<path d="M25.0213 21.604L17.8798 14.4331L14.1846 18.1409L21.3312 25.3119C21.9176 25.9003 22.883 25.9003 23.4695 25.3119L25.0213 23.7548C25.6078 23.1611 25.6078 22.1873 25.0213 21.604Z" fill="white"/>
<path d="M14.3459 16.5423L16.2818 14.5999L14.076 12.3866C16.1624 9.37142 15.8718 5.19489 13.1937 2.50775C10.1887 -0.507468 5.30495 -0.507468 2.29476 2.50775C-0.715431 5.52298 -0.710241 10.4234 2.29476 13.4438C4.97279 16.1309 9.13516 16.4226 12.1402 14.3291L14.3459 16.5423ZM3.78947 11.9232C1.60968 9.73595 1.60968 6.18955 3.78948 4.00755C5.96927 1.82035 9.50365 1.82035 11.6783 4.00755C13.858 6.19476 13.858 9.74116 11.6783 11.9232C9.50365 14.1104 5.96927 14.1104 3.78947 11.9232Z" fill="white"/>
</svg>
