<svg width="69" height="86" viewBox="0 0 69 86" fill="none" xmlns="http://www.w3.org/2000/svg">
<g clip-path="url(#clip0_963_409)">
<path d="M67.5197 54.0436C67.5197 34.7362 52.7308 17.8984 34.4927 17.8984C16.2546 17.8984 1.48047 34.7512 1.48047 54.0436C1.48047 73.336 16.2694 84.5013 34.5075 84.5013C52.7456 84.5013 67.5345 73.336 67.5345 54.0436H67.5197Z" fill="#0A2463"/>
<path d="M34.5074 85.9986C14.1819 85.9986 0 72.8576 0 54.0442C0 33.6443 15.7955 16.4023 34.5074 16.4023C53.2193 16.4023 69.0148 33.6443 69.0148 54.0442C69.0148 72.8576 54.8329 85.9986 34.5074 85.9986ZM34.5074 19.3957C17.4091 19.3957 2.96074 35.2607 2.96074 54.0442C2.96074 74.055 18.8007 83.0052 34.5074 83.0052C50.2141 83.0052 66.0541 74.055 66.0541 54.0442C66.0541 35.2607 51.6057 19.3957 34.5074 19.3957Z" fill="#0A2463"/>
<path d="M52.6281 48.643H48.8679L51.5622 38.0464C51.7102 37.4178 51.6362 36.894 51.3698 36.4898C51.1033 36.0857 50.674 35.8313 50.1114 35.7116C49.6229 35.5918 49.1492 35.6367 48.7051 35.8463C48.2462 36.0558 47.9501 36.4599 47.8021 37.1035L45.1522 48.658H39.6304L37.025 37.7171C36.8177 36.9688 36.5217 36.43 36.1072 36.1157C35.6927 35.8014 35.2189 35.6367 34.6712 35.6367C34.0939 35.6367 33.6201 35.8014 33.2204 36.1157C32.8207 36.43 32.5247 36.9688 32.3174 37.7171L29.5787 48.658H23.9237L21.2739 37.1035C21.1258 36.4449 20.8297 36.0109 20.3708 35.8014C19.9119 35.6068 19.4382 35.5769 18.9645 35.7116C18.3871 35.8313 17.9726 36.0857 17.6766 36.4898C17.3953 36.894 17.3361 37.4178 17.4989 38.0464L20.1044 48.643H16.3886C16.0185 48.643 15.7521 48.7627 15.604 49.0172C15.4412 49.2566 15.3672 49.5709 15.3672 49.9451C15.3672 50.3193 15.4412 50.6336 15.604 50.8731C15.7669 51.1125 16.0185 51.2472 16.3886 51.2472H20.7113L24.0866 64.7025C24.2642 65.4509 24.5751 65.9897 25.034 66.3189C25.4929 66.6482 25.9666 66.8128 26.4403 66.8128C26.9141 66.8128 27.4026 66.6482 27.8467 66.3339C28.3056 66.0196 28.6313 65.4808 28.8237 64.7324L32.1546 51.2323H36.9954L40.2078 64.6875C40.3854 65.4359 40.6815 65.9747 41.1256 66.304C41.5697 66.6332 42.0434 66.7979 42.5616 66.7979C43.0501 66.7979 43.509 66.6332 43.9531 66.3189C44.3972 66.0046 44.7229 65.4658 44.9154 64.7175L48.2462 51.2173H52.6133C52.9834 51.2173 53.2498 51.0976 53.3979 50.8431C53.5607 50.6037 53.6347 50.2894 53.6347 49.9152C53.6347 49.541 53.5607 49.2267 53.3979 48.9872C53.235 48.7478 52.9834 48.6131 52.6133 48.6131L52.6281 48.643ZM26.6476 60.2723L24.5159 51.2323H28.9274L26.6624 60.2723H26.6476ZM32.8059 48.643L34.6416 41.414L36.3588 48.643H32.8059ZM42.4431 60.2723L40.267 51.2323H44.5453L42.4431 60.2723Z" fill="white"/>
<path d="M49.5914 16.1016H19.8359V21.4298H49.5914V16.1016Z" fill="white"/>
<path d="M49.5913 22.9427H19.8358C19.0216 22.9427 18.3555 22.2692 18.3555 21.446V16.1178C18.3555 15.2946 19.0216 14.6211 19.8358 14.6211H49.5913C50.4055 14.6211 51.0716 15.2946 51.0716 16.1178V21.446C51.0716 22.2692 50.4055 22.9427 49.5913 22.9427ZM21.3162 19.9493H48.1109V17.6145H21.3162V19.9493Z" fill="#0A2463"/>
<path d="M20.6794 16.446C18.6365 12.9886 17.0081 7.6155 15.957 3.51456C18.3108 4.77179 23.3293 3.21522 25.7867 2.34714C28.8066 1.26952 32.0634 1.23959 35.0982 2.22741C37.0967 2.88595 38.9916 3.97854 41.0345 4.33774C46.5415 5.32556 50.0203 0.970184 55.1424 3.73907C54.2246 8.90266 52.2705 13.273 49.1321 16.7902" fill="#0A2463"/>
<path d="M49.1474 18.2887C48.7921 18.2887 48.4368 18.1689 48.1555 17.8995C47.5486 17.3457 47.4894 16.4028 48.0371 15.7892C50.7166 12.7659 52.5078 9.09896 53.47 4.60888C51.5752 3.95033 49.8876 4.44424 47.8595 5.04292C45.8462 5.64159 43.5516 6.30014 40.7981 5.80623C39.3769 5.55179 38.0594 4.99802 36.7863 4.47417C36.0757 4.17483 35.3799 3.89046 34.6694 3.65099C31.9307 2.75298 29.0292 2.78291 26.3053 3.75576C22.9004 4.96808 20.1469 5.52186 18.03 5.47696C19.0071 8.94929 20.3394 12.9455 21.9678 15.6844C22.3823 16.3879 22.1602 17.3158 21.4497 17.7349C20.7539 18.154 19.8361 17.9294 19.4216 17.211C17.2454 13.5292 15.5578 7.91657 14.5512 3.8755C14.4031 3.30675 14.6104 2.69311 15.0693 2.3339C15.5282 1.97469 16.1648 1.91483 16.6681 2.18423C17.956 2.87271 21.1832 2.39377 25.3282 0.92701C28.6739 -0.270345 32.2268 -0.315246 35.5872 0.807274C36.3718 1.06171 37.1564 1.39098 37.9262 1.72026C39.0957 2.21417 40.2207 2.67814 41.331 2.87271C43.4035 3.24688 45.18 2.72304 47.0453 2.18423C49.5915 1.43589 52.4634 0.597737 55.8683 2.43867C56.4308 2.75298 56.7417 3.38159 56.6232 4.02517C55.6462 9.51803 53.4997 14.1578 50.2577 17.8097C49.9616 18.139 49.5619 18.3036 49.1622 18.3036L49.1474 18.2887Z" fill="#0A2463"/>
</g>
<defs>
<clipPath id="clip0_963_409">
<rect width="69" height="86" fill="white"/>
</clipPath>
</defs>
</svg>
