<svg width="144" height="86" viewBox="0 0 144 86" fill="none" xmlns="http://www.w3.org/2000/svg">
<g clip-path="url(#clip0_965_444)">
<path d="M119.714 42.0922C127.99 42.0922 134.723 35.3423 134.723 27.0449C134.723 18.7475 127.99 12 119.714 12C111.438 12 104.703 18.7491 104.703 27.0449C104.703 35.3408 111.437 42.0922 119.714 42.0922Z" fill="#0A2463"/>
<path d="M143.999 62.1807V66.6426C143.999 67.4078 143.379 68.0289 142.614 68.0289H99.9718C99.9476 63.7945 98.6244 59.8632 96.3828 56.6137C97.1954 54.3087 98.5209 52.1946 100.296 50.4148C103.435 47.269 107.607 45.5391 112.043 45.5391C113.21 45.5391 114.316 45.8437 115.272 46.376C118.036 47.9134 121.333 47.9251 124.104 46.4071C124.12 46.3962 124.137 46.3869 124.155 46.376C125.141 45.8274 126.256 45.5391 127.387 45.5391C136.546 45.5391 143.997 53.0042 143.997 62.1807H143.999Z" fill="#0A2463"/>
<path d="M24.2823 42.0922C16.0061 42.0922 9.27344 35.3423 9.27344 27.0449C9.27344 18.7475 16.0061 12 24.2823 12C32.5584 12 39.2934 18.7491 39.2934 27.0449C39.2934 35.3408 32.5592 42.0922 24.2823 42.0922Z" fill="#0A2463"/>
<path d="M0 62.1807V66.6426C0 67.4078 0.620341 68.0289 1.38468 68.0289H44.0271C44.0512 63.7945 45.3744 59.8632 47.616 56.6137C46.8034 54.3087 45.4779 52.1946 43.7025 50.4148C40.5642 47.269 36.3915 45.5391 31.9557 45.5391C30.789 45.5391 29.683 45.8437 28.7271 46.376C25.9632 47.9134 22.6662 47.9251 19.8953 46.4071C19.8789 46.3962 19.8618 46.3869 19.8439 46.376C18.8577 45.8274 17.7431 45.5391 16.6114 45.5391C7.45109 45.5391 0 53.0042 0 62.1807Z" fill="#0A2463"/>
<path d="M71.9994 48.0609C80.2756 48.0609 87.0083 41.3111 87.0083 33.0137C87.0083 24.7162 80.2756 17.9688 71.9994 17.9688C63.7233 17.9688 56.9883 24.7178 56.9883 33.0137C56.9883 41.3095 63.7225 48.0609 71.9994 48.0609Z" fill="#0A2463"/>
<path d="M79.6729 51.5078C78.5412 51.5078 77.4258 51.7977 76.4412 52.3463C76.4233 52.3564 76.4062 52.3665 76.3891 52.3767C73.6182 53.8939 70.3219 53.8837 67.5588 52.3463C66.6029 51.8133 65.4954 51.5078 64.3286 51.5078C59.8921 51.5078 55.7209 53.2393 52.5818 56.3836C49.4459 59.5278 47.7188 63.7069 47.7188 68.1517V72.6122C47.7188 73.3782 48.3383 73.9984 49.1034 73.9984H94.8989C95.664 73.9984 96.2836 73.3782 96.2836 72.6122V68.1517C96.2836 58.9746 88.8325 51.5078 79.6737 51.5078H79.6729Z" fill="#0A2463"/>
</g>
<defs>
<clipPath id="clip0_965_444">
<rect width="144" height="62" fill="white" transform="translate(0 12)"/>
</clipPath>
</defs>
</svg>
