<svg width="82" height="86" viewBox="0 0 82 86" fill="none" xmlns="http://www.w3.org/2000/svg">
<g clip-path="url(#clip0_965_452)">
<g clip-path="url(#clip1_965_452)">
<path d="M12.4686 19.8786C14.0986 18.2486 14.0986 15.5986 12.4686 13.9686C10.8386 12.3386 8.18859 12.3386 6.55859 13.9686L1.21859 19.3086C-0.411406 20.9386 -0.411406 23.5886 1.21859 25.2186C2.84859 26.8486 5.49859 26.8486 7.12859 25.2186L12.4686 19.8786Z" fill="#0A2463"/>
<path d="M80.5819 19.3203L75.2419 13.9803C73.6119 12.3503 70.9619 12.3503 69.3319 13.9803C67.7019 15.6103 67.7019 18.2603 69.3319 19.8903L74.6719 25.2303C76.3019 26.8603 78.9519 26.8603 80.5819 25.2303C82.2119 23.6003 82.2119 20.9503 80.5819 19.3203Z" fill="#0A2463"/>
<path d="M45.2395 12.04V9H47.3295C49.8095 9 51.8295 6.99 51.8295 4.5C51.8295 2.01 49.8195 0 47.3295 0H34.4795C31.9995 0 29.9795 2.01 29.9795 4.5C29.9795 6.99 31.9895 9 34.4795 9H36.8895V12C18.5695 14 4.26953 29.56 4.26953 48.4C4.26953 68.6 20.6995 85.03 40.9095 85.03C61.1195 85.03 77.5395 68.6 77.5395 48.4C77.5395 29.67 63.4095 14.18 45.2395 12.03V12.04ZM40.8995 48.4V18.83C57.1995 18.83 70.4695 32.09 70.4695 48.4H40.8995Z" fill="#0A2463"/>
<g clip-path="url(#clip2_965_452)">
<path d="M12.4686 19.8786C14.0986 18.2486 14.0986 15.5986 12.4686 13.9686C10.8386 12.3386 8.18859 12.3386 6.55859 13.9686L1.21859 19.3086C-0.411406 20.9386 -0.411406 23.5886 1.21859 25.2186C2.84859 26.8486 5.49859 26.8486 7.12859 25.2186L12.4686 19.8786Z" fill="#0A2463"/>
<path d="M80.5819 19.3203L75.2419 13.9803C73.6119 12.3503 70.9619 12.3503 69.3319 13.9803C67.7019 15.6103 67.7019 18.2603 69.3319 19.8903L74.6719 25.2303C76.3019 26.8603 78.9519 26.8603 80.5819 25.2303C82.2119 23.6003 82.2119 20.9503 80.5819 19.3203Z" fill="#0A2463"/>
<path d="M45.2395 12.04V9H47.3295C49.8095 9 51.8295 6.99 51.8295 4.5C51.8295 2.01 49.8195 0 47.3295 0H34.4795C31.9995 0 29.9795 2.01 29.9795 4.5C29.9795 6.99 31.9895 9 34.4795 9H36.8895V12C18.5695 14 4.26953 29.56 4.26953 48.4C4.26953 68.6 20.6995 85.03 40.9095 85.03C61.1195 85.03 77.5395 68.6 77.5395 48.4C77.5395 29.67 63.4095 14.18 45.2395 12.03V12.04ZM40.8995 48.4V18.83C57.1995 18.83 70.4695 32.09 70.4695 48.4H40.8995Z" fill="#0A2463"/>
</g>
</g>
</g>
<defs>
<clipPath id="clip0_965_452">
<rect width="82" height="86" fill="white"/>
</clipPath>
<clipPath id="clip1_965_452">
<rect width="81.81" height="85.04" fill="white"/>
</clipPath>
<clipPath id="clip2_965_452">
<rect width="81.81" height="85.04" fill="white"/>
</clipPath>
</defs>
</svg>
