<svg width="26" height="26" viewBox="0 0 26 26" fill="none" xmlns="http://www.w3.org/2000/svg">
<g id="tabler:copy-plus-filled">
<path id="Vector" d="M19.8611 6.50033C20.9147 6.50033 21.9251 6.91886 22.6701 7.66387C23.4151 8.40887 23.8337 9.41931 23.8337 10.4729V19.8611C23.8337 20.9147 23.4151 21.9251 22.6701 22.6701C21.9251 23.4151 20.9147 23.8337 19.8611 23.8337H10.4729C9.41931 23.8337 8.40887 23.4151 7.66387 22.6701C6.91886 21.9251 6.50033 20.9147 6.50033 19.8611V10.4729C6.50033 9.41931 6.91886 8.40887 7.66387 7.66387C8.40887 6.91886 9.41931 6.50033 10.4729 6.50033H19.8611ZM15.167 10.8337C14.8797 10.8337 14.6041 10.9478 14.401 11.151C14.1978 11.3541 14.0837 11.6297 14.0837 11.917V14.0837H11.917C11.6516 14.0837 11.3955 14.1811 11.1973 14.3574C10.999 14.5338 10.8723 14.7767 10.8412 15.0402L10.8337 15.167C10.8337 15.4543 10.9478 15.7299 11.151 15.933C11.3541 16.1362 11.6297 16.2503 11.917 16.2503H14.0837V18.417C14.0837 18.6823 14.1811 18.9384 14.3574 19.1367C14.5338 19.335 14.7767 19.4617 15.0402 19.4927L15.167 19.5003C15.4543 19.5003 15.7299 19.3862 15.933 19.183C16.1362 18.9799 16.2503 18.7043 16.2503 18.417V16.2503H18.417C18.6823 16.2503 18.9384 16.1529 19.1367 15.9766C19.335 15.8002 19.4617 15.5573 19.4927 15.2937L19.5003 15.167C19.5003 14.8797 19.3862 14.6041 19.183 14.401C18.9799 14.1978 18.7043 14.0837 18.417 14.0837H16.2503V11.917C16.2503 11.6516 16.1529 11.3955 15.9766 11.1973C15.8002 10.999 15.5573 10.8723 15.2937 10.8412L15.167 10.8337ZM16.2503 2.16699C17.4355 2.16699 18.2307 2.74441 18.8222 3.80716C18.8913 3.9315 18.9353 4.06824 18.9516 4.20957C18.9679 4.35091 18.9562 4.49407 18.9171 4.63088C18.8781 4.76769 18.8125 4.89548 18.7241 5.00694C18.6357 5.1184 18.5262 5.21135 18.4018 5.28049C18.2775 5.34963 18.1407 5.39361 17.9994 5.4099C17.8581 5.4262 17.7149 5.41449 17.5781 5.37546C17.4413 5.33643 17.3135 5.27083 17.202 5.18242C17.0906 5.094 16.9976 4.9845 16.9285 4.86016C16.6891 4.42899 16.558 4.33366 16.2503 4.33366H5.41699C4.82333 4.33366 4.33366 4.82333 4.33366 5.41699V16.2482C4.33366 16.5948 4.50049 16.9177 4.77458 17.1202L4.88291 17.1907C5.00654 17.2611 5.11508 17.3552 5.20235 17.4675C5.28962 17.5799 5.3539 17.7084 5.39153 17.8456C5.42915 17.9828 5.43938 18.1261 5.42163 18.2672C5.40388 18.4084 5.3585 18.5447 5.28808 18.6683C5.21765 18.792 5.12357 18.9005 5.0112 18.9878C4.89883 19.075 4.77037 19.1393 4.63315 19.1769C4.49594 19.2146 4.35266 19.2248 4.21149 19.207C4.07033 19.1893 3.93404 19.1439 3.81041 19.0735C3.31166 18.7899 2.89688 18.3793 2.60823 17.8834C2.31957 17.3875 2.16734 16.8241 2.16699 16.2503V5.41699C2.16699 3.62733 3.62733 2.16699 5.41699 2.16699H16.2503Z" fill="#1F67DE"/>
</g>
</svg>
