<svg width="36" height="36" viewBox="0 0 36 36" fill="none" xmlns="http://www.w3.org/2000/svg">
<g id="ep:arrow-down">
<path id="Vector" d="M29.2456 11.9832L18.0001 22.9452L6.75461 11.9832C6.5537 11.7869 6.28398 11.6771 6.00311 11.6771C5.72224 11.6771 5.45252 11.7869 5.25161 11.9832C5.15433 12.0785 5.07704 12.1923 5.02428 12.3179C4.97151 12.4434 4.94434 12.5783 4.94434 12.7145C4.94434 12.8507 4.97151 12.9855 5.02428 13.111C5.07704 13.2366 5.15433 13.3504 5.25161 13.4457L17.2149 25.1097C17.4249 25.3145 17.7067 25.4291 18.0001 25.4291C18.2935 25.4291 18.5753 25.3145 18.7854 25.1097L30.7486 13.448C30.8466 13.3526 30.9245 13.2385 30.9776 13.1125C31.0308 12.9865 31.0582 12.8512 31.0582 12.7145C31.0582 12.5777 31.0308 12.4424 30.9776 12.3164C30.9245 12.1904 30.8466 12.0763 30.7486 11.981C30.5477 11.7847 30.278 11.6748 29.9971 11.6748C29.7162 11.6748 29.4465 11.7847 29.2456 11.981V11.9832Z" fill="black"/>
</g>
</svg>
