<svg width="36" height="36" viewBox="0 0 36 36" fill="none" xmlns="http://www.w3.org/2000/svg">
<path d="M29.3013 11.3084L18.0558 22.2704L6.81027 11.3084C6.60936 11.1121 6.33964 11.0022 6.05877 11.0022C5.77791 11.0022 5.50819 11.1121 5.30727 11.3084C5.20999 11.4037 5.1327 11.5175 5.07994 11.6431C5.02718 11.7686 5 11.9034 5 12.0396C5 12.1758 5.02718 12.3107 5.07994 12.4362C5.1327 12.5618 5.20999 12.6756 5.30727 12.7709L17.2705 24.4349C17.4806 24.6397 17.7624 24.7543 18.0558 24.7543C18.3492 24.7543 18.6309 24.6397 18.841 24.4349L30.8043 12.7731C30.9022 12.6778 30.9801 12.5637 31.0333 12.4377C31.0865 12.3117 31.1138 12.1764 31.1138 12.0396C31.1138 11.9029 31.0865 11.7675 31.0333 11.6416C30.9801 11.5156 30.9022 11.4015 30.8043 11.3061C30.6034 11.1099 30.3336 11 30.0528 11C29.7719 11 29.5022 11.1099 29.3013 11.3061V11.3084Z" fill="white"/>
</svg>
