<svg width="56" height="432" viewBox="0 0 56 432" fill="none" xmlns="http://www.w3.org/2000/svg">
<path d="M49.1254 24.168L1.27974 24.168L1.27974 18.3382L49.1254 18.3382L49.1254 -2.30833e-07L54.4062 1.79378L54.4062 42.4903L49.1254 40.6965L49.1254 24.168Z" fill="white" fill-opacity="0.5"/>
<path d="M6.5332 101.45L1.25236 99.6561L1.25236 68.6973L54.6016 68.6973L54.6016 101.466L49.3207 99.6721L49.3207 74.5431L30.3765 74.5431L30.3765 96.7572L25.1752 94.9634L25.1752 74.5431L6.5332 74.5431L6.5332 101.466L6.5332 101.45Z" fill="white" fill-opacity="0.5"/>
<path d="M53.281 163.608L55.0625 169.454L1.26793 169.454L1.26793 163.608L24.9681 163.608L24.9681 131.976L1.26794 131.976L1.26794 126.146L53.281 126.146L55.0625 131.976L30.2489 131.976L30.2489 163.608L53.281 163.608Z" fill="white" fill-opacity="0.5"/>
<path d="M6.5332 232.135L1.25236 230.342L1.25236 199.383L54.6016 199.383L54.6016 232.151L49.3207 230.358L49.3207 205.229L30.3765 205.229L30.3765 227.443L25.1752 225.649L25.1752 205.229L6.5332 205.229L6.5332 232.151L6.5332 232.135Z" fill="white" fill-opacity="0.5"/>
<path d="M25.3616 280.082C26.7773 286.809 30.5629 291.742 39.5499 291.742C51.6545 291.742 54.4062 282.773 54.4062 272.587L54.4062 256.795L1.27974 256.795L1.27974 262.705L24.6777 262.705L24.6777 273.852L1.27974 289.66L1.27974 296.482L25.3457 280.066L25.3616 280.082ZM29.9744 272.603L29.9744 262.721L49.1413 262.721L49.1413 272.603C49.1413 279.858 47.0576 285.768 39.5658 285.768C32.074 285.768 29.9903 279.858 29.9903 272.603L29.9744 272.603Z" fill="white" fill-opacity="0.5"/>
<path d="M13.0915 350.534L13.0915 326.446L1.27321 321.433L1.27321 315.604L55.2109 338.49L1.27321 361.377L1.27321 355.547L13.0915 350.534ZM41.5317 338.49L18.3564 328.689L18.3564 348.356L41.5317 338.49Z" fill="white" fill-opacity="0.5"/>
<path d="M41.1022 392.65L1.27322 392.65L1.27322 386.82L55.2109 386.82L14.2685 426.171L53.1272 426.171L54.9087 432.001L0.446096 432.001L41.0863 392.65L41.1022 392.65Z" fill="white" fill-opacity="0.5"/>
</svg>
