<svg width="24" height="19" viewBox="0 0 24 19" fill="none" xmlns="http://www.w3.org/2000/svg">
<path d="M14.0156 0.196508L22.8244 8.9826C22.9618 9.11988 23.0391 9.30597 23.0391 9.5C23.0391 9.69403 22.9618 9.88012 22.8244 10.0174L14.0156 18.8035C13.8765 18.9328 13.6924 19.0032 13.5022 18.9999C13.3121 18.9965 13.1306 18.9197 12.9961 18.7856C12.8616 18.6514 12.7846 18.4704 12.7812 18.2807C12.7779 18.0911 12.8485 17.9075 12.9781 17.7687L20.5329 10.2322L0.773125 10.2322C0.57844 10.2322 0.391728 10.155 0.254064 10.0177C0.116401 9.88042 0.0390621 9.69419 0.0390621 9.5C0.0390621 9.30582 0.116401 9.11958 0.254064 8.98227C0.391728 8.84497 0.57844 8.76783 0.773125 8.76783L20.5329 8.76783L12.9781 1.23132C12.8485 1.09252 12.7779 0.908943 12.7812 0.719259C12.7846 0.529577 12.8616 0.348596 12.9961 0.21445C13.1306 0.0803026 13.3121 0.00346126 13.5022 0.00011576C13.6924 -0.00323165 13.8765 0.0671762 14.0156 0.196508Z" fill="white"/>
</svg>
