<svg width="56" height="56" viewBox="0 0 56 56" fill="none" xmlns="http://www.w3.org/2000/svg">
<rect width="56" height="56" rx="28" transform="matrix(-1 0 0 1 56 0)" fill="#1F67DE"/>
<path d="M18.4206 32.9042C18.6449 32.6653 19.4368 31.9589 20.8926 31.0243C22.3591 30.0816 23.4406 29.4937 23.7509 29.3567C23.7782 29.3445 23.8083 29.3401 23.838 29.3438C23.8677 29.3475 23.8958 29.3592 23.9193 29.3777C24.419 29.7675 25.2603 30.4833 25.3055 30.522C25.5968 30.7716 25.5968 30.7716 25.8353 30.6939C26.2546 30.5564 27.5575 29.8646 28.6927 28.7268C29.8279 27.5889 30.5554 26.2539 30.6929 25.835C30.7715 25.596 30.7715 25.5961 30.521 25.3047C30.4823 25.2596 29.766 24.4183 29.3763 23.919C29.3578 23.8955 29.3461 23.8674 29.3424 23.8377C29.3387 23.808 29.3431 23.7779 29.3553 23.7505C29.4923 23.4399 30.0801 22.3588 31.0229 20.8923C31.9587 19.4369 32.6643 18.645 32.9032 18.4207C32.9251 18.4 32.9522 18.3856 32.9816 18.379C33.0111 18.3725 33.0417 18.3739 33.0703 18.3833C33.9054 18.6703 34.7112 19.0365 35.4766 19.4769C36.2155 19.9064 36.915 20.4003 37.567 20.9528C37.5898 20.9722 37.6068 20.9974 37.6164 21.0257C37.6259 21.054 37.6276 21.0844 37.6212 21.1136C37.5314 21.5321 37.1021 23.2792 35.7701 25.6992C34.411 28.169 33.4691 29.4344 31.4732 31.4235C29.4773 33.4125 28.1719 34.4111 25.6995 35.7702C23.2795 37.1022 21.5315 37.5319 21.1139 37.6209C21.0846 37.6272 21.0542 37.6255 21.0258 37.616C20.9975 37.6065 20.9722 37.5894 20.9527 37.5667C20.4003 36.9147 19.9065 36.2152 19.4772 35.4763C19.0369 34.7108 18.6707 33.9051 18.3836 33.07C18.3744 33.0416 18.373 33.0112 18.3795 32.9821C18.386 32.9529 18.4002 32.926 18.4206 32.9042Z" fill="white"/>
</svg>
