<svg width="56" height="56" viewBox="0 0 56 56" fill="none" xmlns="http://www.w3.org/2000/svg">
<g id="SNS/kakaotalk/Default">
<circle id="Ellipse 20" cx="28" cy="28" r="28" fill="#FEE500"/>
<g id="Group 316">
<path id="Vector" d="M28.084 17C21.6547 17 16.4697 21.1479 16.4697 26.1836C16.4697 29.4522 18.6267 32.3142 21.8621 33.9485L20.767 38.0385C20.7464 38.0998 20.7432 38.1656 20.7579 38.2286C20.7725 38.2916 20.8044 38.3492 20.85 38.3951C20.9164 38.4538 21.002 38.4862 21.0906 38.4864C21.164 38.4805 21.2337 38.4515 21.2897 38.4035L26.0018 35.2261C26.6973 35.3222 27.3985 35.372 28.1006 35.3754C34.5217 35.3754 39.7149 31.2275 39.7149 26.1836C39.7149 21.1396 34.5051 17 28.084 17Z" fill="#392020"/>
<path id="Vector_2" d="M20.5346 24.7318H19.2653C19.108 24.7363 18.9526 24.696 18.8173 24.6156C18.7573 24.578 18.7056 24.5283 18.6657 24.4698C18.6257 24.4112 18.5982 24.3451 18.5851 24.2754C18.581 24.2313 18.581 24.1869 18.5851 24.1428C18.5811 24.0602 18.5971 23.9778 18.6318 23.9027C18.6665 23.8276 18.7187 23.762 18.7842 23.7114C18.9288 23.6066 19.1034 23.5513 19.2819 23.5537H23.1063C23.2649 23.5481 23.4213 23.5916 23.5543 23.6782C23.6158 23.7141 23.6685 23.7633 23.7087 23.8222C23.7489 23.881 23.7755 23.948 23.7866 24.0183C23.7907 24.0597 23.7907 24.1014 23.7866 24.1428C23.7905 24.2266 23.7745 24.3101 23.7399 24.3865C23.7053 24.463 23.6531 24.53 23.5875 24.5824C23.4464 24.687 23.2735 24.7398 23.098 24.7318H21.8702V29.0954C21.8752 29.1884 21.8608 29.2813 21.828 29.3684C21.7951 29.4556 21.7446 29.5349 21.6794 29.6015C21.617 29.6651 21.5419 29.7149 21.459 29.7478C21.3762 29.7807 21.2873 29.7958 21.1983 29.7923C21.0425 29.7967 20.89 29.7469 20.7669 29.6513C20.6497 29.5579 20.5702 29.4253 20.5429 29.2779C20.5347 29.2174 20.5347 29.156 20.5429 29.0954L20.5346 24.7318Z" fill="#FEE500"/>
<path id="Vector_3" d="M24.1527 23.8772C24.1892 23.7407 24.2749 23.6225 24.3933 23.5454C24.5194 23.4739 24.6632 23.4394 24.8081 23.4458H25.1233C25.277 23.4403 25.4293 23.4777 25.563 23.5537C25.7047 23.649 25.8054 23.7941 25.845 23.9602L27.5042 28.6474C27.5472 28.7697 27.5833 28.8944 27.6121 29.0208C27.6149 29.0733 27.6149 29.1259 27.6121 29.1784C27.6149 29.2592 27.6 29.3397 27.5685 29.4142C27.537 29.4887 27.4895 29.5555 27.4296 29.6098C27.3714 29.6693 27.3017 29.7163 27.2246 29.7477C27.1475 29.7791 27.0648 29.7942 26.9816 29.7922C26.8536 29.805 26.7251 29.7743 26.6168 29.7051C26.5084 29.6358 26.4265 29.5321 26.3843 29.4107L26.0358 28.3903H23.854L23.5056 29.4107C23.4644 29.5345 23.3815 29.6402 23.2711 29.7098C23.1606 29.7794 23.0295 29.8085 22.9 29.7922C22.7597 29.7959 22.6223 29.752 22.5101 29.6678C22.4007 29.5808 22.327 29.457 22.3027 29.3194C22.2983 29.2725 22.2983 29.2253 22.3027 29.1784C22.2884 29.096 22.2884 29.0119 22.3027 28.9295C22.3027 28.8383 22.3607 28.7387 22.3939 28.6474L24.1527 23.8772ZM24.9823 24.9641L24.1941 27.4528H25.7621L24.9823 24.9641Z" fill="#FEE500"/>
<path id="Vector_4" d="M27.802 24.1429C27.7936 23.9568 27.8592 23.7748 27.9845 23.6369C28.0482 23.5726 28.1247 23.5224 28.209 23.4895C28.2933 23.4567 28.3836 23.4418 28.474 23.446C28.6294 23.4442 28.781 23.4938 28.9053 23.5871C29.0206 23.6844 29.0971 23.8197 29.121 23.9687C29.1292 24.0264 29.1292 24.0852 29.121 24.1429V28.5066H31.4024C31.5606 28.5045 31.716 28.5476 31.8504 28.631C31.9108 28.6682 31.9627 28.7178 32.0027 28.7764C32.0427 28.835 32.07 28.9013 32.0827 28.9711C32.0827 28.9711 32.0827 29.0541 32.0827 29.0956C32.0866 29.1782 32.0706 29.2605 32.0359 29.3356C32.0013 29.4107 31.949 29.4764 31.8836 29.527C31.739 29.6317 31.5644 29.687 31.3858 29.6846H28.5818C28.4032 29.6961 28.2257 29.6496 28.0758 29.5519C27.9416 29.4516 27.8523 29.3026 27.8269 29.1371C27.8208 29.046 27.8208 28.9544 27.8269 28.8633L27.802 24.1429Z" fill="#FEE500"/>
<path id="Vector_5" d="M32.2322 24.1428C32.2272 23.9572 32.2924 23.7765 32.4147 23.6368C32.539 23.5238 32.6985 23.4571 32.8663 23.448C33.034 23.439 33.1998 23.488 33.3356 23.587C33.4533 23.6834 33.5327 23.8187 33.5595 23.9686C33.5636 24.0265 33.5636 24.0848 33.5595 24.1428V26.1753L35.6584 23.7528C35.7393 23.6702 35.8252 23.5927 35.9156 23.5206C36.0008 23.4699 36.0985 23.444 36.1976 23.4459C36.3426 23.4451 36.4844 23.4885 36.6041 23.5704C36.6606 23.6083 36.7087 23.6574 36.7458 23.7144C36.7828 23.7714 36.808 23.8353 36.8198 23.9022C36.8232 23.9186 36.8232 23.9356 36.8198 23.952C36.8158 23.9712 36.8158 23.9909 36.8198 24.0101C36.8196 24.0974 36.7967 24.1831 36.7535 24.259C36.7095 24.3393 36.6566 24.4143 36.5959 24.4829L35.2187 25.9928L36.8779 28.5645V28.6475C36.9641 28.7664 37.0312 28.898 37.077 29.0375V29.0789C37.0866 29.175 37.0728 29.272 37.0366 29.3616C37.0005 29.4512 36.9432 29.5306 36.8696 29.5932C36.7312 29.6978 36.5619 29.7533 36.3885 29.7509C36.2732 29.7556 36.1587 29.7298 36.0566 29.6762C35.9461 29.6021 35.8551 29.5025 35.7911 29.3858L34.2481 26.897L33.5098 27.6686V29.054C33.5147 29.2396 33.4496 29.4203 33.3273 29.56C33.2617 29.6241 33.1837 29.6741 33.0981 29.7069C33.0125 29.7398 32.9211 29.7547 32.8295 29.7509C32.6764 29.7541 32.5269 29.7042 32.4064 29.6098C32.2892 29.5164 32.2097 29.3839 32.1824 29.2366C32.1742 29.176 32.1742 29.1145 32.1824 29.054L32.2322 24.1428Z" fill="#FEE500"/>
</g>
</g>
</svg>
