<svg width="56" height="56" viewBox="0 0 56 56" fill="none" xmlns="http://www.w3.org/2000/svg">
<rect x="-0.5" y="0.5" width="55" height="55" rx="27.5" transform="matrix(-1 0 0 1 55 0)" fill="white"/>
<rect x="-0.5" y="0.5" width="55" height="55" rx="27.5" transform="matrix(-1 0 0 1 55 0)" stroke="#C5C5C5"/>
<g clip-path="url(#clip0_25_20)">
<g clip-path="url(#clip1_25_20)">
<path d="M33.4498 27.13L28.8328 22.512V35.5C28.8328 35.7209 28.745 35.9328 28.5888 36.089C28.4326 36.2452 28.2207 36.333 27.9998 36.333C27.7789 36.333 27.567 36.2452 27.4108 36.089C27.2546 35.9328 27.1668 35.7209 27.1668 35.5V22.512L22.5498 27.129C22.3936 27.2853 22.1817 27.3732 21.9606 27.3733C21.7396 27.3734 21.5276 27.2857 21.3713 27.1295C21.2149 26.9732 21.1271 26.7613 21.127 26.5403C21.1269 26.3193 21.2146 26.1073 21.3708 25.951L27.4108 19.911C27.567 19.7547 27.7789 19.667 27.9998 19.667C28.2207 19.667 28.4326 19.7547 28.5888 19.911L34.6298 25.95C34.7075 26.0271 34.7692 26.1189 34.8112 26.22C34.8533 26.321 34.875 26.4295 34.875 26.539C34.875 26.6485 34.8533 26.7569 34.8112 26.858C34.7692 26.959 34.7075 27.0508 34.6298 27.128C34.4736 27.2842 34.2617 27.3719 34.0408 27.3719C33.8199 27.3719 33.608 27.2842 33.4518 27.128L33.4498 27.13Z" fill="#9C9C9C"/>
</g>
</g>
<defs>
<clipPath id="clip0_25_20">
<rect width="20" height="20" fill="white" transform="matrix(-1 0 0 1 38 18)"/>
</clipPath>
<clipPath id="clip1_25_20">
<rect width="20" height="20" fill="white" transform="matrix(-1 0 0 1 38 18)"/>
</clipPath>
</defs>
</svg>
