<svg width="201" height="41" viewBox="0 0 201 41" fill="none" xmlns="http://www.w3.org/2000/svg">
<g clip-path="url(#clip0_3271_694)">
<path d="M61.0843 39.833C60.0828 39.8111 59.0886 39.8111 58.0871 39.8111C57.0856 39.8111 56.0031 39.8111 54.9648 39.833V39.5267C55.5539 39.5632 56.0399 39.41 56.0399 38.7464V32.8247C56.0399 32.0079 55.5907 31.9933 54.9648 31.986V31.6797C55.5171 31.6943 56.062 31.7016 56.5922 31.7016C57.1224 31.7016 57.6747 31.687 58.2639 31.6797V31.986C57.6379 32.0006 57.1887 32.0079 57.1887 32.8247V38.2286C57.1887 39.0891 57.3802 39.4538 59.0518 39.4538C60.4215 39.4538 60.8928 39.1256 61.2536 37.9952L61.5114 38.039L61.0769 39.8257L61.0843 39.833Z" fill="white"/>
<path d="M73.1686 37.514C73.3306 37.9661 73.6546 38.9652 73.8387 39.2205C74.0154 39.4538 74.3689 39.5341 74.7445 39.5341V39.8404C74.2952 39.8404 73.8387 39.8185 73.3895 39.8185C72.8151 39.8185 72.2481 39.8331 71.6663 39.8404V39.5341H71.8799C72.1744 39.5341 72.5279 39.4757 72.5279 39.1475C72.5279 39.0163 72.4322 38.6954 72.3512 38.4693L71.762 36.7774H68.9932L68.7354 37.5942C68.5808 38.0828 68.4188 38.6225 68.4188 38.9798C68.4188 39.5268 68.8091 39.5049 69.2215 39.5268H69.4939V39.8331C69.0374 39.8331 68.5661 39.8112 68.1021 39.8112C67.6382 39.8112 67.1448 39.8258 66.6735 39.8331V39.5268C67.3952 39.4465 67.5204 39.3517 67.8149 38.6954C68.0064 38.2724 68.1463 37.8203 68.301 37.39L69.8106 33.2258C69.9063 32.956 70.061 32.5257 70.061 32.1756C70.061 32.059 70.061 31.9642 70.0389 31.8693C70.2892 31.7527 70.5617 31.6214 70.7237 31.3516H70.9225L73.1759 37.5067L73.1686 37.514ZM69.1552 36.2961H71.5853L70.3261 32.8612H70.304L69.1625 36.2961H69.1552Z" fill="white"/>
<path d="M84.2882 35.9387L82.889 32.7153C82.6166 32.0954 82.5135 31.9933 81.7697 31.9933V31.687C82.322 31.7016 82.8669 31.7089 83.4045 31.7089C83.8022 31.7089 84.244 31.687 84.6343 31.687V31.9933C84.4207 31.9933 83.9863 32.0079 83.9863 32.285C83.9863 32.3798 84.0673 32.6132 84.1188 32.7299L84.8847 34.677L85.6284 33.0799C85.7683 32.7736 85.842 32.5549 85.842 32.3652C85.842 31.9933 85.5621 31.9933 85.054 31.9933V31.687C85.4885 31.7016 85.9745 31.7089 86.409 31.7089C86.7257 31.7089 87.1012 31.687 87.4326 31.687V31.9933C86.8214 31.9933 86.5857 32.285 86.3575 32.7372L85.1571 35.2386L86.571 38.4693L88.5372 33.1383C88.736 32.6132 88.7508 32.46 88.7508 32.3798C88.7508 32.1683 88.6329 32.0079 87.8671 31.9933V31.687C88.3015 31.7016 88.7508 31.7089 89.1852 31.7089C89.4798 31.7089 89.8185 31.687 90.1278 31.687V31.9933C89.5755 31.9933 89.443 32.3215 89.2589 32.7955L86.4385 40.0081H86.1292L84.5386 36.4857L82.8743 40.0081H82.5429L79.6194 32.9122C79.3469 32.2704 79.207 31.9933 78.3823 31.9933V31.687C78.8977 31.7016 79.4795 31.7089 79.995 31.7089C80.4442 31.7089 80.9376 31.687 81.3868 31.687V31.9933C80.8418 31.9933 80.6577 32.0954 80.6577 32.2631C80.6577 32.3798 80.6577 32.4746 80.7903 32.8028L83.1026 38.4766L84.2955 35.946L84.2882 35.9387Z" fill="white"/>
<path d="M97.5065 38.6954C97.5065 39.5122 97.9557 39.5267 98.5817 39.534V39.8403C97.9926 39.8258 97.4476 39.8185 96.9101 39.8185C96.3725 39.8185 95.8349 39.833 95.2384 39.8403V39.534C96.262 39.534 96.3578 39.3444 96.3578 38.214V33.0289C96.3578 32.0735 96.1663 32.0225 95.2384 31.9933V31.687C96.0779 31.687 96.9322 31.7089 97.7937 31.7089C98.8689 31.7089 99.9514 31.7089 100.997 31.687L101.071 33.3352L100.798 33.3789C100.68 32.3871 100.187 32.0589 98.8983 32.0589H97.5065V35.3772H98.8983C99.863 35.3772 99.944 35.2386 100.099 34.4072H100.371C100.349 34.626 100.327 35.2605 100.327 35.6835C100.327 36.0554 100.349 36.6023 100.371 36.9232H100.135C99.9956 36.121 99.9808 35.8585 98.9425 35.8585H97.5065V38.6954Z" fill="white"/>
<path d="M107.507 32.832C107.507 32.0152 107.058 32.0006 106.432 31.9933V31.687C106.984 31.7016 107.529 31.7089 108.059 31.7089C108.589 31.7089 109.142 31.6943 109.731 31.687V31.9933C109.105 32.0079 108.656 32.0152 108.656 32.832V38.6954C108.656 39.5122 109.105 39.5267 109.731 39.534V39.8403C109.164 39.8403 108.656 39.8185 108.14 39.8185C107.573 39.8185 107.021 39.833 106.432 39.8403V39.534C107.058 39.5195 107.507 39.5122 107.507 38.6954V32.832Z" fill="white"/>
<path d="M117.404 35.9824V38.688C117.404 39.5048 117.853 39.5194 118.479 39.5267V39.833C117.912 39.833 117.404 39.8111 116.889 39.8111C116.321 39.8111 115.769 39.8257 115.18 39.833V39.5267C115.769 39.5632 116.255 39.41 116.255 38.7464V32.8247C116.255 32.0079 115.806 31.9933 115.18 31.986V31.6797C115.828 31.6943 116.395 31.7016 116.97 31.7016C117.382 31.7016 117.794 31.6797 118.553 31.6797C120.784 31.6797 121.277 32.9195 121.277 33.7435C121.277 34.7354 120.526 35.4719 119.606 35.7418C120.681 37.2951 121.241 38.2286 121.749 38.7901C122.124 39.2131 122.478 39.5267 123.082 39.5267V39.833C122.787 39.833 122.493 39.8111 122.198 39.8111C121.867 39.8111 121.528 39.8257 121.196 39.833C120.121 38.6662 119.333 37.3024 118.487 35.9824H117.411H117.404ZM118.111 32.0589C117.816 32.0589 117.618 32.0954 117.404 32.1318V35.5522C117.581 35.5886 117.831 35.6105 118.03 35.6105C119.481 35.6105 120.048 34.6624 120.048 33.8238C120.048 32.8101 119.503 32.0589 118.118 32.0589H118.111Z" fill="white"/>
<path d="M133.914 38.2358C134.975 36.0553 136.116 33.9039 137.095 31.6869C137.412 31.7015 137.743 31.7088 138.06 31.7088C138.399 31.7088 138.752 31.6869 139.098 31.6869V31.9932C138.701 31.9932 138.428 32.0151 138.274 32.1318C138.119 32.2485 138.053 32.4454 138.053 32.8319C138.053 34.677 138.156 36.6387 138.207 38.3963C138.229 39.2714 138.31 39.5267 139.496 39.5267V39.833C138.848 39.833 138.2 39.8111 137.552 39.8111C136.977 39.8111 136.41 39.8257 135.829 39.833V39.5267C136.241 39.5267 136.536 39.5267 136.734 39.4246C136.948 39.3079 137.044 39.0891 137.044 38.6296L136.963 33.058H136.941L134.157 38.7755C134.025 39.0526 133.789 39.6288 133.701 39.9278H133.465C132.463 37.6962 131.329 35.5156 130.21 33.3059H130.188L130.092 37.5284C130.092 37.6816 130.077 38.1046 130.077 38.265C130.077 38.8338 130.136 39.1547 130.328 39.3152C130.519 39.4756 130.814 39.5121 131.285 39.5121V39.8184C130.799 39.8184 130.306 39.7965 129.827 39.7965C129.312 39.7965 128.781 39.8111 128.259 39.8184V39.5121C129.098 39.5121 129.614 39.3152 129.658 37.7472C129.702 36.1501 129.79 34.5603 129.79 32.9632C129.79 32.5548 129.731 32.2995 129.569 32.1609C129.407 32.0224 129.142 31.9713 128.759 31.9713V31.665C129.172 31.6796 129.599 31.6869 130.011 31.6869C130.262 31.6869 130.519 31.665 130.762 31.665L133.936 38.214L133.914 38.2358Z" fill="white"/>
<path d="M159.754 35.3772V32.832C159.754 32.0152 159.305 32.0006 158.679 31.9933V31.687C159.305 31.7016 159.857 31.7089 160.424 31.7089C160.933 31.7089 161.448 31.687 161.978 31.687V31.9933C161.352 32.0079 160.903 32.0152 160.903 32.832V38.6954C160.903 39.5122 161.352 39.5267 161.978 39.534V39.8403C161.448 39.8258 160.918 39.8185 160.388 39.8185C159.857 39.8185 159.29 39.833 158.679 39.8403V39.534C159.305 39.5195 159.754 39.5122 159.754 38.6954V35.8585H154.99V38.6954C154.99 39.5122 155.439 39.5267 156.065 39.534V39.8403C155.498 39.8403 154.99 39.8185 154.474 39.8185C153.907 39.8185 153.355 39.833 152.766 39.8403V39.534C153.392 39.5195 153.841 39.5122 153.841 38.6954V32.832C153.841 32.0152 153.392 32.0006 152.766 31.9933V31.687C153.318 31.7016 153.863 31.7089 154.393 31.7089C154.924 31.7089 155.476 31.6943 156.065 31.687V31.9933C155.439 32.0079 154.99 32.0152 154.99 32.832V35.3772H159.754Z" fill="white"/>
<path d="M169.652 35.3771H171.205C172.163 35.3771 172.163 34.6406 172.192 34.3707H172.428C172.406 34.626 172.384 35.2604 172.384 35.6761C172.384 36.0481 172.442 36.595 172.428 36.9742H172.192C172.192 35.8512 171.817 35.8512 170.911 35.8512H169.652V37.8348C169.652 39.1329 169.696 39.4611 170.867 39.4611H171.596C172.752 39.4027 173.267 39.2496 173.731 38.0025L174.011 38.0463C173.82 38.6297 173.643 39.2277 173.525 39.833C172.347 39.833 171.168 39.8111 169.99 39.8111C169.121 39.8111 168.245 39.8111 167.376 39.833V39.5267C168.4 39.5267 168.495 39.3371 168.495 38.2067V33.0216C168.495 32.0662 168.304 32.0152 167.376 31.986V31.6797C168.164 31.7016 168.967 31.7016 169.755 31.7016C170.889 31.7016 172.008 31.7016 173.149 31.6797V33.4227L172.914 33.481C172.737 32.3871 172.207 32.0589 171.029 32.0589H169.652V35.3771Z" fill="white"/>
<path d="M181.559 35.9824V38.688C181.559 39.5048 182.008 39.5194 182.634 39.5267V39.833C182.067 39.833 181.559 39.8111 181.044 39.8111C180.477 39.8111 179.924 39.8257 179.335 39.833V39.5267C179.924 39.5632 180.41 39.41 180.41 38.7464V32.8247C180.41 32.0079 179.961 31.9933 179.335 31.986V31.6797C179.983 31.6943 180.55 31.7016 181.125 31.7016C181.537 31.7016 181.949 31.6797 182.708 31.6797C184.939 31.6797 185.433 32.9195 185.433 33.7435C185.433 34.7354 184.681 35.4719 183.761 35.7418C184.836 37.2951 185.396 38.2286 185.904 38.7901C186.279 39.2131 186.633 39.5267 187.237 39.5267V39.833C186.942 39.833 186.648 39.8111 186.353 39.8111C186.022 39.8111 185.683 39.8257 185.352 39.833C184.276 38.6662 183.488 37.3024 182.642 35.9824H181.566H181.559ZM182.266 32.0589C181.971 32.0589 181.773 32.0954 181.559 32.1318V35.5522C181.736 35.5886 181.986 35.6105 182.185 35.6105C183.636 35.6105 184.203 34.6624 184.203 33.8238C184.203 32.8101 183.658 32.0589 182.273 32.0589H182.266Z" fill="white"/>
<path d="M196.523 31.512C198.879 31.512 200.727 33.4956 200.727 35.7126C200.727 37.9296 199.063 40.0081 196.486 40.0081C194.129 40.0081 192.281 38.0244 192.281 35.8074C192.281 33.5904 193.945 31.512 196.523 31.512ZM196.633 39.6361C198.356 39.6361 199.439 38.163 199.439 36.0554C199.439 34.2832 198.4 31.8912 196.383 31.8912C194.66 31.8912 193.577 33.3643 193.577 35.4719C193.577 37.2441 194.615 39.6361 196.633 39.6361Z" fill="white"/>
<path d="M40.8038 0.605193V1.58972H39.4194C38.5357 1.58972 37.8214 2.29712 37.8214 3.17225C37.8214 3.17225 37.8656 16.3065 37.8214 20.6895C37.7846 24.2994 37.6815 27.6687 32.5341 34.1447V3.17225C32.5341 2.29712 31.8198 1.58972 30.9361 1.58972C30.0524 1.58972 29.3381 2.29712 29.3381 3.17225V37.4629C27.8506 38.7537 26.1127 39.9497 24.0581 40.9999V20.777C24.0581 19.9019 23.3438 19.1945 22.4602 19.1945H18.3511C17.4674 19.1945 16.7531 19.9019 16.7531 20.777V41.0072C14.6985 39.957 12.9459 38.7464 11.4657 37.4629V3.17225C11.4657 2.29712 10.7514 1.58972 9.86774 1.58972C8.98406 1.58972 8.26976 2.29712 8.26976 3.17225V34.1301C3.12969 27.6541 3.0266 24.2921 2.98978 20.6895C2.94559 16.3138 2.98978 3.17225 2.98978 3.17225C2.98978 2.29712 2.27547 1.58972 1.39179 1.58972H0V0.5979H19.7428V1.58972H18.3584C17.4747 1.58972 16.7604 2.29712 16.7604 3.17225V15.3001C16.7604 16.1753 17.4747 16.8827 18.3584 16.8827H22.4675C23.3512 16.8827 24.0655 16.1753 24.0655 15.3001V3.17225C24.0655 2.29712 23.3512 1.58972 22.4675 1.58972H21.0684V0.605193H40.8112H40.8038Z" fill="white"/>
<path d="M54.2358 10.6256V0.991818H57.0635V3.77037H61.585V0.948061H64.4128V10.6256H54.2284H54.2358ZM61.585 5.94361H57.0635V8.38669H61.585V5.94361ZM57.1814 21.1636V12.704H60.0607V14.7606H68.6029V12.6821H71.4307V21.1636H57.1814ZM68.5955 16.9557H60.0533V18.9248H68.5955V16.9557ZM68.5734 11.5809V7.01565H65.4879V4.63821H68.5734V0H71.4012V11.5809H68.5734Z" fill="white"/>
<path d="M76.3572 21.3022V16.2337H88.1175V15.0158H76.313V13.0249H78.6842V11.8288H73.8902V9.72853H93.4342V11.8288H88.574V13.0249H90.9452V18.0933H79.207V19.2894H91.6301V21.3022H76.3572ZM76.4676 8.52522V3.5953H87.9554V2.39928H76.4234V0.386475H90.8053V5.36015H79.2954V6.51241H91.3944V8.52522H76.4603H76.4676ZM81.5193 13.0249H85.7242V11.8288H81.5193V13.0249Z" fill="white"/>
<path d="M105.6 16.3212C103.817 15.1909 101.328 12.6603 100.599 10.3266C99.8925 12.7478 97.698 15.4388 95.4593 16.7515C94.8923 16.0514 94.3179 15.3732 93.7214 14.6949C97.2414 12.4561 99.0898 9.02117 99.0898 4.7476V1.80861H102.013V4.58716C102.013 8.83885 104.002 12.1644 107.264 14.2209C106.689 14.921 106.167 15.6211 105.6 16.3212ZM111.152 8.25543H114.282V10.5599H111.152V21.4335H108.346V0H111.152V8.25543Z" fill="white"/>
<path d="M122.927 21.4554V14.3304H114.613V12.0915H134.157V14.3304H125.755V21.4554H122.927ZM131.698 9.51712H117.109V0.860596H131.698V9.52442V9.51712ZM128.862 3.0776H119.959V7.28553H128.862V3.0776Z" fill="white"/>
<path d="M134.982 18.7642V16.5472H143.274V11.4569H146.131V16.5472H154.533V18.7642H134.989H134.982ZM152.626 11.7121C149.68 11.0557 145.984 8.81686 144.747 5.98727C143.627 8.8825 139.835 11.0776 136.867 11.7121L135.564 9.42946C139.106 8.93355 143.281 6.24251 143.281 2.4211V1.1084H146.249V2.4211C146.249 6.19876 150.682 8.97731 153.966 9.52426L152.619 11.7194L152.626 11.7121Z" fill="white"/>
<path d="M166.78 11.2819C163.672 11.2819 161.161 9.38581 161.161 6.35201C161.161 3.31821 163.628 1.21789 166.78 1.21789C169.931 1.21789 172.376 3.36926 172.376 6.35201C172.376 9.33476 169.931 11.2819 166.78 11.2819ZM166.78 3.55158C165.042 3.55158 163.922 4.82053 163.922 6.33013C163.922 7.9783 165.064 9.15973 166.78 9.15973C168.495 9.15973 169.637 7.94184 169.637 6.33013C169.637 4.71843 168.562 3.55158 166.78 3.55158ZM171.574 21.4116C166.89 21.4116 164.173 19.7416 164.173 17.138C164.173 14.5345 166.89 12.7988 171.574 12.7988C176.257 12.7988 179.018 14.4689 179.018 17.138C179.018 19.8072 176.279 21.4116 171.574 21.4116ZM171.574 15.0596C168.768 15.0596 167.074 15.8253 167.074 17.138C167.074 18.4507 168.76 19.1508 171.574 19.1508C174.387 19.1508 176.095 18.407 176.095 17.138C176.095 15.8691 174.453 15.0596 171.574 15.0596ZM173.039 9.94735L173.127 7.5699H176.139V4.87887H173.127L173.039 2.50142H176.147V0H179.004V12.8426H176.147V9.94735H173.039Z" fill="white"/>
<path d="M192.598 12.0987V13.5208C196.523 13.7907 198.761 15.2638 198.761 17.4516C198.761 19.8947 196 21.4335 191.25 21.4335C186.5 21.4335 183.695 19.8947 183.695 17.4516C183.695 15.2784 185.889 13.8125 189.77 13.5208V12.0987H181.456V9.83797H201V12.0987H192.598ZM191.228 8.81698C186.39 8.81698 183.673 7.05213 183.673 4.68197C183.673 2.31182 186.39 0.568848 191.228 0.568848C196.066 0.568848 198.783 2.31182 198.783 4.68197C198.783 7.05213 196.066 8.81698 191.228 8.81698ZM191.228 2.7348C188.282 2.7348 186.596 3.50054 186.596 4.68197C186.596 5.8634 188.282 6.6729 191.228 6.6729C194.174 6.6729 195.86 5.85611 195.86 4.68197C195.86 3.50784 194.174 2.7348 191.228 2.7348ZM191.206 15.7159C188.422 15.7159 186.618 16.3723 186.618 17.4808C186.618 18.5893 188.422 19.2019 191.206 19.2019C193.989 19.2019 195.838 18.5674 195.838 17.4808C195.838 16.3942 194.034 15.7159 191.206 15.7159Z" fill="white"/>
</g>
<defs>
<clipPath id="clip0_3271_694">
<rect width="201" height="41" fill="white"/>
</clipPath>
</defs>
</svg>
