<svg width="32" height="50" viewBox="0 0 32 50" fill="none" xmlns="http://www.w3.org/2000/svg">
<path fill-rule="evenodd" clip-rule="evenodd" d="M27.6029 6.0898C28.826 6.41562 29.7884 7.38306 30.1142 8.61617C30.7057 10.8468 30.7007 15.4985 30.7007 15.4985C30.7007 15.4985 30.7007 20.1503 30.1092 22.3809C29.7834 23.609 28.821 24.5764 27.5979 24.9073C25.3823 25.5038 16.4949 25.5038 16.4949 25.5038C16.4949 25.5038 7.60748 25.5038 5.39189 24.9073C4.1688 24.5814 3.20638 23.614 2.88055 22.3809C2.28906 20.1503 2.28906 15.4985 2.28906 15.4985C2.28906 15.4985 2.28906 10.8468 2.88557 8.61116C3.21139 7.38306 4.17382 6.41562 5.3969 6.08479C7.61249 5.48828 16.4999 5.48828 16.4999 5.48828C16.4999 5.48828 25.3823 5.48828 27.6029 6.0898ZM13.5926 11.2729V19.7242L21.0213 15.4986L13.5926 11.2729Z" fill="white"/>
<path d="M31.7554 46.6887V47.5236H21.4219V46.6887H31.7554ZM22.6429 44.4262V38.5547H23.6394V40.6645H29.502V38.5547H30.4896V44.4262H22.6429ZM23.6394 43.6272H29.502V41.4635H23.6394V43.6272Z" fill="white"/>
<path d="M21.1539 44.5619V45.3968H18.4426V49.0329H17.446V45.3968H14.5282V49.0329H13.5316V45.3968H10.8203V44.5619H21.1539ZM12.2119 43.3858V38.2773H19.8611V39.0943H13.1995V40.3782H19.5917V41.1772H13.1995V42.5688H19.9867V43.3858H12.2119Z" fill="white"/>
<path d="M10.5679 44.1746V45.0006H7.84764V49.0316H6.84211V45.0006H3.94225V49.0316H2.91877V45.0006H0.234375V44.1746H10.5679ZM1.41048 40.6642C1.41048 39.1559 3.00855 38.2043 5.37871 38.1953C7.74888 38.2043 9.35592 39.1559 9.35592 40.6642C9.35592 42.1635 7.74888 43.1062 5.37871 43.0972C3.00855 43.1062 1.41048 42.1635 1.41048 40.6642ZM2.43396 40.6642C2.42498 41.6608 3.61904 42.2982 5.37871 42.2982C7.13838 42.2982 8.33244 41.6608 8.33244 40.6642C8.33244 39.6587 7.13838 39.0123 5.37871 39.0123C3.61904 39.0123 2.42498 39.6587 2.43396 40.6642Z" fill="white"/>
</svg>
