<svg width="20" height="17" viewBox="0 0 20 17" fill="none" xmlns="http://www.w3.org/2000/svg">
<path id="Vector" d="M12.1535 0.665479L19.8133 8.06429C19.9329 8.1799 20 8.33661 20 8.5C20 8.66339 19.9329 8.8201 19.8133 8.93571L12.1535 16.3345C12.0325 16.4434 11.8725 16.5027 11.7071 16.4999C11.5418 16.4971 11.384 16.4324 11.267 16.3194C11.1501 16.2064 11.0831 16.054 11.0802 15.8943C11.0772 15.7346 11.1386 15.58 11.2514 15.4631L17.8207 9.11657L0.638315 9.11657C0.469024 9.11657 0.306665 9.05161 0.186958 8.93598C0.0672505 8.82035 -3.42543e-07 8.66352 -3.49691e-07 8.5C-3.56839e-07 8.33648 0.0672505 8.17965 0.186958 8.06402C0.306665 7.94839 0.469024 7.88343 0.638315 7.88343L17.8207 7.88343L11.2514 1.5369C11.1386 1.42001 11.0772 1.26542 11.0802 1.10569C11.0831 0.945958 11.1501 0.793554 11.267 0.680588C11.384 0.567623 11.5418 0.502914 11.7071 0.500096C11.8725 0.497278 12.0325 0.556569 12.1535 0.665479Z" fill="#074CE7"/>
</svg>
