<svg width="60" height="38" viewBox="0 0 60 38" fill="none" xmlns="http://www.w3.org/2000/svg">
<g id="Layer_1" clip-path="url(#clip0_8043_1994)">
<g id="Group">
<path id="Vector" d="M29.1006 3.6261V13.2972L27.3007 12.8053V3.6261H22.5903V15.9128L30.8995 14.0993V5.43962L32.6993 5.92757V14.0993V14.6011L37.4097 15.9128V3.6261H29.1006Z" fill="white"/>
<path id="Vector_2" d="M37.4097 0H22.5903V1.81352H37.4097V0Z" fill="white"/>
</g>
<g id="Group_2">
<path id="Vector_3" d="M16.5064 36.8492C16.1751 36.6171 15.781 36.1035 15.6467 35.6047C15.5408 36.1134 15.1663 36.6566 14.7291 36.9678L14.4458 36.6418C14.9742 36.2961 15.4261 35.5454 15.4261 34.6219V33.8366H15.8633V34.6169C15.8633 35.501 16.276 36.1973 16.7809 36.5233L16.5074 36.8492H16.5064ZM17.0162 37.7679V35.4121H16.3104V35.0318H17.0162V33.5057H17.4485V37.7679H17.0162ZM17.8945 37.995V33.402H18.3318V37.995H17.8945Z" fill="white"/>
<path id="Vector_4" d="M20.6137 38V36.4542H18.8315V36.0739H22.8665V36.4542H21.0657V38H20.6137ZM19.3266 35.5207V33.6588H22.3665V35.5207H19.3266ZM21.9146 34.0332H19.7775V35.1444H21.9146V34.0332Z" fill="white"/>
<path id="Vector_5" d="M23.2891 35.7874V33.6637H23.741V34.3403H24.9134V33.6588H25.3654V35.7874H23.29H23.2891ZM24.9125 34.7157H23.74V35.4071H24.9125V34.7157ZM23.8939 37.9358V36.1381H24.3498V36.6616H26.3192V36.1232H26.7751V37.9358H23.8929H23.8939ZM26.3202 37.027H24.3507V37.5604H26.3202V37.027ZM25.5948 34.8441V34.4539H26.3202V33.402H26.7721V35.901H26.3202V34.8441H25.5948Z" fill="white"/>
<path id="Vector_6" d="M29.87 34.854C29.87 35.5158 29.3661 35.9751 28.6789 35.9751C27.9917 35.9751 27.4878 35.5158 27.4878 34.8589C27.4878 34.2021 27.9917 33.7131 28.6789 33.7131C29.3661 33.7131 29.87 34.1971 29.87 34.854ZM27.9632 34.849C27.9632 35.2738 28.2564 35.5849 28.6789 35.5849C29.1014 35.5849 29.3945 35.2787 29.3945 34.854C29.3945 34.4292 29.1161 34.1082 28.6789 34.1082C28.2417 34.1082 27.9632 34.4243 27.9632 34.849ZM28.1123 37.8518V36.4196H28.5642V37.4765H31.1532V37.8518H28.1132H28.1123ZM30.5954 36.7357V33.402H31.0473V36.7357H30.5954Z" fill="white"/>
<path id="Vector_7" d="M33.4578 35.5355V36.4838C34.0195 36.4937 34.5146 36.464 34.8939 36.3702L34.9469 36.7406C34.4949 36.8443 34.0146 36.8789 33.0068 36.8739V33.9502H34.7067V34.3305H33.4578V35.1651H34.49V35.5355H33.4578ZM34.7694 35.5405V35.1602H35.3312V33.5008H35.7635V37.7679H35.3312V35.5405H34.7694ZM36.1958 37.995V33.402H36.633V37.995H36.1958Z" fill="white"/>
<path id="Vector_8" d="M37.1187 34.8836V34.5083H39.2851V34.8836H37.1187ZM38.2235 36.9777C37.6568 36.9777 37.2726 36.5924 37.2726 36.0739C37.2726 35.5158 37.6568 35.1701 38.2235 35.1701C38.7901 35.1701 39.1695 35.5257 39.1695 36.0739C39.1695 36.6221 38.795 36.9777 38.2235 36.9777ZM37.6235 34.1477V33.7625H38.7999V34.1477H37.6235ZM38.2235 35.5503C37.9068 35.5503 37.6951 35.7726 37.6951 36.0739C37.6951 36.3751 37.9068 36.5924 38.2235 36.5924C38.5401 36.5924 38.7518 36.3702 38.7518 36.0739C38.7518 35.7775 38.5352 35.5503 38.2235 35.5503ZM39.6596 37.7679V35.6244H39.1695V35.2441H39.6596V33.5057H40.087V37.7679H39.6596ZM40.4713 37.995V33.402H40.9085V37.995H40.4713Z" fill="white"/>
<path id="Vector_9" d="M44.0638 36.0146C43.6314 36.0986 42.8433 36.1628 42.2237 36.1628H41.5796V34.7058H43.1452V34.0786H41.5649V33.6983H43.5961V35.0713H42.0306V35.7923C42.9188 35.7923 43.505 35.7578 44.0049 35.6442L44.0628 36.0146H44.0638ZM42.0424 37.8815V36.5579H42.4943V37.5012H45.0254V37.8815H42.0424ZM44.8568 34.7799H45.5293V35.1651H44.8568V36.7357H44.4098V33.402H44.8568V34.7799Z" fill="white"/>
</g>
<g id="Group_3">
<path id="Vector_10" d="M3.35561 22.3411V29.0835H2.54587V22.3411H0L0.24998 21.5973H5.90246L5.65248 22.3411H3.35561Z" fill="white"/>
<path id="Vector_11" d="M14.0892 28.3397L13.8392 29.0835H9.53857V21.5667H14.0892L13.8392 22.3104H10.3483V24.9794H13.4343L13.1844 25.7123H10.3473V28.3397H14.0882H14.0892Z" fill="white"/>
<path id="Vector_12" d="M22.7225 21.7543L23.5342 21.5034V29.0825H22.7225V25.7429H18.3278V29.0825H17.5181V21.7533L18.3278 21.5024V24.9991H22.7225V21.7533V21.7543Z" fill="white"/>
<path id="Vector_13" d="M32.2396 28.3397L31.9896 29.0835H27.689V21.5667H32.2396L31.9896 22.3104H28.4987V24.9794H31.5837L31.3357 25.7123H28.4987V28.3397H32.2396Z" fill="white"/>
<path id="Vector_14" d="M38.9005 25.6906C39.8348 25.492 40.52 24.9576 40.52 23.6913C40.52 21.9855 39.274 21.5973 37.8604 21.5973H35.6685V29.0825H36.489V25.7844H38.0379L40.2328 29.0825H41.1807L38.9015 25.6906H38.9005ZM37.8604 25.0416H36.488V22.3411H37.8604C38.8682 22.3411 39.6887 22.6344 39.6887 23.6913C39.6887 24.7482 38.8682 25.0416 37.8604 25.0416Z" fill="white"/>
<path id="Vector_15" d="M48.686 27.4181H45.3402L44.6442 29.0835H43.8345L47.0136 21.4827L50.1928 29.0835H49.383L48.687 27.4181H48.686ZM47.0126 23.4088L45.652 26.6753H48.3841L47.0126 23.4088Z" fill="white"/>
<path id="Vector_16" d="M54.5348 23.471V29.0825H53.7251V21.4817L59.1894 27.2502V21.7751L59.9991 21.5232V29.1971L54.5339 23.471H54.5348Z" fill="white"/>
</g>
</g>
<defs>
<clipPath id="clip0_8043_1994">
<rect width="60" height="38" fill="white"/>
</clipPath>
</defs>
</svg>
