<svg width="52" height="46" viewBox="0 0 52 46" fill="none" xmlns="http://www.w3.org/2000/svg">
<g clip-path="url(#clip0_401_418)">
<path d="M37.6779 9.08608L33.7418 5.9365V4.08514C33.7418 3.60818 33.3406 3.22437 32.8486 3.22437H30.3534L26.5696 0.198965C26.2387 -0.0663217 25.7584 -0.0663217 25.4275 0.198965L21.6466 3.22437H19.1514C18.6565 3.22437 18.2582 3.61101 18.2582 4.08514V5.9365L14.3221 9.08608C14.1171 9.24977 14 9.49248 14 9.7493V23.1378C14 23.6148 14.4012 23.9986 14.8932 23.9986H37.1038C37.5988 23.9986 37.9971 23.6119 37.9971 23.1378V9.7493C37.9971 9.49248 37.8799 9.24977 37.6749 9.08608H37.6779ZM18.2582 11.437L16.2228 9.80856L18.2582 8.18015V11.4398V11.437ZM25.9985 1.9826L27.5507 3.22437H24.4464L25.9985 1.9826ZM31.9524 12.8678L26.0015 17.6317L20.0476 12.8678V4.94873H31.9524V12.8678ZM33.7418 11.437V8.17733L35.7772 9.80574L33.7418 11.4341V11.437Z" fill="white"/>
<path d="M22.74 8.45407H29.262C29.6661 8.45407 29.9941 8.13798 29.9941 7.74852C29.9941 7.35906 29.6661 7.04297 29.262 7.04297H22.74C22.3358 7.04297 22.0078 7.35906 22.0078 7.74852C22.0078 8.13798 22.3358 8.45407 22.74 8.45407Z" fill="white"/>
<path d="M22.74 11.6572H29.262C29.6661 11.6572 29.9941 11.3411 29.9941 10.9516C29.9941 10.5622 29.6661 10.2461 29.262 10.2461H22.74C22.3358 10.2461 22.0078 10.5622 22.0078 10.9516C22.0078 11.3411 22.3358 11.6572 22.74 11.6572Z" fill="white"/>
</g>
<path d="M45.7052 34.5721C47.4828 34.5721 48.7397 35.6494 48.7487 37.2205C48.7397 38.7917 47.4828 39.869 45.7052 39.869C43.9276 39.869 42.6527 38.7917 42.6617 37.2205C42.6527 35.6494 43.9276 34.5721 45.7052 34.5721ZM42.0781 41.7095C44.161 41.7185 47.0339 41.7005 49.5298 41.3324L49.6106 42.0686C47.0249 42.5534 44.2508 42.5624 42.2128 42.5624L42.0781 41.7095ZM43.6403 37.2205C43.6313 38.271 44.5022 38.9982 45.7052 38.9982C46.8993 38.9982 47.7701 38.271 47.7701 37.2205C47.7701 36.1701 46.8993 35.4429 45.7052 35.4429C44.5022 35.4429 43.6313 36.1701 43.6403 37.2205ZM50.2749 45.0493V33.7461H51.2715V45.0493H50.2749Z" fill="white"/>
<path d="M41.7398 39.5181V40.3441H37.1431V42.6514H36.1556V40.3441H31.4062V39.5181H41.7398ZM32.735 44.7792V41.5381H33.7315V43.9532H40.5906V44.7792H32.735ZM32.7529 38.2253V34.293H40.3931V38.2253H32.7529ZM33.7315 37.4263H39.4056V35.092H33.7315V37.4263Z" fill="white"/>
<path d="M24.0373 34.1591C25.7252 34.1681 26.9552 35.1915 26.9641 36.6639C26.9552 38.1363 25.7252 39.1508 24.0373 39.1508C22.3315 39.1508 21.1016 38.1363 21.1016 36.6639C21.1016 35.1915 22.3315 34.1681 24.0373 34.1591ZM22.0802 36.6639C22.0712 37.6515 22.9061 38.3338 24.0373 38.3338C25.1596 38.3338 25.9945 37.6515 25.9945 36.6639C25.9945 35.6853 25.1596 34.994 24.0373 35.003C22.9061 34.994 22.0712 35.6853 22.0802 36.6639ZM22.8163 40.8925V40.0845H30.1603V42.8048H23.8219V44.0707H30.5643V44.8787H22.8523V42.0507H29.1727V40.8925H22.8163ZM29.1637 39.5368V33.7461H30.1603V39.5368H29.1637Z" fill="white"/>
<path d="M14.9992 35.0658V38.0016H16.705V33.9885H17.6657V44.4567H16.705V38.8366H14.9992V41.9878H10.6719V35.0658H14.9992ZM11.6146 41.1888H14.0565V35.8649H11.6146V41.1888ZM18.9675 45.0313V33.7461H19.9281V45.0313H18.9675Z" fill="white"/>
<path d="M8.97289 33.7461V45.0493H7.97635V33.7461H8.97289ZM0.09375 38.5493C0.09375 36.1522 1.28781 34.6259 2.97566 34.617C4.64554 34.6259 5.85756 36.1522 5.85756 38.5493C5.85756 40.9553 4.64554 42.4816 2.97566 42.4816C1.28781 42.4816 0.09375 40.9553 0.09375 38.5493ZM1.05439 38.5493C1.05439 40.3897 1.84444 41.5928 2.97566 41.5928C4.10687 41.5928 4.88795 40.3897 4.88795 38.5493C4.88795 36.7178 4.10687 35.5147 2.97566 35.5058C1.84444 35.5147 1.05439 36.7178 1.05439 38.5493Z" fill="white"/>
<defs>
<clipPath id="clip0_401_418">
<rect width="24" height="24" fill="white" transform="translate(14)"/>
</clipPath>
</defs>
</svg>
