<svg width="53" height="47" viewBox="0 0 53 47" fill="none" xmlns="http://www.w3.org/2000/svg">
<g clip-path="url(#clip0_399_390)">
<path fill-rule="evenodd" clip-rule="evenodd" d="M16 23.6931H43.3333V24.9995H16V23.6931ZM17.3469 16.8767L16.6513 19.868L18.7105 21.9826L21.6012 21.2455L21.6233 21.2227L17.3691 16.854L17.3469 16.8767ZM22.1305 20.699L34.9375 7.54443L30.6833 3.17569L17.8763 16.3303L22.1305 20.699ZM35.4475 7.0236L36.3731 6.07301L32.1189 1.70427L31.1932 2.65486L35.4475 7.0236ZM36.8803 5.55217L37.6203 4.79227C39.2887 3.07893 35.004 -1.25851 33.4354 0.352378L32.6261 1.18343L36.8803 5.55217ZM16.4545 20.7104L16 22.6714L17.8957 22.1875L16.4545 20.7076V20.7104Z" fill="white"/>
</g>
<path d="M46.7052 35.5721C48.4828 35.5721 49.7397 36.6494 49.7487 38.2205C49.7397 39.7917 48.4828 40.869 46.7052 40.869C44.9276 40.869 43.6527 39.7917 43.6617 38.2205C43.6527 36.6494 44.9276 35.5721 46.7052 35.5721ZM43.0781 42.7095C45.161 42.7185 48.0339 42.7005 50.5298 42.3324L50.6106 43.0686C48.0249 43.5534 45.2508 43.5624 43.2128 43.5624L43.0781 42.7095ZM44.6403 38.2205C44.6313 39.271 45.5022 39.9982 46.7052 39.9982C47.8993 39.9982 48.7701 39.271 48.7701 38.2205C48.7701 37.1701 47.8993 36.4429 46.7052 36.4429C45.5022 36.4429 44.6313 37.1701 44.6403 38.2205ZM51.2749 46.0493V34.7461H52.2715V46.0493H51.2749Z" fill="white"/>
<path d="M42.7398 40.5181V41.3441H38.1431V43.6514H37.1556V41.3441H32.4062V40.5181H42.7398ZM33.735 45.7792V42.5381H34.7315V44.9532H41.5906V45.7792H33.735ZM33.7529 39.2253V35.293H41.3931V39.2253H33.7529ZM34.7315 38.4263H40.4056V36.092H34.7315V38.4263Z" fill="white"/>
<path d="M28.2852 35.8133V36.6303H27.136V40.3696C27.7151 40.3292 28.2852 40.2798 28.8239 40.2125L28.8957 40.9666C26.6064 41.3168 23.9489 41.3706 21.9917 41.3706L21.875 40.5357C22.3329 40.5357 22.8222 40.5312 23.3384 40.5222V36.6303H22.1982V35.8133H28.2852ZM23.5988 45.7788V42.2684H24.5863V44.9528H31.1851V45.7788H23.5988ZM24.308 40.4998C24.914 40.4863 25.538 40.4639 26.1575 40.4324V36.6303H24.308V40.4998ZM29.6678 43.0585V34.7539H30.6644V38.1835H32.3612V39.0274H30.6644V43.0585H29.6678Z" fill="white"/>
<path d="M15.2713 37.7806C15.2623 39.8366 16.6629 41.9105 18.3238 42.6646L17.7133 43.4547C16.4294 42.8262 15.3207 41.4885 14.782 39.8815C14.2613 41.5828 13.148 43.0147 11.8238 43.6791L11.1953 42.8442C12.8742 42.0721 14.2658 39.9174 14.2747 37.7806V35.7247H15.2713V37.7806ZM19.5627 46.0493V34.7461H20.5593V46.0493H19.5627Z" fill="white"/>
<path d="M10.3309 34.7461V46.0313H9.37927V34.7461H10.3309ZM0.679688 42.8711C3.13065 41.4167 4.36063 39.3787 4.54916 37.0175H1.16449V36.1826H5.54571C5.54122 37.2958 5.36615 38.3732 4.9801 39.3787H7.00911V35.0513H7.96076V45.4567H7.00911V40.1867H4.61201C3.92969 41.4975 2.83887 42.6601 1.26325 43.5893L0.679688 42.8711Z" fill="white"/>
<defs>
<clipPath id="clip0_399_390">
<rect width="22" height="25" fill="white" transform="translate(16)"/>
</clipPath>
</defs>
</svg>
