<svg width="44" height="43" viewBox="0 0 44 43" fill="none" xmlns="http://www.w3.org/2000/svg">
<g clip-path="url(#clip0_399_389)">
<path fill-rule="evenodd" clip-rule="evenodd" d="M35.4668 5.67252H33.4413V14.233C33.4413 16.4925 31.4291 18.3359 28.9651 18.3359H19.3135L17.9951 19.2827C18.4017 20.0703 19.2763 20.6177 20.2863 20.6177H29.3452L34.0633 24V20.6177H35.4695C36.8623 20.6177 38 19.5731 38 18.2995V7.99069C38 6.7143 36.8623 5.67252 35.4695 5.67252H35.4668ZM11.8522 0H28.9651C30.5334 0 31.8172 1.17584 31.8172 2.61422V14.233C31.8172 15.6714 30.5334 16.8472 28.9651 16.8472H18.7553L13.4364 20.6596V16.8472H11.8522C10.2839 16.8472 9 15.6714 9 14.233V2.61422C9 1.17584 10.2839 0 11.8522 0Z" fill="white"/>
</g>
<path d="M41.5444 30.7461V33.5113H43.2412V34.3462H41.5444V37.1473H40.5479V30.7461H41.5444ZM33.2578 36.483V31.5092H38.2495V32.3262H34.2454V35.657C36.5078 35.6615 37.8006 35.5807 39.3089 35.2799L39.4346 36.0969C37.8455 36.4201 36.4988 36.483 34.1287 36.483H33.2578ZM34.416 41.8697V37.7399H41.5444V41.8697H34.416ZM35.3946 41.0617H40.5568V38.5479H35.3946V41.0617Z" fill="white"/>
<path d="M25.9094 32.5686C25.9094 34.1038 27.0765 35.5134 28.7105 36.07L28.1718 36.86C26.9239 36.4022 25.9363 35.4685 25.447 34.2924C24.9622 35.6256 23.9522 36.667 22.6324 37.1743L22.0938 36.3752C23.7906 35.7468 24.9218 34.2385 24.9308 32.4968V31.3297H25.9094V32.5686ZM23.602 39.9484C23.602 38.6556 25.0205 37.9015 27.3458 37.9015C29.6621 37.9015 31.0627 38.6556 31.0627 39.9484C31.0627 41.2592 29.6621 42.0044 27.3458 42.0044C25.0205 42.0044 23.602 41.2592 23.602 39.9484ZM24.5986 39.9484C24.5896 40.7475 25.64 41.2053 27.3458 41.2143C29.0516 41.2053 30.0931 40.7475 30.0931 39.9484C30.0931 39.1763 29.0516 38.7005 27.3458 38.7005C25.64 38.7005 24.5896 39.1763 24.5986 39.9484ZM29.9674 37.6142V30.7461H30.9639V33.6908H32.6607V34.5258H30.9639V37.6142H29.9674Z" fill="white"/>
<path d="M17.6168 31.5799V32.3879H13.2086V33.8154H17.3026V34.6234H13.2086V36.1047C15.6102 36.1137 16.9524 36.0733 18.5415 35.7995L18.6493 36.6165C16.9973 36.8858 15.6147 36.9397 13.1189 36.9307H12.2031V31.5799H17.6168ZM13.2984 39.9473C13.2984 38.6545 14.7259 37.9003 17.114 37.9093C19.4662 37.9003 20.9207 38.6545 20.9207 39.9473C20.9207 41.2581 19.4662 42.0032 17.114 42.0032C14.7259 42.0032 13.2984 41.2581 13.2984 39.9473ZM14.286 39.9473C14.286 40.7463 15.3454 41.2132 17.114 41.2132C18.8468 41.2132 19.9331 40.7463 19.9331 39.9473C19.9331 39.1752 18.8468 38.6993 17.114 38.6993C15.3454 38.6993 14.286 39.1752 14.286 39.9473ZM19.8703 37.7477V30.7539H20.8668V37.7477H19.8703Z" fill="white"/>
<path d="M4.26865 34.2116C4.26865 36.0071 5.19337 37.8656 6.73757 38.6826L6.15401 39.4367C5.03177 38.8217 4.21927 37.6591 3.80629 36.3034C3.40677 37.7444 2.59876 39.0103 1.47652 39.6701L0.875 38.925C2.40124 38.0361 3.31699 36.07 3.32597 34.2116V33.6908H1.13536V32.8559H3.32597V31.1591H4.27762V32.8559H6.43232V33.6908H4.26865V34.2116ZM7.2134 41.4567V30.9885H8.15608V35.3069H9.70028V30.7461H10.6609V42.0313H9.70028V36.1598H8.15608V41.4567H7.2134Z" fill="white"/>
<defs>
<clipPath id="clip0_399_389">
<rect width="29" height="24" fill="white" transform="translate(9)"/>
</clipPath>
</defs>
</svg>
