<svg width="43" height="48" viewBox="0 0 43 48" fill="none" xmlns="http://www.w3.org/2000/svg">
<g clip-path="url(#clip0_401_394)">
<path d="M15.8781 13.951C16.7363 11.8319 15.7399 9.40769 13.6526 8.53642C11.5654 7.66515 9.17766 8.67672 8.31948 10.7958C7.46131 12.9149 8.45768 15.3391 10.5449 16.2104C12.6322 17.0817 15.0199 16.0701 15.8781 13.951Z" fill="white"/>
<path d="M17.6319 26.5468H23.0803C24.1783 26.5468 25.0678 25.6437 25.0678 24.529C25.0678 23.4142 24.1783 22.5111 23.0803 22.5111H18.2539L12.7013 18.5953C12.2009 18.1085 11.5268 17.8086 10.7798 17.8086C9.24395 17.8086 8 19.0715 8 20.6308V29.9934H14.2058V24.9946L16.4992 26.1799C16.8327 26.4128 17.2254 26.5398 17.6319 26.5398V26.5468Z" fill="white"/>
<path d="M30.9884 18.6987C30.4845 18.48 29.9008 18.7164 29.6853 19.2279L25.9882 27.9838H16.7594C16.2104 27.9838 15.7656 28.4353 15.7656 28.9927C15.7656 29.5501 16.2104 30.0016 16.7594 30.0016H26.645C27.0411 30.0016 27.4025 29.7618 27.5588 29.3913L31.513 20.0252C31.7285 19.5136 31.4957 18.921 30.9918 18.7022L30.9884 18.6987Z" fill="white"/>
<path d="M28.2988 0C23.4932 0 19.6016 2.99506 19.6016 6.69214C19.6016 9.11218 21.2729 11.2288 23.7712 12.4071C23.7782 13.5254 23.4585 15.1729 21.7072 16.0619C21.7072 16.0619 24.9596 16.4887 27.5309 13.3596C27.7845 13.3772 28.0382 13.3878 28.2953 13.3878C33.1008 13.3878 36.9925 10.3928 36.9925 6.69567C36.9925 2.99859 33.1043 0 28.2988 0Z" fill="white"/>
</g>
<path d="M36.5656 39.1642C36.5656 40.5738 37.7776 41.8396 39.4475 42.3245L38.9627 43.1055C37.6519 42.7105 36.606 41.8576 36.0943 40.7443C35.6095 41.9788 34.577 42.9529 33.2348 43.4018L32.75 42.6297C34.4109 42.0731 35.578 40.6995 35.578 39.1642V38.9308H33.0283V38.1228H35.578V36.6953H36.5836V38.1228H39.1064V38.9308H36.5656V39.1642ZM34.5456 45.9426C34.5366 44.6318 35.9731 43.8866 38.3253 43.8866C40.6685 43.8866 42.105 44.6318 42.105 45.9426C42.105 47.2533 40.6685 48.0075 38.3253 48.0075C35.9731 48.0075 34.5366 47.2533 34.5456 45.9426ZM35.5331 45.9426C35.5242 46.7326 36.5925 47.2174 38.3253 47.2174C40.058 47.2174 41.1174 46.7326 41.1174 45.9426C41.1174 45.1435 40.058 44.6767 38.3253 44.6677C36.5925 44.6767 35.5242 45.1435 35.5331 45.9426ZM38.7562 40.8072V39.9812H41.0725V36.7492H42.0691V43.5903H41.0725V40.8072H38.7562Z" fill="white"/>
<path d="M31.4524 36.7578V45.0354H30.4558V36.7578H31.4524ZM22.25 42.6204C23.9558 41.956 25.114 40.3041 25.114 38.5175V37.3863H26.1285V38.5175C26.1195 40.2412 27.2956 41.7854 28.9744 42.3959L28.4537 43.195C27.1474 42.6877 26.1285 41.6732 25.6302 40.3714C25.1409 41.7585 24.1174 42.8673 22.7977 43.4015L22.25 42.6204ZM24.1623 47.7827V44.2723H25.1588V46.9567H31.8025V47.7827H24.1623Z" fill="white"/>
<path d="M20.3725 36.75V39.5152H22.0694V40.3501H20.3725V43.1512H19.376V36.75H20.3725ZM12.0859 42.4869V37.5131H17.0776V38.3301H13.0735V41.6609C15.3359 41.6654 16.6288 41.5846 18.137 41.2838L18.2627 42.1008C16.6736 42.424 15.327 42.4869 12.9568 42.4869H12.0859ZM13.2441 47.8736V43.7438H20.3725V47.8736H13.2441ZM14.2227 47.0656H19.385V44.5518H14.2227V47.0656Z" fill="white"/>
<path d="M4.72967 38.5725C4.72967 40.1077 5.8968 41.5173 7.53078 42.0739L6.9921 42.864C5.74417 42.4061 4.7566 41.4724 4.26731 40.2963C3.7825 41.6295 2.77249 42.6709 1.45274 43.1782L0.914062 42.3791C2.61089 41.7507 3.7421 40.2424 3.75108 38.5007V37.3336H4.72967V38.5725ZM2.42235 45.9523C2.42235 44.6595 3.84086 43.9054 6.16614 43.9054C8.48243 43.9054 9.88299 44.6595 9.88299 45.9523C9.88299 47.2631 8.48243 48.0083 6.16614 48.0083C3.84086 48.0083 2.42235 47.2631 2.42235 45.9523ZM3.4189 45.9523C3.40992 46.7514 4.46033 47.2093 6.16614 47.2182C7.87194 47.2093 8.91337 46.7514 8.91337 45.9523C8.91337 45.1802 7.87194 44.7044 6.16614 44.7044C4.46033 44.7044 3.40992 45.1802 3.4189 45.9523ZM8.78768 43.6181V36.75H9.78423V39.6948H11.4811V40.5297H9.78423V43.6181H8.78768Z" fill="white"/>
<defs>
<clipPath id="clip0_401_394">
<rect width="29" height="30" fill="white" transform="translate(8)"/>
</clipPath>
</defs>
</svg>
