<svg width="14" height="13" viewBox="0 0 14 13" fill="none" xmlns="http://www.w3.org/2000/svg">
<g id="ph:x-thin">
<path id="Vector" d="M11.0923 2.98735C11.1333 2.94923 11.1564 2.89754 11.1564 2.84364C11.1564 2.78973 11.1333 2.73804 11.0923 2.69993C11.0512 2.66181 10.9955 2.6404 10.9375 2.6404C10.8795 2.6404 10.8238 2.66181 10.7827 2.69993L7 6.21246L3.21727 2.69993C3.17622 2.66181 3.12055 2.6404 3.0625 2.6404C3.00445 2.6404 2.94878 2.66181 2.90773 2.69993C2.86669 2.73804 2.84363 2.78973 2.84363 2.84364C2.84363 2.89754 2.86669 2.94923 2.90773 2.98735L6.69047 6.49989L2.90773 10.0124C2.86669 10.0505 2.84363 10.1022 2.84363 10.1561C2.84363 10.21 2.86669 10.2617 2.90773 10.2998C2.94878 10.338 3.00445 10.3594 3.0625 10.3594C3.12055 10.3594 3.17622 10.338 3.21727 10.2998L7 6.78731L10.7827 10.2998C10.8031 10.3187 10.8272 10.3337 10.8537 10.3439C10.8803 10.3541 10.9088 10.3594 10.9375 10.3594C10.9662 10.3594 10.9947 10.3541 11.0213 10.3439C11.0478 10.3337 11.0719 10.3187 11.0923 10.2998C11.1126 10.281 11.1287 10.2586 11.1397 10.2339C11.1507 10.2093 11.1564 10.1828 11.1564 10.1561C11.1564 10.1294 11.1507 10.103 11.1397 10.0784C11.1287 10.0537 11.1126 10.0313 11.0923 10.0124L7.30953 6.49989L11.0923 2.98735Z" fill="#1F3D34"/>
</g>
</svg>
