<svg width="51" height="52" viewBox="0 0 51 52" fill="none" xmlns="http://www.w3.org/2000/svg">
<g clip-path="url(#clip0_846_608)">
<path opacity="0.51" d="M30.0225 24.4418C29.8165 23.8687 29.4887 23.3333 29.0264 22.8731L7.29232 1.24238C5.62791 -0.414126 2.92533 -0.414126 1.26092 1.24238L1.24831 1.25493C-0.416104 2.91143 -0.416104 5.60116 1.24831 7.25766L20.2209 26.1401L1.3744 44.8971C-0.26059 46.5243 -0.26059 49.1597 1.3744 50.7827C3.0094 52.4099 5.65733 52.4099 7.28812 50.7827L29.1399 29.0348C30.3882 27.7925 30.6782 25.9644 30.0225 24.446V24.4418Z" fill="#50FFDF"/>
<path opacity="0.88" d="M50.6592 24.4418C50.4533 23.8687 50.1254 23.3333 49.6631 22.8731L27.929 1.24238C26.2646 -0.414126 23.5621 -0.414126 21.8976 1.24238L21.885 1.25493C20.2206 2.91143 20.2206 5.60116 21.885 7.25766L40.8577 26.1401L22.0111 44.8971C20.3761 46.5243 20.3761 49.1597 22.0111 50.7827C23.6461 52.4099 26.294 52.4099 27.9248 50.7827L49.7766 29.0348C51.0249 27.7925 51.3149 25.9644 50.6592 24.446V24.4418Z" fill="white"/>
</g>
<defs>
<clipPath id="clip0_846_608">
<rect width="51" height="52" fill="white"/>
</clipPath>
</defs>
</svg>
