<svg width="50" height="50" viewBox="0 0 50 50" fill="none" xmlns="http://www.w3.org/2000/svg">
<path d="M45.3555 12.0626C45.5104 11.9221 45.6355 11.7519 45.7234 11.5622C45.8113 11.3725 45.8602 11.167 45.8673 10.958C45.8744 10.749 45.8394 10.5408 45.7645 10.3455C45.6896 10.1503 45.5762 9.97209 45.4312 9.82146C45.2861 9.67083 45.1123 9.55085 44.9201 9.46863C44.7278 9.38641 44.521 9.34361 44.3119 9.34279C44.1028 9.34196 43.8956 9.38311 43.7027 9.46381C43.5098 9.54451 43.335 9.66311 43.1888 9.81259L29.1263 23.3543C28.9714 23.4947 28.8463 23.6649 28.7584 23.8546C28.6705 24.0444 28.6215 24.2498 28.6145 24.4588C28.6074 24.6678 28.6424 24.8761 28.7173 25.0713C28.7922 25.2665 28.9055 25.4448 29.0506 25.5954C29.1956 25.746 29.3694 25.866 29.5617 25.9482C29.754 26.0304 29.9608 26.0732 30.1699 26.0741C30.379 26.0749 30.5862 26.0337 30.7791 25.953C30.972 25.8723 31.1467 25.7537 31.293 25.6043L45.3555 12.0626ZM39.5575 10.4168H9.48047C8.07151 10.4168 6.72025 10.9765 5.72396 11.9727C4.72768 12.969 4.16797 14.3203 4.16797 15.7293V30.1043C4.16797 30.8019 4.30538 31.4927 4.57236 32.1373C4.83934 32.7818 5.23065 33.3674 5.72396 33.8608C6.21728 34.3541 6.80292 34.7454 7.44746 35.0124C8.09201 35.2793 8.78282 35.4168 9.48047 35.4168H40.5221C41.2198 35.4168 41.9106 35.2793 42.5551 35.0124C43.1997 34.7454 43.7853 34.3541 44.2786 33.8608C44.7719 33.3674 45.1633 32.7818 45.4302 32.1373C45.6972 31.4927 45.8346 30.8019 45.8346 30.1043V15.7293C45.8346 15.3431 45.7951 14.9695 45.7159 14.6084L32.7367 27.1063C32.04 27.7768 31.1054 28.1431 30.1386 28.1245C29.1718 28.106 28.252 27.7041 27.5815 27.0074C26.911 26.3106 26.5448 25.3761 26.5633 24.4093C26.5819 23.4425 26.9837 22.5227 27.6805 21.8522L39.5575 10.4168ZM9.3763 19.2709C9.3763 18.8565 9.54092 18.4591 9.83395 18.1661C10.127 17.873 10.5244 17.7084 10.9388 17.7084H15.1055C15.5199 17.7084 15.9173 17.873 16.2103 18.1661C16.5033 18.4591 16.668 18.8565 16.668 19.2709C16.668 19.6853 16.5033 20.0827 16.2103 20.3758C15.9173 20.6688 15.5199 20.8334 15.1055 20.8334H10.9388C10.5244 20.8334 10.127 20.6688 9.83395 20.3758C9.54092 20.0827 9.3763 19.6853 9.3763 19.2709ZM9.3763 26.5626C9.3763 26.1482 9.54092 25.7508 9.83395 25.4577C10.127 25.1647 10.5244 25.0001 10.9388 25.0001H21.3555C21.7699 25.0001 22.1673 25.1647 22.4603 25.4577C22.7533 25.7508 22.918 26.1482 22.918 26.5626C22.918 26.977 22.7533 27.3744 22.4603 27.6674C22.1673 27.9605 21.7699 28.1251 21.3555 28.1251H10.9388C10.5244 28.1251 10.127 27.9605 9.83395 27.6674C9.54092 27.3744 9.3763 26.977 9.3763 26.5626Z" fill="#363636"/>
</svg>
