<svg width="43" height="45" viewBox="0 0 43 45" fill="none" xmlns="http://www.w3.org/2000/svg">
<path d="M31.2812 7.37812V4.92188C31.2812 4.54891 31.1331 4.19123 30.8694 3.92751C30.6056 3.66378 30.248 3.51562 29.875 3.51562C29.502 3.51562 29.1444 3.66378 28.8806 3.92751C28.6169 4.19123 28.4688 4.54891 28.4688 4.92188V7.26562H12.5312V4.92188C12.5312 4.54891 12.3831 4.19123 12.1194 3.92751C11.8556 3.66378 11.498 3.51562 11.125 3.51562C10.752 3.51562 10.3944 3.66378 10.1306 3.92751C9.86691 4.19123 9.71875 4.54891 9.71875 4.92188V7.37812C7.62874 7.71616 5.72695 8.78616 4.35308 10.397C2.97921 12.0079 2.22273 14.0547 2.21875 16.1719V32.5781C2.21875 33.7477 2.44912 34.9058 2.8967 35.9864C3.34428 37.067 4.00031 38.0488 4.82733 38.8758C6.49758 40.546 8.76292 41.4844 11.125 41.4844H29.875C31.0446 41.4844 32.2027 41.254 33.2833 40.8064C34.3638 40.3588 35.3456 39.7028 36.1727 38.8758C36.9997 38.0488 37.6557 37.067 38.1033 35.9864C38.5509 34.9058 38.7812 33.7477 38.7812 32.5781V16.1719C38.7773 14.0547 38.0208 12.0079 36.6469 10.397C35.273 8.78616 33.3713 7.71616 31.2812 7.37812ZM27.1187 25.3781L20.7437 31.7531C20.5017 31.9937 20.2151 32.1847 19.9 32.3156C19.5822 32.4595 19.2362 32.5299 18.8875 32.5219C18.5449 32.5297 18.205 32.4592 17.8937 32.3156C17.5695 32.1917 17.2754 31.9999 17.0312 31.7531L13.8813 28.5844C13.7431 28.4556 13.6323 28.3004 13.5554 28.1279C13.4786 27.9554 13.4372 27.7692 13.4339 27.5804C13.4306 27.3915 13.4653 27.204 13.536 27.0289C13.6067 26.8538 13.712 26.6947 13.8456 26.5612C13.9791 26.4276 14.1382 26.3224 14.3133 26.2516C14.4884 26.1809 14.6759 26.1462 14.8647 26.1495C15.0535 26.1528 15.2398 26.1942 15.4123 26.271C15.5848 26.3479 15.74 26.4587 15.8687 26.5969L18.9062 29.6344L25.1313 23.3906C25.3978 23.1422 25.7504 23.007 26.1147 23.0134C26.479 23.0198 26.8266 23.1674 27.0843 23.4251C27.3419 23.6827 27.4895 24.0303 27.496 24.3946C27.5024 24.759 27.3671 25.1115 27.1187 25.3781ZM35.9688 16.6406H5.03125V16.1719C5.03309 14.8033 5.49699 13.4755 6.34776 12.4035C7.19854 11.3315 8.38636 10.5782 9.71875 10.2656V12.4219C9.71875 12.7948 9.86691 13.1525 10.1306 13.4162C10.3944 13.68 10.752 13.8281 11.125 13.8281C11.498 13.8281 11.8556 13.68 12.1194 13.4162C12.3831 13.1525 12.5312 12.7948 12.5312 12.4219V10.0781H28.4688V12.4219C28.4688 12.7948 28.6169 13.1525 28.8806 13.4162C29.1444 13.68 29.502 13.8281 29.875 13.8281C30.248 13.8281 30.6056 13.68 30.8694 13.4162C31.1331 13.1525 31.2812 12.7948 31.2812 12.4219V10.2656C32.6136 10.5782 33.8015 11.3315 34.6522 12.4035C35.503 13.4755 35.9669 14.8033 35.9688 16.1719V16.6406Z" fill="#363636"/>
</svg>
