<svg width="35" height="34" viewBox="0 0 35 34" fill="none" xmlns="http://www.w3.org/2000/svg">
<path d="M19.6263 9.20844L25.293 14.8751M21.7513 26.9168L24.5846 29.7501L30.2513 24.0834M6.16797 28.3334H11.8346L26.7096 13.4584C27.0817 13.0864 27.3769 12.6446 27.5782 12.1585C27.7796 11.6723 27.8832 11.1513 27.8832 10.6251C27.8832 10.0989 27.7796 9.57786 27.5782 9.09171C27.3769 8.60557 27.0817 8.16385 26.7096 7.79177C26.3376 7.41969 25.8958 7.12454 25.4097 6.92317C24.9235 6.72181 24.4025 6.61816 23.8763 6.61816C23.3501 6.61816 22.8291 6.72181 22.3429 6.92317C21.8568 7.12454 21.415 7.41969 21.043 7.79177L6.16797 22.6668V28.3334Z" stroke="white" stroke-width="2" stroke-linecap="round" stroke-linejoin="round"/>
</svg>
