<svg width="46" height="46" viewBox="0 0 46 46" fill="none" xmlns="http://www.w3.org/2000/svg">
<g id="icons" clip-path="url(#clip0_5383_517)">
<path id="Vector" d="M39.5509 4.50977H10.9588C7.39709 4.50977 4.50977 7.39709 4.50977 10.9588V39.5509C4.50977 43.1126 7.39709 46 10.9588 46H39.5509C43.1126 46 46 43.1126 46 39.5509V10.9588C46 7.39709 43.1126 4.50977 39.5509 4.50977Z" fill="#C0D7E9"/>
<path id="Vector_2" d="M35.9435 0.901855H7.35136C3.78967 0.901855 0.902344 3.78918 0.902344 7.35087V35.943C0.902344 39.5047 3.78967 42.3921 7.35136 42.3921H35.9435C39.5052 42.3921 42.3925 39.5047 42.3925 35.943V7.35087C42.3925 3.78918 39.5052 0.901855 35.9435 0.901855Z" stroke="#37373A" stroke-width="2" stroke-linejoin="round"/>
<path id="Vector_3" d="M11.2387 29.5934C10.7607 29.5934 10.3909 29.386 10.1383 28.9801C9.88577 28.5742 9.85871 28.1323 10.0662 27.6723L17.2548 10.517C17.5073 9.92167 17.9313 9.62402 18.5085 9.62402C19.1218 9.62402 19.5367 9.92167 19.7622 10.517L26.9779 27.7264C27.1673 28.2044 27.1313 28.6374 26.8877 29.0162C26.6442 29.395 26.2654 29.5934 25.7783 29.5934C25.5258 29.5934 25.2822 29.5213 25.0477 29.377C24.8222 29.2327 24.6509 29.0342 24.5517 28.7727L18.2109 13.0244H18.9234L12.4834 28.7727C12.3662 29.0432 12.1858 29.2507 11.9603 29.386C11.7348 29.5213 11.5003 29.5934 11.2567 29.5934H11.2387ZM12.5917 25.1919L13.6109 22.9911H23.6317L24.6509 25.1919H12.5826H12.5917Z" fill="white"/>
<path id="Vector_4" d="M28.5567 8.07234C28.3763 8.07234 28.223 8.00921 28.1147 7.90097C27.9975 7.78372 27.9434 7.6394 27.9434 7.45901C27.9434 7.27862 27.9975 7.12528 28.1147 7.01705C28.232 6.89979 28.3763 6.84568 28.5567 6.84568H35.4747C35.6551 6.84568 35.8085 6.89979 35.9167 7.01705C36.0249 7.1343 36.0881 7.27862 36.0881 7.45901C36.0881 7.6394 36.0339 7.79273 35.9167 7.90097C35.7994 8.00921 35.6551 8.07234 35.4747 8.07234H28.5567ZM32.0202 16.9206C31.8308 16.9206 31.6685 16.8574 31.5422 16.7312C31.4159 16.6049 31.3528 16.4425 31.3528 16.2531V6.82764H32.6967V16.2531C32.6967 16.4425 32.6336 16.6049 32.5073 16.7312C32.381 16.8574 32.2187 16.9206 32.0292 16.9206H32.0202Z" fill="#37373A"/>
<path id="Vector_5" d="M36.0775 20.7451V31.9294C36.0775 34.7165 33.8136 36.9804 31.0265 36.9804H20.7441" stroke="white" stroke-width="2" stroke-linejoin="round" stroke-dasharray="3 3"/>
</g>
<defs>
<clipPath id="clip0_5383_517">
<rect width="46" height="46" fill="white"/>
</clipPath>
</defs>
</svg>
