<svg width="46" height="52" viewBox="0 0 46 52" fill="none" xmlns="http://www.w3.org/2000/svg">
<g id="icons" clip-path="url(#clip0_5383_213)">
<path id="Vector" d="M45.8768 32.5668C45.2371 31.2875 40.4584 23.903 40.9852 19.7169C42.7819 5.36192 24.7676 -1.12887 12.3881 6.55661C10.4314 7.77011 8.84164 9.50098 7.7034 11.5047C3.20688 19.4159 4.12876 27.4024 8.09849 33.103C8.09849 33.103 10.4502 36.6118 10.8265 41.0895C11.1275 44.6171 11.184 49.4053 11.2028 51.2679H26.3762V45.5672L34.0711 47.4204C34.6355 47.5521 35.2187 47.6086 35.7926 47.4957C38.276 47.0347 40.1668 44.8805 40.2138 42.2654C40.2797 38.3897 39.894 36.6212 40.1009 36.3296C40.4584 35.8122 46.9586 34.7304 45.8768 32.5574V32.5668Z" fill="#C0D7E9"/>
<path id="Vector_2" d="M22.6138 51.2677V43.2154L29.7725 44.9368C31.7291 45.4072 33.8645 44.8522 35.1721 43.3094C35.9529 42.3876 36.4232 41.2117 36.4514 39.9135C36.5173 36.0379 36.1316 34.2694 36.3385 33.9777C36.696 33.4604 43.1962 32.3786 42.1144 30.2056C41.4747 28.9262 36.696 21.5417 37.2228 17.3557C38.8314 4.57161 24.6927 -1.97563 12.8306 2.19165C7.66616 4.00719 3.71524 8.27794 2.00317 13.48C-0.122799 19.9049 1.0907 26.0947 4.3361 30.7512C4.3361 30.7512 6.68783 34.2599 7.06411 38.7377C7.44039 43.2154 7.44039 50.7974 7.44039 50.7974" stroke="#37373A" stroke-width="2" stroke-linejoin="round"/>
<path id="Vector_3" d="M20.8173 11.0908L23.536 16.5939L29.6128 17.4781L25.2104 21.7583L26.2546 27.8164L20.8173 24.9567L15.3895 27.8164L16.4243 21.7583L12.0312 17.4781L18.0987 16.5939L20.8173 11.0908Z" stroke="white" stroke-width="1.5" stroke-linecap="round" stroke-linejoin="round"/>
</g>
<defs>
<clipPath id="clip0_5383_213">
<rect width="46" height="51.2679" fill="white"/>
</clipPath>
</defs>
</svg>
