<svg width="26" height="25" viewBox="0 0 26 25" fill="none" xmlns="http://www.w3.org/2000/svg">
<g id="gis:arrow">
<path id="Vector" d="M4.77157 0.463387C4.58839 0.451903 4.40494 0.480898 4.23423 0.548311C4.06353 0.615724 3.90976 0.719901 3.78385 0.853441C3.65795 0.986982 3.563 1.14661 3.50574 1.32098C3.44849 1.49536 3.43033 1.6802 3.45257 1.86239L5.34182 22.1341C5.46257 23.1186 6.62607 23.5774 7.38582 22.9399L11.3726 19.7069L13.1601 22.8031C14.1881 24.5836 15.8191 25.0211 17.5996 23.9931C19.3801 22.9651 19.8171 21.3336 18.7891 19.5531L17.0078 16.4681L21.7318 14.6571C22.6638 14.3179 22.8486 13.0806 22.0568 12.4839L5.44507 0.711887C5.24962 0.564937 5.01562 0.478538 4.77157 0.463387Z" fill="white"/>
</g>
</svg>
