<svg width="32" height="32" viewBox="0 0 32 32" fill="none" xmlns="http://www.w3.org/2000/svg">
<g clip-path="url(#clip0_2409_240)">
<path d="M31.7076 30.2825L21.9911 20.5065C23.8021 18.3375 24.8936 15.547 24.8936 12.5C24.8936 5.5965 19.2971 0 12.3936 0C5.49006 0 -0.106445 5.5965 -0.106445 12.5C-0.106445 19.4035 5.49006 25 12.3936 25C15.5301 25 18.3951 23.842 20.5901 21.933L30.2931 31.697C30.6836 32.0875 31.3171 32.0875 31.7076 31.697C32.0976 31.3065 32.0976 30.6735 31.7076 30.2825H31.7076ZM12.3936 23.0165C6.58556 23.0165 1.87705 18.308 1.87705 12.5C1.87705 6.692 6.58556 1.9835 12.3936 1.9835C18.2016 1.9835 22.9101 6.692 22.9101 12.5C22.9101 18.308 18.2016 23.0165 12.3936 23.0165Z" fill="#2A2A2A"/>
</g>
<defs>
<clipPath id="clip0_2409_240">
<rect width="32" height="32" fill="white"/>
</clipPath>
</defs>
</svg>
