<svg width="24" height="25" viewBox="0 0 24 25" fill="none" xmlns="http://www.w3.org/2000/svg">
<g id="mage:phone-call-fill">
<path id="Vector" d="M21.3302 19.5349C21.2045 20.098 20.8932 20.6023 20.4462 20.9669C19.9578 21.4623 19.3758 21.8556 18.7341 22.1241C18.0924 22.3926 17.4038 22.5309 16.7082 22.5309H16.3832C14.9232 22.4517 13.4936 22.0821 12.1782 21.4439H12.1682C11.8632 21.3019 11.5482 21.1599 11.2432 20.9869C9.70757 20.1259 8.29909 19.0557 7.05816 17.8069C5.44771 16.2943 4.12616 14.501 3.15815 12.5149C2.6437 11.4265 2.30033 10.2651 2.14016 9.07194C1.90462 7.82295 2.0463 6.53211 2.54715 5.36394C2.86335 4.83692 3.24953 4.3552 3.69515 3.93194C3.89567 3.70519 4.14082 3.52226 4.41526 3.39458C4.68971 3.26691 4.98755 3.19724 5.29015 3.18994C5.61926 3.22631 5.93786 3.32769 6.22746 3.4882C6.51706 3.64871 6.77189 3.86514 6.97716 4.12494C7.43415 4.62194 7.99215 5.13994 8.45015 5.61794L9.08015 6.23794C9.45015 6.56594 9.67916 7.02394 9.72016 7.51794C9.72016 7.97094 9.55315 8.40794 9.25215 8.74694C9.05722 8.98403 8.85028 9.211 8.63215 9.42694L8.42915 9.63994C8.31115 9.74994 8.22116 9.88594 8.16515 10.0369C8.11515 10.1856 8.09515 10.3379 8.10515 10.4939C8.26615 10.9249 8.51916 11.3169 8.84516 11.6419C9.35416 12.3319 9.86215 12.9319 10.3802 13.5819C11.3171 14.6697 12.4291 15.5934 13.6702 16.3149C13.7972 16.4079 13.9432 16.4699 14.0982 16.4969C14.2322 16.5069 14.3682 16.4869 14.4942 16.4369C14.8492 16.2279 15.1642 15.9599 15.4282 15.6439C15.7832 15.2092 16.2929 14.9289 16.8502 14.8619C17.3864 14.8693 17.898 15.0886 18.2732 15.4719C18.4762 15.6439 18.6992 15.8779 18.9132 16.1019L19.2172 16.4159L19.5322 16.7209L20.0712 17.2689C20.3925 17.5543 20.6938 17.8593 20.9752 18.1839C21.2572 18.5739 21.3842 19.0569 21.3302 19.5349ZM17.6842 12.5759C17.4827 12.5739 17.2901 12.4929 17.1476 12.3505C17.0052 12.208 16.9242 12.0154 16.9222 11.8139C16.9232 11.2387 16.8107 10.6689 16.591 10.1373C16.3714 9.60567 16.049 9.12262 15.6422 8.71588C15.2355 8.30913 14.7524 7.98669 14.2208 7.76705C13.6891 7.54741 13.1194 7.43489 12.5442 7.43594C12.3421 7.43594 12.1482 7.35566 12.0053 7.21276C11.8624 7.06985 11.7822 6.87604 11.7822 6.67394C11.7822 6.47185 11.8624 6.27803 12.0053 6.13513C12.1482 5.99222 12.3421 5.91194 12.5442 5.91194C13.3195 5.91076 14.0876 6.06261 14.8042 6.35879C15.5208 6.65497 16.1719 7.08967 16.7201 7.63795C17.2684 8.18624 17.7031 8.83734 17.9993 9.55394C18.2955 10.2705 18.4473 11.0385 18.4462 11.8139C18.4464 11.9141 18.4269 12.0133 18.3887 12.1059C18.3505 12.1984 18.2944 12.2825 18.2236 12.3533C18.1527 12.4242 18.0686 12.4803 17.9761 12.5185C17.8835 12.5567 17.7843 12.5762 17.6842 12.5759Z" fill="white"/>
<path id="Vector_2" d="M21.2088 12.22C21.0075 12.2179 20.815 12.1371 20.6726 11.9949C20.5302 11.8526 20.4491 11.6603 20.4468 11.459C20.4483 10.4789 20.2567 9.50812 19.8826 8.60218C19.5086 7.69625 18.9597 6.87296 18.2671 6.17941C17.5746 5.48587 16.7521 4.93568 15.8468 4.56034C14.9414 4.185 13.9709 3.99187 12.9908 3.99201C12.8884 3.99571 12.7864 3.97876 12.6908 3.94216C12.5952 3.90557 12.5079 3.85007 12.4342 3.77899C12.3605 3.70791 12.3019 3.62271 12.2618 3.52847C12.2218 3.43424 12.2012 3.3329 12.2012 3.23051C12.2012 3.12812 12.2218 3.02677 12.2618 2.93254C12.3019 2.8383 12.3605 2.7531 12.4342 2.68202C12.5079 2.61094 12.5952 2.55545 12.6908 2.51885C12.7864 2.48225 12.8884 2.4653 12.9908 2.46901C14.1709 2.46901 15.3394 2.70161 16.4296 3.15352C17.5197 3.60544 18.5101 4.26779 19.3441 5.10272C20.1781 5.93765 20.8394 6.92878 21.2901 8.01944C21.7408 9.1101 21.9721 10.2789 21.9708 11.459C21.971 11.5591 21.9515 11.6584 21.9133 11.7509C21.8751 11.8435 21.819 11.9276 21.7482 11.9984C21.6774 12.0692 21.5933 12.1253 21.5007 12.1635C21.4081 12.2017 21.3089 12.2203 21.2088 12.22Z" fill="white"/>
</g>
</svg>
