<svg width="17" height="18" viewBox="0 0 17 18" fill="none" xmlns="http://www.w3.org/2000/svg">
<g id="gis:arrow" clip-path="url(#clip0_5207_117)">
<path id="Vector" d="M2.90514 0.81502C2.78058 0.807211 2.65583 0.826928 2.53975 0.872768C2.42367 0.918609 2.3191 0.989449 2.23349 1.08026C2.14787 1.17106 2.08331 1.27961 2.04437 1.39819C2.00544 1.51676 1.99309 1.64246 2.00822 1.76634L3.29291 15.5511C3.37502 16.2206 4.1662 16.5325 4.68283 16.099L7.39382 13.9006L8.60932 16.0061C9.30836 17.2168 10.4174 17.5143 11.6282 16.8153C12.8389 16.1162 13.1361 15.0068 12.437 13.7961L11.2258 11.6983L14.4381 10.4668C15.0719 10.2361 15.1975 9.39475 14.6591 8.98896L3.36312 0.984C3.23021 0.884074 3.07109 0.825323 2.90514 0.81502Z" fill="white"/>
</g>
<defs>
<clipPath id="clip0_5207_117">
<rect width="17" height="17" fill="white" transform="translate(0 0.5)"/>
</clipPath>
</defs>
</svg>
