<svg width="130" height="81" viewBox="0 0 130 81" fill="none" xmlns="http://www.w3.org/2000/svg">
<g id="Layer_1" clip-path="url(#clip0_8011_1965)">
<g id="Group">
<path id="Vector" d="M63.0513 7.72925V28.344L59.1517 27.2955V7.72925H48.9458V33.9193L66.9489 30.0537V11.5949L70.8486 12.635V30.0537V31.1233L81.0544 33.9193V7.72925H63.0513Z" fill="white"/>
<path id="Vector_2" d="M81.0544 0H48.9458V3.86567H81.0544V0Z" fill="white"/>
</g>
<g id="Group_2">
<path id="Vector_3" d="M35.764 78.5471C35.0461 78.0523 34.1922 76.9575 33.9012 75.8942C33.6718 76.9785 32.8605 78.1365 31.9132 78.7998L31.2993 78.105C32.4442 77.368 33.4233 75.7679 33.4233 73.7992V72.1254H34.3706V73.7887C34.3706 75.6731 35.2648 77.1575 36.3587 77.8523L35.7661 78.5471H35.764ZM36.8685 80.5052V75.4836H35.3392V74.673H36.8685V71.42H37.8052V80.5052H36.8685ZM38.7716 80.9895V71.199H39.7189V80.9895H38.7716Z" fill="white"/>
<path id="Vector_4" d="M44.6637 80.9999V77.7048H40.8022V76.8942H49.5447V77.7048H45.6429V80.9999H44.6637ZM41.8749 75.7152V71.7463H48.4614V75.7152H41.8749ZM47.4823 72.5443H42.8519V74.913H47.4823V72.5443Z" fill="white"/>
<path id="Vector_5" d="M50.46 76.2837V71.7569H51.4391V73.1992H53.9794V71.7464H54.9586V76.2837H50.4621H50.46ZM53.9773 73.9993H51.437V75.4731H53.9773V73.9993ZM51.7705 80.8631V77.0312H52.7581V78.1471H57.0253V76.9996H58.0129V80.8631H51.7683H51.7705ZM57.0274 78.9261H52.7603V80.0631H57.0274V78.9261ZM55.4556 74.273V73.4413H57.0274V71.199H58.0066V76.5258H57.0274V74.273H55.4556Z" fill="white"/>
<path id="Vector_6" d="M64.7185 74.294C64.7185 75.7047 63.6267 76.6838 62.1378 76.6838C60.6489 76.6838 59.5571 75.7047 59.5571 74.3046C59.5571 72.9044 60.6489 71.8622 62.1378 71.8622C63.6267 71.8622 64.7185 72.8939 64.7185 74.294ZM60.5873 74.2835C60.5873 75.1889 61.2224 75.8521 62.1378 75.8521C63.0532 75.8521 63.6883 75.1994 63.6883 74.294C63.6883 73.3887 63.0851 72.7044 62.1378 72.7044C61.1905 72.7044 60.5873 73.3781 60.5873 74.2835ZM60.9101 80.6842V77.6312H61.8893V79.8841H67.4988V80.6842H60.9122H60.9101ZM66.2902 78.305V71.199H67.2694V78.305H66.2902Z" fill="white"/>
<path id="Vector_7" d="M72.4924 75.7468V77.7681C73.7095 77.7891 74.7821 77.726 75.6041 77.5259L75.7188 78.3155C74.7396 78.5366 73.6989 78.6103 71.5154 78.5997V72.3675H75.1984V73.1781H72.4924V74.9573H74.729V75.7468H72.4924ZM75.3343 75.7573V74.9467H76.5514V71.4095H77.4881V80.5052H76.5514V75.7573H75.3343ZM78.4248 80.9895V71.199H79.3721V80.9895H78.4248Z" fill="white"/>
<path id="Vector_8" d="M80.4233 74.3572V73.5571H85.1174V74.3572H80.4233ZM82.8171 78.8208C81.5894 78.8208 80.7568 77.9997 80.7568 76.8943C80.7568 75.7047 81.5894 74.9678 82.8171 74.9678C84.0448 74.9678 84.8668 75.7258 84.8668 76.8943C84.8668 78.0628 84.0554 78.8208 82.8171 78.8208ZM81.5172 72.7886V71.9675H84.066V72.7886H81.5172ZM82.8171 75.7784C82.131 75.7784 81.6723 76.2521 81.6723 76.8943C81.6723 77.5365 82.131 77.9997 82.8171 77.9997C83.5032 77.9997 83.9619 77.5259 83.9619 76.8943C83.9619 76.2627 83.4925 75.7784 82.8171 75.7784ZM85.9288 80.5052V75.9363H84.8668V75.1257H85.9288V71.42H86.8548V80.5052H85.9288ZM87.6874 80.9895V71.199H88.6348V80.9895H87.6874Z" fill="white"/>
<path id="Vector_9" d="M95.472 76.768C94.5353 76.9469 92.8276 77.0838 91.4852 77.0838H90.0897V73.9782H93.4818V72.6412H90.0579V71.8306H94.4588V74.7572H91.0668V76.2942C92.9911 76.2942 94.2613 76.2205 95.3445 75.9784L95.4698 76.768H95.472ZM91.0923 80.7473V77.926H92.0714V79.9367H97.5556V80.7473H91.0923ZM97.1903 74.1361H98.6474V74.9573H97.1903V78.305H96.2217V71.199H97.1903V74.1361Z" fill="white"/>
</g>
<g id="Group_3">
<path id="Vector_10" d="M7.27048 47.6218V61.9938H5.51605V47.6218H0L0.541622 46.0364H12.7887L12.247 47.6218H7.27048Z" fill="white"/>
<path id="Vector_11" d="M30.5262 60.4085L29.9845 61.9939H20.6665V45.9712H30.5262L29.9845 47.5566H22.4209V53.2456H29.1073L28.5657 54.8079H22.4188V60.4085H30.524H30.5262Z" fill="white"/>
<path id="Vector_12" d="M49.2324 46.3711L50.9911 45.8363V61.9917H49.2324V54.8731H39.7105V61.9917H37.9561V46.369L39.7105 45.8342V53.2876H49.2324V46.369V46.3711Z" fill="white"/>
<path id="Vector_13" d="M69.8523 60.4085L69.3107 61.9939H59.9927V45.9712H69.8523L69.3107 47.5566H61.7471V53.2456H68.4314L67.894 54.8079H61.7471V60.4085H69.8523Z" fill="white"/>
<path id="Vector_14" d="M84.2848 54.7615C86.309 54.3383 87.7937 53.1992 87.7937 50.5C87.7937 46.8638 85.0941 46.0364 82.0313 46.0364H77.282V61.9917H79.0598V54.9615H82.4157L87.1714 61.9917H89.2253L84.287 54.7615H84.2848ZM82.0313 53.3782H79.0577V47.6218H82.0313C84.2147 47.6218 85.9925 48.2471 85.9925 50.5C85.9925 52.7529 84.2147 53.3782 82.0313 53.3782Z" fill="white"/>
<path id="Vector_15" d="M105.487 58.4441H98.2376L96.7295 61.9939H94.9751L101.863 45.7922L108.751 61.9939H106.997L105.489 58.4441H105.487ZM101.861 49.8979L98.913 56.8608H104.833L101.861 49.8979Z" fill="white"/>
<path id="Vector_16" d="M118.159 50.0305V61.9917H116.404V45.79L128.244 58.0861V46.4154L129.998 45.8785V62.236L118.157 50.0305H118.159Z" fill="white"/>
</g>
</g>
<defs>
<clipPath id="clip0_8011_1965">
<rect width="130" height="81" fill="white"/>
</clipPath>
</defs>
</svg>
