<svg width="64" height="64" viewBox="0 0 64 64" fill="none" xmlns="http://www.w3.org/2000/svg">
<g id="Frame">
<path id="Vector" d="M4 32C4 47.4625 16.5375 60 32 60C47.4625 60 60 47.4625 60 32C60 16.5375 47.4625 4 32 4C16.5375 4 4 16.5375 4 32ZM26.1063 20.4688L41.4813 31.5938C41.5451 31.6398 41.5972 31.7003 41.6331 31.7704C41.6689 31.8405 41.6877 31.9181 41.6877 31.9969C41.6877 32.0756 41.6689 32.1532 41.6331 32.2233C41.5972 32.2934 41.5451 32.354 41.4813 32.4L26.1063 43.525C25.775 43.7625 25.3125 43.525 25.3125 43.1187V40.1875C25.3125 39.55 25.6188 38.9438 26.1375 38.5688L35.225 32L26.1375 25.425C25.6188 25.05 25.3125 24.45 25.3125 23.8063V20.875C25.3125 20.4688 25.775 20.2313 26.1063 20.4688Z" fill="#0B317D"/>
</g>
</svg>
