<svg width="151" height="89" viewBox="0 0 151 89" fill="none" xmlns="http://www.w3.org/2000/svg">
<g clip-path="url(#clip0_859_2012)">
<path d="M33.5897 51.0273C33.5897 51.0273 28.4822 51.9474 27.7413 58.4698C27.0003 64.993 27.1489 75.8643 27.1489 75.8643L37.5826 75.8214L33.5904 51.0273H33.5897Z" fill="#A3A3A3"/>
<path d="M27.1486 76.2455C26.941 76.2455 26.7716 76.0787 26.7691 75.8709C26.7678 75.7618 26.6289 64.9003 27.364 58.4284C28.1277 51.7021 33.4688 50.6646 33.5226 50.6548C33.7277 50.6165 33.9268 50.7548 33.9638 50.9613C34.0008 51.1677 33.8639 51.3651 33.6576 51.4028C33.4558 51.4404 28.8167 52.3695 28.1186 58.5148C27.3887 64.9399 27.5269 75.7527 27.5282 75.8612C27.5308 76.0709 27.3634 76.2436 27.1538 76.2462H27.1486V76.2455Z" fill="black"/>
<path d="M137.848 76.2453H42.4733C42.2637 76.2453 42.0938 76.0752 42.0938 75.8649C42.0938 75.6545 42.2637 75.4844 42.4733 75.4844H137.847C138.057 75.4844 138.227 75.6545 138.227 75.8649C138.227 76.0752 138.057 76.2453 137.847 76.2453H137.848Z" fill="black"/>
<path d="M82.9681 31.0164C82.9006 30.4055 83.225 28.2019 84.3014 28.3467C85.3239 28.4694 85.2967 29.6257 85.1851 30.9911C85.0735 32.3565 85.2058 33.4317 85.1111 34.7555C84.9723 36.4988 83.687 38.1181 83.044 39.7055C82.0798 42.087 84.6809 47.6473 86.558 52.9849H80.2067C78.7935 47.648 76.2307 45.1639 76.2982 43.4401C76.3962 42.2636 77.723 41.6345 78.3595 39.7516L82.9687 31.0164H82.9681Z" fill="#FFDDC0"/>
<path d="M77.8096 44.1393C77.8044 44.1393 77.7986 44.1393 77.7934 44.1393C77.5838 44.1302 77.421 43.9529 77.43 43.7432C77.5345 41.3202 77.7973 39.9749 78.5129 38.2076C78.9665 37.0883 79.8813 36.2358 80.6171 35.5508C81.0407 35.156 81.406 34.8158 81.5877 34.5217C81.9095 34.0004 81.9945 33.4537 82.0853 32.8745C82.1366 32.5473 82.1892 32.209 82.2858 31.8565C82.4506 31.2546 82.7549 30.1327 83.9786 30.2976C85.1841 30.4593 85.1393 31.9396 85.1199 32.572C85.1179 32.7875 85.1244 32.9959 85.1309 33.1953C85.1556 33.9906 85.1789 34.7425 84.6028 35.604C84.2699 36.1098 83.8852 36.515 83.4777 36.9435C83.0521 37.3908 82.57 37.8979 82.0548 38.6205C81.9329 38.7913 81.696 38.8315 81.5254 38.7095C81.3548 38.5874 81.3145 38.3504 81.4365 38.1797C81.9828 37.4129 82.485 36.885 82.9275 36.4202C83.3278 35.9994 83.673 35.6365 83.9702 35.1846C84.4127 34.523 84.3958 33.9763 84.3718 33.2199C84.3653 33.0109 84.3588 32.7947 84.3608 32.5583C84.399 31.2929 84.1382 31.0871 83.8774 31.0521C83.5296 31.0053 83.3006 31.0287 83.0183 32.0584C82.9327 32.3694 82.8834 32.6862 82.8354 32.9927C82.7374 33.6205 82.6362 34.2692 82.2339 34.921C81.999 35.3021 81.5981 35.6755 81.1348 36.1072C80.4185 36.7747 79.6068 37.5304 79.2169 38.4933C78.5382 40.169 78.2884 41.4526 78.1885 43.7763C78.1794 43.9808 78.0114 44.1399 77.809 44.1406L77.8096 44.1393Z" fill="black"/>
<path d="M80.2076 53.3641C80.0396 53.3641 79.8858 53.2518 79.8404 53.081C79.0767 50.1977 77.9543 48.1252 77.1342 46.6124C76.4088 45.2743 75.8852 44.3069 75.9196 43.4245C75.9786 42.7091 76.3887 42.1864 76.8227 41.6332C77.2347 41.1086 77.7012 40.5139 78.0003 39.6296C78.0672 39.4309 78.2832 39.3238 78.4818 39.3913C78.6803 39.4588 78.7874 39.6744 78.7199 39.8731C78.3792 40.8807 77.8479 41.5579 77.4203 42.1026C77.0271 42.6039 76.717 42.9993 76.6774 43.4713C76.6521 44.1283 77.1342 45.0185 77.8018 46.2501C78.6394 47.7967 79.7872 49.9152 80.5742 52.8869C80.6281 53.0895 80.5074 53.2979 80.3043 53.3518C80.2719 53.3602 80.2388 53.3648 80.207 53.3648L80.2076 53.3641Z" fill="black"/>
<path d="M86.5599 53.3618C86.4035 53.3618 86.2562 53.2645 86.2017 53.108C85.804 51.9763 85.3693 50.8252 84.9495 49.7123C83.3015 45.3447 81.8786 41.5725 82.6935 39.5598C82.92 39.0001 83.2249 38.4346 83.5201 37.8873C84.0749 36.8576 84.6491 35.7928 84.7341 34.7221C84.7782 34.1034 84.7717 33.5463 84.7646 32.9561C84.7568 32.3296 84.749 31.6823 84.8081 30.9571C84.943 29.3099 84.8145 28.7872 84.2579 28.721C84.1761 28.71 84.0697 28.7145 83.9373 28.8437C83.4812 29.2898 83.3009 30.5565 83.3469 30.972C83.3696 31.1804 83.2197 31.3687 83.0108 31.3914C82.8019 31.4135 82.6144 31.2642 82.5917 31.0558C82.5359 30.5526 82.6968 28.9937 83.406 28.3003C83.6772 28.0354 84.0061 27.9205 84.3526 27.9672C85.8001 28.1406 85.6639 29.8046 85.5646 31.0194C85.5081 31.7089 85.5159 32.3387 85.5231 32.9471C85.5302 33.5268 85.5373 34.1255 85.4906 34.7793C85.3926 36.0122 84.7802 37.1491 84.1878 38.2476C83.8893 38.8015 83.6077 39.3241 83.3969 39.8448C82.6936 41.5816 84.1339 45.4006 85.6593 49.4435C86.081 50.5609 86.5164 51.716 86.9174 52.8554C86.9868 53.0534 86.883 53.2709 86.6851 53.3404C86.6436 53.3553 86.6008 53.3618 86.5586 53.3618H86.5599Z" fill="black"/>
<path d="M85.1695 31.4122C85.1591 31.4122 85.1481 31.4122 85.1377 31.4109C84.9288 31.3933 84.7731 31.2096 84.7906 31.0005C84.8256 30.5772 84.9502 30.0883 85.0709 29.615C85.235 28.9703 85.4829 27.9964 85.2324 27.8049C85.1085 27.7003 84.9982 27.6763 84.86 27.7159C84.5291 27.8094 84.1541 28.2347 84.0068 28.684C83.9413 28.8833 83.7265 28.9924 83.5273 28.9268C83.3281 28.8612 83.2191 28.647 83.2847 28.447C83.5137 27.7484 84.0762 27.1465 84.653 26.9835C85.0339 26.8764 85.4089 26.9576 85.7087 27.2127C86.3419 27.6977 86.0694 28.7677 85.806 29.802C85.6937 30.2448 85.577 30.7025 85.5471 31.0629C85.5302 31.2615 85.3642 31.4115 85.1689 31.4115L85.1695 31.4122Z" fill="black"/>
<path d="M80.9498 36.0724C80.8985 36.0724 80.8466 36.062 80.7966 36.04C80.6046 35.9556 80.5183 35.7309 80.6026 35.5387C81.3605 33.8214 81.4571 31.8022 81.535 30.1791C81.5746 29.0442 81.9989 28.0845 82.6691 27.6164C83.1233 27.2996 83.6566 27.2288 84.2127 27.4119C84.4119 27.4775 84.5202 27.6924 84.4547 27.8917C84.3892 28.091 84.175 28.1995 83.9752 28.1339C83.6463 28.0261 83.3614 28.0605 83.1038 28.2397C82.6425 28.5618 82.3246 29.335 82.2941 30.2102C82.213 31.9009 82.1131 33.9987 81.2982 35.8452C81.2359 35.9874 81.0964 36.0718 80.9504 36.0718L80.9498 36.0724Z" fill="black"/>
<path d="M82.9511 68.929C80.9469 63.2636 79.3819 53.2565 79.3164 52.9844C79.3164 51.3613 85.9837 49.8998 86.5858 51.0269C86.5858 51.0269 91.74 61.0729 93.4348 66.6235C95.354 72.9103 93.4062 76.7462 93.4062 76.7462L82.9511 68.929Z" fill="white"/>
<path d="M79.3181 52.9841C79.3181 52.9841 78.243 50.2196 77.3262 48.24C75.4719 44.2373 71.6257 42.9959 71.6257 42.9959L58.4053 33.9471C54.6726 32.9186 52.3278 33.9549 51.3546 37.0317C51.3546 37.0317 44.0222 37.8862 39.7627 39.7508C34.7259 41.9557 33.5898 47.2018 33.5898 54.3177C33.5898 61.4336 36.3551 75.8629 36.3551 75.8629L71.6257 74.6247L71.6873 69.1423L73.4008 65.3708L79.9624 73.8865L88.8421 71.8335L79.3181 52.9835V52.9841Z" fill="white"/>
<path d="M49.9858 67.1665C52.8497 68.3527 64.9489 72.4048 65.5413 72.2561L66.3808 81.0023C66.3808 81.0023 44.0445 79.6726 40.8004 77.1483C38.1338 75.0726 34.4258 59.7461 34.4258 59.7461L49.9858 67.1665Z" fill="white"/>
<path d="M96.8781 77.3984L76.2982 79.2242L76.1094 82.5783L96.3493 85.835L96.8781 77.3984Z" fill="#D8D8D8"/>
<path d="M138.612 49.5568L131.92 82.329C131.879 82.5958 131.66 82.7997 131.391 82.8218L96.3474 85.8369C95.9724 85.8675 95.6661 85.5409 95.7213 85.1682L100.68 51.822C100.72 51.55 100.944 51.3429 101.219 51.3247L137.995 48.8841C138.369 48.8594 138.669 49.1873 138.611 49.5574L138.612 49.5568Z" fill="#D8D8D8"/>
<path d="M117.206 68.0071C116.881 69.466 117.07 70.7496 117.629 70.8749C118.188 70.9995 118.905 69.9179 119.23 68.459C119.555 67.0001 119.366 65.7165 118.806 65.5918C118.247 65.4672 117.531 66.5488 117.206 68.0071Z" fill="white"/>
<path fill-rule="evenodd" clip-rule="evenodd" d="M61.31 7.37502C61.31 7.37502 62.1042 6.12713 62.9126 5.78757C63.7204 5.44735 64.4289 5.98689 64.4289 5.98689C64.4289 5.98689 66.2151 4.62604 67.6321 5.70511C69.9134 7.42241 70.025 10.585 70.025 10.585C70.025 10.585 70.5356 9.5072 74.3753 11.7361C75.2116 12.2471 76.5852 13.2547 77.7758 14.0352C78.9657 14.8156 79.9007 15.4122 79.9007 15.4122L81.8413 17.7678C81.8413 17.7678 84.3925 18.4073 85.2132 20.1804C85.9211 21.6841 85.5227 24.237 85.3092 26.0524C85.11 28.0521 84.0311 30.916 82.9391 32.3905C81.7764 33.9072 81.2794 35.4102 81.2794 35.4102C81.2794 35.4102 81.5201 36.1335 80.726 37.6222C79.9312 39.111 77.4364 39.9323 76.6001 41.3503C75.7631 42.7683 76.2588 43.4351 76.2588 43.4351C76.2588 43.4351 74.374 43.0228 73.8511 40.7816C72.6345 35.7744 58.7186 32.4067 58.7186 32.4067C58.7186 32.4067 56.028 27.7534 55.6185 24.8175C55.2234 21.825 59.0385 15.7284 59.0385 15.7284L57.1121 13.5573C57.1121 13.5573 56.5321 11.0609 58.0354 9.62926C60.7293 7.04909 61.3107 7.37567 61.3107 7.37567L61.31 7.37502Z" fill="#FFCE7E"/>
<path fill-rule="evenodd" clip-rule="evenodd" d="M57.6228 36.7725L60.2194 30.4909C60.2194 30.4909 59.2422 29.5826 58.7323 28.4905C58.4208 27.8094 58.4072 26.9017 58.5772 26.4622C59.6698 23.5412 62.546 25.7694 62.546 25.7694C62.546 25.7694 63.8074 26.5076 65.3236 26.4654C66.8399 26.4239 67.8041 25.9421 68.8532 25.361C69.9874 24.6806 72.6391 22.0297 72.6391 22.0297C72.6391 22.0297 74.001 19.9598 75.588 19.8754C75.9565 19.8475 80.4347 21.211 80.519 22.3173C80.5748 23.7781 80.362 25.352 80.5878 26.6148C80.8136 28.1185 81.2379 30.5155 81.2379 30.5155C81.2379 30.5155 81.1951 30.4448 80.6566 31.3946C79.9331 32.5997 79.2097 33.8047 79.0397 34.2443C78.472 35.7902 77.5779 37.9165 76.6702 39.1358C74.9684 41.6024 71.9909 43.147 70.1061 43.458C69.1705 43.5852 68.1791 42.9749 68.1791 42.9749L66.5804 46.3673L62.0912 49.6383L59.7671 47.4308L55.8359 39.5793L57.6228 36.7718V36.7725Z" fill="#FFDDC0"/>
<path d="M56.2387 39.4146C56.1544 39.4146 56.0688 39.3866 55.9987 39.3289C55.8365 39.1958 55.8125 38.9562 55.9448 38.7939C57.1075 37.37 58.3552 34.2594 59.1351 31.8227C59.1993 31.6228 59.4121 31.513 59.6126 31.5767C59.8125 31.6409 59.9228 31.8545 59.8585 32.0545C59.4699 33.2693 58.0814 37.3798 56.5327 39.275C56.4574 39.3665 56.3484 39.4146 56.2387 39.4146Z" fill="black"/>
<path d="M66.5832 46.7473C66.5371 46.7473 66.4897 46.7388 66.4437 46.7207C66.2484 46.6434 66.153 46.4233 66.2295 46.2279C66.26 46.1506 66.9867 44.3164 67.8892 42.8985C68.0021 42.7219 68.2364 42.6693 68.4135 42.7822C68.5906 42.8952 68.6425 43.1302 68.5296 43.3068C67.6667 44.6625 66.9433 46.4882 66.9361 46.5064C66.8771 46.6557 66.7343 46.7473 66.5825 46.7473H66.5832Z" fill="black"/>
<path d="M60.8158 31.142C60.7581 31.142 60.6997 31.129 60.6445 31.1011C58.9595 30.2467 58.1044 29.0371 58.0291 27.4029C57.9896 26.2044 58.6098 25.1526 59.6077 24.7176C60.605 24.2825 61.741 24.5598 62.6455 25.4584C62.7941 25.6064 62.7954 25.8466 62.6474 25.996C62.4995 26.1453 62.2588 26.1459 62.1102 25.9979C61.4251 25.3168 60.6238 25.1039 59.9114 25.4142C59.2003 25.7239 58.7597 26.4933 58.7883 27.373C58.8505 28.7229 59.5493 29.6935 60.9878 30.4233C61.1746 30.5181 61.2499 30.7466 61.1551 30.9343C61.0883 31.0667 60.9547 31.1427 60.8158 31.1427V31.142Z" fill="black"/>
<path d="M60.9023 28.3912C60.7278 28.3912 60.5714 28.2705 60.5319 28.0932C60.5319 28.0906 60.4332 27.6777 60.1335 27.3667C59.9882 27.2154 59.9927 26.9752 60.1432 26.8291C60.2944 26.6837 60.5345 26.6876 60.6804 26.8389C61.132 27.3076 61.2676 27.903 61.2735 27.9283C61.3189 28.1335 61.1898 28.3361 60.9847 28.3815C60.9568 28.3873 60.9296 28.3906 60.9023 28.3906V28.3912Z" fill="black"/>
<path fill-rule="evenodd" clip-rule="evenodd" d="M67.9948 42.9912C67.9948 42.9912 66.0399 41.4161 64.4815 39.6988C63.0223 38.0672 61.918 36.2227 61.918 36.2227C61.918 36.2227 62.0159 38.4775 63.4745 41.074C64.9895 43.6846 67.1721 44.593 67.1721 44.593L67.9948 42.9906V42.9912Z" fill="black"/>
<path d="M69.8594 43.8166C67.7208 43.8166 64.554 40.7715 63.0208 38.7971C61.7536 37.0999 61.4896 36.1598 61.0964 34.51C61.0477 34.3055 61.1736 34.101 61.378 34.0523C61.583 34.0036 61.7867 34.1296 61.8354 34.3341C62.215 35.9274 62.4492 36.7623 63.6248 38.3368C65.4636 40.7046 68.454 43.1718 69.9645 43.053C70.7113 42.9959 71.7734 42.5531 72.8777 41.8383C74.9098 40.5287 76.3625 39.1185 76.9678 37.8667C77.4292 36.9526 77.7082 36.2436 77.9781 35.5573C78.1961 35.0035 78.4017 34.4808 78.6846 33.8958C79.0227 33.1998 79.4022 32.5648 79.7688 31.9513C79.9518 31.6448 80.1347 31.3384 80.3132 31.0241C80.415 30.8631 80.5266 30.6541 80.6343 30.4515C80.7329 30.2664 80.9633 30.1957 81.1482 30.295C81.3331 30.3937 81.4032 30.6242 81.3046 30.8092C81.1897 31.0248 81.071 31.2468 80.9633 31.4156C80.792 31.7182 80.6064 32.0298 80.4202 32.3408C80.0614 32.9414 79.6909 33.5621 79.3672 34.2276C79.0973 34.7853 78.8968 35.2956 78.684 35.8358C78.4076 36.5377 78.1221 37.2635 77.6478 38.203C76.9756 39.5931 75.4671 41.0721 73.289 42.4758C72.5799 42.9349 71.2122 43.7192 70.0222 43.8101C69.9684 43.814 69.9145 43.8159 69.8594 43.8159V43.8166Z" fill="black"/>
<path d="M73.5244 36.9208C73.3784 36.9208 73.2389 36.8357 73.1766 36.6929C73.0923 36.5007 73.1799 36.2767 73.3719 36.1923C73.998 35.9177 74.1525 35.7183 74.1882 35.6235C74.2336 35.5047 74.1622 35.3359 74.0422 35.0691C73.878 34.7048 73.6736 34.251 73.7911 33.6712C74.059 32.3162 75.0809 31.2845 75.8271 30.6262C75.9841 30.4872 76.2241 30.5028 76.363 30.6599C76.5018 30.817 76.4869 31.0573 76.3293 31.1962C75.6668 31.7812 74.7598 32.6902 74.5359 33.8205C74.4665 34.1621 74.5969 34.451 74.7345 34.7568C74.8863 35.0937 75.0589 35.4762 74.8967 35.8969C74.7507 36.2767 74.3744 36.5825 73.6756 36.889C73.6263 36.911 73.5744 36.9208 73.5231 36.9208H73.5244Z" fill="black"/>
<path d="M74.0001 27.5739C73.8924 27.5739 73.7859 27.5285 73.7107 27.4402C73.0171 26.6254 71.4878 26.6124 70.9564 26.676C70.7495 26.7007 70.5587 26.5526 70.5341 26.3442C70.5088 26.1358 70.6573 25.9462 70.8656 25.9216C70.9603 25.9105 73.1923 25.658 74.2894 26.948C74.425 27.1078 74.4062 27.348 74.2466 27.4837C74.1752 27.5447 74.0876 27.5746 74.0007 27.5746L74.0001 27.5739Z" fill="black"/>
<path d="M81.1548 30.272C81.0393 30.272 80.9252 30.2194 80.8505 30.1201C80.8207 30.0811 80.1764 29.265 78.8204 29.4312C78.6102 29.4572 78.4227 29.3085 78.3973 29.1001C78.372 28.8917 78.52 28.7021 78.7282 28.6768C80.5423 28.4541 81.4234 29.6162 81.4604 29.6662C81.585 29.835 81.5493 30.0733 81.3806 30.198C81.3131 30.248 81.2333 30.2726 81.1555 30.2726L81.1548 30.272Z" fill="black"/>
<path d="M56.3976 34.751C56.3158 34.751 56.2334 34.7477 56.1504 34.7412C55.9414 34.7244 55.7857 34.5413 55.8019 34.3322C55.8188 34.1231 56.0018 33.9673 56.2107 33.9835C57.7977 34.1095 58.3609 32.6597 58.4965 32.2117C58.5568 32.0111 58.769 31.8968 58.9701 31.9578C59.1706 32.0182 59.2848 32.2305 59.2238 32.4318C58.7865 33.8823 57.716 34.7516 56.3976 34.7516V34.751Z" fill="black"/>
<path d="M65.6116 26.7306C64.8297 26.7306 64.0836 26.5235 63.4179 26.0502C63.2466 25.9288 63.2064 25.6912 63.3284 25.5204C63.4497 25.349 63.6872 25.3088 63.8578 25.4308C65.8607 26.854 68.9737 25.1984 71.0175 23.0565C71.423 22.6266 71.7864 22.2235 72.1368 21.8332C73.437 20.388 74.3025 19.4258 75.3082 19.4258C75.3225 19.4258 75.3374 19.4258 75.3523 19.4258C75.9252 19.4414 76.4501 19.7699 77.0036 20.4588C77.1353 20.6224 77.1093 20.8613 76.9458 20.9931C76.7823 21.1243 76.5435 21.0989 76.4118 20.9353C76.0135 20.4399 75.6605 20.1952 75.3315 20.1861C74.6535 20.1679 73.8373 21.0795 72.7019 22.3416C72.3645 22.7169 71.9823 23.1415 71.5684 23.5798C69.8814 25.3464 67.63 26.7306 65.6116 26.7306Z" fill="black"/>
<path d="M59.0497 32.5437C58.8726 32.5437 58.7013 32.4788 58.5553 32.3528C58.5488 32.347 58.5423 32.3411 58.5365 32.3353C57.671 31.4835 54.835 26.4244 55.4286 23.0476C55.9153 20.4525 59.0192 12.5782 64.2052 11.4849C64.4109 11.4414 64.6121 11.5732 64.6555 11.7783C64.699 11.9835 64.5673 12.1854 64.3623 12.2289C59.5506 13.2431 56.6387 20.7206 56.1767 23.1839C55.6421 26.2264 58.2536 30.9576 59.0523 31.7756C59.2002 31.7575 59.5519 31.2679 59.7595 30.7927C59.8432 30.6005 60.0671 30.5122 60.2598 30.5966C60.4518 30.6803 60.5401 30.9043 60.4564 31.0965C60.3266 31.3945 59.8543 32.3782 59.2171 32.5242C59.1613 32.5372 59.1055 32.5431 59.0504 32.5431L59.0497 32.5437Z" fill="black"/>
<path d="M80.296 16.3735C80.1772 16.3735 80.0611 16.3183 79.9865 16.2144C78.2976 13.8511 71.0872 9.33739 67.8036 11.4423C67.6271 11.5559 67.3916 11.504 67.2787 11.3274C67.1658 11.1508 67.217 10.9157 67.3935 10.8021C71.1508 8.39336 78.694 13.0992 80.6042 15.7716C80.7261 15.9423 80.6866 16.18 80.5159 16.302C80.4491 16.3501 80.3719 16.3728 80.2953 16.3728L80.296 16.3735Z" fill="black"/>
<path d="M82.3855 33.7755C82.3187 33.7755 82.2506 33.7579 82.1889 33.7203C82.0098 33.6112 81.9521 33.3775 82.0611 33.1983C83.7714 30.3772 85.5057 25.8402 85.2721 22.5458C85.1138 19.8358 83.5398 18.3269 80.4598 17.9296C80.2522 17.9029 80.1049 17.7121 80.1322 17.5036C80.1588 17.2959 80.3463 17.1478 80.5578 17.1751C84.0089 17.6212 85.8502 19.4112 86.0306 22.4965C86.2758 25.9519 84.4818 30.6713 82.7112 33.5924C82.6398 33.7105 82.5146 33.7755 82.3862 33.7755H82.3855Z" fill="black"/>
<path d="M59.1357 15.8188C58.3642 15.8188 57.6512 15.3319 57.2002 14.4833C56.5955 13.3464 56.4677 11.5012 57.6142 10.1358C57.7491 9.97482 57.9886 9.95404 58.1495 10.0891C58.3097 10.2241 58.3311 10.4637 58.1962 10.6247C57.317 11.6713 57.3676 13.1783 57.8711 14.1262C58.0333 14.4314 58.4953 15.1332 59.2518 15.0521C59.4594 15.0306 59.6476 15.1813 59.6697 15.3897C59.6917 15.5987 59.5405 15.7857 59.3323 15.8078C59.2667 15.8149 59.2012 15.8182 59.1363 15.8182L59.1357 15.8188Z" fill="black"/>
<path d="M61.4643 13.3983C61.4338 13.3983 61.4027 13.3944 61.3716 13.3866C60.5281 13.175 59.8364 12.5614 59.5211 11.7446C59.1922 10.8922 59.3051 9.95072 59.8313 9.16122C59.948 8.98657 60.1836 8.93982 60.3581 9.05604C60.5326 9.17225 60.5793 9.40859 60.4632 9.58324C60.0759 10.1637 59.9909 10.8519 60.2296 11.4706C60.4593 12.066 60.9427 12.4952 61.5558 12.6491C61.7595 12.6997 61.8828 12.9062 61.8322 13.11C61.7887 13.2827 61.6343 13.3977 61.4643 13.3977V13.3983Z" fill="black"/>
<path d="M65.8996 12.0406C65.801 12.0406 65.7024 12.0023 65.6277 11.9264C65.4811 11.7764 65.4837 11.5355 65.6342 11.3888C66.8689 10.1818 66.9007 6.92703 66.9118 5.85704C66.9137 5.64863 67.0837 5.48047 67.2913 5.48047H67.2952C67.5048 5.48242 67.6735 5.65447 67.6715 5.86418C67.6521 7.85677 67.4743 10.6531 66.1656 11.9322C66.0917 12.0043 65.9956 12.0406 65.9003 12.0406H65.8996Z" fill="black"/>
<path d="M64.6819 11.3728C64.6819 11.3728 64.676 11.3728 64.6728 11.3728C64.4632 11.3676 64.2971 11.1936 64.3016 10.9839C64.3406 9.31402 63.4199 7.88369 62.5706 7.72007C61.2074 7.48764 59.5523 8.24338 58.8898 9.40491C58.786 9.58736 58.5544 9.65098 58.3714 9.54645C58.1891 9.44257 58.1255 9.21013 58.23 9.02769C59.0514 7.58697 61.0167 6.6832 62.7062 6.97147C64.0317 7.22598 65.1062 9.07119 65.0614 11.0008C65.0569 11.2079 64.8875 11.3722 64.6819 11.3722V11.3728Z" fill="black"/>
<path d="M69.9259 10.6375C69.9032 10.6375 69.8805 10.6356 69.8578 10.631C69.6515 10.594 69.5146 10.396 69.5516 10.1895C69.6736 9.51431 69.2797 8.22877 68.4097 7.24643C67.2567 5.98946 66.3581 5.74404 65.8079 5.76092C65.1824 5.77975 64.8314 6.131 64.7094 6.28163C64.5777 6.44459 64.3383 6.46927 64.1755 6.33682C64.0126 6.20437 63.9879 5.96479 64.1203 5.80247C64.5174 5.31358 65.124 5.02141 65.7858 5.00128C66.4885 4.97791 67.6233 5.26358 68.9748 6.73741C69.9266 7.81129 70.482 9.31823 70.3003 10.3246C70.2672 10.5083 70.107 10.6369 69.9272 10.6369L69.9259 10.6375Z" fill="black"/>
<path d="M66.3947 11.2593C66.3674 11.2593 66.3395 11.2561 66.311 11.2502C66.1066 11.2041 65.9775 11.0009 66.0235 10.7964C66.3259 9.44786 65.4 6.9456 64.0751 6.3301C63.2401 5.94249 62.3538 6.35607 61.4403 7.5611C61.3131 7.72796 61.075 7.76107 60.9082 7.63447C60.7408 7.50786 60.7084 7.26893 60.8349 7.10207C62.2786 5.19778 63.5678 5.25687 64.395 5.64123C66.0566 6.4132 67.1382 9.29398 66.7645 10.9632C66.7249 11.1398 66.5679 11.2606 66.394 11.2606L66.3947 11.2593Z" fill="black"/>
<path d="M76.5693 44.0119C76.4369 44.0119 76.3084 43.9431 76.239 43.8197C74.9556 41.5622 76.627 40.4325 78.1018 39.4352C78.9991 38.8288 79.9269 38.2016 80.3551 37.3251C81.4023 35.2202 80.8664 31.9817 80.5115 29.8391C80.4336 29.369 80.3662 28.9626 80.3233 28.6185C80.0683 26.7421 80.0307 25.0417 79.9911 23.2419C79.984 22.9271 79.9775 22.6083 79.9691 22.2843C79.9613 21.6324 79.74 20.8046 79.2729 20.5157C78.9991 20.3469 78.6357 20.3709 78.192 20.5871C78.0038 20.6793 77.7761 20.6007 77.6839 20.4118C77.5924 20.2229 77.6703 19.9956 77.8591 19.9034C78.7227 19.4827 79.3216 19.6522 79.6719 19.869C80.4356 20.3404 80.7185 21.4188 80.7288 22.27C80.7373 22.5901 80.7444 22.9095 80.7509 23.2251C80.7898 25.0027 80.8268 26.6824 81.0766 28.5205C81.1181 28.8535 81.1843 29.2522 81.2609 29.7145C81.6314 31.9544 82.1919 35.339 81.0357 37.6614C80.5193 38.7171 79.4604 39.4333 78.5267 40.0644C76.8898 41.1714 76.0067 41.8739 76.8989 43.4431C77.0027 43.6256 76.9391 43.858 76.7568 43.9612C76.6977 43.995 76.6328 44.0112 76.5693 44.0112V44.0119Z" fill="black"/>
<path d="M72.0188 30.7776C71.9228 30.7776 71.8268 30.7412 71.7528 30.6691C71.2643 30.1906 70.5596 29.9809 69.6565 30.0445C69.4482 30.0601 69.2659 29.9017 69.251 29.6926C69.2361 29.4829 69.3937 29.3011 69.6026 29.2868C70.7316 29.2063 71.6341 29.4888 72.2842 30.1263C72.4341 30.2731 72.4367 30.5139 72.2901 30.6639C72.2154 30.7399 72.1175 30.7782 72.0188 30.7782V30.7776Z" fill="black"/>
<path d="M78.3123 33.5043C78.1923 33.5043 78.0742 33.4471 78.0002 33.3413C77.4306 32.5219 76.4891 32.5479 76.4502 32.5492C76.2426 32.557 76.0641 32.3947 76.0551 32.1863C76.046 31.9772 76.2062 31.8006 76.4145 31.7902C76.471 31.787 77.8088 31.7357 78.6237 32.9076C78.7438 33.0796 78.7016 33.3166 78.529 33.4367C78.4628 33.4828 78.3869 33.5049 78.3123 33.5049V33.5043Z" fill="black"/>
<path fill-rule="evenodd" clip-rule="evenodd" d="M69.886 29.901C70.1416 29.3621 70.311 29.8874 70.7502 30.0575C71.1895 30.2276 71.728 30.001 71.473 30.5399C71.2174 31.0788 70.7217 31.3761 70.2824 31.206C69.8289 31.0924 69.631 30.4399 69.886 29.901Z" fill="black"/>
<path fill-rule="evenodd" clip-rule="evenodd" d="M76.5765 32.3C76.8315 31.7611 76.69 32.3286 77.0585 32.5415C77.4271 32.7545 78.2634 32.5422 77.9513 33.0668C77.6957 33.6057 77.1429 33.8887 76.7744 33.6758C76.4201 33.4063 76.3215 32.8389 76.5765 32.3Z" fill="black"/>
<path d="M72.8645 40.1901C72.727 40.1901 72.5946 40.1154 72.5271 39.9849C72.4927 39.9194 71.6888 38.4403 69.745 38.6527C69.5367 38.676 69.3492 38.5248 69.3265 38.3157C69.3038 38.1073 69.4543 37.9196 69.6632 37.8969C72.1404 37.6275 73.1604 39.5538 73.2025 39.6363C73.2986 39.8226 73.2253 40.0518 73.0384 40.1479C72.9826 40.1765 72.9235 40.1901 72.8652 40.1901H72.8645Z" fill="black"/>
<path fill-rule="evenodd" clip-rule="evenodd" d="M68.5379 30.9115C69.251 30.5616 69.6954 31.2706 70.3482 31.5335C71.0839 31.8296 72.0182 31.6958 72.0182 32.3217C72.0182 33.1197 70.7011 33.5644 69.7032 33.2683C68.6502 32.9561 67.8398 31.255 68.5386 30.9115H68.5379Z" fill="#DDC3AF"/>
<path fill-rule="evenodd" clip-rule="evenodd" d="M75.2402 33.5795C75.8092 33.2295 76.1634 33.9385 76.6844 34.2015C77.2716 34.4975 78.0171 34.3638 78.0171 34.9897C78.0171 35.7876 76.966 36.2324 76.1693 35.9363C75.3291 35.624 74.6822 33.923 75.2395 33.5795H75.2402Z" fill="#DDC3AF"/>
<path d="M36.3558 76.2445C36.1773 76.2445 36.0177 76.1179 35.9833 75.9361C35.9554 75.7913 33.2109 61.3893 33.2109 54.3189C33.2109 48.0275 33.9863 41.866 39.6116 39.4033C43.8743 37.5373 51.01 36.6901 51.3117 36.655C51.5213 36.6303 51.7088 36.7803 51.7328 36.9887C51.7568 37.1971 51.6076 37.3861 51.3993 37.4101C51.3267 37.4185 44.0735 38.2795 39.9159 40.1C34.6909 42.3873 33.9707 48.2853 33.9707 54.3189C33.9707 61.3173 36.7016 75.6485 36.7295 75.7926C36.7691 75.9984 36.6341 76.1977 36.4278 76.2373C36.4038 76.2419 36.3798 76.2445 36.3558 76.2445Z" fill="black"/>
<path d="M66.3793 81.3831C66.3716 81.3831 66.3644 81.3831 66.3566 81.3824C65.4398 81.3279 43.8653 80.0164 40.566 77.4486C37.8299 75.319 33.647 59.6328 33.4699 58.966C33.416 58.7634 33.5367 58.555 33.7398 58.5011C33.9422 58.4472 34.1505 58.568 34.2043 58.7712C35.3897 63.244 38.9277 75.2105 41.0325 76.8486C43.5246 78.7886 58.7168 80.1657 66.402 80.6235C66.6116 80.6358 66.7712 80.8156 66.7589 81.0253C66.7472 81.2273 66.5798 81.3831 66.38 81.3831H66.3793Z" fill="black"/>
<path d="M49.9861 67.5462C49.8648 67.5462 49.746 67.4884 49.6727 67.3812C47.9138 64.8153 45.9842 58.609 44.7073 54.5025L44.6852 54.4304C44.6229 54.2298 44.7345 54.0168 44.935 53.9545C45.1355 53.8928 45.3483 54.0045 45.4106 54.2044L45.4333 54.2765C46.6966 58.3396 48.6054 64.4797 50.3001 66.9508C50.4189 67.1241 50.3747 67.3605 50.2015 67.4793C50.136 67.5241 50.0607 67.5462 49.9867 67.5462H49.9861Z" fill="black"/>
<path d="M65.5605 72.6315C64.1409 72.6315 49.4289 67.8256 47.3715 66.9738C47.1775 66.8933 47.0854 66.6712 47.1658 66.4771C47.2456 66.283 47.4682 66.1908 47.6622 66.2713C50.5384 67.4621 64.451 71.8368 65.4917 71.879C65.6812 71.8556 65.8622 71.9744 65.9096 72.1634C65.9608 72.3672 65.8369 72.5731 65.6332 72.6243C65.615 72.6289 65.591 72.6308 65.5605 72.6308V72.6315Z" fill="black"/>
<path d="M54.5865 50.6978C54.5463 50.6978 54.5054 50.6913 54.4665 50.6783C54.3549 50.6413 54.2673 50.5543 54.2284 50.4433C53.7975 49.2142 50.0526 38.3612 51.2029 35.9212C53.0962 31.9049 58.4684 33.5696 58.5223 33.5871C58.7221 33.6508 58.8317 33.8644 58.7682 34.0643C58.7046 34.2643 58.4905 34.3747 58.2913 34.3111C58.0966 34.2494 53.4991 32.832 51.89 36.2459C51.066 37.993 53.5672 46.1698 54.7863 49.7324C55.888 49.0208 58.7221 47.2691 59.912 47.2691C60.9793 47.2691 61.7281 48.4923 62.1271 49.3662C62.6033 48.4812 63.4741 47.1937 64.5556 47.0782C65.8059 46.9451 67.1989 48.7189 67.8263 49.6291C68.8353 48.078 70.5962 44.9713 70.2854 43.5163C70.2413 43.3111 70.3723 43.1092 70.5773 43.0651C70.783 43.0203 70.9842 43.1521 71.0283 43.3572C71.5149 45.6336 68.2727 50.3349 68.1345 50.5342C68.0612 50.6394 67.9451 50.7043 67.8114 50.6972C67.683 50.6933 67.5655 50.6251 67.4987 50.516C66.8356 49.4317 65.4731 47.7521 64.6367 47.8339C63.6895 47.9352 62.7117 49.8129 62.4437 50.4621C62.3827 50.6095 62.2381 50.7043 62.0771 50.6972C61.9175 50.6907 61.7793 50.5848 61.7307 50.4329C61.5321 49.809 60.7717 48.0293 59.9127 48.0293C59.0536 48.0293 56.3052 49.6272 54.7987 50.6342C54.7351 50.6764 54.6618 50.6985 54.5878 50.6985L54.5865 50.6978Z" fill="black"/>
<path d="M59.9115 48.0293C59.7895 48.0293 59.6701 47.9708 59.5968 47.8624C55.2406 41.4217 55.7778 37.3288 55.8031 37.1573C55.8336 36.9496 56.0263 36.8061 56.234 36.836C56.4409 36.8665 56.5843 37.0587 56.5551 37.2658C56.5499 37.3047 56.0549 41.2678 60.2262 47.4358C60.3436 47.6098 60.2982 47.8462 60.1243 47.9637C60.0588 48.0078 59.9848 48.0293 59.9121 48.0293H59.9115Z" fill="black"/>
<path d="M96.2997 86.2168C96.0324 86.2168 95.78 86.1077 95.5964 85.911C95.394 85.6948 95.3031 85.4026 95.3466 85.1098L100.305 51.7636C100.371 51.3176 100.745 50.9728 101.194 50.943L137.971 48.5024C138.263 48.4816 138.547 48.5965 138.746 48.814C138.945 49.0315 139.033 49.3231 138.988 49.6139C138.987 49.6198 138.986 49.6256 138.984 49.6315L132.293 82.4037C132.228 82.8283 131.868 83.162 131.422 83.199L96.3802 86.2136C96.3529 86.2162 96.3263 86.2168 96.2991 86.2168H96.2997ZM138.036 49.2601C138.031 49.2601 138.026 49.2601 138.021 49.2601L101.244 51.7007C101.149 51.7072 101.07 51.7799 101.056 51.8747L96.0973 85.2208C96.0849 85.3059 96.1252 85.3637 96.1505 85.3909C96.1758 85.4182 96.2309 85.4637 96.3166 85.4552L131.358 82.44C131.454 82.4322 131.53 82.3615 131.545 82.2673L138.237 49.4886C138.247 49.4075 138.209 49.3523 138.185 49.3257C138.162 49.3003 138.112 49.2594 138.035 49.2594L138.036 49.2601Z" fill="black"/>
<path d="M117.714 71.2654C117.65 71.2654 117.593 71.2576 117.545 71.2472C116.638 71.0447 116.5 69.4235 116.834 67.9263C117.167 66.4297 117.977 65.0195 118.888 65.2227C119.795 65.4253 119.932 67.0465 119.599 68.5437C119.432 69.2936 119.16 69.9786 118.832 70.4727C118.4 71.1252 117.988 71.2661 117.713 71.2661L117.714 71.2654ZM117.575 68.0912C117.244 69.5812 117.546 70.4681 117.711 70.5051C117.744 70.5149 117.933 70.4532 118.199 70.0519C118.473 69.6397 118.713 69.0294 118.858 68.3775C119.189 66.8874 118.887 66.0005 118.722 65.9642C118.556 65.9239 117.907 66.6018 117.575 68.0918L117.575 68.0912Z" fill="black"/>
<path d="M95.7167 83.916C95.7005 83.916 95.6837 83.9147 95.6674 83.9127L76.2489 81.3819C76.0406 81.3546 75.894 81.1644 75.9212 80.956C75.9485 80.7482 76.1386 80.6015 76.3469 80.6281L95.7654 83.1589C95.9737 83.1862 96.1203 83.3764 96.0931 83.5849C96.0684 83.7764 95.9049 83.916 95.7167 83.916Z" fill="black"/>
<path d="M96.3496 86.216C96.3295 86.216 96.3094 86.2147 96.2893 86.2115L76.05 82.9548C75.843 82.921 75.7022 82.7262 75.7353 82.5191C75.769 82.312 75.9611 82.1704 76.1706 82.2042L96.41 85.4616C96.6169 85.4947 96.7577 85.6901 96.7246 85.8972C96.6948 86.0842 96.5332 86.2173 96.3496 86.2173V86.216Z" fill="black"/>
<path d="M76.2978 79.6057C76.1031 79.6057 75.9377 79.457 75.9195 79.259C75.9007 79.0499 76.0551 78.8655 76.264 78.8467L96.8446 77.021C97.0548 77.0028 97.2378 77.1567 97.2566 77.3658C97.2755 77.5748 97.121 77.7592 96.9121 77.778L76.3315 79.6038C76.3198 79.6044 76.3088 79.6051 76.2978 79.6051V79.6057Z" fill="black"/>
<path d="M93.4062 77.1245C93.3485 77.1245 93.2894 77.1109 93.2349 77.083C93.048 76.9882 92.9734 76.759 93.0682 76.572C93.0863 76.5357 94.918 72.779 93.0721 66.7324C91.4065 61.2786 86.2997 51.2988 86.2484 51.1988C86.1096 50.9612 84.579 50.8599 82.5067 51.4215C80.7263 51.9046 79.7453 52.5623 79.6986 52.9538C79.7115 53.0232 79.7336 53.1537 79.7784 53.4134C81.2486 62.0357 82.5099 66.5396 83.3099 68.7997C83.38 68.9977 83.2762 69.2146 83.0783 69.2847C82.881 69.3548 82.6637 69.2509 82.5936 69.0529C81.7845 66.7649 80.5089 62.2162 79.0296 53.5407C78.9842 53.2739 78.9563 53.1096 78.9472 53.0674C78.9414 53.0408 78.9375 53.0083 78.9375 52.981C78.9375 51.6702 81.4763 50.8924 82.5676 50.619C83.1912 50.4632 86.3308 49.7393 86.9219 50.8443C86.9764 50.9508 92.1144 60.9903 93.7994 66.5091C95.7413 72.8693 93.8286 76.7525 93.7462 76.9148C93.6794 77.0466 93.5457 77.1232 93.4075 77.1232L93.4062 77.1245Z" fill="black"/>
<path d="M71.701 72.2138C71.5116 72.2138 71.3474 72.0716 71.3241 71.8788C71.2878 71.5762 70.9925 68.8915 71.7205 67.8293C75.3604 62.5203 72.503 57.6762 72.4738 57.6281C72.3648 57.4489 72.4219 57.2145 72.6016 57.1061C72.7813 56.997 73.0149 57.0542 73.1233 57.234C73.1551 57.2866 76.2603 62.5502 72.3466 68.2592C71.9191 68.8837 71.9547 70.7549 72.078 71.7886C72.1027 71.997 71.9541 72.1859 71.7458 72.2112C71.7302 72.2132 71.7153 72.2138 71.7004 72.2138H71.701Z" fill="black"/>
<path d="M92.7527 78.2566C94.6875 77.645 92.0215 72.9482 90.8958 71.8555C89.7642 70.8355 87.326 70.8504 86.1497 71.2309C84.8202 71.6717 77.6488 73.3189 76.298 73.5734L75.8555 78.5578C77.7851 79.3129 80.3557 78.1644 82.2879 79.3259C84.2201 80.4874 84.9175 83.576 85.8895 83.437C86.8614 83.2981 86.3839 81.5211 85.7357 80.0252C85.0875 78.5293 83.0457 76.9152 83.0457 76.9152L88.2616 78.0968L90.9496 82.0931C92.2856 81.1659 92.8844 79.8862 92.7521 78.2566H92.7527Z" fill="#FFDDC0"/>
<path d="M85.8171 83.8233C85.1715 83.8233 84.7336 83.0884 84.1879 82.1729C83.6663 81.2977 83.0161 80.2076 82.0935 79.6525C81.1313 79.074 79.9784 79.1278 78.7592 79.185C77.7289 79.233 76.6642 79.283 75.7182 78.9129C75.5229 78.8363 75.4262 78.6156 75.5028 78.4202C75.5794 78.2247 75.8 78.1286 75.9953 78.2046C76.7901 78.5156 77.7289 78.4721 78.7242 78.4253C80.003 78.3656 81.326 78.3039 82.4848 79.0006C83.5715 79.6537 84.2755 80.8348 84.8406 81.7827C85.1514 82.304 85.6186 83.0916 85.8366 83.0611C85.9281 83.0481 85.9644 83.0137 85.9929 82.9624C86.1493 82.6819 86.0851 81.784 85.3882 80.1764C84.7861 78.787 82.8312 77.2287 82.8118 77.2132C82.647 77.0827 82.6191 76.8437 82.7495 76.6795C82.8792 76.5152 83.118 76.4866 83.2828 76.6171C83.3691 76.6853 85.4071 78.3085 86.0857 79.8738C86.5847 81.025 87.0888 82.5592 86.656 83.3331C86.5055 83.6019 86.2596 83.7681 85.9443 83.8136C85.9015 83.8201 85.8586 83.8227 85.8178 83.8227L85.8171 83.8233Z" fill="black"/>
<path d="M90.8274 82.4986C90.5783 82.4986 90.2532 82.3662 89.8789 81.9085C89.5973 81.5644 89.3189 81.0716 89.1139 80.5573C89.0373 80.3743 88.9666 80.1951 88.8991 80.0237C88.6344 79.3536 88.4255 78.8238 87.985 78.3596C87.6891 78.0479 85.6641 77.8655 83.9597 77.8908H83.9538C83.7469 77.8908 83.5769 77.7246 83.5743 77.5162C83.571 77.3065 83.7384 77.1338 83.9486 77.1305C84.855 77.1162 87.8636 77.1279 88.5358 77.8363C89.0782 78.4076 89.3228 79.027 89.6057 79.7445C89.6719 79.912 89.7407 80.0866 89.8172 80.271C90.1838 81.191 90.6574 81.7046 90.8216 81.7364C90.8767 81.713 90.9384 81.6715 90.9896 81.5566C91.1058 81.2962 91.2641 80.4054 90.2357 77.7694C89.4883 75.8119 88.6669 75.6346 85.6447 75.2652C85.4364 75.2399 85.2885 75.0503 85.3138 74.8419C85.3391 74.6335 85.5272 74.4848 85.7368 74.5108C88.6662 74.8692 90.0034 75.0328 90.9442 77.4961C91.776 79.6276 92.0252 81.0988 91.6839 81.8663C91.5587 82.1474 91.351 82.35 91.0837 82.4513C91.0111 82.4805 90.9248 82.5006 90.8274 82.5006V82.4986ZM90.8099 81.7403H90.8086C90.8086 81.7403 90.8093 81.7403 90.8099 81.7403Z" fill="black"/>
<path d="M92.01 81.2244C91.888 81.2244 91.7576 81.2082 91.6188 81.1764C91.4144 81.129 91.2872 80.9251 91.3339 80.7206C91.3813 80.5161 91.5857 80.3875 91.7894 80.4355C91.9302 80.468 92.1164 80.4894 92.204 80.4037C92.5485 80.0687 92.2261 78.4683 92.1196 77.943C91.842 76.5822 91.1373 74.796 90.4833 74.2857C89.5626 73.53 88.616 73.4125 86.5411 73.1547C86.3172 73.1268 86.0811 73.0976 85.8319 73.0658C85.6237 73.0391 85.477 72.8489 85.503 72.6405C85.5296 72.4327 85.7171 72.2866 85.928 72.3113C86.1765 72.3431 86.412 72.3723 86.6345 72.4003C88.7912 72.6684 89.8741 72.8035 90.9576 73.6923C91.8822 74.4143 92.6186 76.5913 92.8638 77.7924C93.1792 79.3565 93.2674 80.4297 92.7334 80.9498C92.5446 81.1335 92.3026 81.2257 92.01 81.2257V81.2244Z" fill="black"/>
<path d="M92.7524 78.638C92.5915 78.638 92.4417 78.5342 92.3904 78.3725C92.3275 78.1725 92.4384 77.9589 92.6383 77.8959C92.8491 77.8291 92.9679 77.6947 93.0236 77.4583C93.3279 76.1702 91.5839 73.055 90.6314 72.1298C89.6647 71.2585 87.3977 71.228 86.2662 71.5935C84.8998 72.0467 77.6596 73.7043 76.3684 73.9478C76.1621 73.9874 75.9636 73.851 75.9246 73.6446C75.8857 73.4381 76.0213 73.2394 76.2276 73.2005C77.694 72.9239 84.7531 71.2942 86.03 70.8709C87.3367 70.4489 89.9093 70.4567 91.1499 71.5741C92.1062 72.5025 94.1701 75.9098 93.7633 77.633C93.6459 78.131 93.3357 78.4718 92.8673 78.6205C92.829 78.6322 92.7907 78.638 92.7524 78.638Z" fill="black"/>
<path d="M79.317 73.2965C79.2047 73.2965 79.0931 73.2465 79.0179 73.151L73.1006 65.6073C72.9709 65.4423 73.0001 65.2034 73.1649 65.0736C73.3297 64.9437 73.5684 64.9723 73.6982 65.1378L79.6155 72.6816C79.7452 72.8465 79.716 73.0861 79.5512 73.2153C79.4818 73.2699 79.3987 73.2965 79.317 73.2965Z" fill="black"/>
<path d="M79.3186 53.3657C79.1668 53.3657 79.0234 53.2735 78.9643 53.1235C78.9539 53.0956 77.8834 50.3473 76.9822 48.4014C75.2239 44.6052 71.5457 43.3709 71.5087 43.3586C71.3095 43.2937 71.1999 43.0794 71.2648 42.8801C71.329 42.6808 71.5431 42.5717 71.7423 42.6353C71.9058 42.6879 75.7682 43.9754 77.6706 48.0813C78.5822 50.0493 79.6612 52.8197 79.6722 52.8476C79.7481 53.043 79.6514 53.2638 79.4561 53.3397C79.4107 53.3573 79.364 53.3657 79.3186 53.3657Z" fill="black"/>
<path d="M63.6835 72.2145C63.5141 72.2145 63.3597 72.1002 63.3156 71.9288C63.2695 71.7483 62.1977 67.4606 63.398 63.341C64.538 59.4292 61.7565 50.5213 61.7286 50.4317C61.6656 50.2317 61.7766 50.0181 61.9764 49.9551C62.1762 49.8922 62.3897 50.0032 62.4526 50.2032C62.5707 50.5778 65.3308 59.4227 64.1273 63.5533C62.9866 67.4684 64.0403 71.6977 64.0513 71.7399C64.1032 71.9431 63.9806 72.1502 63.7775 72.2021C63.7457 72.2106 63.714 72.2138 63.6828 72.2138L63.6835 72.2145Z" fill="black"/>
<path d="M64.5949 47.8344C64.4424 47.8344 64.299 47.7422 64.2406 47.5916C64.1647 47.3961 64.2621 47.1754 64.4574 47.1001C67.0429 46.0963 67.6515 45.0062 67.6573 44.9952C67.7553 44.8121 67.9843 44.7394 68.168 44.8354C68.3522 44.9309 68.4268 45.1549 68.3334 45.3412C68.3062 45.3951 67.6333 46.6826 64.7318 47.8091C64.6864 47.8266 64.6403 47.835 64.5943 47.835L64.5949 47.8344Z" fill="black"/>
<path d="M39.7927 76.244H11.3796C11.17 76.244 11 76.0739 11 75.8642C11 75.6545 11.17 75.4844 11.3796 75.4844H39.7927C40.0023 75.4844 40.1723 75.6545 40.1723 75.8642C40.1723 76.0739 40.0023 76.244 39.7927 76.244Z" fill="black"/>
<path d="M67.4028 74.4786C67.3288 74.4136 65.9358 73.169 64.1107 73.519C63.1757 73.6981 62.4101 74.3182 61.8346 75.3616C61.1819 76.5445 61.0391 78.006 61.433 79.4766C61.8644 81.0894 62.8669 82.4911 64.049 83.1339C65.9935 84.1915 67.3463 84.2039 67.4028 84.2039V82.9326C67.3943 82.9326 66.2472 82.9086 64.5713 81.997C63.6844 81.5146 62.8928 80.3856 62.5548 79.1214C62.2531 77.995 62.353 76.8919 62.8364 76.016C63.2348 75.294 63.7168 74.887 64.3098 74.772C65.6094 74.5195 67.4112 75.7414 67.4255 75.7537L67.4034 74.4786H67.4028Z" fill="#AFCFE2"/>
<path d="M68.0113 84.8373C67.9458 84.8373 66.3737 84.8243 64.1618 83.6953C62.7753 82.9869 61.6022 81.4553 61.1013 79.6978C60.6413 78.0837 60.8107 76.4748 61.5789 75.1672C62.2686 73.9933 63.1957 73.2941 64.3344 73.0896C66.3847 72.7214 67.9561 73.9128 68.25 74.1557C68.4116 74.2894 68.4363 74.5296 68.3026 74.6919C68.1689 74.8536 67.9315 74.8783 67.7693 74.7452L67.766 74.7426C67.6136 74.6166 66.2257 73.5226 64.4687 73.8382C63.5578 74.0018 62.8058 74.579 62.2335 75.5529C61.5711 76.68 61.4283 78.0778 61.8313 79.49C62.2764 81.0515 63.3015 82.4039 64.5064 83.0187C65.9552 83.7589 67.0763 83.9816 67.6311 84.0491V83.4966C67.1049 83.4258 66.0661 83.2057 64.7341 82.526C63.6726 81.9845 62.7292 80.7307 62.3302 79.3329C61.9708 78.0727 62.094 76.8326 62.6767 75.8405C63.1724 74.9964 63.7855 74.5186 64.5511 74.379C66.1634 74.0855 68.2598 75.4561 68.2773 75.4704C68.4389 75.6042 68.4609 75.8437 68.3273 76.0054C68.2001 76.1586 67.9788 76.1865 67.8192 76.0755C67.4312 75.8204 65.7852 74.927 64.688 75.1269C64.1527 75.2243 63.709 75.584 63.332 76.2255C62.8558 77.0364 62.7591 78.0655 63.0614 79.1238C63.4053 80.3288 64.1975 81.3982 65.0799 81.8481C66.8103 82.7324 68.0061 82.7694 68.0178 82.7701C68.2241 82.7746 68.3908 82.9434 68.3908 83.1499V84.4582C68.3908 84.6679 68.2209 84.838 68.0113 84.838V84.8373Z" fill="black"/>
<path d="M66 72.5267V85.6269C68.1982 87.0391 74.5547 86.8456 76.2955 85.6269V72.5267C76.2909 71.9547 73.9876 71.832 71.1477 71.832C69.7281 71.832 68.4396 71.8625 67.5124 71.9638C66.5807 72.0651 66.0045 72.2411 66 72.5267Z" fill="#AFCFE2"/>
<path d="M71.1484 73.9528C70.2251 73.9528 65.6211 73.884 65.6211 72.529C65.6211 71.7044 66.9129 71.4531 71.1484 71.4531C75.3839 71.4531 76.6757 71.7044 76.6757 72.529C76.6757 73.8846 72.0717 73.9528 71.1484 73.9528ZM66.4743 72.5484C66.9155 72.8081 68.5006 73.1931 71.1484 73.1931C73.7962 73.1931 75.3813 72.8081 75.8225 72.5484C75.4734 72.3985 74.386 72.2128 71.1484 72.2128C67.9108 72.2128 66.8234 72.3978 66.4743 72.5484Z" fill="black"/>
<path d="M71.0796 86.9977C69.0105 86.9977 66.9259 86.6712 65.7956 85.9446C65.6866 85.8745 65.6211 85.7544 65.6211 85.6245V72.5244C65.6211 72.3146 65.7911 72.1445 66.0007 72.1445C66.2102 72.1445 66.3802 72.3146 66.3802 72.5244V85.4083C68.5349 86.5874 74.1284 86.4316 75.9159 85.4155V72.5244C75.9159 72.3146 76.0859 72.1445 76.2955 72.1445C76.5051 72.1445 76.6751 72.3146 76.6751 72.5244V85.6245C76.6751 85.7485 76.6147 85.8648 76.5128 85.9362C75.5455 86.6134 73.3213 86.9977 71.0783 86.9977H71.0796Z" fill="black"/>
</g>
<defs>
<clipPath id="clip0_859_2012">
<rect width="128" height="82" fill="white" transform="translate(11 5)"/>
</clipPath>
</defs>
</svg>
