<svg width="151" height="97" viewBox="0 0 151 97" fill="none" xmlns="http://www.w3.org/2000/svg">
<g clip-path="url(#clip0_859_2019)">
<path d="M70.6683 30.4785L71.1389 30.5359C71.415 30.5447 71.6853 30.4996 71.9276 30.3393C72.8141 29.8394 73.7635 30.3995 74.8044 29.5082C76.0235 28.4343 76.772 27.3744 77.1174 26.699C78.7845 25.443 79.0204 26.3233 81.0526 26.8529C80.709 26.7171 80.1347 26.4526 79.2738 25.9499C78.4426 25.4641 77.4704 24.9561 77.4459 24.5704C77.4087 23.9858 77.8426 23.8769 78.8474 24.1467C81.1016 24.7519 82.4418 25.501 82.6853 25.7052C83.0331 25.9967 85.6758 28.5068 85.9274 28.7456C85.9286 28.7444 85.9303 28.7427 85.932 28.7415L83.315 24.9046C83.315 24.9046 81.3118 23.9495 80.5529 23.5632C79.152 22.8498 78.2375 22.2277 78.7862 21.7355C79.3367 21.2409 84.1357 22.9511 84.452 23.2571C84.6191 23.4193 85.5802 24.5219 86.4493 25.5256L85.6629 23.5187C85.6629 23.5187 82.3638 21.2837 82.0761 20.8699C81.6497 20.2577 82.0592 19.5847 82.9288 19.9516C83.326 20.1196 86.9846 22.0199 87.411 22.1861C87.7022 22.2991 89.2423 25.4548 90.2826 27.4013C90.5377 27.1268 91.2547 26.943 90.8575 26.0757C90.3798 25.0328 89.936 22.9639 89.4718 21.8203C88.2346 18.77 87.1465 20.0154 85.07 18.6565C82.9935 17.2969 82.6777 16.5853 81.0649 16.3699C78.502 15.976 75.2477 17.7054 73.1787 18.6138C72.3557 19.0193 71.4552 18.0742 71.274 18.6688C71.1768 19.0164 71.5734 19.8937 71.4325 20.184C70.8447 21.1362 69.5691 22.2534 69.2505 24.272C68.6843 28.1639 69.2703 30.3094 69.2703 30.3094C69.6245 30.1871 70.137 30.3761 70.6671 30.4797L70.6683 30.4785Z" fill="#F08C65"/>
<path d="M103.172 65.0345C102.809 63.8178 101.815 61.54 100.284 58.2714L96.7551 49.8438C96.6631 48.9677 96.2659 47.9921 96.0841 47.1306C95.7678 45.6312 95.3153 43.7736 94.1707 42.7599C92.3213 41.123 89.7526 41.7217 87.3126 41.3735C86.6131 41.274 85.9246 41.1236 85.2425 40.9456C85.1004 41.2915 84.9443 41.607 84.7724 41.8534C83.8859 43.1263 83.703 43.0192 83.703 43.0192C83.703 43.0192 83.5877 45.0646 82.6837 46.6495C82.534 46.9345 82.3552 47.2049 82.1676 47.463C81.842 47.9113 81.4721 48.3315 81.0626 48.7043C80.2536 49.4405 79.2337 49.9831 78.1543 50.1698C77.0599 50.3588 75.9299 50.1528 74.9659 49.6015C74.4946 49.3317 74.056 48.9911 73.6926 48.5849C73.3448 48.1963 73.0583 47.755 72.8066 47.2991C72.3727 46.5125 72.0389 45.6727 71.7558 44.8194C72.0395 43.6062 72.1758 42.4889 72.1758 42.4889C72.1758 42.4889 71.3825 41.5069 70.959 40.0596C70.8344 39.6329 70.7365 39.0676 70.6608 38.4817C70.5757 38.5075 70.4913 38.535 70.4086 38.5654L70.5221 38.2266C69.3042 38.7082 67.53 39.0734 65.6532 39.5264C62.0162 40.3686 59.214 39.9156 56.3598 42.4895C55.132 43.392 54.5652 45.4971 54.1872 47.271C54.1872 47.271 49.1802 69.0441 49.4394 72.4719C49.574 74.2575 52.1066 80.46 53.3088 81.562C54.511 82.664 55.6078 82.8016 55.6078 82.8016L59.246 71.9282C68.7887 72.0049 78.7141 71.8281 88.2318 71.9212C88.184 69.1828 88.0285 66.0974 88.2819 63.3707C88.4851 63.5357 88.682 63.7089 88.8754 63.8863C89.9285 65.7989 92.2112 69.8962 92.8636 70.6816C94.72 72.9161 98.1012 74.4003 100.706 73.4364C103.31 72.4725 104.407 69.167 103.173 65.0351L103.172 65.0345Z" fill="#A8CCCA"/>
<path d="M72.1758 42.49C72.1758 42.49 72.0395 43.6078 71.7558 44.8204C72.0389 45.6737 72.3727 46.5136 72.8066 47.3001C73.0582 47.756 73.3448 48.1973 73.6926 48.5859C74.056 48.9915 74.4946 49.3327 74.9659 49.6025C75.9299 50.1538 77.0599 50.3604 78.1543 50.1708C79.2342 49.9841 80.2536 49.4416 81.0626 48.7053C81.4721 48.3325 81.842 47.9123 82.1676 47.464C82.3552 47.2059 82.534 46.9349 82.6837 46.6505C83.5871 45.0656 83.703 43.0202 83.703 43.0202C83.703 43.0202 83.8859 43.1273 84.7724 41.8544C84.9443 41.608 85.1004 41.2925 85.2425 40.9467C85.2769 40.863 85.3112 40.7787 85.3444 40.6915C85.3066 40.5446 85.2856 40.465 85.2856 40.465C85.2856 40.465 83.2417 35.1334 82.9982 33.1745C82.8881 32.2902 80.1895 30.7481 80.1895 30.7481C80.1895 30.7481 76.729 29.6121 77.1554 28.6938C77.5818 27.7756 80.7376 29.2399 80.7376 29.2399L84.0513 30.981C84.0601 30.9623 84.0682 30.943 84.0775 30.9242L81.7436 27.4104C81.5764 27.1582 81.3352 26.9656 81.0545 26.855C79.0222 26.3259 78.7863 25.4457 77.1193 26.7011C76.7733 27.3765 76.0248 28.4363 74.8063 29.5103C73.7654 30.4016 72.8159 29.8415 71.9294 30.3413C71.6865 30.5017 71.4168 30.5468 71.1407 30.538C70.9846 30.5327 70.8268 30.5111 70.6701 30.4806C70.1406 30.377 69.628 30.188 69.2733 30.3103C68.7928 30.4525 68.4404 31.1782 68.434 31.2286C67.9674 32.0421 68.3175 33.274 68.3175 33.274L69.2454 34.7892L70.4249 35.5653C70.4249 35.5653 70.4808 37.0817 70.6619 38.4833C70.7377 39.0686 70.8355 39.6345 70.9602 40.0612C71.3842 41.5091 72.177 42.4905 72.177 42.4905L72.1758 42.49Z" fill="#FFDDC0"/>
<path d="M68.191 97.0013C68.1857 97.0013 68.1811 97.0013 68.1758 97.0013L49.5605 95.9484C49.4737 95.9432 49.3945 95.8963 49.3485 95.8214C49.3024 95.7471 49.296 95.6546 49.3304 95.5745L56.9341 77.9116C56.9801 77.8051 57.0896 77.7401 57.2043 77.7512L70.4027 79.044C70.4743 79.0511 70.5401 79.0868 70.585 79.1435C70.6298 79.2003 70.6502 79.2723 70.6409 79.3443L68.4543 96.7672C68.4374 96.9018 68.3232 97.0013 68.1898 97.0013H68.191ZM49.9717 95.4352L67.9574 96.4523L70.0782 79.5503L57.3459 78.3031L49.9711 95.4346L49.9717 95.4352Z" fill="#C6B19E"/>
<path d="M40.5294 92.2392C40.5183 92.2392 40.5078 92.2386 40.4967 92.2374L23.2374 90.1112C23.2304 90.11 23.2228 90.1088 23.2158 90.1077C23.1191 90.0878 23.0405 90.0152 23.0131 89.9198C22.9762 89.793 23.6663 89.0289 25.0832 87.6274C26.1515 86.5704 27.6432 85.1049 29.5171 83.2719C32.7067 80.1502 35.9424 77.0016 35.9744 76.97C36.028 76.9173 36.1019 76.8904 36.1765 76.8951L49.5933 77.7513C49.6876 77.7571 49.7721 77.8133 49.8146 77.8982C49.8571 77.983 49.8513 78.0849 49.7995 78.1645L40.7519 92.118C40.7023 92.1947 40.6179 92.2397 40.5288 92.2397L40.5294 92.2392ZM23.8193 89.643L40.3965 91.6849L49.104 78.2558L36.2604 77.4364C31.7893 81.7883 25.3547 88.0774 23.8193 89.6436V89.643Z" fill="#C6B19E"/>
<path d="M91.3375 90.0167C91.221 90.0167 91.1179 89.9407 91.083 89.8277L86.5822 75.1713C86.5571 75.0899 86.5723 75.0015 86.6224 74.9331C86.6725 74.8646 86.7523 74.8242 86.8367 74.8242H99.5621C99.6483 74.8242 99.7293 74.8664 99.7794 74.9366L103.313 79.9299C103.398 80.0505 103.37 80.2179 103.25 80.3033C103.13 80.3888 102.964 80.3607 102.879 80.2401L99.4246 75.3591H87.1979L91.5315 89.4713L104.666 88.9083C104.81 88.8995 104.938 89.0165 104.944 89.1646C104.951 89.3121 104.836 89.4373 104.689 89.4438L91.3492 90.0156C91.3451 90.0156 91.3416 90.0156 91.3375 90.0156V90.0167Z" fill="#C6B19E"/>
<path d="M108.217 95.5862C108.122 95.5862 108.034 95.5358 107.986 95.4527L99.3326 80.4264C99.2866 80.3463 99.2848 80.2474 99.3285 80.1654C99.3722 80.0835 99.4549 80.0302 99.5475 80.025L113.482 79.2039C113.558 79.198 113.633 79.2279 113.687 79.2823L126.922 92.6869C126.994 92.7594 127.018 92.8659 126.985 92.9619C126.952 93.0579 126.868 93.1275 126.768 93.141L108.251 95.5838C108.239 95.5856 108.228 95.5862 108.216 95.5862H108.217ZM100.011 80.5341L108.358 95.0296L126.166 92.6804L113.394 79.7452L100.011 80.5335V80.5341Z" fill="#C6B19E"/>
<path d="M49.272 72.2696C49.233 72.1215 49.2039 71.9676 49.191 71.8125H30.7277C30.5803 71.8125 30.4609 71.9325 30.4609 72.08C30.4609 72.2274 30.5803 72.348 30.7277 72.348H49.2953C49.2877 72.3217 49.279 72.2953 49.272 72.2696Z" fill="black"/>
<path d="M60.6275 71.8125H59.1905C59.1783 71.9489 59.1847 72.0887 59.1916 72.2233C59.194 72.2649 59.1957 72.3065 59.1981 72.348H60.5645C60.6106 72.1771 60.6106 71.991 60.628 71.8125H60.6275Z" fill="black"/>
<path d="M119.277 71.8125H102.691C102.606 71.9348 102.519 72.0577 102.428 72.1718C102.38 72.2321 102.33 72.2912 102.277 72.348H119.277C119.425 72.348 119.544 72.228 119.544 72.08C119.544 71.9319 119.425 71.8125 119.277 71.8125Z" fill="black"/>
<path d="M94.1999 71.8125H76.4344C76.4268 71.9863 76.4775 72.1648 76.5217 72.3293C76.5235 72.3357 76.5252 72.3422 76.527 72.348H95.1761C94.8383 72.1964 94.5103 72.0162 94.1999 71.8125Z" fill="black"/>
<path d="M75.2076 86.5661L75.2425 84.9748C75.9747 81.1794 76.5933 76.4278 76.5933 74.933C76.5933 73.5466 76.6236 70.5437 75.8926 69.9011C75.1616 69.2585 62.4275 69.2157 62.0285 69.4247C60.9474 69.9929 60.5117 72.5329 60.5117 72.5329C60.5117 72.5329 61.6109 72.5043 62.936 72.4791C63.1521 74.7323 63.5668 79.5284 63.346 81.0951C63.1375 82.5723 61.7011 85.7368 61.1507 87.8238C60.9055 88.7543 61.5643 89.6778 62.5195 89.7457L75.207 90.6435L75.2058 90.6417C75.5687 90.6546 76.0132 90.4744 76.4407 90.1472C77.4 89.4127 78.9995 86.7042 78.9995 86.7042L75.207 86.5667L75.2076 86.5661Z" fill="white"/>
<path d="M75.2427 90.9083C75.0662 90.9083 74.9019 90.8732 74.7575 90.8013C74.4872 90.6666 74.1651 90.3483 74.1651 89.5939C74.1651 89.0274 74.535 86.8485 75.0033 84.0896C75.5933 80.6126 76.3278 76.2853 76.3278 74.931V74.7701C76.329 73.534 76.3313 70.6394 75.7186 70.1004C74.9462 69.5771 62.8592 69.5221 62.1166 69.6761C61.1374 70.0781 60.8707 71.632 60.8019 72.2675C61.6028 72.2781 64.0032 72.2968 66.756 72.202C68.292 72.1487 72.2948 72.5046 73.4964 72.6158C73.3956 72.116 73.4434 71.5939 73.6368 71.1187C73.8476 70.6025 74.2146 70.2402 74.6433 70.1249C74.9089 70.0535 75.1128 70.1296 75.2765 70.1911C75.3481 70.218 75.4157 70.2432 75.4902 70.259C75.6341 70.2894 75.7261 70.4322 75.6958 70.5768C75.665 70.7213 75.524 70.8126 75.3796 70.7833C75.2666 70.7593 75.1734 70.7242 75.0906 70.6932C74.9462 70.6394 74.878 70.616 74.7814 70.6429C74.4027 70.7447 74.2 71.1521 74.1301 71.3229C73.9519 71.7595 73.9309 72.2687 74.0725 72.7188C74.0824 72.751 74.0865 72.7849 74.0841 72.8188L74.076 72.9347C74.0707 73.0067 74.0369 73.0734 73.9822 73.1197C73.9274 73.1659 73.8564 73.1893 73.7847 73.1817C73.7323 73.1764 68.5162 72.6796 66.7741 72.7381C63.3904 72.8545 60.5357 72.8001 60.5072 72.7995C60.4355 72.7984 60.368 72.7679 60.319 72.7158C60.2701 72.6638 60.2439 72.5941 60.2462 72.5221C60.2503 72.4115 60.3633 69.8001 61.9313 69.1745C62.2535 69.0463 66.2259 69.0434 68.8494 69.0902C75.5141 69.2096 75.9317 69.5771 76.0692 69.6983C76.8031 70.3432 76.8625 72.655 76.8608 74.7712V74.9316C76.8608 76.3309 76.1531 80.5014 75.5287 84.1803C75.4046 84.9125 75.2823 85.6329 75.171 86.2995C75.1862 86.2972 75.2031 86.296 75.2176 86.2972L79.0101 86.4347C79.1039 86.4382 79.1895 86.4909 79.2344 86.574C79.2792 86.6571 79.2781 86.7578 79.2297 86.8391C79.1633 86.9515 77.5924 89.6009 76.6033 90.3588C76.1315 90.7199 75.6527 90.9095 75.2433 90.9095L75.2427 90.9083ZM75.0877 86.8028C74.8606 88.1875 74.6981 89.2632 74.6981 89.5939C74.6981 89.8584 74.7493 90.1996 74.994 90.3213C75.2805 90.4642 75.785 90.3108 76.2801 89.9316C76.9761 89.399 78.0607 87.7187 78.5354 86.9526L75.1984 86.8315C75.1582 86.8303 75.1209 86.8198 75.0872 86.8028H75.0877Z" fill="black"/>
<path d="M75.2067 90.9085C75.2003 90.9085 75.1939 90.9085 75.1875 90.9079L62.5 90.0101C61.9647 89.9721 61.4783 89.6994 61.1667 89.261C60.855 88.8232 60.7549 88.2737 60.8923 87.7528C61.141 86.8094 61.5668 85.6535 61.9786 84.5363C62.4883 83.1522 62.97 81.8453 63.0813 81.0558C63.3661 79.039 62.6828 72.6311 62.6764 72.5662C62.6607 72.4193 62.7661 72.287 62.9129 72.2712C63.0585 72.2548 63.1908 72.3619 63.2065 72.5088C63.235 72.7745 63.9031 79.0484 63.6096 81.1313C63.4902 81.9776 62.9991 83.3108 62.479 84.7224C62.0718 85.8279 61.6501 86.9715 61.4078 87.8904C61.3117 88.2555 61.3816 88.6418 61.6006 88.9497C61.8196 89.2581 62.1615 89.4495 62.5378 89.4764L75.2253 90.3741C75.3721 90.3847 75.4828 90.5129 75.4723 90.6598C75.4624 90.8008 75.3453 90.9085 75.2067 90.9085Z" fill="black"/>
<path d="M71.6265 35.4791C72.4962 36.8884 74.2016 37.8517 75.8134 37.4941C76.711 37.2951 77.5806 36.7146 78.4764 36.9229C79.307 37.116 79.8354 37.9178 80.5442 38.3936C81.4937 39.031 82.827 39.0292 83.7741 38.389C83.8585 38.3316 83.9418 38.2684 83.996 38.1812C84.0781 38.0483 84.0799 37.881 84.0676 37.7247C83.9558 36.3137 82.9627 35.0694 82.9452 33.6543C82.9423 33.436 82.9621 33.2089 82.8794 33.007C82.8066 32.8308 82.6639 32.6945 82.5229 32.5663C81.1815 31.3513 79.6181 30.3845 77.9342 29.7278C77.573 29.5874 77.1362 29.3597 77.1589 28.9717C77.1863 28.4895 77.8567 28.3905 78.3279 28.4871C80.3398 28.8997 82.0569 30.168 83.9273 31.0195C83.2825 29.9889 82.6376 28.9582 81.9928 27.9276C81.7837 27.5934 81.57 27.2534 81.27 26.9988C80.6281 26.454 79.7189 26.3931 78.8783 26.3808C78.5446 26.3755 78.205 26.3749 77.8841 26.468C76.7407 26.7987 76.2368 28.1336 75.3025 28.8734C74.1568 29.7805 71.552 29.475 70.8606 30.8141C70.2163 32.0612 70.959 34.3958 71.6271 35.4779L71.6265 35.4791Z" fill="#EACEB9"/>
<path d="M77.1553 46.2033C77.1414 46.2033 77.1268 46.2021 77.1122 46.1998C77.0394 46.1881 75.2996 45.8826 73.032 43.7499C71.4372 42.2845 71.0446 40.9144 70.8104 40.0956C70.4062 38.8514 70.2175 36.4056 70.0864 34.1782C70.0777 34.0307 70.1895 33.9037 70.3369 33.8949C70.4819 33.8873 70.6101 33.9985 70.6188 34.1466C70.6969 35.4739 70.8797 38.5822 71.3201 39.9388C71.542 40.7119 71.9084 41.9913 73.3943 43.3572C75.5332 45.3693 77.1827 45.669 77.1996 45.6719C77.3441 45.6965 77.4425 45.834 77.4186 45.9797C77.3971 46.1108 77.2841 46.2039 77.1565 46.2039L77.1553 46.2033Z" fill="black"/>
<path d="M77.418 46.218C77.2689 46.218 77.1867 46.208 77.1728 46.2063C77.0271 46.187 76.924 46.0524 76.9438 45.9055C76.9631 45.7591 77.0947 45.6561 77.2421 45.6755C77.266 45.6784 78.6831 45.8282 81.2443 44.5067C83.0855 43.5522 84.0087 42.3337 84.3955 41.6922C84.9273 40.8764 85.3915 39.2553 85.801 37.8249C85.9687 37.2385 86.1278 36.6848 86.2769 36.2371C86.3235 36.0972 86.4749 36.0217 86.6141 36.0686C86.7533 36.1154 86.829 36.2676 86.7819 36.4074C86.6362 36.8446 86.479 37.393 86.313 37.9736C85.893 39.4402 85.4165 41.1029 84.8457 41.9784C84.4351 42.6602 83.4454 43.9683 81.4877 44.9837C79.3442 46.0898 77.9521 46.2191 77.4174 46.2191L77.418 46.218Z" fill="black"/>
<path d="M70.25 35.5982C70.2267 35.5982 70.2034 35.5953 70.1801 35.5888C69.3972 35.3758 68.1542 34.4078 67.9387 32.6157C67.817 31.6056 68.1519 30.6786 68.8124 30.1969C69.3605 29.7966 70.0549 29.7597 70.7672 30.0921C70.9006 30.1542 70.9589 30.314 70.8965 30.448C70.8348 30.582 70.6764 30.6405 70.5424 30.5779C70.0059 30.3274 69.5161 30.3456 69.1252 30.6306C68.629 30.9928 68.3709 31.7467 68.4676 32.552C68.6505 34.0701 69.7007 34.9035 70.3193 35.072C70.4614 35.1107 70.5453 35.2576 70.5069 35.4004C70.4748 35.5198 70.3671 35.5982 70.25 35.5982Z" fill="black"/>
<path d="M69.9611 33.1374C69.8627 33.1374 69.7677 33.0824 69.7217 32.9876C69.7194 32.9829 69.4817 32.4954 69.3623 32.2818C69.2901 32.153 69.3361 31.9897 69.4643 31.9172C69.5924 31.8446 69.7549 31.8908 69.8271 32.0196C69.9535 32.2461 70.1906 32.7313 70.2005 32.7517C70.2652 32.8846 70.211 33.045 70.0788 33.1099C70.0409 33.1286 70.0013 33.1374 69.9617 33.1374H69.9611Z" fill="black"/>
<path d="M86.3254 37.7483C86.178 37.7483 86.0586 37.6283 86.0586 37.4809C86.0586 37.3334 86.178 37.2128 86.3248 37.2128C86.9661 37.2128 88.1963 36.6838 88.7677 35.2663C89.0706 34.5148 89.0176 33.7189 88.6326 33.239C88.3297 32.8615 87.8608 32.7158 87.2789 32.8164C87.135 32.8422 86.9958 32.7438 86.9707 32.5981C86.9457 32.4524 87.043 32.3137 87.188 32.2885C87.9621 32.1545 88.6221 32.3728 89.0473 32.9025C89.5593 33.541 89.6414 34.5236 89.2616 35.467C88.5871 37.1402 87.1356 37.7477 86.3248 37.7483H86.3254Z" fill="black"/>
<path d="M87.1919 35.4422C87.1296 35.4422 87.0672 35.4205 87.0166 35.3754C86.9059 35.2777 86.8948 35.1086 86.9921 34.9974C87.0072 34.9804 87.362 34.5742 87.5425 34.3887C87.6456 34.2834 87.8146 34.2816 87.9194 34.3852C88.0242 34.4888 88.026 34.6585 87.9229 34.7639C87.7522 34.9388 87.3958 35.3462 87.3923 35.3503C87.3393 35.4106 87.2659 35.4416 87.1919 35.4416V35.4422Z" fill="black"/>
<path d="M78.3551 40.1532C78.2812 40.1532 78.2078 40.1227 78.1553 40.063C78.0581 39.9524 78.068 39.7833 78.1781 39.685C78.6271 39.2853 78.7297 39.0599 78.7361 38.9411C78.7431 38.8124 78.6376 38.6877 78.4646 38.4946C78.2369 38.24 77.9532 37.924 77.9066 37.4125C77.7464 36.1349 78.8409 34.495 78.8875 34.4259C78.9702 34.3036 79.1356 34.272 79.2574 34.3545C79.3791 34.4376 79.4112 34.6038 79.3284 34.7262C79.0419 35.151 78.3231 36.4509 78.4361 37.3545C78.4675 37.6975 78.6586 37.9105 78.8607 38.1358C79.0611 38.3594 79.2883 38.6134 79.2679 38.971C79.2492 39.3052 79.0215 39.6487 78.5305 40.0853C78.4798 40.1304 78.4169 40.1526 78.354 40.1526L78.3551 40.1532Z" fill="black"/>
<path d="M76.7053 33.5009C76.3098 33.5009 75.9521 33.3394 75.5735 33.1685C75.1209 32.9642 74.6538 32.7535 74.0579 32.7851C73.9123 32.791 73.7853 32.6798 73.7778 32.5323C73.7696 32.3848 73.8826 32.2584 74.0294 32.2502C74.7552 32.211 75.3056 32.4597 75.7925 32.6798C76.1315 32.8331 76.4245 32.9654 76.7059 32.9654C76.8532 32.9654 76.9726 33.0854 76.9726 33.2328C76.9726 33.3803 76.8532 33.5009 76.7059 33.5009H76.7053Z" fill="black"/>
<path d="M81.441 34.3116C81.3961 34.3116 81.3507 34.3098 81.3053 34.3057C81.1585 34.2923 81.0507 34.1624 81.0635 34.0149C81.0769 33.8674 81.2092 33.7585 81.353 33.7726C81.6338 33.7977 81.9373 33.693 82.2885 33.5707C82.7929 33.3957 83.3643 33.1979 84.0825 33.3026C84.2281 33.3237 84.3289 33.4601 84.3079 33.6064C84.287 33.7527 84.1512 33.8545 84.0056 33.8329C83.4167 33.7468 82.931 33.9148 82.4621 34.0775C82.1149 34.1981 81.7846 34.3122 81.4404 34.3122L81.441 34.3116Z" fill="black"/>
<path d="M83.906 31.9552C83.8407 31.9552 83.7761 31.9312 83.7242 31.8838C83.6864 31.8487 82.8494 31.0978 81.5295 31.5121C81.3879 31.5566 81.2394 31.477 81.1957 31.336C81.152 31.1949 81.2301 31.0445 81.3705 31.0006C82.9985 30.4903 84.044 31.4507 84.0877 31.4917C84.1949 31.5929 84.2007 31.762 84.0999 31.8703C84.0475 31.9265 83.9765 31.9552 83.9054 31.9552H83.906Z" fill="black"/>
<path fill-rule="evenodd" clip-rule="evenodd" d="M70.9336 40.7818C70.9336 40.7818 74.6492 45.4966 77.2628 45.8969C79.2717 46.2171 82.4719 44.1195 82.4719 44.1195C82.4719 44.1195 79.0603 47.425 76.3297 47.5239C73.9584 47.6193 71.8545 44.9166 71.8545 44.9166L70.9336 40.7812V40.7818Z" fill="black"/>
<path d="M91.289 26.9667C91.2144 26.9667 91.1405 26.9356 91.088 26.8748C90.636 26.3527 90.5061 25.8207 90.3267 25.0845C90.1817 24.4899 90.0011 23.7495 89.5806 22.7435C88.7313 20.6021 87.3555 19.5065 85.6116 19.5609C85.6087 19.5609 85.6058 19.5609 85.6023 19.5609C85.459 19.5609 85.3407 19.4468 85.3361 19.3022C85.3314 19.1547 85.4467 19.0307 85.5935 19.026C87.5582 18.9593 89.149 20.2088 90.0734 22.541C90.5079 23.5816 90.6943 24.3441 90.844 24.9575C91.0117 25.6452 91.1224 26.0999 91.4899 26.5242C91.5866 26.636 91.575 26.8051 91.4637 26.9017C91.4131 26.9456 91.3507 26.9672 91.289 26.9672V26.9667Z" fill="black"/>
<path d="M88.5203 32.7857C88.4656 32.7857 88.4102 32.7687 88.3625 32.7336C88.2437 32.6458 88.2186 32.4784 88.306 32.359C88.3258 32.3315 90.2981 29.6072 89.8897 27.6308C89.86 27.4857 89.9526 27.344 90.0965 27.3142C90.2398 27.2843 90.3819 27.3768 90.4116 27.522C90.8677 29.733 88.8221 32.5574 88.7353 32.6763C88.6828 32.7477 88.6025 32.7851 88.5203 32.7851V32.7857Z" fill="black"/>
<path d="M71.8547 18.9807C71.5547 18.9807 71.3147 18.9544 71.1662 18.9192C71.0229 18.8853 70.9343 18.7407 70.9681 18.5974C71.0019 18.4534 71.1458 18.3638 71.2885 18.3984C71.7702 18.5125 73.1338 18.4739 74.251 17.8652C78.9772 15.1865 82.6928 15.4013 84.4414 18.4563C84.5148 18.5845 84.4705 18.7483 84.3429 18.8221C84.2154 18.8958 84.0523 18.8519 83.9789 18.7232C81.7335 14.7997 76.6082 17.1442 74.5084 18.334C73.5834 18.8379 72.556 18.9807 71.8541 18.9807H71.8547Z" fill="black"/>
<path d="M72.5093 30.2463C72.0131 30.2463 71.4609 30.1714 70.8405 29.9999C70.6984 29.9607 70.6151 29.8133 70.6541 29.671C70.6932 29.5282 70.8405 29.4451 70.9815 29.4838C73.8391 30.2733 75.06 28.8236 76.137 27.5448C77.0521 26.458 77.9986 25.3343 79.7454 26.4375C79.8701 26.5165 79.9074 26.6816 79.8293 26.8068C79.7507 26.9321 79.5864 26.9695 79.4618 26.8911C78.1069 26.0349 77.4854 26.7735 76.5436 27.8907C75.6401 28.9629 74.5591 30.2463 72.5088 30.2463H72.5093Z" fill="black"/>
<path d="M69.3004 30.3734C69.1752 30.3734 69.0634 30.2845 69.0389 30.1563C68.3469 26.5318 68.0335 22.0687 71.7888 19.7125C71.9134 19.6341 72.0783 19.6727 72.1557 19.798C72.2338 19.9232 72.1959 20.0882 72.0707 20.1667C68.5904 22.3508 68.902 26.5986 69.562 30.0556C69.5899 30.2008 69.495 30.3412 69.3505 30.3693C69.3336 30.3728 69.3167 30.374 69.2998 30.374L69.3004 30.3734Z" fill="black"/>
<path d="M82.3097 23.4297C82.2852 23.4297 82.2608 23.4262 82.2363 23.4191C82.0948 23.3782 82.0127 23.2301 82.0534 23.0885C82.0738 23.0159 82.5683 21.307 83.5411 20.559C83.6576 20.4695 83.8253 20.4911 83.9144 20.6088C84.0036 20.7264 83.9814 20.8944 83.8643 20.9839C83.0326 21.623 82.5701 23.219 82.5654 23.2348C82.5316 23.3524 82.425 23.4291 82.3091 23.4291L82.3097 23.4297Z" fill="black"/>
<path d="M80.5095 25.0426C80.4932 25.0426 80.4769 25.0408 80.46 25.0379C80.3156 25.011 80.22 24.8711 80.2468 24.7254C80.3237 24.3133 80.1845 23.8252 79.8839 23.4513C79.6236 23.127 79.2776 22.9357 78.9351 22.9263C78.7877 22.9222 78.6718 22.7993 78.6759 22.6512C78.68 22.5032 78.8005 22.3855 78.9497 22.3908C79.4483 22.4043 79.9399 22.6682 80.2987 23.1142C80.7006 23.614 80.8765 24.2525 80.7705 24.8231C80.7466 24.9519 80.6348 25.042 80.5089 25.042L80.5095 25.0426Z" fill="black"/>
<path fill-rule="evenodd" clip-rule="evenodd" d="M74.0524 35.23C74.1193 34.7237 74.5259 34.3656 74.929 34.4194C75.3321 34.4733 75.6315 34.9257 75.5645 35.4319C75.4975 35.9381 75.0909 36.2963 74.6878 36.2425C74.2848 36.1886 73.9854 35.7362 74.0524 35.23Z" fill="black"/>
<path fill-rule="evenodd" clip-rule="evenodd" d="M81.4795 36.398C81.5465 35.8917 81.9525 35.5335 82.3562 35.5874C82.7592 35.6412 83.0586 36.0936 82.9917 36.5999C82.9247 37.1061 82.5181 37.4643 82.115 37.4104C81.6613 37.3496 81.4126 36.9042 81.4795 36.398Z" fill="black"/>
<path d="M76.5909 42.7578C76.4814 42.7578 76.3788 42.6893 76.3398 42.5804C76.2903 42.4411 76.3625 42.2878 76.5012 42.2381C77.4087 41.9115 78.396 41.7821 79.3565 41.8635C79.5032 41.8758 79.6122 42.0051 79.5999 42.1526C79.5877 42.3001 79.4561 42.4107 79.3122 42.3967C78.428 42.3217 77.5176 42.4411 76.6812 42.7414C76.6514 42.7519 76.6212 42.7572 76.5915 42.7572L76.5909 42.7578Z" fill="black"/>
<path d="M55.6091 83.0684C55.598 83.0684 55.5869 83.0679 55.5759 83.0661C55.5275 83.0602 54.3812 82.9046 53.1306 81.7586C51.8649 80.5981 49.4535 74.2704 49.1774 72.5123C48.5279 68.3734 53.7096 48.0658 53.9304 47.2031C54.3346 45.3028 54.9223 43.2228 56.1927 42.28C58.303 40.3814 60.3563 40.0923 62.7339 39.7582C63.6443 39.63 64.5856 39.4977 65.5945 39.2642C65.976 39.1723 66.3552 39.0834 66.7262 38.9962C68.1393 38.6649 69.4743 38.3524 70.4249 37.9761C70.5618 37.921 70.7168 37.9895 70.7704 38.1271C70.8245 38.2646 70.757 38.4203 70.6201 38.4741C69.6328 38.8645 68.2797 39.1817 66.8468 39.5176C66.4769 39.6042 66.0983 39.6932 65.7156 39.7851C64.6817 40.0244 63.7288 40.1585 62.8067 40.2884C60.5124 40.6114 58.5308 40.89 56.5381 42.6873C56.5317 42.6932 56.5247 42.699 56.5172 42.7043C55.3837 43.5371 54.835 45.5077 54.4476 47.326C54.3911 47.5467 49.0702 68.3986 49.7022 72.4292C49.9923 74.2797 52.381 80.3488 53.4883 81.363C54.6055 82.3866 55.6312 82.5335 55.6417 82.5347C55.7873 82.554 55.8904 82.688 55.8712 82.8343C55.8537 82.9695 55.7395 83.0678 55.6079 83.0678L55.6091 83.0684Z" fill="black"/>
<path d="M92.1271 41.5546C91.7182 40.9208 91.3047 40.2759 91.0857 39.5537C90.8835 38.8871 90.8562 38.1818 90.8434 37.4854C90.8375 37.1588 90.834 36.8299 90.8311 36.4998L90.9791 36.8697C91.0047 35.7922 91.0286 34.4953 91.0286 33.3558C91.0286 31.9507 91.0647 30.7386 91.0967 29.9433C91.1235 29.2819 90.9651 28.6276 90.6412 28.0511C90.5323 27.858 90.4129 27.638 90.2865 27.4015C89.2462 25.455 87.7061 22.2993 87.4149 22.1863C86.9885 22.0207 83.33 20.1198 82.9327 19.9519C82.0625 19.5849 81.6536 20.2579 82.08 20.8701C82.3683 21.2839 85.6669 23.519 85.6669 23.519L86.4532 25.5258C85.5842 24.5221 84.6231 23.4189 84.4559 23.2574C84.1396 22.9513 79.3406 21.2417 78.7902 21.7357C78.2421 22.2279 79.156 22.85 80.5568 23.5634C81.3158 23.9497 83.3189 24.9048 83.3189 24.9048L85.936 28.7417C85.936 28.7417 85.9331 28.7447 85.9313 28.7458C85.6797 28.5071 83.037 25.9969 82.6893 25.7055C82.4458 25.5012 81.1055 24.7521 78.8513 24.1469C77.8466 23.8771 77.4126 23.986 77.4499 24.5707C77.4744 24.9563 78.4465 25.4643 79.2777 25.9501C80.1386 26.4534 80.7129 26.7174 81.0566 26.8531C81.3373 26.9643 81.5785 27.1569 81.7457 27.4085L84.0796 30.9224C84.0709 30.9411 84.0622 30.9598 84.0534 30.9791L80.7397 29.238C80.7397 29.238 77.5839 27.7737 77.1575 28.692C76.7311 29.6102 80.1916 30.7462 80.1916 30.7462C80.1916 30.7462 82.8902 32.2884 83.0003 33.1727C83.2438 35.1315 85.2877 40.4631 85.2877 40.4631C85.2877 40.4631 85.3081 40.5427 85.3465 40.6896C85.5451 41.454 86.2354 44.07 87.1464 47.1192C87.2151 47.4106 87.2844 47.7015 87.3502 47.9941C87.3596 47.9625 87.3712 47.9327 87.3823 47.9017C87.3934 47.9385 87.4044 47.9748 87.4155 48.0117L87.3899 47.8788C87.6875 47.063 88.4395 46.4854 89.2089 46.0728C90.7711 45.2353 92.571 44.8513 94.3371 44.9807C93.6008 43.8383 92.864 42.6964 92.1277 41.554L92.1271 41.5546Z" fill="#FFDDC0"/>
<path d="M88.2333 72.1888C88.0929 72.1888 87.9752 72.0782 87.9671 71.936C87.9659 71.9108 87.8308 69.4165 87.9671 67.3581C88.1191 65.0698 88.0882 54.468 87.9741 53.9419C87.9432 53.7991 88.0312 53.6539 88.1733 53.6206C88.3148 53.5872 88.4564 53.6715 88.4919 53.8131C88.6515 54.454 88.6189 65.5913 88.4995 67.3933C88.3649 69.4182 88.4983 71.881 88.4995 71.9055C88.5076 72.053 88.3952 72.1794 88.2478 72.1876C88.2426 72.1876 88.2379 72.1876 88.2327 72.1876L88.2333 72.1888Z" fill="black"/>
<path d="M87.4153 48.2801C87.3012 48.2801 87.1957 48.2057 87.1608 48.0905C85.9883 44.2442 85.1 40.8029 85.0336 40.546C84.8915 40.1755 82.9769 35.1441 82.7363 33.2069C82.6722 32.6931 81.1549 31.6086 80.0837 30.9929C79.5641 30.8209 77.2995 30.0267 76.9174 29.1418C76.8352 28.9504 76.8346 28.7561 76.9168 28.58C77.4165 27.5037 80.0552 28.6262 80.8526 28.9961L84.2758 30.7945C84.4063 30.863 84.4564 31.0245 84.3882 31.1556C84.3201 31.2867 84.1593 31.3377 84.0288 31.2686L80.6172 29.476C79.2502 28.8427 77.5849 28.4079 77.3997 28.8065C77.3874 28.8334 77.3793 28.8667 77.4061 28.9288C77.6338 29.4561 79.2863 30.1677 80.2748 30.4926C80.2916 30.4984 80.308 30.5054 80.3237 30.5142C80.7937 30.7828 83.1446 32.1716 83.2652 33.1402C83.5023 35.0446 85.5165 40.3148 85.5368 40.3675C85.5409 40.3774 85.5438 40.3868 85.5462 40.3973C85.5555 40.4324 86.4612 43.9668 87.6705 47.9336C87.7136 48.0752 87.6343 48.2245 87.4934 48.2678C87.4672 48.276 87.441 48.2795 87.4153 48.2795V48.2801Z" fill="black"/>
<path d="M59.1733 70.9494C59.1628 70.9494 59.1518 70.9489 59.1407 70.9477C58.9945 70.9301 58.8902 70.7967 58.9083 70.6498L61.0902 52.5948C61.1083 52.4479 61.2417 52.3437 61.3867 52.3613C61.5329 52.3794 61.6372 52.5129 61.6191 52.6592L59.4372 70.7142C59.4209 70.85 59.3055 70.9494 59.1727 70.9494H59.1733Z" fill="black"/>
<path d="M59.1717 70.9468C59.1612 70.9468 59.1502 70.9463 59.1391 70.9451C58.9929 70.9269 58.8886 70.7941 58.9067 70.6472C58.9067 70.6472 58.9335 69.918 57.6078 68.5233C56.4178 67.2715 53.4809 67.5319 52.5163 67.6179C52.3532 67.6326 52.2455 67.6419 52.1808 67.6419C52.0335 67.6419 51.9141 67.522 51.9141 67.3739C51.9141 67.2258 52.0335 67.1058 52.1808 67.1058C52.2222 67.1058 52.3369 67.0959 52.4697 67.0836C53.6067 66.9824 56.6269 66.7143 57.994 68.1523C59.5043 69.7412 59.4478 70.6162 59.4367 70.7104C59.4204 70.8462 59.3051 70.9457 59.1723 70.9457L59.1717 70.9468Z" fill="black"/>
<path d="M59.1724 73.9619C59.0251 73.9619 58.9062 73.8419 58.9062 73.6938V70.6821C58.9062 70.534 59.0257 70.4141 59.1724 70.4141C59.3192 70.4141 59.4392 70.534 59.4392 70.6821V73.6938C59.4392 73.8419 59.3198 73.9619 59.1724 73.9619Z" fill="black"/>
<path d="M77.3215 50.3528C77.152 50.3528 76.979 50.347 76.8008 50.3347C74.581 50.1802 72.8138 48.3226 71.6902 44.9615C70.8351 42.4039 70.64 39.8745 70.6446 39.6679C70.6481 39.5198 70.7739 39.4039 70.9172 39.4063C71.064 39.4098 71.1805 39.5321 71.1776 39.6802C71.1752 39.8844 71.3803 42.3606 72.201 44.8064C72.9326 46.9882 74.3317 49.6259 76.8381 49.8003C82.6693 50.2053 83.4107 43.2871 83.4393 42.9921C83.4539 42.8446 83.5832 42.7369 83.7305 42.7516C83.8767 42.7662 83.9839 42.8967 83.9699 43.0442C83.9629 43.1197 83.1935 50.3522 77.3221 50.3534L77.3215 50.3528Z" fill="black"/>
<path d="M94.246 45.3316C94.1464 45.3316 94.0508 45.2754 94.0048 45.1782C93.7934 44.7305 93.4259 44.1271 93.0001 43.4289C92.4205 42.4779 91.6994 41.2951 90.9963 39.901C90.7657 39.4439 90.6521 38.9324 90.6678 38.4209C90.7022 37.2931 90.7593 35.1359 90.7593 33.355C90.7593 31.9381 90.7966 30.7114 90.8274 29.9319C90.8519 29.3209 90.7063 28.7157 90.4063 28.182C90.0533 27.5534 89.6246 26.7066 89.1709 25.8099C88.4841 24.4528 87.5434 22.594 87.2667 22.4096C86.9091 22.175 83.2407 20.3724 82.8271 20.198C82.5551 20.0833 82.325 20.0868 82.2266 20.2085C82.1357 20.3221 82.1631 20.5257 82.2953 20.7153C82.4584 20.9489 84.2122 22.2107 85.8135 23.2957C85.8583 23.3261 85.8927 23.3695 85.9125 23.4198L86.6988 25.4266C86.753 25.5641 86.6854 25.7198 86.5486 25.7737C86.4123 25.8275 86.2567 25.7602 86.2031 25.6227L85.4471 23.6931C84.7598 23.2267 82.1497 21.4393 81.8596 21.0226C81.5859 20.6293 81.5672 20.1781 81.8124 19.872C82.0693 19.5519 82.5254 19.4892 83.0339 19.704C83.3647 19.8433 87.1345 21.6833 87.558 21.9608C87.9127 22.1931 88.4946 23.291 89.6462 25.5665C90.0772 26.4186 90.5234 27.2994 90.8711 27.918C91.22 28.5384 91.3889 29.2419 91.3604 29.9524C91.3295 30.7266 91.2922 31.9457 91.2922 33.3538C91.2922 35.1418 91.2346 37.3054 91.2002 38.4361C91.1874 38.8581 91.2812 39.2807 91.4716 39.6576C92.1654 41.0323 92.8801 42.2057 93.455 43.148C93.9064 43.8889 94.2629 44.4742 94.4871 44.9476C94.55 45.0811 94.4935 45.2409 94.3607 45.3041C94.324 45.3216 94.285 45.3298 94.2466 45.3298L94.246 45.3316Z" fill="black"/>
<path d="M98.9399 74.0093C96.5488 74.0093 94.0826 72.5679 92.6579 70.8525C91.7946 69.8131 88.2497 63.3045 88.0994 63.0277C88.0289 62.8978 88.0761 62.7351 88.2054 62.6643C88.3347 62.5934 88.4966 62.6414 88.5671 62.7708C88.6038 62.8381 92.2367 69.5099 93.0668 70.5095C94.7746 72.5655 98.0638 74.1276 100.612 73.1847C103.152 72.2448 104.077 69.0002 102.916 65.1112C102.582 63.9887 101.695 61.9146 100.042 58.3849L94.9359 46.1918C94.7868 45.8354 94.4822 45.5638 94.1222 45.4667C93.4559 45.2864 92.299 45.1963 90.5703 45.7915C87.8967 46.7121 87.5618 48.8705 87.5251 49.2146L91.2133 60.0845L91.7958 61.976C92.4464 64.0536 92.885 65.3195 93.0988 65.7386C94.1915 67.8788 96.1749 69.9225 96.1947 69.943C96.2978 70.0489 96.296 70.2181 96.1912 70.3217C96.0863 70.4259 95.9174 70.4235 95.8143 70.3182C95.7304 70.2327 93.7547 68.1978 92.6241 65.9832C92.3934 65.5314 91.956 64.2725 91.2873 62.1358L90.7066 60.2501L87.0026 49.3346C86.9921 49.3024 86.9869 49.2691 86.9886 49.2351C86.9944 49.1198 87.1639 46.3984 90.3973 45.2853C92.253 44.6462 93.5228 44.7503 94.2608 44.9499C94.7781 45.0898 95.2138 45.4766 95.4269 45.9846L100.529 58.1672C102.188 61.7115 103.084 63.809 103.426 64.9573C104.673 69.1342 103.616 72.6428 100.796 73.6869C100.196 73.9087 99.5701 74.0093 98.9393 74.0093H98.9399Z" fill="black"/>
<path d="M60.7168 81.2285C60.6381 81.2285 60.5606 81.194 60.5082 81.1279C60.0574 80.559 59.9199 79.7484 60.1587 79.0625C60.2071 78.9226 60.3591 78.8489 60.4983 78.898C60.637 78.9466 60.7103 79.0994 60.662 79.2393C60.4826 79.756 60.5857 80.3664 60.9253 80.7948C61.0167 80.9101 60.9981 81.0793 60.8828 81.1712C60.8338 81.2104 60.775 81.2297 60.7168 81.2297V81.2285Z" fill="black"/>
<path d="M60.9485 85.2135C60.8821 85.2135 60.8162 85.1889 60.7644 85.1391C60.2856 84.6797 60.0054 84.0342 59.9961 83.3693C59.9944 83.2213 60.112 83.1001 60.2588 83.0978C60.4085 83.0931 60.5268 83.2143 60.5291 83.3617C60.5361 83.8768 60.7615 84.3959 61.1319 84.7517C61.2385 84.8541 61.2426 85.0233 61.1407 85.1304C61.0883 85.1854 61.0184 85.2129 60.9479 85.2129L60.9485 85.2135Z" fill="black"/>
<path d="M97.4084 51.664C97.2972 51.664 97.1929 51.5932 97.1556 51.4808C96.6023 49.8158 96.1957 48.4293 95.8689 47.315C95.2317 45.142 94.8467 43.8298 94.1326 42.9842C93.8576 42.6588 93.2787 42.3691 92.7678 42.1139C92.5412 42.0004 92.3269 41.8938 92.1475 41.7879C92.0205 41.713 91.978 41.5491 92.052 41.4215C92.1265 41.294 92.2896 41.2512 92.4166 41.3256C92.5808 41.4221 92.787 41.5251 93.0055 41.6346C93.5623 41.9132 94.1931 42.2286 94.5391 42.6377C95.3266 43.57 95.7233 44.9225 96.3803 47.1634C96.7059 48.2737 97.1108 49.6548 97.6612 51.3111C97.7078 51.4516 97.6321 51.6031 97.4929 51.65C97.4649 51.6593 97.4364 51.664 97.4084 51.664Z" fill="black"/>
<path d="M77.2402 80.8712C76.8284 80.1911 68.8787 80.5036 68.8787 80.5036L63.4524 78.6314L66.1009 78.1357C66.1009 78.1357 72.0928 79.0475 72.5635 78.9907C73.0335 78.934 74.216 79.2693 73.8222 77.8507C73.5648 76.9231 67.1441 75.2762 66.2692 75.1778C66.0858 75.1568 62.0672 75.0959 61.0846 75.4336C60.9104 75.4933 60.7468 75.5483 60.593 75.5992L60.5848 75.5904L60.6745 75.4488L59.0279 73.3881C59.0279 73.3881 56.352 71.8729 54.9505 74.2602C53.5742 76.6053 53.8572 80.1572 54.1392 81.227L54.0757 81.3224C54.0757 81.3224 54.1269 81.3698 54.2178 81.4523C54.4409 81.9428 54.9738 82.3015 55.4072 82.5257C57.3137 84.2287 60.6751 87.1515 61.4236 87.272C62.4814 87.4418 66.8313 87.1585 68.8298 86.6488C70.8283 86.139 73.4145 85.5157 73.5321 85.2892L73.6498 85.0627L73.4005 85.0153C74.6738 84.7344 75.7636 84.4582 76.0007 84.323C76.5884 83.9865 76.8534 83.0799 76.8534 83.0799V82.4508C77.7359 81.9521 77.6095 81.4804 77.2413 80.8717L77.2402 80.8712Z" fill="#FFDDC0"/>
<path d="M55.8807 83.0677C55.8539 83.0677 55.826 83.0636 55.7992 83.0548C55.7281 83.032 54.0581 82.4801 53.736 81.3593C53.4477 80.3556 53.0906 76.6264 54.5591 74.125C56.0758 71.5417 58.9678 73.1395 58.997 73.1553C59.0267 73.1723 59.0529 73.1945 59.0738 73.2208L60.7205 75.2815C60.8125 75.3968 60.7945 75.5653 60.6797 75.6578C60.565 75.7503 60.3972 75.7321 60.3052 75.6168L58.6923 73.5983C58.3504 73.4192 56.1918 72.398 55.0186 74.3966C53.7145 76.6188 53.9364 80.1233 54.2486 81.2107C54.4507 81.9136 55.5545 82.4122 55.9628 82.545C56.1026 82.5907 56.1795 82.7417 56.1347 82.8821C56.098 82.9957 55.9937 83.0677 55.8813 83.0677H55.8807Z" fill="black"/>
<path d="M72.6883 79.0322C71.9247 79.0322 67.3307 78.341 66.2694 78.1795L63.6646 78.667C63.5196 78.6945 63.3809 78.5979 63.3541 78.4528C63.3274 78.3076 63.4229 78.1678 63.5673 78.1408L66.2164 77.6451C66.2456 77.6399 66.2758 77.6393 66.305 77.6434C68.5918 77.9916 72.3487 78.5318 72.6965 78.4972C72.799 78.485 72.9172 78.4879 73.0419 78.4902C73.3028 78.4961 73.6273 78.5037 73.738 78.3603C73.8218 78.252 73.8183 78.0156 73.7298 77.6943C73.4881 77.0113 67.6272 75.3533 66.4034 75.2157C66.143 75.1923 62.2434 75.1467 61.3341 75.4586C60.2787 75.8209 59.5477 76.024 59.5407 76.0263C59.3991 76.0649 59.2523 75.9818 59.2127 75.839C59.1737 75.6962 59.257 75.5493 59.3991 75.5095C59.4061 75.5078 60.1226 75.3082 61.1617 74.9518C62.2294 74.5854 66.3195 74.6668 66.4628 74.6832C67.0488 74.7493 73.908 76.3424 74.243 77.5503C74.3845 78.0601 74.3571 78.4323 74.1591 78.688C73.8836 79.0439 73.3902 79.0322 73.0302 79.0246C72.9248 79.0222 72.8246 79.0199 72.7594 79.0275C72.7419 79.0298 72.718 79.0304 72.6883 79.0304V79.0322Z" fill="black"/>
<path d="M68.7361 83.4318C68.7245 83.4318 68.7128 83.4312 68.7018 83.4295L63.3138 82.7195C63.1676 82.7002 63.0651 82.5656 63.0843 82.4193C63.1036 82.273 63.2375 82.1694 63.3832 82.1887L68.7495 82.8957C70.6053 82.8395 75.5622 82.5996 76.5559 82.1542C77.1302 81.8967 77.4896 81.5771 77.5164 81.2991C77.535 81.1066 77.3818 80.955 77.2502 80.8625C76.8395 80.6085 72.7558 80.5003 69.0448 80.5442C69.0151 80.5442 68.9842 80.5395 68.9551 80.5295L63.5288 78.6573C63.3896 78.6093 63.3156 78.4572 63.3634 78.3173C63.4111 78.1774 63.5626 78.1037 63.7018 78.1511L69.085 80.0081C70.967 79.9864 76.896 79.9577 77.5566 80.4248C77.9066 80.6718 78.0808 81.0007 78.047 81.3512C78.0138 81.6954 77.7657 82.1993 76.7731 82.644C75.4759 83.2252 69.0186 83.4242 68.7443 83.4324C68.7419 83.4324 68.739 83.4324 68.7361 83.4324V83.4318Z" fill="black"/>
<path d="M68.8754 85.8938C67.9982 85.8938 63.0209 85.6761 62.8095 85.6667C62.6627 85.6603 62.5485 85.535 62.5549 85.3876C62.5614 85.2401 62.686 85.1265 62.8328 85.1318C62.8846 85.1342 68.0098 85.3583 68.8754 85.3583C69.741 85.3583 75.5185 84.1539 76.0323 83.8601C76.4156 83.6406 76.6695 83.0577 76.7505 82.809V82.2173C76.7505 82.0692 76.8699 81.9492 77.0173 81.9492C77.1646 81.9492 77.284 82.0692 77.284 82.2173V82.8499C77.284 82.8751 77.2805 82.9008 77.273 82.9254C77.2607 82.9664 76.9701 83.9397 76.2961 84.3253C75.6403 84.7005 69.7602 85.8938 68.8754 85.8938Z" fill="black"/>
<path d="M62.561 87.3584C62.1172 87.3584 61.7625 87.3414 61.5435 87.3063C60.463 87.1325 54.8549 82.1555 53.7418 81.1594C53.6317 81.0611 53.6218 80.892 53.7202 80.7813C53.8181 80.6707 53.9864 80.6608 54.0965 80.7591C56.6291 83.0246 60.9132 86.6625 61.6279 86.7772C62.642 86.9399 66.9448 86.6649 68.9269 86.1586C69.1966 86.0896 69.4768 86.0187 69.7604 85.9473C71.1997 85.5833 73.1574 85.0882 73.4796 84.8939L73.5763 84.7078C73.6444 84.5767 73.8052 84.5258 73.9356 84.5942C74.0661 84.6627 74.1168 84.8242 74.0486 84.9553L73.931 85.1818C73.8057 85.4235 73.317 85.6003 69.8903 86.4665C69.6073 86.5379 69.3271 86.6087 69.058 86.6777C67.4043 87.0997 64.3003 87.3578 62.5616 87.3578L62.561 87.3584Z" fill="black"/>
<path d="M85.6671 82.8094C85.6438 82.8094 85.6205 82.8065 85.5984 82.8C85.5302 82.7813 85.472 82.7368 85.4364 82.6754L81.9701 76.6444C81.75 76.2616 81.881 75.77 82.2625 75.5488C82.6435 75.3275 83.1328 75.4592 83.3529 75.8426L86.8192 81.8736C86.8926 82.0017 86.849 82.1656 86.722 82.2393L85.8011 82.7737C85.7603 82.7977 85.7143 82.8094 85.6677 82.8094H85.6671ZM82.6609 75.9766C82.6161 75.9766 82.5707 75.9883 82.5287 76.0123C82.4023 76.086 82.3586 76.2493 82.4315 76.3763L85.765 82.1756L86.2245 81.9087L82.891 76.1094C82.8421 76.024 82.7524 75.976 82.6609 75.976V75.9766Z" fill="#C6B19E"/>
<path d="M89.8341 88.9914C89.7828 88.9914 89.7316 88.9768 89.6873 88.9469L88.9283 88.4436C88.894 88.4208 88.8649 88.3903 88.8445 88.354L85.5436 82.611C85.508 82.5495 85.4987 82.4764 85.5168 82.4079C85.5354 82.3394 85.5797 82.2809 85.6408 82.2452L86.3451 81.8367C86.472 81.763 86.6357 81.8063 86.7091 81.9344L90.01 87.6775C90.0304 87.7132 90.0426 87.7536 90.045 87.7951L90.0997 88.707C90.1055 88.8082 90.0543 88.9042 89.9669 88.9551C89.9255 88.9791 89.8795 88.9908 89.8335 88.9908L89.8341 88.9914ZM89.2743 88.0316L89.5359 88.2048L89.5172 87.8905L86.3812 82.4342L86.1383 82.5753L89.2743 88.0316Z" fill="#C6B19E"/>
<path d="M88.015 82.8709C87.9888 82.8709 87.962 82.8668 87.9352 82.8586L87.9136 82.8515C87.4296 82.6976 87.044 82.3687 86.8267 81.9251L84.339 76.8358C84.1683 76.4864 83.8095 76.2792 83.414 76.2862C83.354 76.288 83.322 76.2926 83.308 76.295C83.1962 76.3617 83.0494 76.3371 82.9655 76.2324C82.8729 76.1171 82.8909 75.9485 83.0051 75.856C83.0901 75.787 83.2084 75.7554 83.4 75.7507C83.9994 75.7326 84.5574 76.0685 84.8172 76.5999L87.3049 81.6892C87.457 82.0006 87.7302 82.2323 88.0738 82.3412L88.0948 82.3476C88.2352 82.3921 88.3132 82.5425 88.2689 82.6836C88.2334 82.7977 88.128 82.8709 88.015 82.8709Z" fill="#C6B19E"/>
<path d="M90.111 89.468C90.019 89.468 89.9293 89.42 89.8804 89.334L89.4342 88.558C89.3608 88.4298 89.4039 88.2659 89.5315 88.1922C89.6584 88.1184 89.8215 88.1617 89.8955 88.2899L90.3417 89.066C90.4151 89.1941 90.372 89.358 90.2444 89.4317C90.2025 89.4563 90.1565 89.4674 90.1116 89.4674L90.111 89.468Z" fill="#C6B19E"/>
<path d="M77.9423 33.9332C77.8957 33.9332 77.848 33.9209 77.8049 33.8946C77.6785 33.8185 77.6383 33.6541 77.714 33.5271C77.8718 33.2637 77.9196 32.9289 77.8427 32.6322C77.8054 32.4894 77.8911 32.3431 78.0332 32.3056C78.1759 32.2682 78.3209 32.3542 78.3582 32.497C78.473 32.9371 78.4042 33.4135 78.1706 33.8033C78.1206 33.887 78.0326 33.9332 77.9423 33.9332Z" fill="black"/>
<path d="M78.4165 12.5502C78.3297 12.5502 78.2447 12.5075 78.1934 12.4291C77.5818 11.4909 77.9826 10.9384 78.3076 10.6581C78.1457 10.5756 78.0129 10.4691 77.9424 10.3105C77.8731 10.1542 77.8801 9.97921 77.9628 9.79018C78.0787 9.52447 78.3286 9.37816 78.54 9.26287C78.42 9.2377 78.2767 9.202 78.1154 9.14348C77.7904 9.02292 77.5929 8.81222 77.5591 8.54945C77.5236 8.27028 77.6657 7.98058 78.0018 7.65753C76.9912 7.53755 75.9189 7.26424 75.3678 6.71644C75.1075 6.45776 74.9787 6.15753 74.9846 5.82394C74.9904 5.33818 75.1989 4.8969 75.6043 4.51415C76.9376 3.25644 80.1284 2.92636 81.8275 3.01298C81.9749 3.02059 82.0873 3.14642 82.0803 3.2939C82.0727 3.44138 81.9463 3.55668 81.8007 3.5479C80.0719 3.46011 77.1176 3.82121 75.9701 4.90509C75.6701 5.18835 75.5222 5.49151 75.5187 5.83213C75.5152 6.01765 75.5892 6.18211 75.7441 6.33603C76.2299 6.81945 77.4228 7.09803 78.6087 7.17762C79.0555 6.87329 79.9065 6.4443 80.3061 6.7656C80.4767 6.90314 80.5426 7.09569 80.482 7.28238C80.3946 7.55042 80.0783 7.71488 79.6153 7.73361C79.3706 7.74005 79.08 7.73829 78.766 7.7219C78.0793 8.22229 78.0868 8.45522 78.0897 8.48097C78.0967 8.53365 78.1771 8.5951 78.3006 8.64075C78.4876 8.70922 78.6495 8.73965 78.7794 8.76423C78.9699 8.79993 79.3217 8.86665 79.2891 9.21371C79.2786 9.47297 79.0409 9.60173 78.8307 9.71527C78.6839 9.79428 78.5016 9.89318 78.4526 10.005C78.4276 10.0623 78.4293 10.0892 78.4311 10.0933C78.4462 10.1279 78.5318 10.1917 78.851 10.2982C79.0334 10.3637 79.0689 10.4983 79.0765 10.5533C79.1015 10.7465 78.9553 10.8477 78.826 10.9367C78.5289 11.1421 78.1596 11.3973 78.6408 12.1353C78.7211 12.2588 78.6868 12.425 78.5639 12.5063C78.519 12.5362 78.4684 12.5502 78.4183 12.5502H78.4165Z" fill="black"/>
<path d="M84.1499 31.2977C84.0637 31.2977 83.9792 31.2562 83.9279 31.1783L81.5223 27.5568C81.386 27.3514 81.1903 27.1939 80.9573 27.1015C80.6195 26.968 80.03 26.6994 79.1423 26.1809C79.0416 26.1218 78.9385 26.0627 78.8354 26.003C77.8294 25.4241 77.2114 25.0455 77.1823 24.5866C77.1637 24.2882 77.2452 24.0617 77.4246 23.9136C77.6989 23.6877 78.1457 23.6801 78.9187 23.8873C81.1379 24.4831 82.5539 25.2433 82.8585 25.4985C83.0216 25.6348 83.6606 26.2324 84.3322 26.8644L83.1381 25.114C82.7869 24.946 81.1111 24.1448 80.4348 23.8001C79.0084 23.0738 78.4282 22.605 78.3659 22.1274C78.3461 21.9747 78.3723 21.7482 78.6111 21.534C78.7416 21.4169 79.0893 21.105 81.7873 21.9384C82.7886 22.2474 84.3869 22.8186 84.6386 23.0621C84.9601 23.3728 87.9989 26.9083 88.1282 27.0587C88.2243 27.1705 88.2121 27.3397 88.1008 27.4362C87.9896 27.5328 87.8212 27.5205 87.7251 27.4087C86.8496 26.3898 84.5215 23.6918 84.2693 23.4478C83.7975 23.0714 79.4778 21.6464 78.9577 21.9396C78.8872 22.0039 78.8924 22.0414 78.8942 22.0578C78.9169 22.2322 79.2443 22.5933 80.6754 23.3225C81.4227 23.7029 83.4113 24.6516 83.4311 24.661C83.4736 24.6815 83.5103 24.7125 83.5365 24.7517L86.1705 28.6132C86.2474 28.7261 86.2276 28.8795 86.1239 28.9684C86.0202 29.0574 85.867 29.0533 85.7674 28.9596C85.7383 28.9321 82.8719 26.2072 82.5166 25.9105C82.371 25.7888 81.1373 25.0379 78.78 24.4052C78.024 24.2021 77.8154 24.2841 77.7619 24.3286C77.7129 24.3689 77.7088 24.4731 77.7135 24.5533C77.752 24.7634 78.6286 25.2679 79.0992 25.5389C79.2035 25.5985 79.3072 25.6588 79.4091 25.7179C80.2682 26.2201 80.8309 26.4764 81.1519 26.6034C81.4868 26.7357 81.7681 26.9628 81.965 27.2595L84.3706 30.881C84.4522 31.0039 84.419 31.1701 84.2967 31.2521C84.2512 31.2825 84.1994 31.2971 84.1487 31.2971L84.1499 31.2977Z" fill="black"/>
</g>
<defs>
<clipPath id="clip0_859_2019">
<rect width="104" height="94" fill="white" transform="translate(23 3)"/>
</clipPath>
</defs>
</svg>
