<svg width="151" height="89" viewBox="0 0 151 89" fill="none" xmlns="http://www.w3.org/2000/svg">
<g clip-path="url(#clip0_859_2011)">
<g clip-path="url(#clip1_859_2011)">
<path fill-rule="evenodd" clip-rule="evenodd" d="M85.7288 33.1982C83.7888 29.7538 82.0911 31.5884 79.4236 30.2968C76.7562 29.0052 76.877 28.0323 74.9371 28.0323C71.8452 27.9707 68.2682 30.554 65.9639 31.9681C65.0543 32.5828 63.8417 31.5992 63.7209 32.3371C63.6602 32.7676 64.2668 33.7519 64.1453 34.1208C63.6001 35.3508 62.2661 36.8882 62.2053 39.3483C62.1446 44.0835 63.3572 47.9584 63.3572 47.9584L86.5169 47.4047C86.5169 47.4047 87.4872 44.4525 87.6081 41.8699C87.6688 41.2552 87.5473 40.5783 87.4866 39.9636C87.4259 39.4714 88.7599 39.2257 88.0319 38.0573C87.3044 36.8888 86.4556 34.4904 85.7282 33.1988L85.7288 33.1982Z" fill="#B58171"/>
<path fill-rule="evenodd" clip-rule="evenodd" d="M88.5788 39.1054C87.7549 37.523 87.4901 35.6478 87.8438 33.8945C87.9033 33.6011 87.9791 33.3039 87.9496 33.0061C87.9202 32.7083 87.7574 32.401 87.4783 32.3025C87.3336 32.2517 87.1609 32.2543 87.0526 32.1444C86.9762 32.0669 86.9537 31.9526 86.9355 31.8453C86.8222 31.1506 86.7896 30.4324 86.5324 29.779C86.2751 29.1249 85.7204 28.528 85.0274 28.4886C84.9811 28.0473 84.7395 27.7514 84.5949 27.3329C84.5504 27.2034 84.4966 27.07 84.392 26.9837C84.2718 26.8846 84.1072 26.8662 83.9526 26.8586C82.4577 26.7843 81.0047 27.3139 79.5987 27.8359C79.3301 27.9355 79.0453 28.0479 78.8807 28.2848C78.7799 28.4302 78.7354 28.6074 78.6478 28.7611C78.5264 28.9738 78.3298 29.13 78.1702 29.3148C77.7282 29.826 77.8008 30.1759 78.0293 30.8153C78.132 31.103 78.1952 31.5323 78.4888 31.6059C79.1655 31.7761 79.5674 31.0516 80.2642 31.0363C80.7399 31.0262 81.0905 31.4662 81.3622 31.8631C81.8811 32.6226 82.4132 33.4125 82.5804 34.3212C82.7275 35.122 82.5785 35.9437 82.4577 36.7489C82.3306 37.5992 82.524 38.3066 82.4577 39.1638C82.3794 40.1818 82.4934 41.0193 82.7807 41.9979C83.0317 42.8526 83.0943 43.5797 83.572 44.3284C83.7811 44.6561 83.9814 45.3787 84.2969 45.6016C84.6462 45.8486 85.0794 45.9318 85.4876 46.055C87.1001 46.5433 88.4129 47.7124 89.6693 48.8484C90.0486 46.6405 91.0333 44.4135 92.4074 42.6577C90.7804 41.9655 89.4026 40.6866 88.5788 39.1041V39.1054Z" fill="#FFDDC0"/>
<path fill-rule="evenodd" clip-rule="evenodd" d="M69.0282 29.2274C68.677 28.9505 68.5124 28.5009 68.2395 28.1453C67.8344 27.6183 67.1953 27.3147 66.5461 27.1992C65.8969 27.0836 65.2303 27.1388 64.5754 27.215C64.1955 27.2595 63.8067 27.3135 63.4662 27.4906C63.1256 27.6678 62.8364 27.9929 62.8007 28.3796C62.4833 28.1079 61.9644 28.2577 61.6983 28.5809C61.4323 28.9042 61.3528 29.3411 61.282 29.7563C61.1687 30.425 61.0548 31.0905 60.9415 31.7585C60.4776 31.9649 59.9993 32.2323 59.7715 32.6914C59.6294 32.9778 59.6025 33.3073 59.578 33.6268C59.506 34.5672 59.4341 35.5115 59.4998 36.4526C59.5392 37.0133 59.6275 37.5695 59.655 38.1309C59.7458 39.9934 59.1373 41.8819 57.9805 43.3304C59.1355 44.5496 59.8848 46.026 60.5427 47.5792C60.7518 48.072 60.9365 48.5845 61.2557 49.0125C62.5916 47.625 64.5992 46.988 65.7505 45.4399C66.5111 44.4175 66.8028 43.1094 66.886 41.8311C66.9693 40.5528 66.8629 39.2688 66.9223 37.9893C66.9505 37.3746 67.0175 36.7555 66.933 36.1458C66.8397 35.474 66.5643 34.8161 66.635 34.1411C66.6701 33.8033 66.7909 33.4826 66.9111 33.1657C67.1427 32.5523 67.3743 31.9395 67.6059 31.3261C67.6322 31.2562 67.6642 31.1794 67.7299 31.1458C67.825 31.0962 67.9371 31.1578 68.0316 31.2086C68.5055 31.4633 69.1347 31.4537 69.5422 31.1C69.9497 30.747 70.033 30.0351 69.6517 29.6528C69.4727 29.4738 69.2261 29.383 69.0276 29.2267L69.0282 29.2274Z" fill="#FFDDC0"/>
<path d="M95.2769 75.6168C95.4178 74.6929 96.2604 74.7266 97.1624 74.5348C102.05 73.4953 117.024 70.9089 121.137 69.5995C122.918 69.0324 126.711 65.757 126.712 61.5837C126.712 58.168 123.176 55.9315 114.949 51.5702C106.543 47.113 95.7132 43.9627 92.6176 42.7511C91.8696 43.8307 90.9556 44.7927 90.3196 45.9535C89.959 46.612 89.6898 47.3347 89.6416 48.0929C89.594 48.846 89.7211 49.7414 90.2451 50.3148C90.7365 50.8533 91.477 51.0482 92.1513 51.2311C92.9557 51.4495 93.7444 51.694 94.5019 52.0515C95.3777 52.4649 96.194 52.9958 96.9909 53.547C97.7778 54.0906 98.5609 54.6367 99.3553 55.1688C100.965 56.2471 102.489 57.4904 103.759 58.9687C103.807 59.0246 103.787 59.1071 103.717 59.1306C103.38 59.2418 103.036 59.3256 102.686 59.3821C101.277 59.6075 99.8361 59.438 98.4407 59.1961C96.9809 58.9427 95.5354 58.6283 94.0712 58.401C92.5375 58.1623 90.9906 57.9584 89.4356 58.0562C87.8813 58.1546 86.3976 58.5896 84.934 59.104C83.5556 59.5879 82.1846 60.1149 80.7442 60.3797C79.1604 60.6712 77.5202 60.6032 75.9189 60.548C74.2174 60.4896 72.5184 60.3778 70.8157 60.3492C70.4088 60.3422 69.9994 60.3276 69.5931 60.3613C69.2238 60.3918 68.8582 60.4578 68.4938 60.5239C67.784 60.6521 67.5542 60.7214 66.8305 60.6458C66.6158 60.6236 66.4036 60.5937 66.1926 60.5594C66.1714 60.5626 66.1501 60.5651 66.1288 60.5689C65.8108 60.6191 65.5347 60.468 65.2355 60.3867C64.8949 60.2946 64.0542 60.3111 63.7061 60.2635C63.3543 60.2159 63.0138 60.12 62.6701 60.0305C62.3033 59.9352 61.9377 59.8577 61.5577 59.8476C61.1783 59.8374 60.799 59.8673 60.4202 59.8882C60.0396 59.9098 59.664 59.9104 59.2834 59.8863C58.9184 59.8628 58.5529 59.8355 58.1873 59.8349C57.8048 59.8342 57.4154 59.8596 57.0379 59.92C56.6673 59.979 56.303 60.0698 55.9355 60.146C55.3245 60.2724 54.6998 60.3137 54.0782 60.3638C53.6631 60.4235 53.255 60.4591 52.8481 60.4839C52.8637 60.4813 52.8787 60.4781 52.8944 60.475C52.3648 60.5277 51.8358 60.5823 51.3068 60.6375C50.6558 60.7055 50.006 60.8014 49.3531 60.8395C48.7671 60.8738 48.1511 60.863 47.5934 60.6566C47.5664 60.6547 47.5408 60.6521 47.5132 60.6502C47.4932 60.6655 47.4732 60.6813 47.4519 60.6953C47.393 60.7347 47.3292 60.6896 47.3129 60.6331C47.2966 60.6318 47.2816 60.6305 47.2653 60.6293C47.2184 60.6255 47.3793 60.4832 47.475 60.4102C47.5971 60.2883 47.7161 60.1606 47.8381 60.0355C47.825 60.0438 47.8131 60.0514 47.8024 60.0597C47.8469 59.9187 47.8607 59.7872 48.1367 59.713C48.1524 59.7085 48.1668 59.7085 48.1799 59.7117C48.2507 59.6514 48.3252 59.5961 48.4022 59.5447C51.6605 56.4928 55.6012 53.2866 57.3991 52.0325C59.0831 50.8577 60.409 50.0443 61.003 49.6893C61.2034 49.5699 61.2885 49.3235 61.2109 49.1013C59.2008 43.3328 56.8407 42.7753 56.1934 42.7188C56.1934 42.7188 48.451 47.7131 44.9873 49.3235C41.5236 50.9339 30.1215 55.5454 26.4412 59.8279C22.7609 64.1104 24.7817 67.1845 25.3589 68.6489C25.936 70.1132 28.1014 72.0893 31.4205 73.334C34.7402 74.5786 53.0296 74.0388 54.3536 75.6181C55.8091 77.3549 55.4272 100.988 55.5086 104.002H95.3627C95.434 101.361 94.4005 81.3567 95.2769 75.6181V75.6168Z" fill="#DAE2EF"/>
<path fill-rule="evenodd" clip-rule="evenodd" d="M85.8527 47.7742C85.0645 47.59 84.1549 47.4668 83.6698 46.9131C82.7602 45.9288 82.6995 45.4989 82.275 44.6994C81.4869 43.2237 81.0017 41.0094 80.5773 39.6562C79.8499 37.4419 77.8492 37.8724 76.6366 37.6883C74.1507 37.3809 72.0893 37.3193 71.0589 39.841C70.7559 40.702 69.9677 43.6637 68.6944 45.1395C67.6033 46.3695 67.2396 46.36 66.2693 47.0979C65.3597 47.8974 64.087 47.59 63.359 47.959C62.8131 48.2053 62.5101 49.1274 62.5101 49.189C62.0857 50.2348 62.6923 51.649 62.6923 51.649L64.0263 53.3096L65.5419 54.0475C65.5419 54.0475 65.9663 56.2618 66.6937 57.9223C67.4211 59.5829 68.5123 60.6281 68.5123 60.6281C68.5123 60.6281 68.5254 61.9813 68.3808 63.4723C68.9386 63.8959 69.4532 64.3804 70.0416 64.7614C70.7384 65.2135 71.5115 65.505 72.2326 65.9095C72.5726 66.1006 72.8949 66.3273 73.1698 66.608C73.4421 66.8874 73.5529 67.6831 73.7426 68.0241C74.4794 69.3525 74.6359 70.6759 75.4334 71.8049C75.7026 71.0467 75.9636 70.2854 76.2604 69.538C76.5571 68.7899 76.8851 68.0501 77.2977 67.3599C77.4848 67.0462 77.687 66.7382 77.928 66.4632C78.1522 66.208 78.4051 65.9825 78.6736 65.7761C79.5813 65.0764 80.6468 64.6223 81.5933 63.9835C81.4487 62.2709 81.5482 60.5055 81.5482 60.5055C81.5482 60.5055 82.4578 59.5219 83.3061 57.8607C84.1549 56.2002 84.4579 53.8633 84.4579 53.8633C84.4579 53.8633 85.8527 53.7401 87.0045 52.018C88.0956 50.419 87.0652 48.2663 87.0652 48.2663C87.0652 48.2663 86.4586 47.959 85.8527 47.7742Z" fill="#FFDDC0"/>
<path d="M68.2423 60.1669C68.092 60.2158 68.0088 60.379 68.0564 60.532C68.0601 60.5441 68.4414 61.7931 68.0996 63.4111C68.0664 63.568 68.1647 63.7223 68.3193 63.7559C68.3393 63.7604 68.36 63.7623 68.3794 63.7623C68.5115 63.7623 68.6304 63.669 68.6592 63.5324C69.0348 61.755 68.6191 60.4107 68.6016 60.3542C68.5534 60.2018 68.3925 60.1173 68.2417 60.1662L68.2423 60.1669Z" fill="#1D1D1B"/>
<path d="M81.825 60.5112C81.8619 60.355 81.7674 60.1982 81.614 60.1607C81.4607 60.1226 81.3061 60.2185 81.2685 60.3747C81.2522 60.4426 80.8747 62.0619 81.3117 63.8336C81.3442 63.9657 81.4613 64.0533 81.589 64.0533C81.6122 64.0533 81.6353 64.0508 81.6585 64.0444C81.8119 64.0057 81.9051 63.8476 81.867 63.692C81.4657 62.0645 81.8219 60.5265 81.825 60.5112Z" fill="#1D1D1B"/>
<path d="M74.9488 63.6557C74.9288 63.6551 72.9243 63.5611 70.071 61.4935C68.0928 60.0952 67.4574 58.6213 67.0737 57.7317C66.4765 56.4699 65.9832 54.7528 65.5206 52.329C65.4905 52.1715 65.3409 52.0686 65.185 52.0991C65.0298 52.1296 64.9283 52.282 64.9584 52.4395C65.4304 54.9141 65.9387 56.6756 66.5535 57.9742C66.9572 58.9109 67.6333 60.4787 69.7411 61.9685C72.7484 64.1472 74.8437 64.2342 74.9313 64.2367C75.0941 64.2367 75.2205 64.1129 75.2255 63.9554C75.2305 63.7954 75.1066 63.6614 74.9488 63.6557Z" fill="#1D1D1B"/>
<path d="M84.7521 52.0993C84.5962 52.0682 84.4466 52.1717 84.4165 52.3291C83.9539 54.7536 83.4606 56.4701 82.859 57.7414C82.501 58.572 81.5964 60.1792 79.5631 61.6168C76.7279 63.6121 75.0208 63.6559 74.9964 63.6559C74.8386 63.6565 74.7109 63.7867 74.7109 63.9467C74.7109 64.1067 74.8393 64.2375 74.9976 64.2375C75.0728 64.2375 76.88 64.2134 79.8905 62.0944C82.0396 60.5748 83.0018 58.8615 83.3805 57.9839C83.9996 56.6758 84.5073 54.9143 84.98 52.4396C85.01 52.2822 84.9086 52.1298 84.7533 52.0993H84.7521Z" fill="#1D1D1B"/>
<path d="M65.3363 53.5123C64.57 53.4088 63.1841 52.5744 62.7264 50.7754C62.4829 49.8191 62.6739 48.8659 63.2122 48.3465C63.6379 47.9356 64.2251 47.8334 64.91 48.0506C65.0608 48.0988 65.2217 48.0131 65.2687 47.8601C65.3156 47.707 65.2317 47.5438 65.0809 47.4962C64.1982 47.2162 63.3944 47.3692 62.8172 47.9255C62.1198 48.598 61.8726 49.7461 62.1718 50.9208C62.7033 53.01 64.3102 53.96 65.2605 54.0883C65.2737 54.0902 65.2862 54.0908 65.2987 54.0908C65.4402 54.0908 65.5629 53.9848 65.5823 53.8387C65.6029 53.68 65.4934 53.5339 65.3363 53.5123Z" fill="#1D1D1B"/>
<path d="M64.2541 49.9366C64.159 49.8083 63.98 49.7822 63.8529 49.8781C63.7264 49.9746 63.7007 50.1563 63.7953 50.2845C63.9706 50.5214 64.328 51.0656 64.3318 51.0707C64.3869 51.1545 64.4776 51.2002 64.5703 51.2002C64.6247 51.2002 64.6798 51.1844 64.7287 51.1513C64.8601 51.0624 64.8958 50.8821 64.8082 50.7487C64.7931 50.7259 64.4382 50.1855 64.2535 49.9359L64.2541 49.9366Z" fill="#1D1D1B"/>
<path d="M84.8556 47.4964C84.7047 47.544 84.6202 47.7072 84.6678 47.8602C84.7148 48.0132 84.875 48.0996 85.0265 48.0507C85.712 47.8335 86.2992 47.9364 86.7242 48.3466C87.2626 48.8661 87.4535 49.8192 87.21 50.7756C86.7524 52.5739 85.3664 53.409 84.6002 53.5125C84.4437 53.534 84.3329 53.6801 84.3542 53.8389C84.3736 53.9849 84.4963 54.091 84.6378 54.091C84.6503 54.091 84.6634 54.0903 84.676 54.0884C85.6262 53.9595 87.2332 53.0102 87.7647 50.921C88.0639 49.7456 87.8166 48.5981 87.1193 47.9256C86.5421 47.3687 85.7383 47.2163 84.8556 47.4964Z" fill="#1D1D1B"/>
<path d="M86.0235 49.8782C85.897 49.7823 85.7174 49.8083 85.6222 49.936C85.4375 50.1855 85.0826 50.7259 85.0676 50.7488C84.9799 50.8821 85.0156 51.0625 85.1471 51.1514C85.1959 51.1844 85.251 51.2003 85.3061 51.2003C85.3987 51.2003 85.4895 51.1552 85.5446 51.0707C85.5483 51.065 85.9064 50.5214 86.0811 50.2846C86.1762 50.1563 86.1499 49.9741 86.0235 49.8775V49.8782Z" fill="#1D1D1B"/>
<path d="M75.4257 51.9C75.1471 51.6593 74.8848 51.432 74.7915 51.0186C74.5142 49.948 75.164 48.2728 75.4375 47.7172C75.5083 47.5737 75.4507 47.399 75.3092 47.3273C75.1684 47.2562 74.9956 47.3139 74.9248 47.4575C74.881 47.547 73.8481 49.6673 74.235 51.157C74.3677 51.7495 74.7483 52.0784 75.0538 52.3426C75.2948 52.5509 75.4432 52.6868 75.4557 52.8544C75.472 53.071 75.2867 53.4075 74.9042 53.8546C74.8003 53.9759 74.8134 54.1594 74.933 54.2642C74.9874 54.3118 75.0538 54.3353 75.1208 54.3353C75.2009 54.3353 75.2804 54.301 75.3374 54.2349C75.8438 53.6425 76.056 53.203 76.0272 52.8106C75.9959 52.3934 75.7061 52.1426 75.4257 51.9006V51.9Z" fill="#1D1D1B"/>
<path d="M71.5139 43.1756C70.4221 43.8512 68.6906 43.9776 68.673 43.9789C68.5153 43.9897 68.3957 44.1281 68.407 44.2881C68.417 44.4418 68.5428 44.5593 68.6924 44.5593C68.6987 44.5593 68.7056 44.5593 68.7119 44.5586C68.7882 44.5536 70.5999 44.4221 71.8125 43.6715C71.9477 43.5877 71.9902 43.4093 71.9076 43.2721C71.8256 43.1349 71.6491 43.0918 71.5139 43.1756Z" fill="#1D1D1B"/>
<path d="M80.8183 43.8553C80.2098 43.8553 78.5146 43.7397 77.9869 43.2159C77.8736 43.1035 77.6927 43.1054 77.5819 43.2203C77.4711 43.3352 77.4729 43.5188 77.5862 43.6312C78.3744 44.4135 80.5698 44.4364 80.8177 44.4364C80.9761 44.4364 81.1038 44.3062 81.1038 44.1462C81.1038 43.9861 80.9754 43.8559 80.8177 43.8553H80.8183Z" fill="#1D1D1B"/>
<path fill-rule="evenodd" clip-rule="evenodd" d="M68.3281 60.625L68.5103 63.5772C68.5103 63.5772 71.4206 66.4678 74.2095 65.9756C77.4227 65.4219 80.939 60.9323 80.939 60.9323C80.939 60.9323 77.4835 63.9461 75.0583 63.8845C71.9057 63.8229 68.3287 60.625 68.3287 60.625H68.3281Z" fill="black"/>
<path d="M69.8188 29.2025C69.6786 29.2762 69.6235 29.4514 69.6961 29.5937C69.7687 29.7359 69.9409 29.7918 70.0817 29.7181C73.3714 27.9947 76.1383 28.0176 77.6727 29.7816C77.7296 29.847 77.8085 29.8801 77.8874 29.8801C77.955 29.8801 78.022 29.8559 78.0764 29.8077C78.1948 29.7016 78.2066 29.5181 78.1015 29.3975C76.3793 27.4175 73.3601 27.3457 69.8182 29.2019L69.8188 29.2025Z" fill="#1D1D1B"/>
<path d="M84.9724 46.0097C82.7589 46.2383 82.1479 44.0443 81.4962 41.7208C80.8727 39.4982 80.231 37.1989 78.0037 37.3989C77.846 37.4129 77.7295 37.5538 77.7433 37.7139C77.7571 37.8739 77.8954 37.9926 78.0538 37.9774C79.8091 37.8199 80.3343 39.7015 80.9447 41.8795C81.5682 44.1027 82.27 46.6078 84.6481 46.6078C84.7708 46.6078 84.8979 46.6009 85.03 46.5875C85.1871 46.571 85.3017 46.4288 85.2854 46.2687C85.2691 46.1094 85.1314 45.9925 84.9712 46.0097H84.9724Z" fill="#1D1D1B"/>
<path d="M74.1799 37.5628C73.572 37.1875 73.0537 37.0891 72.5936 37.2625C71.689 37.6035 71.2683 38.9275 70.7806 40.461C69.9493 43.0754 69.0078 46.039 65.6186 45.8497C65.4602 45.8402 65.3256 45.9634 65.3169 46.1241C65.3081 46.2841 65.4289 46.4212 65.5873 46.4301C65.7006 46.4365 65.8114 46.4397 65.9197 46.4397C69.4817 46.4397 70.5446 43.0989 71.3259 40.6395C71.7491 39.3078 72.1491 38.0499 72.7933 37.8073C73.0781 37.7 73.4343 37.7825 73.8819 38.0594C74.0171 38.1426 74.193 38.0994 74.2756 37.9629C74.3576 37.8257 74.3151 37.6473 74.1799 37.5635V37.5628Z" fill="#1D1D1B"/>
<path d="M80.0944 31.2368C77.9529 31.5225 76.95 33.9165 76.9087 34.0181C76.848 34.1661 76.9175 34.3363 77.0633 34.3979C77.099 34.4131 77.1366 34.4201 77.1729 34.4201C77.2856 34.4201 77.392 34.3528 77.4377 34.241C77.4464 34.2194 78.3516 32.0553 80.1689 31.8127C80.3254 31.7918 80.4362 31.6457 80.4156 31.487C80.3949 31.3282 80.2509 31.2164 80.0944 31.2368Z" fill="#1D1D1B"/>
<path d="M73.6939 35.3068C73.5368 35.3239 73.4223 35.4668 73.4392 35.6262C73.4561 35.7856 73.5963 35.9024 73.754 35.8846C74.1703 35.8402 74.6173 36.0167 74.9829 36.3685C75.4029 36.773 75.6477 37.3433 75.6208 37.8564C75.6127 38.0164 75.7341 38.1535 75.8918 38.1618C75.8969 38.1618 75.9019 38.1618 75.9069 38.1618C76.0584 38.1618 76.1848 38.0418 76.193 37.8862C76.2286 37.1979 75.9238 36.4727 75.3773 35.9469C74.8902 35.4776 74.2768 35.2446 73.6946 35.3068H73.6939Z" fill="#1D1D1B"/>
<path fill-rule="evenodd" clip-rule="evenodd" d="M70.2104 47.7734C69.7252 47.7734 69.3008 48.2656 69.3008 48.8803C69.3008 49.495 69.7252 49.9871 70.2104 49.9871C70.6955 49.9871 71.12 49.495 71.12 48.8803C71.12 48.2656 70.6955 47.7734 70.2104 47.7734Z" fill="black"/>
<path fill-rule="evenodd" clip-rule="evenodd" d="M79.4252 47.8359C78.9401 47.8359 78.5156 48.3281 78.5156 48.9428C78.5156 49.5575 78.8793 50.0496 79.4252 50.0496C79.9104 50.0496 80.3348 49.5575 80.3348 48.9428C80.3348 48.3281 79.9104 47.8359 79.4252 47.8359Z" fill="black"/>
<path d="M66.2927 60.5978C66.2407 60.5788 61.0499 58.7169 54.7961 59.7818C51.5978 60.326 49.4844 60.5591 48.5141 60.4733C48.3557 60.4594 48.218 60.5775 48.2042 60.7375C48.1905 60.8975 48.3069 61.0385 48.4647 61.0518C49.4832 61.142 51.6454 60.9071 54.8912 60.3546C60.9917 59.3157 66.0486 61.1255 66.0993 61.1439C66.1312 61.156 66.1644 61.1611 66.1963 61.1611C66.3134 61.1611 66.4235 61.0874 66.4655 60.9693C66.5193 60.8182 66.4423 60.6518 66.2933 60.5972L66.2927 60.5978Z" fill="#1D1D1B"/>
<path d="M61.1097 31.3186C61.0759 31.3129 60.2571 31.1891 59.5697 32.3931C59.2367 32.9767 59.2586 34.6055 59.2836 36.4908C59.3068 38.2263 59.3337 40.1929 59.0357 41.0629C58.4742 42.7063 57.6779 43.1534 57.6604 43.1629C57.5208 43.2353 57.4638 43.408 57.5339 43.5509C57.584 43.6531 57.6854 43.7122 57.7906 43.7122C57.8332 43.7122 57.877 43.7027 57.9177 43.6817C57.9584 43.6614 58.9268 43.1553 59.5772 41.2528C59.9071 40.2863 59.8815 38.3527 59.8564 36.4826C59.8351 34.9109 59.8113 33.1291 60.0655 32.6839C60.54 31.8527 61.0051 31.8902 61.0151 31.8914C61.171 31.9181 61.3188 31.8108 61.3444 31.6527C61.3707 31.4945 61.2649 31.3447 61.109 31.3186H61.1097Z" fill="#1D1D1B"/>
<path d="M62.874 28.0324C62.8558 28.0273 62.4189 27.9035 61.8674 28.0279C61.1744 28.1842 61.0448 29.524 61.0586 30.6213C61.0692 31.4583 60.4107 34.6988 60.4044 34.7311C60.3725 34.888 60.472 35.0423 60.6266 35.0747C60.646 35.0791 60.6654 35.081 60.6848 35.081C60.8176 35.081 60.9371 34.9864 60.9653 34.8493C60.9928 34.7134 61.6433 31.5142 61.632 30.6144C61.6151 29.2656 61.8624 28.6249 61.9919 28.5957C62.3957 28.5048 62.7156 28.5912 62.7169 28.5912C62.8684 28.635 63.0274 28.5461 63.0712 28.3918C63.1144 28.2375 63.0267 28.0768 62.8746 28.0324H62.874Z" fill="#1D1D1B"/>
<path d="M68.5164 28.0129C68.507 28.0071 67.593 27.4553 67.0083 27.0781C66.4262 26.7022 65.213 26.8349 64.0204 27.0025L63.7863 27.0349C63.0019 27.141 62.8535 27.6369 62.7102 28.117C62.6607 28.2815 62.61 28.4516 62.5324 28.6358C62.1994 29.4239 61.8945 32.6408 61.8607 33.0053C61.8457 33.1653 61.9615 33.307 62.1192 33.3216C62.1286 33.3222 62.1374 33.3228 62.1461 33.3228C62.292 33.3228 62.4172 33.2098 62.431 33.0593C62.5199 32.0947 62.8066 29.46 63.0589 28.8644C63.149 28.6504 63.2072 28.4567 63.2586 28.2853C63.3969 27.823 63.4432 27.6674 63.862 27.6109L64.0993 27.5779C64.8499 27.4718 66.2477 27.2756 66.7016 27.5683C67.2938 27.9506 68.2153 28.5069 68.2247 28.5126C68.3605 28.5945 68.5364 28.5494 68.6172 28.4116C68.6979 28.2738 68.6535 28.0954 68.5176 28.0135L68.5164 28.0129Z" fill="#1D1D1B"/>
<path d="M66.4684 27.976C65.4442 27.8014 63.9067 30.8291 63.2933 32.1391C63.2256 32.2839 63.2864 32.4573 63.4291 32.5265C63.4685 32.5455 63.5105 32.5544 63.5518 32.5544C63.6588 32.5544 63.7615 32.4935 63.811 32.3887C64.7825 30.3154 66.0026 28.4802 66.3726 28.5488C67.3416 28.7158 69.0813 29.2765 69.3956 29.6518C69.8851 30.2379 69.6435 30.8761 69.6334 30.9015C69.5727 31.0495 69.6422 31.2196 69.7887 31.2812C69.9346 31.3422 70.1023 31.2723 70.163 31.1238C70.1793 31.0837 70.553 30.1382 69.8331 29.2759C69.3323 28.6764 67.2521 28.1106 66.4696 27.9754L66.4684 27.976Z" fill="#1D1D1B"/>
<path d="M67.9188 29.9873C67.7686 29.9372 67.6071 30.0197 67.557 30.1721C67.5213 30.2813 66.6844 32.8576 66.5473 33.5244C66.5266 33.6253 66.5053 33.725 66.484 33.8222C66.3538 34.4318 66.2505 34.9131 66.3726 35.2268C66.4333 35.39 66.6299 36.6258 66.7858 37.7307C66.797 37.9123 66.9385 40.2726 66.7877 41.4461C66.7851 41.4626 66.541 43.0972 65.9382 44.6783C65.7779 45.0981 65.1682 45.9808 63.8986 46.6247C62.4657 47.3511 61.1949 48.6421 61.1417 48.6961C61.0303 48.8097 61.0309 48.9939 61.1436 49.1069C61.1993 49.1634 61.2725 49.1914 61.3451 49.1914C61.4178 49.1914 61.4923 49.1628 61.5486 49.1057C61.5611 49.093 62.8056 47.8286 64.1553 47.1447C65.9112 46.2538 66.4202 45.0257 66.4728 44.8885C67.0994 43.2451 67.3448 41.6017 67.3554 41.5274C67.5195 40.251 67.3642 37.7872 67.3573 37.683C67.3573 37.6754 67.3561 37.6684 67.3548 37.6608C67.2778 37.1122 67.0168 35.2992 66.9066 35.0147C66.8484 34.8649 66.9573 34.3549 67.0449 33.946C67.0662 33.8469 67.0875 33.746 67.1088 33.6437C67.239 33.0087 68.0929 30.3817 68.1016 30.355C68.1511 30.2026 68.0697 30.0381 67.9195 29.988L67.9188 29.9873Z" fill="#1D1D1B"/>
<path d="M69.3099 30.8649C68.7696 30.9233 68.4391 30.8662 67.9489 30.63C67.8062 30.5608 67.6353 30.6223 67.5671 30.7678C67.4988 30.9125 67.5596 31.0859 67.7029 31.1551C68.1543 31.3729 68.5173 31.4676 68.9549 31.4676C69.0851 31.4676 69.2222 31.4593 69.37 31.4434C69.5271 31.4263 69.641 31.2834 69.6241 31.1234C69.6072 30.964 69.4676 30.851 69.3086 30.8656L69.3099 30.8649Z" fill="#1D1D1B"/>
<path d="M83.1656 29.8075C82.7011 29.1687 82.2623 28.5661 81.8566 28.3788C81.1855 28.0695 78.597 28.4969 78.3316 28.6759C78.0874 28.841 77.5547 29.8075 77.5547 30.2635C77.5547 30.6591 78.1513 31.7126 78.4073 32.1469C78.4611 32.2377 78.5557 32.2885 78.6533 32.2885C78.7034 32.2885 78.7541 32.2752 78.8004 32.2472C78.9363 32.1647 78.9801 31.9863 78.8993 31.8491C78.5344 31.23 78.1369 30.4444 78.1281 30.2641C78.1281 30.0228 78.5187 29.2976 78.6421 29.1681C78.9864 29.0442 81.1705 28.7007 81.62 28.9084C81.8904 29.0328 82.3236 29.6278 82.7055 30.153C83.0398 30.6127 83.3859 31.0884 83.7102 31.39C83.8273 31.4986 84.0082 31.4903 84.1152 31.3716C84.2217 31.2535 84.2141 31.0693 84.0971 30.9613C83.8135 30.6985 83.4848 30.2457 83.1662 29.8082L83.1656 29.8075Z" fill="#1D1D1B"/>
<path d="M85.4608 29.1986C85.1679 27.9343 84.7165 27.0326 84.6977 26.9951C84.6833 26.9659 84.6639 26.9398 84.6408 26.9176C84.0861 26.3798 82.3133 26.7252 81.7831 26.844C81.7699 26.8471 81.7568 26.8509 81.7442 26.8554L78.7676 27.9882C78.6198 28.0448 78.5447 28.2124 78.6004 28.3623C78.6561 28.5128 78.8208 28.589 78.9691 28.5325L81.9264 27.4066C82.8322 27.2065 83.929 27.1272 84.2138 27.3126C84.3115 27.519 84.6664 28.307 84.9043 29.3319C85.1917 30.5696 85.6968 32.3305 85.7018 32.3482C85.7382 32.4752 85.8527 32.5578 85.9767 32.5578C86.0036 32.5578 86.0305 32.554 86.0568 32.5464C86.2083 32.5013 86.2959 32.34 86.2515 32.1863C86.2465 32.1685 85.745 30.4222 85.4615 29.1999L85.4608 29.1986Z" fill="#1D1D1B"/>
<path d="M86.9975 30.7538C86.9111 30.1156 86.8585 29.7308 86.543 29.0666C86.1655 28.2728 85.46 28.1992 85.1407 28.2716C84.9874 28.3058 84.8922 28.4582 84.9241 28.6138C84.9561 28.7694 85.1075 28.8704 85.2609 28.8393C85.311 28.8297 85.7605 28.7586 86.0272 29.3187C86.3038 29.9004 86.3458 30.2115 86.4303 30.8326C86.4541 31.0078 86.4804 31.2047 86.5167 31.4339C86.6744 32.4468 86.7295 34.1264 86.7295 34.1429C86.7345 34.3004 86.8616 34.4242 87.0156 34.4242C87.1828 34.4191 87.3073 34.2845 87.3017 34.1245C87.2992 34.054 87.2454 32.3921 87.082 31.3437C87.0469 31.1189 87.0206 30.9259 86.9975 30.7538Z" fill="#1D1D1B"/>
<path d="M56.2192 42.4267C56.1566 42.4217 56.094 42.4369 56.0414 42.4712C55.9644 42.5214 48.2758 47.4732 44.8691 49.0569C44.3739 49.2868 43.7079 49.5821 42.9372 49.9243C38.2134 52.0186 29.4211 55.9182 26.2266 59.6343C22.8086 63.6114 24.1558 66.6334 24.8801 68.2565C24.9615 68.4388 25.0353 68.6045 25.0942 68.7537C25.6732 70.2225 27.8236 72.292 31.3223 73.6033C32.8917 74.1913 37.5035 74.3831 42.3864 74.5857C47.3393 74.7914 53.503 75.0473 54.1365 75.803C54.1935 75.8703 54.2736 75.9052 54.355 75.9052C54.4207 75.9052 54.4864 75.8824 54.5403 75.836C54.6605 75.7325 54.6755 75.549 54.5728 75.4264C53.8304 74.5406 49.4821 74.2986 42.4095 74.0046C37.7858 73.8129 33.0057 73.6141 31.5208 73.0578C28.1867 71.8081 26.1578 69.8872 25.6257 68.5372C25.5643 68.381 25.4867 68.2076 25.4016 68.0165C24.6835 66.4061 23.4816 63.7117 26.6579 60.0153C29.7673 56.397 38.4832 52.5323 43.1657 50.4558C43.9395 50.1129 44.6074 49.8164 45.107 49.584C48.3522 48.0752 55.4029 43.5672 56.2618 43.0154C56.9961 43.1227 59.1007 43.9114 60.9412 49.1947C60.9738 49.288 60.9393 49.3865 60.8579 49.4354C60.2232 49.8138 58.9086 50.6235 57.2371 51.7894C54.8151 53.4785 48.9576 58.3548 45.6466 61.8562C42.7438 64.9259 41.2477 65.6263 39.354 66.5121C39.0566 66.6512 38.7486 66.7953 38.425 66.9528C36.6158 67.8342 32.0798 68.7321 32.0341 68.741C31.8788 68.7715 31.7774 68.9239 31.8075 69.0814C31.8375 69.2389 31.9865 69.3417 32.143 69.3113C32.3321 69.2738 36.7974 68.3899 38.6729 67.4767C38.994 67.3199 39.2989 67.1776 39.5937 67.0392C41.5425 66.1273 43.0819 65.4072 46.0598 62.2582C49.3463 58.7828 55.1588 53.9433 57.5614 52.2682C59.2184 51.1124 60.5199 50.3111 61.1484 49.9364C61.4645 49.7478 61.6041 49.3547 61.4814 49.001C59.4976 43.3075 57.1401 42.5061 56.2186 42.4261L56.2192 42.4267Z" fill="#1D1D1B"/>
<path d="M55.7654 100.621C55.6947 87.4677 55.475 75.1123 54.36 73.7819C54.2574 73.66 54.0771 73.6448 53.9563 73.7489C53.8361 73.8524 53.821 74.0359 53.9237 74.1585C55.0568 75.5111 55.1557 93.7556 55.1926 100.624C55.2014 102.274 55.2077 103.468 55.2221 104.001H55.7942C55.7805 103.469 55.7742 102.274 55.7654 100.62V100.621Z" fill="#1D1D1B"/>
<path d="M95.5229 96.0597C95.469 94.6373 95.4133 93.1666 95.3876 91.7264C95.3419 89.2244 95.3 86.2634 95.3369 83.2712C95.4421 74.7658 96.2365 72.6417 96.701 72.1324C96.8081 72.0143 96.8012 71.8308 96.6854 71.7216C96.5689 71.613 96.3886 71.62 96.2803 71.7375C95.3563 72.7509 94.8462 76.629 94.7641 83.2636C94.7272 86.2634 94.7692 89.2302 94.8148 91.7365C94.8411 93.1825 94.8969 94.6557 94.9507 96.0813C95.049 98.6798 95.1504 101.366 95.0797 103.992C95.0797 103.999 95.6524 103.999 95.6524 103.999C95.7232 101.358 95.6218 98.6639 95.5235 96.0591L95.5229 96.0597Z" fill="#1D1D1B"/>
<path d="M115.083 51.3104C108.69 47.9207 100.852 45.2689 96.1692 43.6839C94.0721 42.9739 92.5572 42.4615 92.077 42.1935C90.3781 41.2454 88.9314 39.2083 88.8706 39.1226C88.7417 38.9397 88.4731 37.9967 88.2947 37.3725C88.1063 36.7108 88.0005 36.3476 87.9185 36.1952C87.859 35.9666 87.9567 34.7918 88.0092 34.1574C88.0499 33.6716 88.0844 33.2525 88.0844 33.0328C88.0844 32.2562 87.2887 31.7539 87.0133 31.7539C86.8549 31.7539 86.7266 31.8841 86.7266 32.0441C86.7266 32.1946 86.8392 32.3184 86.9839 32.333C87.0884 32.3692 87.5116 32.6397 87.5116 33.0322C87.5116 33.2271 87.4759 33.6545 87.4383 34.1079C87.3069 35.6891 87.285 36.253 87.4164 36.4746C87.4703 36.5724 87.6224 37.1052 87.7444 37.5338C88.0312 38.5384 88.2315 39.2147 88.4043 39.4604C88.4681 39.5512 89.9887 41.6919 91.801 42.7028C92.3268 42.9962 93.7829 43.4889 95.9877 44.2351C100.655 45.8144 108.465 48.4573 114.817 51.8247C122.889 56.1047 126.426 58.3209 126.426 61.5811C126.425 65.4813 122.875 68.7389 121.052 69.3193C118.245 70.2128 109.984 71.7838 103.346 73.0462C100.337 73.6184 97.7374 74.1131 96.2018 74.4394C96.0472 74.4725 95.9476 74.6261 95.9802 74.783C96.0084 74.9201 96.1273 75.0141 96.26 75.0141C96.2794 75.0141 96.2995 75.0122 96.3189 75.0078C97.8488 74.6827 100.445 74.1886 103.451 73.6171C110.104 72.3522 118.383 70.7773 121.223 69.8737C123.238 69.2323 126.998 65.8185 126.998 61.5811C126.998 58.0021 123.367 55.7028 115.082 51.3097L115.083 51.3104Z" fill="#1D1D1B"/>
<path d="M86.5525 46.0326C84.7396 45.583 84.071 45.2966 83.2572 42.7166C82.5342 40.4248 82.6456 35.0431 82.6969 33.4479C82.7076 33.1139 82.5987 32.7882 82.3896 32.531L80.879 30.6685C80.7976 30.5682 80.6605 30.5345 80.5429 30.5872L79.4605 31.0686C79.3159 31.1327 79.2495 31.3041 79.3134 31.4515C79.3772 31.5982 79.5456 31.6655 79.6909 31.6007L80.5748 31.2076L81.9482 32.8999C82.0684 33.0485 82.1317 33.2365 82.1254 33.4289C82.0734 35.0469 81.9614 40.5125 82.7126 42.8931C83.6253 45.7862 84.5593 46.1355 86.4142 46.5952C86.6909 46.6854 88.1488 47.9332 89.3983 49.0883C89.4534 49.1391 89.5223 49.1639 89.5912 49.1639C89.6688 49.1639 89.7464 49.1321 89.8027 49.0686C89.9092 48.9499 89.901 48.7663 89.784 48.6584C88.972 47.9078 87.032 46.1501 86.5538 46.0314L86.5525 46.0326Z" fill="#1D1D1B"/>
<path d="M117.098 65.968C117.043 65.9534 111.649 64.4732 108.699 62.2284C107.535 61.3432 105.811 59.9893 103.986 58.5561C101.08 56.2751 98.0767 53.9167 97.1014 53.2684C95.9734 52.5184 92.5954 51.2046 90.6823 50.4876C90.0645 50.2559 89.7133 49.5916 89.8654 48.9414C89.9844 48.4321 90.1196 47.8511 90.2416 47.3183C90.7018 45.3148 91.679 44.1159 92.2035 43.472C92.5241 43.0789 92.6849 42.8815 92.6411 42.6421C92.6205 42.5297 92.5522 42.4357 92.4496 42.3773C92.3112 42.2985 92.1372 42.348 92.0596 42.4884C92.0151 42.5684 92.012 42.6605 92.0439 42.7399C91.9851 42.8288 91.868 42.9723 91.7622 43.1024C91.2076 43.7832 90.1747 45.0507 89.6839 47.1875C89.5618 47.7196 89.4266 48.3 89.3083 48.8087C89.0904 49.744 89.5956 50.7004 90.4845 51.0338C92.3744 51.7418 95.7067 53.0372 96.7878 53.7554C97.7443 54.3911 100.739 56.7425 103.636 59.0165C105.462 60.451 107.188 61.8061 108.356 62.6938C111.396 65.0066 116.725 66.469 116.951 66.53C116.976 66.5363 117 66.5395 117.025 66.5395C117.152 66.5395 117.268 66.4538 117.302 66.3242C117.343 66.1693 117.252 66.0099 117.099 65.9686L117.098 65.968Z" fill="#1D1D1B"/>
<path d="M102.577 58.9302C100.51 59.1944 98.5504 58.8813 96.4752 58.5505C93.9618 58.1498 91.1135 57.6951 87.472 58.1523C86.2431 58.3066 83.6815 59.4941 83.5732 59.5449C83.4292 59.6116 83.3666 59.7843 83.4324 59.9303C83.4806 60.037 83.5845 60.0999 83.6928 60.0999C83.7328 60.0999 83.7735 60.0916 83.8123 60.0732C83.838 60.0612 86.4021 58.8724 87.5427 58.7289C91.1034 58.2818 93.9105 58.7295 96.3863 59.1245C98.5028 59.4623 100.502 59.7805 102.649 59.5068C102.806 59.4865 102.917 59.3417 102.897 59.1823C102.877 59.0235 102.734 58.9118 102.578 58.9302H102.577Z" fill="#1D1D1B"/>
<path d="M72.9939 66.1783C72.6502 65.8576 71.9886 65.4671 71.2223 65.0143C70.3127 64.4771 69.2817 63.8681 68.5668 63.2496C68.2895 63.0096 67.9715 62.6438 68.0353 62.2666C68.0785 62.0101 68.2782 61.8393 68.3546 61.7961C68.4679 61.7866 68.5693 61.7084 68.6044 61.5916C68.6507 61.4386 68.5655 61.276 68.4147 61.2284C68.1305 61.1407 67.7605 61.4964 67.6028 61.7872C67.4488 62.0723 67.1977 62.8286 68.195 63.6916C68.9493 64.3437 70.0035 64.9667 70.9337 65.516C71.6405 65.9332 72.3078 66.3275 72.6064 66.6057C73.0935 67.0591 74.0938 69.4867 74.6478 71.0076C74.6904 71.125 74.7999 71.1974 74.9164 71.1974C74.9496 71.1974 74.9827 71.1917 75.0159 71.1797C75.1643 71.1238 75.24 70.9568 75.1856 70.8063C75.0397 70.4056 73.7382 66.8711 72.9945 66.1777L72.9939 66.1783Z" fill="#1D1D1B"/>
<path d="M71.956 67.39C71.9467 67.39 71.9373 67.3894 71.9279 67.3894C71.2399 67.3894 70.4674 68.5826 69.3738 70.393C69.0076 70.9994 68.5512 71.7545 68.3978 71.8567C68.272 71.9374 68.1687 71.9431 68.0523 71.8739C67.0776 71.2985 66.1999 66.9328 66.4822 60.8831L66.4835 60.8513C66.4835 60.8443 66.4841 60.8361 66.4847 60.8272C67.0344 61.0977 67.5189 61.1764 67.9289 61.0602C68.3772 60.9339 68.5612 60.6202 68.5806 60.5846C68.6564 60.4468 68.6088 60.276 68.4748 60.196C68.3409 60.116 68.1668 60.1617 68.0842 60.295C68.0698 60.3185 67.708 60.8748 66.516 60.1871C66.3971 60.1185 66.265 60.1147 66.1536 60.1769C65.9345 60.2995 65.9213 60.5916 65.9113 60.8253L65.9101 60.8551C65.6359 66.7347 66.4159 71.5798 67.7643 72.3755C67.907 72.46 68.0567 72.5019 68.2075 72.5019C68.3747 72.5019 68.5437 72.4498 68.7039 72.3469C68.9543 72.1857 69.2736 71.67 69.8621 70.6953C70.3973 69.8088 71.5091 67.9685 71.9229 67.9685C72.2277 67.9831 72.5288 68.2918 72.619 68.4086C72.7154 68.5356 72.8957 68.5585 73.0209 68.4607C73.1461 68.3622 73.1693 68.18 73.0722 68.053C73.0228 67.9882 72.5708 67.418 71.9567 67.3888L71.956 67.39Z" fill="#1D1D1B"/>
<path d="M83.3554 59.5377C83.2484 59.4964 83.1238 59.5275 83.0443 59.6119C83.0061 59.652 82.6574 59.993 82.0765 59.5878C81.9463 59.497 81.7679 59.53 81.6784 59.6621C81.5888 59.7942 81.6214 59.9752 81.7516 60.066C82.2843 60.4381 82.7551 60.4102 83.0831 60.2705C83.4844 62.1183 84.645 70.2325 81.1312 71.7972C80.9691 71.5946 80.7055 70.8758 80.509 70.3386C79.9844 68.9079 79.4423 67.4289 78.579 67.3908C78.0125 67.3705 77.67 68.0265 77.6325 68.1021C77.5611 68.2456 77.6174 68.4202 77.7589 68.4926C77.9004 68.565 78.0726 68.5078 78.1439 68.3643C78.2115 68.2284 78.405 67.9579 78.5546 67.9713C79.0385 67.9922 79.6232 69.588 79.9725 70.5411C80.3744 71.6372 80.5991 72.2157 80.9315 72.3649C80.9879 72.3903 81.0473 72.403 81.1062 72.403C81.1588 72.403 81.2107 72.3928 81.2602 72.3732C83.187 71.5895 84.1855 69.08 84.1486 65.1156C84.1348 63.6303 83.9789 62.2695 83.8512 61.3887C83.5952 59.6297 83.5007 59.5935 83.3567 59.5383L83.3554 59.5377Z" fill="#1D1D1B"/>
<path d="M75.1355 85.097C75.4679 78.9488 75.5994 73.0737 75.6006 73.0121C75.6069 72.5428 75.687 72.0786 75.8398 71.6335C76.7356 69.0198 77.4843 67.1966 77.7935 66.876C78.0621 66.5972 78.7814 66.1076 79.5426 65.5894C80.5267 64.9195 81.6416 64.1606 82.3158 63.5104C82.5142 63.3192 82.4842 62.9757 82.4485 62.7877C82.3721 62.3877 82.1142 61.8892 81.6178 61.6885C81.4701 61.6295 81.3042 61.7019 81.246 61.8511C81.1877 62.0003 81.2591 62.1692 81.4062 62.2283C81.8187 62.3947 81.9289 62.9636 81.8976 63.1116C81.2553 63.7237 80.1767 64.4578 79.2239 65.1062C78.4033 65.665 77.694 66.1476 77.3841 66.4695C76.8965 66.9763 75.9806 69.4535 75.2989 71.4423C75.1255 71.9472 75.0347 72.4723 75.0278 73.0019C75.0266 73.0603 74.8951 78.9272 74.564 85.0652C74.2334 91.1753 74.5239 103.695 74.5314 104.001H75.1036C75.1011 103.867 74.8043 91.2293 75.1361 85.097H75.1355Z" fill="#1D1D1B"/>
<path d="M95.0816 44.6825C94.9402 44.6114 94.768 44.6704 94.6979 44.8146C93.9548 46.3437 93.501 47.9801 93.3489 49.6781C93.3345 49.8381 93.4509 49.9791 93.608 49.9937C93.6168 49.9944 93.6256 49.995 93.6343 49.995C93.7808 49.995 93.9054 49.8813 93.9192 49.7308C94.0644 48.1039 94.4988 46.5367 95.2112 45.0717C95.2813 44.9276 95.2225 44.7536 95.081 44.6825H95.0816Z" fill="#1D1D1B"/>
<path d="M54.4768 45.3316C54.3328 45.2643 54.1632 45.3278 54.0968 45.4732C54.0305 45.6186 54.0931 45.7913 54.2364 45.8586C55.6919 46.5413 56.9157 47.7776 57.5937 49.2521C57.6425 49.3582 57.7458 49.4198 57.8535 49.4198C57.8942 49.4198 57.9349 49.4109 57.9743 49.3925C58.1176 49.3245 58.1796 49.1518 58.1126 49.0064C57.3783 47.41 56.0531 46.0701 54.4768 45.3309V45.3316Z" fill="#1D1D1B"/>
<path fill-rule="evenodd" clip-rule="evenodd" d="M77.7798 56.5079C76.5935 56.1053 76.1841 56.6704 74.8833 56.7542C74.2798 56.793 73.1899 56.4818 72.609 56.3199C72.3592 56.25 72.0888 56.1923 71.839 56.2621C71.4978 56.358 71.2919 56.6666 71.1917 56.9701C71.1266 57.167 71.0922 57.3759 71.1385 57.5772C71.2349 57.9963 71.6769 58.3049 72.1489 58.3989C72.6209 58.4929 73.1167 58.4072 73.5768 58.2738C73.9662 58.1602 74.3549 58.0103 74.7649 58.0141C75.1938 58.0179 75.5938 58.1894 76.0044 58.2967C76.4464 58.4123 76.9265 58.4542 77.3673 58.3348C77.808 58.2154 78.2017 57.9138 78.3163 57.5194C78.4315 57.1251 78.2099 56.6545 77.7792 56.5085L77.7798 56.5079Z" fill="white"/>
<path d="M77.8712 56.2338C77.0543 55.9569 76.5422 56.0992 75.9994 56.2503C75.6714 56.3417 75.3321 56.4357 74.8657 56.4656C74.3274 56.4992 73.2926 56.2109 72.7367 56.0554L72.686 56.0414C72.3918 55.9595 72.0769 55.896 71.7639 55.9836C71.3808 56.0909 71.074 56.4173 70.9213 56.8796C70.8274 57.1634 70.808 57.4136 70.8612 57.6448C70.9757 58.1433 71.4722 58.5617 72.095 58.6856C72.2478 58.7161 72.4049 58.7313 72.5708 58.7313C72.8945 58.7313 73.2494 58.6729 73.6569 58.5541C73.7308 58.5325 73.8053 58.5097 73.8792 58.4868C74.1847 58.3922 74.4757 58.3096 74.7631 58.3058C75.0329 58.3084 75.3008 58.3903 75.585 58.4773C75.7008 58.5129 75.8173 58.5484 75.9343 58.5789C76.4902 58.7243 76.9979 58.7364 77.443 58.6164C78.0152 58.4614 78.4559 58.0728 78.593 57.6029C78.7576 57.0384 78.4346 56.4243 77.8725 56.2338H77.8712ZM78.0427 57.4378C77.9632 57.7108 77.6696 57.9528 77.294 58.0544C76.946 58.149 76.5366 58.1363 76.0764 58.0163C75.9669 57.9877 75.8586 57.954 75.7497 57.921C75.4398 57.8258 75.1193 57.7273 74.7675 57.7242C74.3881 57.7184 74.0451 57.827 73.7114 57.9305C73.64 57.9528 73.5687 57.9744 73.4979 57.9953C72.9733 58.1477 72.5614 58.1865 72.2046 58.1147C71.8046 58.0347 71.4809 57.787 71.4177 57.5114C71.3895 57.3882 71.4046 57.2416 71.4634 57.0631C71.5166 56.9012 71.6468 56.618 71.9154 56.543C71.968 56.5284 72.0243 56.5221 72.0831 56.5221C72.2253 56.5221 72.3818 56.5589 72.5332 56.6015L72.584 56.6154C73.2137 56.7913 74.2673 57.086 74.9014 57.0453C75.4267 57.0117 75.811 56.9044 76.1503 56.8104C76.6655 56.6675 77.0374 56.564 77.689 56.785C77.9851 56.8853 78.1103 57.2035 78.0421 57.4384L78.0427 57.4378Z" fill="#1D1D1B"/>
<path fill-rule="evenodd" clip-rule="evenodd" d="M56.6739 30.4401C55.1176 30.1982 53.4862 31.8041 53.4862 31.8041C53.4862 31.8041 51.5838 29.3028 49.0948 30.9005C47.3808 32.0226 48.1351 34.4235 48.1351 34.4235C48.1351 34.4235 43.8107 35.9025 45.2881 39.0236C46.3836 41.4055 50.4489 40.4282 50.4489 40.4282C50.4489 40.4282 51.6276 42.2094 54.2587 42.231C56.6588 42.2107 57.2811 39.8993 57.2811 39.8993C57.2811 39.8993 58.1387 39.9075 58.6295 39.4471C59.1773 38.9836 59.3601 38.106 59.3601 38.106L67.5758 35.6047L58.9544 34.7106C58.9544 34.7106 60.2452 30.9532 56.6739 30.4395V30.4401Z" fill="white"/>
<path d="M68.4034 35.3821L59.1654 34.5191C59.3726 33.7533 59.6618 31.9644 58.2508 30.8919C57.3256 30.1889 56.0567 30.0372 54.9386 30.4969C53.8005 30.9643 53.0299 31.9854 52.824 33.2979C52.7989 33.4567 52.9053 33.6053 53.0618 33.6307C53.2183 33.6561 53.3648 33.5481 53.3899 33.3894C53.5633 32.2826 54.2062 31.4247 55.154 31.0354C56.0867 30.6519 57.1422 30.775 57.9078 31.3567C59.3745 32.4718 58.5544 34.5762 58.5187 34.6645C58.4843 34.7496 58.4918 34.8467 58.5388 34.9255C58.5857 35.0042 58.6671 35.0557 58.7573 35.0639L66.7802 35.8132L59.116 37.9437C58.9876 37.9793 58.9 38.1025 58.9056 38.2377C58.9106 38.3603 58.9131 39.4436 57.524 39.6512C57.3675 39.6747 57.2592 39.8221 57.2824 39.9808C57.303 40.125 57.4257 40.2291 57.5653 40.2291C57.5791 40.2291 57.5935 40.2285 57.6073 40.2259C58.9707 40.0227 59.4064 39.0785 59.4703 38.4479L68.4516 35.951C68.5849 35.9136 68.6732 35.7853 68.6613 35.6456C68.6494 35.5059 68.5399 35.3948 68.4021 35.3814L68.4034 35.3821Z" fill="black"/>
<path d="M51.2519 30.0249C49.9423 29.8567 48.7297 30.5679 48.1513 31.3083C47.2942 32.4869 47.6717 33.7334 47.9428 34.3272C47.0169 34.5983 44.712 35.5229 44.8885 37.9658C44.9774 39.166 45.6266 40.1559 46.6695 40.683C47.1978 40.9497 47.7888 41.0812 48.4092 41.0812C49.4051 41.0812 50.4769 40.7427 51.4872 40.0823C51.62 39.9953 51.6588 39.8156 51.573 39.681C51.4872 39.5463 51.3101 39.507 51.1774 39.594C49.7088 40.5528 48.1193 40.7655 46.9249 40.1629C46.0673 39.7298 45.5333 38.9132 45.4594 37.9232C45.2773 35.4111 48.2902 34.8288 48.4186 34.8047C48.5137 34.7875 48.5938 34.7221 48.6314 34.6313C48.669 34.5412 48.6589 34.437 48.6051 34.3557C48.5669 34.2979 47.6817 32.932 48.6051 31.6607C49.0959 31.0327 50.1363 30.4663 51.1792 30.6009C52.0532 30.7133 52.7474 31.302 53.1862 32.3034C53.2507 32.4501 53.4197 32.5161 53.5643 32.4507C53.7089 32.3853 53.774 32.2138 53.7096 32.0672C53.046 30.5552 52.0062 30.1221 51.2512 30.0249H51.2519Z" fill="black"/>
<path d="M54.9136 38.7404C53.1833 39.7983 51.7817 39.825 50.9679 38.8166C50.3049 37.9949 50.2899 36.7591 50.7194 36.2835C50.8264 36.1654 50.8183 35.9812 50.7018 35.8733C50.5854 35.7647 50.4039 35.7729 50.2974 35.8911C49.6257 36.6347 49.734 38.2044 50.5247 39.1842C50.8158 39.5449 51.458 40.1298 52.5604 40.1298C53.2528 40.1298 54.1267 39.8993 55.2091 39.2376C55.3443 39.155 55.3881 38.9766 55.3067 38.8388C55.2247 38.701 55.0488 38.6572 54.9136 38.7397V38.7404Z" fill="black"/>
<path d="M57.3784 38.301C57.22 38.3035 57.0942 38.4349 57.0961 38.5956C57.1324 41.1045 55.4779 41.7611 54.7655 41.9269C53.2349 42.2831 51.5772 41.5637 50.9913 40.2898C50.9243 40.1444 50.754 40.0815 50.6107 40.1495C50.4673 40.2174 50.4053 40.3902 50.4723 40.5356C51.0564 41.8069 52.4555 42.6019 53.9473 42.6019C54.2609 42.6019 54.5783 42.567 54.8932 42.4933C56.6604 42.0825 57.6983 40.6219 57.6689 38.5874C57.6664 38.4267 57.538 38.2952 57.3784 38.301Z" fill="black"/>
<path fill-rule="evenodd" clip-rule="evenodd" d="M111.456 24.3857C111.456 24.3857 109.466 19.938 104.863 22.2387C102.415 23.5208 103.292 27.4985 103.292 27.4985L93.0273 31.6127L100.439 32.9152C100.439 32.9152 100.607 34.3319 101.559 34.8215C102.511 35.3111 104.086 34.892 104.086 34.892C104.086 34.892 106.816 37.3583 109.024 36.7868C114.151 35.4812 112.704 31.4972 112.704 31.4972C112.704 31.4972 116.371 30.899 115.84 27.1054C115.354 23.6846 111.456 24.3869 111.456 24.3869V24.3857Z" fill="white"/>
<path d="M108.167 21.2569C106.415 21.0213 104.702 21.9135 103.787 22.8984C102.322 24.4066 102.773 26.492 103.002 27.2438L91.2703 31.7708C91.1451 31.8191 91.07 31.9486 91.0888 32.0833C91.1076 32.2172 91.2159 32.3208 91.3492 32.3322L101.716 33.199C101.724 33.1996 101.732 33.1996 101.74 33.1996C101.887 33.1996 102.013 33.0847 102.025 32.9329C102.037 32.7729 101.92 32.6325 101.762 32.6192L92.6551 31.8578L103.466 27.6864C103.538 27.6585 103.595 27.6026 103.626 27.5309C103.657 27.4591 103.658 27.3778 103.629 27.3061C103.619 27.2819 102.684 24.8625 104.199 23.3017C105.018 22.4203 106.541 21.6246 108.091 21.8335C109.33 22.0005 110.363 22.8051 111.079 24.1608C111.154 24.3025 111.328 24.3552 111.467 24.2796C111.606 24.204 111.659 24.0275 111.584 23.8865C110.564 21.9567 109.162 21.3916 108.166 21.2576L108.167 21.2569Z" fill="black"/>
<path d="M112.757 31.5783C112.603 31.6176 112.511 31.7764 112.55 31.9313C112.585 32.0704 113.363 35.3426 109.826 36.3993C106.01 37.501 104.304 34.7209 104.233 34.6028C104.163 34.4828 104.018 34.4314 103.888 34.4796C103.467 34.6377 102.225 34.9432 101.539 34.4619C101.179 34.2098 100.995 33.7544 100.991 33.108C100.991 32.948 100.862 32.8191 100.705 32.8191C100.545 32.8197 100.417 32.9505 100.418 33.1112C100.422 33.9583 100.69 34.5736 101.212 34.94C102.075 35.5452 103.366 35.248 103.874 35.0956C104.286 35.6557 105.669 37.2349 108.132 37.2349C108.693 37.2349 109.31 37.153 109.984 36.9587C114.047 35.7446 113.114 31.8285 113.104 31.7891C113.065 31.6335 112.909 31.5395 112.756 31.5795L112.757 31.5783Z" fill="black"/>
<path d="M111.356 28.6594C111.234 28.5578 111.053 28.5762 110.953 28.7006C110.853 28.8251 110.871 29.008 110.994 29.1096C112.011 29.9522 112.075 30.8279 111.949 31.4134C111.737 32.4002 110.84 33.2638 109.716 33.5617C108.457 33.895 107.182 33.4524 106.215 32.3481C106.11 32.2281 105.929 32.2173 105.811 32.3234C105.693 32.4301 105.682 32.6136 105.787 32.7336C106.656 33.7261 107.748 34.2526 108.885 34.2526C109.208 34.2526 109.535 34.21 109.861 34.1236C111.188 33.7718 112.252 32.7323 112.509 31.5372C112.735 30.4844 112.326 29.4627 111.356 28.6594Z" fill="black"/>
<path d="M114.082 24.5745C112.489 23.8017 110.559 24.2602 108.785 25.8325C108.666 25.9379 108.654 26.1214 108.759 26.2421C108.862 26.3627 109.043 26.3754 109.163 26.27C110.756 24.8577 112.459 24.431 113.835 25.0991C114.914 25.6223 115.581 26.726 115.534 27.9109C115.481 29.2908 114.468 30.4655 112.756 31.1323C112.608 31.1901 112.534 31.3577 112.591 31.5076C112.635 31.6232 112.743 31.6943 112.858 31.6943C112.892 31.6943 112.927 31.6879 112.961 31.6746C114.896 30.9202 116.043 29.5568 116.107 27.9337C116.162 26.517 115.367 25.1987 114.082 24.5752V24.5745Z" fill="black"/>
<path fill-rule="evenodd" clip-rule="evenodd" d="M66.5699 10.3616C66.8116 10.0066 66.6244 9.60781 66.6394 9.17663C66.667 8.41716 66.6094 7.63863 66.3183 6.93822C65.9452 6.04031 65.1852 5.31893 64.2813 4.98873C63.3779 4.65852 62.3438 4.72075 61.4799 5.14558C61.3102 5.22876 61.14 5.32782 60.9515 5.33798C60.3762 5.36974 60.1083 4.65662 59.7797 4.17655C59.2864 3.45644 58.3505 3.12751 57.4935 3.24054C56.6365 3.35357 55.8634 3.8565 55.2787 4.50167C55.1948 4.59438 55.0633 4.97539 55.0389 4.8522C54.1825 4.93031 53.338 5.14367 52.5455 5.48213C52.0967 5.67391 51.6522 5.91458 51.3373 6.29177C50.593 7.1827 50.7802 8.5194 51.1063 9.63956C51.1383 9.74878 51.1714 9.86118 51.1595 9.97421C51.1414 10.1495 51.0199 10.2936 50.9029 10.4244C50.3439 11.0487 49.7548 11.6545 49.3116 12.3682C48.8684 13.082 48.5773 13.9291 48.6874 14.7654C48.7676 15.3744 49.0524 15.9325 49.3329 16.4774C49.572 16.9422 49.8218 17.4204 50.2224 17.7506C50.8115 18.2364 51.6184 18.3208 52.3746 18.3856C52.5255 19.2841 52.6895 20.2106 53.1809 20.9739C53.6723 21.7372 54.5819 22.3004 55.4577 22.096C56.2659 23.159 57.2412 24.3166 58.5627 24.3915C59.1011 24.422 59.6313 24.2614 60.1409 24.0816C61.1418 23.7279 62.238 23.1482 62.4665 22.0979C62.5234 21.835 62.5297 21.5372 62.7125 21.3422C62.8177 21.2304 62.9616 21.1746 63.1125 21.1377L70.2315 27.1208L67.2567 19.6632C67.827 19.3076 68.3516 18.8847 68.806 18.3792C69.7857 17.2896 70.388 15.8576 70.485 14.3863C70.5257 13.7754 70.4787 13.1461 70.2402 12.5835C69.6505 11.1915 68.0536 10.5368 66.5699 10.3628V10.3616Z" fill="white"/>
<path d="M54.0863 4.86336C52.8117 4.73192 51.4902 5.43615 50.8724 6.57345C50.3109 7.60598 50.3572 8.94586 50.9606 9.94918C49.6573 10.6458 48.6951 11.9926 48.4698 13.471C48.2275 15.0648 48.8485 16.7762 50.0517 17.8303C50.3797 18.1173 50.9844 18.5447 51.6818 18.5447C51.8158 18.5447 51.9529 18.5288 52.0918 18.4933C52.2452 18.4539 52.3385 18.2964 52.2997 18.1408C52.2615 17.9853 52.1056 17.8906 51.9522 17.93C51.3162 18.0919 50.6727 17.6068 50.426 17.3909C49.3687 16.4644 48.8228 14.9607 49.0357 13.5592C49.2485 12.1584 50.2157 10.8909 51.4996 10.3308C51.581 10.2953 51.6417 10.2235 51.6637 10.1359C51.6856 10.0489 51.6668 9.95616 51.6117 9.88504C50.96 9.03984 50.8624 7.79268 51.3732 6.85349C51.884 5.91368 52.9758 5.33454 54.0281 5.44059C54.1833 5.45774 54.3261 5.34026 54.3417 5.18087C54.3574 5.02148 54.2428 4.87861 54.0857 4.86273L54.0863 4.86336Z" fill="#1D1D1B"/>
<path d="M66.8394 10.1193C67.3246 8.52164 66.8331 6.66422 65.5855 5.55359C64.3085 4.41755 62.3697 4.17942 60.8548 4.93826C60.2914 3.70951 58.9204 2.88019 57.5826 3.01417C56.1334 3.15769 54.8576 4.41882 54.678 5.88506C54.6586 6.04445 54.77 6.18924 54.9271 6.20892C55.0836 6.22924 55.227 6.11557 55.2464 5.95619C55.3941 4.74903 56.4446 3.71078 57.6377 3.59203C58.8315 3.47519 60.0604 4.2861 60.4354 5.44119C60.4629 5.52501 60.5261 5.59169 60.6081 5.6228C60.6901 5.65328 60.7809 5.64503 60.8554 5.59931C62.1763 4.7903 64.0468 4.95858 65.2068 5.99111C66.3668 7.02301 66.7749 8.88296 66.1571 10.3168C66.1157 10.4127 66.1283 10.5238 66.1902 10.6077C66.2522 10.6915 66.3555 10.7347 66.4563 10.7213C67.9199 10.5257 69.4905 11.691 69.9563 13.3179C70.3663 14.7511 70.0314 16.4688 69.0373 18.0303C68.9516 18.1649 68.9897 18.3446 69.1225 18.4323C69.1707 18.4634 69.2245 18.4786 69.2777 18.4786C69.3716 18.4786 69.4636 18.4316 69.5187 18.3459C70.603 16.6428 70.9635 14.7511 70.5066 13.1566C70.0126 11.4306 68.4288 10.1555 66.8388 10.1206L66.8394 10.1193Z" fill="#1D1D1B"/>
<path d="M62.7251 22.0845C62.5874 22.0064 62.4127 22.056 62.3351 22.1963C61.654 23.4308 60.2611 24.2036 58.8689 24.1217C57.4766 24.0385 56.1827 23.105 55.6493 21.7981C55.593 21.6597 55.4421 21.5873 55.3006 21.6318C54.4255 21.9042 53.3563 21.3447 52.9174 20.3846C52.5281 19.5331 52.5788 18.4262 53.0577 17.3473C53.1228 17.2013 53.0583 17.0292 52.9143 16.9632C52.7703 16.8971 52.6007 16.9632 52.5356 17.1086C51.9884 18.3411 51.9384 19.6239 52.3978 20.6284C52.913 21.755 54.1369 22.437 55.2211 22.2465C55.8885 23.6352 57.3114 24.6106 58.8357 24.7014C58.9146 24.7059 58.9928 24.7084 59.0717 24.7084C60.5979 24.7084 62.0884 23.8346 62.8353 22.4801C62.9123 22.3398 62.8634 22.1633 62.7251 22.0845Z" fill="#1D1D1B"/>
<path d="M66.3709 16.6661C66.3114 16.5175 66.1443 16.4457 65.9978 16.5054C65.8513 16.5657 65.7806 16.7353 65.8394 16.8839L69.5404 26.162L61.6721 19.5496C61.5506 19.4474 61.3697 19.4646 61.2689 19.5877C61.1681 19.7116 61.185 19.8945 61.3065 19.9967L70.0487 27.3438C70.1013 27.3882 70.1664 27.4105 70.2315 27.4105C70.2909 27.4105 70.3504 27.392 70.4005 27.3546C70.5063 27.2758 70.5457 27.1342 70.4969 27.011L66.3703 16.6654L66.3709 16.6661Z" fill="#1D1D1B"/>
<path d="M104.579 10.5313C104.673 10.6697 104.825 10.7491 104.986 10.7491C105.02 10.7491 105.054 10.7459 105.088 10.7383L107.505 10.2214C107.586 10.2042 107.655 10.1522 107.695 10.0798C107.735 10.0067 107.743 9.91974 107.716 9.841C107.444 9.05422 106.97 8.35253 106.348 7.81213C106.285 7.75752 106.203 7.73275 106.121 7.74545C106.04 7.75752 105.967 7.80451 105.922 7.87436L104.573 9.97498C104.463 10.1458 104.466 10.3642 104.579 10.5319V10.5313ZM106.217 8.47953C106.568 8.83831 106.852 9.26059 107.055 9.72352L105.156 10.1299L106.217 8.47953Z" fill="#6E7C99"/>
<path d="M103.189 9.48267C103.23 9.68143 103.384 9.83447 103.581 9.87193C103.612 9.87765 103.643 9.88082 103.673 9.88082C103.838 9.88082 103.993 9.797 104.086 9.65349L105.435 7.55287C105.48 7.48302 105.493 7.39665 105.471 7.31601C105.449 7.23536 105.393 7.16869 105.319 7.13249C104.58 6.77371 103.756 6.61749 102.936 6.68227C102.854 6.68862 102.778 6.73116 102.729 6.79784C102.679 6.86451 102.661 6.95024 102.678 7.03216L103.188 9.48394L103.189 9.48267ZM104.77 7.52429L103.71 9.17469L103.31 7.2487C103.809 7.24997 104.305 7.34331 104.77 7.52429Z" fill="#6E7C99"/>
<path d="M109.252 10.9285L108.679 10.8993C108.64 10.4847 108.554 10.0776 108.424 9.68326L108.935 9.41973C109.165 9.30099 109.256 9.01523 109.14 8.78218L108.847 8.19734C108.73 7.96429 108.449 7.87094 108.218 7.98905L107.709 8.25131C107.468 7.9065 107.191 7.5928 106.881 7.31403L107.192 6.82952C107.261 6.72347 107.284 6.59647 107.258 6.47264C107.232 6.34881 107.16 6.24213 107.056 6.17292L106.514 5.81477C106.298 5.67253 106.007 5.73412 105.866 5.9532L105.555 6.43772C105.173 6.25928 104.772 6.12719 104.357 6.04401L104.385 5.46488C104.398 5.20389 104.199 4.98036 103.942 4.96703L103.296 4.93401C103.173 4.92893 103.051 4.97084 102.959 5.05593C102.866 5.14102 102.812 5.25723 102.805 5.38359L102.776 5.96463C102.368 6.00464 101.966 6.09163 101.578 6.22372L101.318 5.70555C101.201 5.4725 100.92 5.37915 100.689 5.49726L100.112 5.79445C99.8818 5.91256 99.7898 6.19895 99.9062 6.432L100.165 6.9489C99.8249 7.19275 99.5156 7.47406 99.2408 7.78839L98.7638 7.47279C98.6592 7.40357 98.534 7.38007 98.412 7.40547C98.2899 7.43151 98.1847 7.50454 98.1165 7.61058L97.7634 8.1605C97.6952 8.26655 97.6714 8.39355 97.6971 8.51738C97.7227 8.64121 97.7947 8.74789 97.8993 8.81711L98.3769 9.13271C98.201 9.5207 98.0708 9.92838 97.9888 10.3488L97.4185 10.3195C97.1581 10.31 96.9408 10.5081 96.9277 10.7691L96.8951 11.4251C96.882 11.6861 97.0811 11.9096 97.3384 11.923L97.9112 11.9522C97.9506 12.3662 98.0364 12.7739 98.1666 13.1688L97.6551 13.4324C97.4254 13.5505 97.3334 13.8369 97.4498 14.0699L97.7428 14.6548C97.8592 14.8878 98.1422 14.9812 98.3719 14.8631L98.8808 14.6008C99.1212 14.9456 99.3986 15.2593 99.7091 15.5381L99.3979 16.0226C99.3297 16.1286 99.3065 16.2556 99.3322 16.3795C99.3579 16.5033 99.4298 16.61 99.5344 16.6792L100.077 17.0373C100.181 17.1066 100.307 17.1301 100.428 17.104C100.551 17.078 100.656 17.005 100.724 16.8989L101.035 16.4144C101.417 16.5928 101.819 16.7249 102.234 16.8081L102.205 17.386C102.199 17.5123 102.241 17.6343 102.325 17.7282C102.408 17.8222 102.524 17.8781 102.648 17.8844L103.295 17.9175C103.303 17.9175 103.311 17.9181 103.319 17.9181C103.434 17.9181 103.545 17.8749 103.632 17.7955C103.724 17.7105 103.779 17.5942 103.785 17.4679L103.814 16.8868C104.222 16.8468 104.624 16.7598 105.013 16.6278L105.273 17.1466C105.389 17.3796 105.672 17.473 105.902 17.3548L106.479 17.0577C106.59 17.0005 106.673 16.9021 106.712 16.7821C106.75 16.6614 106.74 16.5331 106.684 16.4201L106.425 15.9038C106.765 15.66 107.075 15.3787 107.349 15.0637L107.827 15.3793C108.043 15.5216 108.334 15.46 108.474 15.2409L108.827 14.691C108.895 14.5849 108.918 14.4579 108.893 14.3341C108.867 14.2103 108.795 14.1036 108.69 14.0344L108.213 13.7188C108.389 13.3308 108.519 12.9231 108.601 12.5027L109.172 12.5319C109.295 12.5383 109.417 12.4951 109.509 12.41C109.602 12.3249 109.656 12.2087 109.663 12.0823L109.695 11.4264C109.701 11.3 109.659 11.1781 109.575 11.0841C109.491 10.9901 109.376 10.9349 109.252 10.9285ZM109.096 11.9458L108.377 11.909C108.226 11.9007 108.101 12.0087 108.079 12.1566C108.001 12.6939 107.836 13.2089 107.59 13.6877C107.523 13.8204 107.565 13.9836 107.688 14.0649L108.29 14.4624L108.051 14.8339L107.45 14.4363C107.326 14.3551 107.162 14.3817 107.07 14.4979C106.741 14.9145 106.348 15.2714 105.901 15.5603C105.776 15.641 105.732 15.8035 105.799 15.9369L106.126 16.5878L105.736 16.7884L105.409 16.1363C105.343 16.0029 105.187 15.9432 105.051 15.9972C104.562 16.1896 104.05 16.3001 103.527 16.3261C103.38 16.3337 103.263 16.4525 103.255 16.6017L103.219 17.332L102.783 17.3098L102.819 16.5808C102.827 16.4315 102.721 16.3007 102.575 16.2785C102.045 16.1985 101.538 16.0315 101.066 15.7826C100.935 15.7133 100.774 15.7565 100.693 15.8816L100.301 16.4919L99.935 16.2499L100.327 15.6397C100.407 15.5146 100.381 15.3476 100.266 15.2542C99.8555 14.9202 99.5031 14.5214 99.2189 14.0687C99.1394 13.9423 98.9785 13.8978 98.8477 13.9658L98.206 14.2966L98.0082 13.9017L98.6511 13.5702C98.7819 13.5022 98.8414 13.3454 98.7882 13.2063C98.5985 12.711 98.4896 12.1909 98.4639 11.6607C98.4564 11.5115 98.3393 11.3921 98.1922 11.3851L97.4717 11.3483L97.4936 10.9057L98.2123 10.9425C98.3569 10.9507 98.4883 10.8428 98.5102 10.6948C98.5891 10.1576 98.7538 9.64262 98.9992 9.16382C99.0668 9.03111 99.0248 8.86791 98.9015 8.78663L98.2999 8.38911L98.5384 8.01763L99.1406 8.41514C99.264 8.49706 99.4286 8.46976 99.5206 8.35355C99.8493 7.93698 100.242 7.57947 100.689 7.29117C100.813 7.21053 100.857 7.04796 100.79 6.91461L100.464 6.26372L100.853 6.06306L101.18 6.71522C101.247 6.84857 101.402 6.90826 101.539 6.85428C102.027 6.66188 102.539 6.55138 103.063 6.52535C103.21 6.51773 103.327 6.39898 103.334 6.24975L103.371 5.51885L103.807 5.54108L103.771 6.27007C103.763 6.4193 103.869 6.55011 104.015 6.57234C104.544 6.65235 105.052 6.81936 105.524 7.06828C105.655 7.1375 105.816 7.09432 105.896 6.96922L106.288 6.35897L106.655 6.60091L106.263 7.21116C106.183 7.33626 106.209 7.50327 106.323 7.59661C106.733 7.92999 107.086 8.32878 107.371 8.78218C107.45 8.90855 107.611 8.953 107.742 8.88505L108.384 8.55421L108.581 8.94919L107.939 9.28067C107.808 9.34798 107.748 9.50546 107.801 9.64453C107.99 10.1392 108.1 10.6593 108.126 11.1901C108.133 11.3394 108.25 11.4581 108.397 11.4657L109.117 11.5026L109.095 11.9452L109.096 11.9458Z" fill="#6E7C99"/>
<path d="M103.295 12.5328C103.371 12.5328 103.446 12.5252 103.522 12.5087C103.807 12.4477 104.052 12.2776 104.211 12.0305C104.37 11.7829 104.424 11.4876 104.364 11.198C104.304 10.9091 104.136 10.6608 103.893 10.4995C103.389 10.1661 102.711 10.3116 102.383 10.8221C102.055 11.3333 102.198 12.0197 102.701 12.3525C102.881 12.4712 103.086 12.5322 103.294 12.5322L103.295 12.5328ZM102.864 11.1396C103.019 10.897 103.341 10.8285 103.58 10.9866C103.696 11.0634 103.775 11.1809 103.804 11.3181C103.833 11.4552 103.806 11.5956 103.731 11.713C103.655 11.8305 103.539 11.9112 103.404 11.9404C103.269 11.9696 103.13 11.9429 103.014 11.8667C102.775 11.7086 102.707 11.3828 102.863 11.1403L102.864 11.1396Z" fill="#6E7C99"/>
<path d="M103.403 13.3667C103.362 13.1679 103.208 13.0149 103.011 12.9774C102.813 12.94 102.615 13.0257 102.506 13.1965L101.156 15.2978C101.111 15.3676 101.098 15.454 101.12 15.5346C101.142 15.6153 101.198 15.682 101.272 15.7181C101.902 16.0242 102.594 16.1823 103.292 16.1823C103.413 16.1823 103.534 16.1779 103.655 16.1677C103.738 16.1614 103.813 16.1188 103.863 16.0522C103.912 15.9855 103.93 15.8998 103.913 15.8178L103.403 13.3667ZM101.822 15.3251L102.882 13.6747L103.283 15.6007C102.783 15.5994 102.288 15.5061 101.822 15.3251Z" fill="#6E7C99"/>
<path d="M106.796 14.0907L104.725 12.7223C104.558 12.6111 104.342 12.6137 104.176 12.7286C104.01 12.8435 103.93 13.0467 103.972 13.2455L104.481 15.6973C104.498 15.7792 104.549 15.8497 104.621 15.8903C104.664 15.9151 104.712 15.9278 104.761 15.9278C104.793 15.9278 104.825 15.9221 104.856 15.9113C105.631 15.6351 106.322 15.155 106.856 14.5225C106.91 14.459 106.933 14.3752 106.921 14.2926C106.91 14.2101 106.863 14.1364 106.794 14.0907H106.796ZM104.972 15.2401L104.571 13.3141L106.198 14.3892C105.844 14.7454 105.428 15.0343 104.972 15.2401Z" fill="#6E7C99"/>
<path d="M107.856 10.8509C107.79 10.8008 107.705 10.7817 107.625 10.7995L105.209 11.3164C105.012 11.3583 104.862 11.5151 104.825 11.7152C104.788 11.9152 104.873 12.1159 105.041 12.227L107.112 13.5961C107.159 13.6272 107.213 13.6431 107.268 13.6431C107.294 13.6431 107.32 13.6393 107.346 13.6323C107.425 13.6094 107.491 13.5535 107.527 13.478C107.88 12.7287 108.034 11.893 107.97 11.0617C107.964 10.9786 107.922 10.9017 107.856 10.8516V10.8509ZM107.139 12.9204L105.512 11.8454L107.41 11.4389C107.409 11.9457 107.317 12.4486 107.139 12.9204H107.139Z" fill="#6E7C99"/>
<path d="M102.012 12.3158C101.899 12.1481 101.7 12.0662 101.503 12.1088L99.0862 12.6257C99.0055 12.6428 98.936 12.6949 98.8959 12.7673C98.8559 12.8403 98.8484 12.9273 98.8753 13.006C99.1476 13.7922 99.6209 14.4939 100.244 15.0349C100.296 15.08 100.362 15.1048 100.43 15.1048C100.443 15.1048 100.457 15.1041 100.471 15.1016C100.552 15.0895 100.625 15.0425 100.67 14.9727L102.02 12.872C102.129 12.7019 102.127 12.4828 102.013 12.3151L102.012 12.3158ZM100.375 14.3675C100.023 14.0087 99.7392 13.5864 99.5363 13.1235L101.435 12.7171L100.375 14.3675Z" fill="#6E7C99"/>
<path d="M98.9643 12.0495L101.381 11.5326C101.578 11.4907 101.728 11.3345 101.765 11.1344C101.802 10.9344 101.717 10.7338 101.549 10.6226L99.4782 9.25418C99.4094 9.20846 99.3242 9.19512 99.2441 9.21798C99.1646 9.24084 99.0989 9.29672 99.0632 9.37229C98.7095 10.1216 98.5561 10.9573 98.6194 11.7891C98.6256 11.8723 98.6669 11.9492 98.7333 11.9993C98.7834 12.0374 98.8435 12.0571 98.9048 12.0571C98.9248 12.0571 98.9443 12.0552 98.9637 12.0508L98.9643 12.0495ZM99.4501 9.92793L101.077 11.003L99.1784 11.4094C99.1796 10.9027 99.2723 10.3997 99.4501 9.92793Z" fill="#6E7C99"/>
<path d="M99.7974 8.76185L101.868 10.1303C101.95 10.1849 102.044 10.2122 102.138 10.2122C102.232 10.2122 102.333 10.183 102.417 10.124C102.582 10.009 102.663 9.80581 102.621 9.60705L102.112 7.15591C102.095 7.07399 102.043 7.0035 101.972 6.96286C101.9 6.92222 101.815 6.9146 101.737 6.94191C100.961 7.21877 100.27 7.69884 99.7367 8.32941C99.6834 8.39291 99.659 8.47673 99.6709 8.55928C99.6822 8.64184 99.7291 8.7155 99.798 8.76122L99.7974 8.76185ZM101.621 7.61312L102.022 9.53847L100.395 8.4634C100.748 8.10716 101.164 7.81886 101.621 7.61312Z" fill="#6E7C99"/>
<path d="M80.3807 5.90625C79.329 5.90625 78.4727 6.77431 78.4727 7.84177C78.4727 8.90922 79.3284 9.77729 80.3807 9.77729C81.433 9.77729 82.2888 8.90922 82.2888 7.84177C82.2888 6.77431 81.433 5.90625 80.3807 5.90625ZM80.3807 9.19625C79.6445 9.19625 79.0455 8.58854 79.0455 7.84177C79.0455 7.09499 79.6445 6.48729 80.3807 6.48729C81.1169 6.48729 81.716 7.09499 81.716 7.84177C81.716 8.58854 81.1169 9.19625 80.3807 9.19625Z" fill="#6E7C99"/>
<path d="M77.9882 8.63113C76.8583 9.28837 75.8999 10.1456 75.1405 11.1801C73.4046 13.5455 73.2412 16.13 73.2982 17.4603C73.3051 17.6166 73.4315 17.7385 73.5843 17.7385C73.5887 17.7385 73.5924 17.7385 73.5968 17.7385C73.7546 17.7315 73.8772 17.5956 73.8704 17.4356C73.8165 16.1827 73.9693 13.7487 75.6 11.5281C76.3124 10.5578 77.2114 9.7532 78.2731 9.13597C78.4102 9.05596 78.4577 8.87879 78.3789 8.73972C78.3 8.60065 78.1253 8.55239 77.9876 8.6324L77.9882 8.63113Z" fill="#6E7C99"/>
<path d="M107.002 39.5139C106.18 39.3603 105.388 39.9127 105.236 40.7459C105.085 41.579 105.629 42.3823 106.451 42.5366C106.543 42.5537 106.635 42.5626 106.727 42.5626C107.443 42.5626 108.081 42.0438 108.216 41.3047C108.368 40.4709 107.823 39.6676 107.002 39.5139ZM107.653 41.1993C107.559 41.7181 107.065 42.061 106.555 41.9657C106.044 41.8698 105.705 41.3701 105.8 40.8519C105.884 40.3922 106.281 40.0696 106.726 40.0696C106.782 40.0696 106.84 40.0747 106.898 40.0855C107.408 40.1813 107.747 40.6811 107.653 41.1993Z" fill="#6E7C99"/>
<path d="M99.0135 36.9729C94.8731 36.3246 92.1599 36.7094 92.046 36.7266C91.8895 36.7494 91.7812 36.8967 91.8037 37.0555C91.8263 37.2142 91.9721 37.3247 92.128 37.3012C92.1549 37.2974 94.8762 36.9132 98.9258 37.547C102.92 38.1718 104.418 39.3949 104.433 39.4069C104.486 39.452 104.551 39.4743 104.616 39.4743C104.698 39.4743 104.779 39.4387 104.835 39.3701C104.937 39.2469 104.921 39.064 104.8 38.9605C104.736 38.9066 103.19 37.6257 99.0128 36.9723L99.0135 36.9729Z" fill="#6E7C99"/>
<path d="M97.831 16.7857C97.6414 16.9241 97.4398 17.0683 97.2276 17.22C95.2056 18.6653 92.1494 20.8491 88.8948 25.8689C88.8078 26.0029 88.8447 26.1832 88.9768 26.2715C89.025 26.3039 89.0801 26.3191 89.1339 26.3191C89.2272 26.3191 89.3186 26.2728 89.3731 26.1883C92.5682 21.2606 95.5705 19.1149 97.5575 17.695C97.7716 17.542 97.9744 17.3972 98.166 17.2569C98.2943 17.1629 98.3231 16.9813 98.2311 16.8511C98.139 16.7209 97.96 16.6917 97.831 16.785V16.7857Z" fill="#6E7C99"/>
<path d="M85.0101 25.1646C84.5537 25.2344 84.3709 25.2027 84.3077 25.1817C84.3428 25.0306 84.5994 24.6953 84.7278 24.5276C84.9825 24.1943 85.1509 23.9739 85.1059 23.744C85.0858 23.6412 85.0245 23.5561 84.9293 23.5008C84.6589 23.3522 84.3108 23.504 83.8695 23.6958C83.5765 23.8234 83.087 24.0368 82.923 23.9511C82.8898 23.9339 82.8641 23.8857 82.8479 23.8095C82.8241 23.5872 83.3881 22.7725 83.7249 22.2861C84.4035 21.3062 84.8511 20.6585 84.4605 20.3086C84.1005 19.9987 83.5427 20.4502 82.5299 21.2719C82.0178 21.6872 81.0819 22.4467 80.7795 22.4664C80.6324 21.9355 81.5439 19.6127 82.0942 18.2105C83.1102 15.621 83.2886 15.0444 82.8554 14.8215C82.3064 14.5605 81.7736 15.4362 80.3914 18.0023C79.7003 19.285 78.5441 21.432 78.1447 21.5005C78.0051 21.4897 77.9012 21.4351 77.816 21.3304C77.3665 20.7747 77.5662 19.0824 77.7121 17.8467C77.8824 16.4014 77.985 15.5289 77.3978 15.4457C76.7906 15.3536 76.5596 16.3728 76.174 18.0588C75.8585 19.438 75.3339 21.7507 74.701 21.6218C74.5458 21.5914 74.3955 21.6936 74.3648 21.8511C74.3342 22.0086 74.4356 22.161 74.5908 22.1921C75.7646 22.4251 76.256 20.2724 76.7324 18.1902C76.8902 17.5006 77.0949 16.6059 77.272 16.2026C77.2864 16.5684 77.2063 17.2485 77.1437 17.7775C76.9684 19.2653 76.7693 20.9513 77.3734 21.6987C77.5587 21.9279 77.8035 22.0562 78.1027 22.0797C78.1153 22.0809 78.1278 22.0809 78.1403 22.0809C78.7801 22.0809 79.4806 20.9062 80.8947 18.2804C81.3868 17.3666 82.0197 16.1912 82.4247 15.6483C82.2625 16.2115 81.8838 17.1767 81.5627 17.9953C80.5961 20.4591 79.9839 22.1216 80.2787 22.7579C80.3501 22.9014 80.474 22.9992 80.6262 23.0328C81.1044 23.137 81.7993 22.6093 82.8879 21.7253C83.2016 21.4713 83.6272 21.1259 83.9183 20.9341C83.76 21.2243 83.4701 21.6428 83.256 21.952C82.595 22.9071 82.1943 23.5142 82.2882 23.932C82.3564 24.2495 82.5286 24.3987 82.6607 24.4673C83.0645 24.6775 83.6116 24.4394 84.0949 24.2292C84.155 24.2032 84.2245 24.1727 84.2952 24.1435C84.2883 24.153 84.2814 24.1619 84.2745 24.1708C83.9453 24.6007 83.5728 25.0884 83.7994 25.4808C83.9365 25.7177 84.227 25.7875 84.5462 25.7875C84.7271 25.7875 84.9168 25.7653 85.094 25.738C85.2505 25.7139 85.3582 25.5659 85.3344 25.4078C85.3106 25.249 85.1653 25.1398 85.0082 25.1639L85.0101 25.1646Z" fill="#6E7C99"/>
<path d="M41.9948 24.8813C42.08 25.0483 42.2477 25.1505 42.4305 25.1505C42.4443 25.1505 42.4581 25.1505 42.4725 25.1486C42.6709 25.1314 42.8387 24.9962 42.8994 24.8038L43.6387 22.4511C43.6637 22.371 43.6537 22.2847 43.6112 22.2129C43.5686 22.1412 43.4979 22.0916 43.4165 22.077C42.6214 21.9323 41.7982 22.0034 41.0364 22.2821C40.9588 22.3107 40.8974 22.3717 40.8674 22.4492C40.8373 22.5273 40.8417 22.6143 40.8799 22.6886L41.9967 24.8806L41.9948 24.8813ZM42.9889 22.6035L42.413 24.4367L41.5428 22.7286C42.0136 22.599 42.5044 22.5565 42.9883 22.6035H42.9889Z" fill="#6E7C99"/>
<path d="M42.929 25.6493C42.3625 25.4664 41.7547 25.7846 41.5744 26.3593C41.3941 26.9339 41.7077 27.5505 42.2742 27.7334C42.3825 27.7684 42.4927 27.7849 42.601 27.7849C43.058 27.7849 43.4831 27.4877 43.6289 27.0229C43.7166 26.7447 43.6915 26.4482 43.5594 26.1884C43.4273 25.9287 43.2032 25.737 42.929 25.6487V25.6493ZM43.083 26.8476C42.9985 27.1168 42.7137 27.2661 42.4476 27.1803C42.1822 27.0946 42.0351 26.8057 42.1196 26.5358C42.2041 26.2666 42.489 26.1167 42.755 26.203C42.884 26.245 42.9885 26.3345 43.0505 26.4564C43.1125 26.5783 43.1237 26.7168 43.083 26.8476Z" fill="#6E7C99"/>
<path d="M43.5857 25.5083C43.6765 25.5858 43.7886 25.6264 43.9019 25.6264C43.9789 25.6264 44.0559 25.608 44.1272 25.5705L46.2882 24.4377C46.3615 24.3996 46.4147 24.331 46.4347 24.2497C46.4547 24.1684 46.4391 24.0827 46.3921 24.0141C45.9295 23.3391 45.2991 22.7981 44.568 22.4494C44.4935 22.4139 44.4071 22.4126 44.3313 22.4463C44.2556 22.4799 44.198 22.5447 44.1729 22.6241L43.4336 24.9768C43.3729 25.1692 43.4324 25.3781 43.5845 25.5083H43.5857ZM44.6162 23.1289C45.0381 23.3747 45.4137 23.6972 45.7242 24.0795L44.0402 24.9622L44.6162 23.1289Z" fill="#6E7C99"/>
<path d="M48.8204 25.6236L48.682 24.9924C48.6551 24.8692 48.5825 24.7644 48.478 24.6965C48.3734 24.6292 48.2488 24.6063 48.1274 24.6336L47.5796 24.7568C47.4357 24.3764 47.2504 24.0138 47.0262 23.6754L47.4407 23.2925C47.5327 23.2074 47.5865 23.0918 47.5922 22.9654C47.5978 22.8397 47.5552 22.719 47.4713 22.6257L47.0419 22.1475C46.958 22.0542 46.8434 22.0002 46.7195 21.9938C46.5937 21.9894 46.4766 22.0313 46.3846 22.1164L45.9714 22.498C45.6559 22.2358 45.3135 22.0129 44.9492 21.8319L45.1182 21.2928C45.1958 21.0451 45.0606 20.7791 44.8164 20.7003L44.2092 20.5041C43.9651 20.4254 43.7028 20.5625 43.6251 20.8102L43.4561 21.3493C43.0486 21.282 42.6354 21.2636 42.2229 21.2941L42.1021 20.741C42.0752 20.6178 42.0025 20.513 41.898 20.4451C41.7928 20.3771 41.6683 20.3555 41.5474 20.3822L40.9252 20.5219C40.6754 20.5784 40.517 20.8305 40.5721 21.0845L40.6936 21.6401C40.3186 21.7862 39.9611 21.9742 39.6275 22.2015L39.2494 21.7805C39.0766 21.5881 38.7817 21.5747 38.5927 21.75L38.1219 22.1856C37.9329 22.3609 37.9191 22.6593 38.0913 22.8518L38.4675 23.2709C38.2089 23.5909 37.9892 23.9383 37.8108 24.3078L37.2793 24.1364C37.0352 24.057 36.7729 24.1948 36.6953 24.4425L36.5018 25.0584C36.4643 25.1784 36.4749 25.3061 36.5319 25.4178C36.5888 25.5296 36.6852 25.6128 36.8036 25.6509L37.335 25.8223C37.2687 26.2351 37.2505 26.6542 37.2806 27.0733L36.7353 27.1959C36.4849 27.2524 36.3265 27.5045 36.3823 27.7585L36.5206 28.3897C36.5763 28.6437 36.8255 28.805 37.0752 28.7478L37.623 28.6246C37.767 29.0057 37.9523 29.3676 38.1764 29.7061L37.762 30.089C37.5723 30.2643 37.5585 30.5627 37.7313 30.7551L38.1601 31.2326C38.244 31.326 38.3579 31.3806 38.4825 31.3863C38.6052 31.3927 38.7254 31.3482 38.8168 31.2638L39.23 30.8821C39.5455 31.1444 39.8879 31.3673 40.2522 31.5489L40.0832 32.088C40.0456 32.208 40.0563 32.3357 40.1133 32.4474C40.1702 32.5592 40.2666 32.6424 40.3849 32.6805L40.9922 32.8767C41.1105 32.9148 41.2363 32.904 41.3465 32.8462C41.4567 32.7884 41.5387 32.6906 41.5762 32.5706L41.7453 32.0315C42.1522 32.0988 42.5653 32.1172 42.9785 32.0867L43.0993 32.6398C43.1262 32.763 43.1988 32.8678 43.3034 32.9357C43.3791 32.9846 43.4649 33.0094 43.5519 33.0094C43.5857 33.0094 43.6195 33.0056 43.6533 32.998L44.2756 32.8583C44.397 32.831 44.5003 32.7573 44.5673 32.6513C44.6336 32.5452 44.6556 32.4188 44.6293 32.2957L44.5078 31.74C44.8828 31.594 45.2396 31.406 45.5739 31.1787L45.952 31.5997C46.1248 31.7915 46.4196 31.8054 46.6087 31.6302L47.0801 31.1945C47.2691 31.0193 47.2829 30.7208 47.1108 30.5284L46.7345 30.1093C46.9931 29.7893 47.2128 29.4419 47.3918 29.0723L47.9233 29.2438C48.0416 29.2819 48.1675 29.2711 48.2783 29.2133C48.3884 29.1555 48.4698 29.0577 48.5074 28.9377L48.7008 28.3224C48.7384 28.2024 48.7277 28.0747 48.6708 27.9623C48.6138 27.8506 48.5174 27.7674 48.3984 27.7293L47.8676 27.5578C47.934 27.1451 47.9521 26.726 47.9221 26.3069L48.4673 26.1843C48.7177 26.1278 48.8761 25.8757 48.8204 25.6217V25.6236ZM47.5502 25.7976C47.4062 25.83 47.3104 25.9678 47.328 26.1164C47.3918 26.6472 47.3687 27.1794 47.2591 27.6988C47.2284 27.8449 47.3117 27.9909 47.4519 28.0366L48.1218 28.2532L47.9934 28.6608L47.3236 28.4443C47.1827 28.3986 47.0319 28.4691 46.9737 28.6062C46.769 29.0888 46.4885 29.5321 46.1392 29.9239C46.0403 30.035 46.0409 30.2039 46.1404 30.3144L46.615 30.8427L46.3032 31.131L45.8274 30.6014C45.7285 30.491 45.5626 30.4751 45.4449 30.564C45.0312 30.8758 44.5735 31.1171 44.0846 31.2803C43.945 31.3273 43.863 31.4733 43.8943 31.6194L44.0471 32.3185L43.6358 32.4112L43.483 31.714C43.4536 31.5794 43.3366 31.486 43.2038 31.486C43.1926 31.486 43.1807 31.4867 43.1688 31.4879C42.6461 31.5527 42.1215 31.5292 41.6094 31.4181C41.4654 31.387 41.3214 31.4714 41.2764 31.6137L41.0629 32.2931L40.661 32.1636L40.8745 31.4841C40.9189 31.3419 40.8501 31.1882 40.7148 31.1291C40.2397 30.9215 39.8021 30.637 39.4159 30.2827C39.3063 30.1823 39.1398 30.183 39.0309 30.2833L38.51 30.7646L38.2258 30.4484L38.7473 29.9658C38.8562 29.8655 38.8719 29.6978 38.7842 29.5778C38.4769 29.1587 38.2396 28.6939 38.0781 28.1979C38.0318 28.0563 37.8872 27.9725 37.7438 28.0055L37.0546 28.1605L36.9632 27.7433L37.6512 27.5883C37.7951 27.5559 37.8909 27.4181 37.8734 27.2695C37.8095 26.7393 37.8327 26.2072 37.9423 25.6877C37.9729 25.5417 37.8897 25.3956 37.7495 25.3499L37.0796 25.1334L37.2073 24.7257L37.8772 24.9422C38.0174 24.9873 38.1689 24.9174 38.2271 24.7803C38.4318 24.2983 38.7122 23.8544 39.0616 23.4626C39.1605 23.3515 39.1598 23.1826 39.0609 23.0721L38.5864 22.5438L38.8982 22.2555L39.3739 22.7851C39.4728 22.8956 39.6387 22.9114 39.7564 22.8225C40.1696 22.5108 40.6278 22.2694 41.1167 22.1062C41.2563 22.0593 41.3383 21.9132 41.3064 21.7672L41.1537 21.068L41.565 20.9753L41.7177 21.6732C41.7496 21.8192 41.8867 21.9176 42.032 21.8986C42.5547 21.8345 43.0799 21.8573 43.592 21.9684C43.7353 21.9996 43.8799 21.9151 43.9244 21.7729L44.1378 21.0934L44.5397 21.2229L44.3263 21.9024C44.2818 22.0447 44.3507 22.1983 44.4859 22.2574C44.961 22.465 45.3986 22.7495 45.7849 23.1039C45.8944 23.2042 46.0609 23.2035 46.1699 23.1032L46.6907 22.6219L46.9743 22.9381L46.4528 23.4207C46.3439 23.5211 46.3282 23.6887 46.4159 23.8087C46.7233 24.2285 46.9611 24.6927 47.122 25.1886C47.1683 25.3302 47.3123 25.414 47.4563 25.381L48.1455 25.2261L48.2369 25.6433L47.549 25.7982L47.5502 25.7976Z" fill="#6E7C99"/>
<path d="M38.5893 25.0953L40.9087 25.8452C40.9581 25.8611 41.0088 25.8687 41.0589 25.8687C41.201 25.8687 41.3381 25.8059 41.4333 25.6922C41.5616 25.5379 41.586 25.322 41.4946 25.1423L40.3778 22.9502C40.3403 22.8759 40.2727 22.8219 40.1925 22.8016C40.1124 22.7813 40.0279 22.7972 39.9603 22.8448C39.2948 23.3141 38.7615 23.9535 38.4178 24.6952C38.3827 24.7708 38.3815 24.8584 38.4147 24.9353C38.4479 25.0121 38.5117 25.0705 38.59 25.0959L38.5893 25.0953ZM40.0241 23.523L40.8943 25.2305L39.0876 24.6463C39.3299 24.2183 39.6479 23.8367 40.0248 23.5224L40.0241 23.523Z" fill="#6E7C99"/>
<path d="M46.7839 24.9302C46.7076 24.8997 46.6212 24.9041 46.5479 24.9429L44.3869 26.0757C44.2098 26.1684 44.1065 26.3583 44.1228 26.5602C44.1397 26.7615 44.273 26.9317 44.4627 26.9927L46.782 27.7426C46.8102 27.7515 46.8396 27.7566 46.8691 27.7566C46.9204 27.7566 46.9717 27.7426 47.0168 27.7147C47.0875 27.6715 47.1364 27.5998 47.1508 27.5172C47.2935 26.7114 47.2234 25.8763 46.9479 25.1029C46.9198 25.0241 46.8597 24.9619 46.7833 24.9314L46.7839 24.9302ZM46.6324 27.0835L44.8258 26.4993L46.5091 25.6166C46.6368 26.0941 46.6788 26.592 46.6324 27.0829V27.0835Z" fill="#6E7C99"/>
<path d="M43.2076 28.5034C43.1162 28.3237 42.9296 28.2196 42.7299 28.2361C42.5315 28.2532 42.3643 28.3885 42.3036 28.5809L41.5643 30.9343C41.5393 31.0143 41.5493 31.1006 41.5919 31.1724C41.6344 31.2441 41.7052 31.2937 41.7865 31.3083C42.0545 31.3572 42.3262 31.3813 42.5972 31.3813C43.13 31.3813 43.6621 31.2873 44.1672 31.1025C44.2449 31.074 44.3062 31.013 44.3363 30.9355C44.3663 30.8574 44.3619 30.7704 44.3244 30.6961L43.2076 28.5034ZM42.2135 30.7818L42.7894 28.9486L43.6596 30.6568C43.1888 30.7869 42.698 30.8295 42.2135 30.7818Z" fill="#6E7C99"/>
<path d="M46.6119 28.2885L44.2925 27.5392C44.1028 27.4782 43.8969 27.5379 43.7685 27.6922C43.6402 27.8465 43.6158 28.0624 43.7072 28.2421L44.824 30.4348C44.8616 30.5091 44.9292 30.5631 45.0093 30.5834C45.0318 30.5891 45.055 30.5917 45.0781 30.5917C45.1357 30.5917 45.1933 30.5739 45.2415 30.5396C45.9064 30.071 46.4397 29.4309 46.7834 28.6885C46.8184 28.613 46.8197 28.5253 46.7865 28.4491C46.7533 28.3723 46.6895 28.3139 46.6112 28.2885H46.6119ZM45.1777 29.8614L44.3075 28.1532L46.1142 28.7374C45.8719 29.1661 45.5539 29.5471 45.1777 29.862V29.8614Z" fill="#6E7C99"/>
<path d="M41.0767 26.8211C41.0597 26.6198 40.9264 26.4496 40.7367 26.3887L38.4174 25.6387C38.3385 25.6133 38.2534 25.6235 38.1826 25.6667C38.1119 25.7098 38.0631 25.7816 38.0487 25.8642C37.9059 26.6706 37.976 27.5057 38.2509 28.2785C38.279 28.3572 38.3391 28.4194 38.4155 28.4499C38.4493 28.4633 38.4844 28.4702 38.52 28.4702C38.5651 28.4702 38.6102 28.4594 38.6515 28.4379L40.8131 27.305C40.9903 27.2123 41.0936 27.0218 41.0767 26.8205V26.8211ZM38.6903 27.7635C38.5626 27.2859 38.5207 26.7881 38.567 26.2966L40.3743 26.8808L38.6903 27.7635Z" fill="#6E7C99"/>
<path d="M41.6159 27.8759C41.4638 27.7451 41.251 27.7209 41.0738 27.8136L38.9128 28.9465C38.8396 28.9846 38.7864 29.0532 38.7663 29.1345C38.7463 29.2157 38.762 29.3015 38.8089 29.3701C39.2715 30.0451 39.9019 30.5861 40.6331 30.9347C40.6719 30.9531 40.7132 30.962 40.7545 30.962C40.7934 30.962 40.8328 30.9538 40.8691 30.9379C40.9448 30.9042 41.0024 30.8395 41.0275 30.7601L41.7668 28.4074C41.8275 28.215 41.768 28.006 41.6159 27.8759ZM40.5855 30.2553C40.1636 30.0095 39.7874 29.6869 39.4775 29.3046L41.1614 28.422L40.5855 30.2553Z" fill="#6E7C99"/>
<path d="M60.8211 28.2091C57.6009 26.123 53.5782 25.1978 49.7865 25.6728C49.6294 25.6925 49.5179 25.8373 49.5374 25.9967C49.5568 26.1561 49.7001 26.2704 49.8566 26.2494C53.5194 25.7916 57.4031 26.6838 60.5125 28.6987C60.5601 28.7298 60.6139 28.7444 60.6665 28.7444C60.761 28.7444 60.8537 28.6968 60.9081 28.6104C60.9933 28.4751 60.9545 28.2954 60.8211 28.2091Z" fill="#6E7C99"/>
<path d="M71.3104 31.2447C69.8425 30.7532 68.4314 30.7983 67.3384 31.3717C67.1976 31.4454 67.1431 31.6206 67.2157 31.7629C67.2884 31.9051 67.4605 31.961 67.6014 31.8873C68.8909 31.211 70.3664 31.54 71.1314 31.7959C71.492 31.9165 71.9314 32.1001 72.1343 32.4563C72.1875 32.5497 72.2839 32.6017 72.3828 32.6017C72.4316 32.6017 72.4805 32.589 72.5255 32.563C72.6626 32.483 72.7096 32.3052 72.6307 32.1661C72.3315 31.6403 71.7687 31.3971 71.3117 31.2447H71.3104Z" fill="#1D1D1B"/>
</g>
</g>
<defs>
<clipPath id="clip0_859_2011">
<rect width="151" height="89" fill="white"/>
</clipPath>
<clipPath id="clip1_859_2011">
<rect width="103" height="101" fill="white" transform="translate(24 3)"/>
</clipPath>
</defs>
</svg>
