<svg width="151" height="89" viewBox="0 0 151 89" fill="none" xmlns="http://www.w3.org/2000/svg">
<g clip-path="url(#clip0_859_2018)">
<path d="M83.5949 24.0926C83.3878 23.6031 83.2518 23.0816 83.0002 22.6119C82.8752 22.3794 82.7166 22.1586 82.5095 21.9915C82.3154 21.8347 82.0891 21.7141 81.8629 21.6098C81.3365 21.3684 80.7726 21.2137 80.2067 21.0951C79.5888 20.9655 78.962 20.881 78.3338 20.8183C78.2887 20.8135 78.26 20.8353 78.2457 20.866L77.5621 20.7576C77.1199 20.6683 76.7214 20.4065 76.5033 20.0132C76.3954 19.8168 76.329 19.5953 76.3796 19.3764C76.5943 19.506 76.8239 19.5987 77.0761 19.6178C77.4063 19.643 77.731 19.5401 78.0461 19.4385C79.3489 19.0185 80.6517 18.5986 81.9545 18.1793C82.437 18.0239 82.9592 17.8385 83.2251 17.4076C83.584 16.8254 83.3215 16.0755 83.0529 15.4477C82.789 15.6317 82.5252 15.8151 82.2614 15.9992C82.0488 16.1471 81.8328 16.2971 81.5867 16.3789C81.0761 16.5493 80.463 16.4198 80.029 16.7368C80.1828 16.625 80.37 15.899 80.3885 15.7156C80.0686 15.8144 79.7747 15.9958 79.4404 16.0728C79.0843 16.1546 78.7125 16.1499 78.3557 16.2276C77.9237 16.321 77.3769 16.4941 76.854 16.7205C76.8417 16.7205 76.8294 16.7198 76.8171 16.7198C76.5758 16.715 76.3311 16.7314 76.0843 16.7593L76.2183 16.5603C76.3947 16.43 76.6011 16.2944 76.8444 16.1526C78.4336 15.2288 78.126 13.5 78.126 13.5C77.9798 13.5914 75.6476 15.2807 74.1691 15.6024C72.5328 15.9583 72.3202 17.1268 72.219 17.4151L74.612 18.9476L75.1158 18.1984C75.2539 18.2393 75.3769 18.2993 75.4726 18.3866C75.4617 18.4023 75.4507 18.4186 75.4459 18.437C75.4186 18.5345 75.4972 18.6272 75.569 18.6988C75.6059 18.7356 75.6442 18.7724 75.6824 18.8099C75.6927 18.8965 75.6913 18.992 75.6756 19.0997C76.2833 19.1201 76.1732 19.6321 75.9873 19.9907C75.6811 20.6035 74.9367 20.7692 74.3099 20.8333C72.7528 21.3534 70.206 20.9567 69.6004 22.9664C69.2935 23.8049 68.0899 25.6265 68.6367 26.3171C69.6845 25.7778 70.124 24.4116 71.3215 24.0796L71.2306 24.1833C76.8916 21.7018 77.731 23.297 72.4248 25.8194C71.1438 26.694 69.9716 27.2128 69.6271 28.6158C69.4022 29.8007 68.9477 32.1805 68.5881 33.953C68.7173 33.8869 68.8424 33.8071 68.9607 33.7049C69.8397 33.0477 69.7843 33.6599 70.7734 32.5644C71.9272 31.2493 73.0803 28.4386 73.355 27.6716C74.2887 25.4254 76.1014 25.8808 78.3543 26.1548C79.4528 26.3191 80.543 27.0124 81.2026 28.9846C81.5874 30.1899 82.1909 31.2479 82.9052 32.5623C83.1308 32.9802 83.4356 33.2297 83.815 33.5406C83.4726 31.8308 83.0706 29.7284 82.8642 28.6383C82.7692 28.1359 82.5095 27.6812 82.1253 27.343C81.6387 26.9149 80.8991 26.3191 80.0666 25.8419C80.0666 25.8419 78.2306 24.9782 77.1267 24.1328C76.3578 23.5438 76.3325 22.8709 76.8902 22.8948C77.9203 22.9398 79.9982 23.7047 80.9449 24.0721C81.4028 24.4437 81.8348 24.8479 82.3283 25.1758C82.6257 25.3735 82.9483 25.5365 83.2292 25.7574C83.4616 25.9394 83.6913 26.1521 83.9804 26.2387C84.0392 26.2564 84.1212 26.2059 84.1123 26.1384C84.0228 25.437 83.8731 24.747 83.5963 24.0933L83.5949 24.0926Z" fill="#F08C65"/>
<path d="M83.8168 33.5404C83.4374 33.2289 83.1326 32.9794 82.907 32.5622C82.1927 31.2471 81.5885 30.1898 81.2044 28.9845C80.5454 27.0123 79.4552 26.319 78.3561 26.1547C76.1039 25.8806 74.2912 25.4252 73.3568 27.6715C73.082 28.4384 71.9282 31.2499 70.7751 32.5642C69.7861 33.6597 69.8415 33.0476 68.9624 33.7047C68.8442 33.807 68.7191 33.8868 68.5899 33.9529C68.4156 34.8132 68.2639 35.5304 68.1716 35.8978C68.0219 36.4957 67.2762 37.5967 66.4648 38.669L66.9296 39.2383C66.9351 39.241 68.3028 39.8955 68.3028 39.8955C68.3028 39.8955 68.6877 41.8677 69.3466 43.347C70.0055 44.8264 70.9946 45.7576 70.9946 45.7576C70.9946 45.7576 70.9946 45.7664 70.9946 45.7794C71.0144 45.7821 71.0342 45.7896 71.052 45.8087C71.5318 46.3241 72.16 46.6554 72.7751 46.982C73.0458 47.1258 73.393 47.4851 73.6706 47.6146C73.8483 47.6971 74.4088 47.873 74.7902 48.0298C74.8455 48.0523 74.8968 48.0748 74.9433 48.0966C75.0547 48.1491 75.1347 48.1968 75.1559 48.235C75.3295 48.5445 75.7936 48.9201 75.9269 49.2473C75.9877 49.3959 76.069 49.5575 76.2037 49.6529C76.3561 49.76 76.5571 49.745 76.7143 49.6564C77.0971 49.4416 77.259 48.9699 77.5591 48.6685C77.9351 48.2909 78.5037 48.1484 78.9959 47.9929C79.5598 47.8143 80.0909 47.5553 80.6117 47.2778C81.676 46.712 82.6521 45.988 83.3267 44.9763C83.3404 44.9559 83.3581 44.945 83.3766 44.9375C83.6698 44.538 84.0389 43.9817 84.3971 43.2925C85.1661 41.8131 85.4408 39.7312 85.4408 39.7312C85.4408 39.7312 85.8926 39.6896 86.4784 39.331C85.5276 38.0978 84.5037 36.6491 84.3205 35.9203C84.2132 35.4929 84.0246 34.5903 83.8147 33.5404H83.8168Z" fill="#FFDDC0"/>
<path d="M111.859 54.8382C109.732 50.5945 103.045 45.0902 100.09 42.6851C97.1355 40.28 93.7172 36.2224 93.7172 36.2224H93.4807C93.4807 36.2224 92.3125 36.6928 90.5319 38.5464L88.2025 41.4607C88.2025 41.4607 86.789 39.5881 85.9332 38.485C85.9229 38.4721 85.9052 38.4659 85.8901 38.4734C85.5962 38.618 85.7924 39.704 85.4499 39.8805C85.4452 39.783 85.1663 41.8112 84.3973 43.2905C84.0391 43.9797 83.67 44.5353 83.3768 44.9355C83.3583 44.9423 83.3406 44.9539 83.3269 44.9743C82.6523 45.9867 81.6762 46.7107 80.612 47.2758C80.0911 47.5533 79.56 47.8123 78.9961 47.991C78.504 48.1464 77.9346 48.2889 77.5593 48.6665C77.2593 48.9686 77.0973 49.4396 76.7145 49.6544C76.5566 49.743 76.3557 49.758 76.2039 49.651C76.0686 49.5555 75.9879 49.3939 75.9271 49.2453C75.7938 48.9181 75.3297 48.5425 75.1561 48.233C75.1349 48.1948 75.0549 48.1471 74.9435 48.0946C74.9141 48.0973 74.8847 48.098 74.8553 48.1014L74.7904 48.0285C74.4097 47.8723 73.8485 47.6965 73.6708 47.6133C73.3933 47.4838 73.046 47.1245 72.7754 46.9807C72.1602 46.6548 71.532 46.3228 71.0522 45.8074C71.0344 45.7883 71.0146 45.7808 70.9948 45.7781C70.9948 45.7645 70.9948 45.7563 70.9948 45.7563C70.9948 45.7563 70.0057 44.825 69.3468 43.3457C68.6879 41.8664 68.3031 39.8942 68.3031 39.8942L66.9353 39.239C66.6209 39.1136 66.3646 38.9943 66.3236 38.9254C66.1253 39.2779 64.329 41.6734 64.2156 41.4423C63.8991 40.8002 63.5717 40.2684 62.2621 38.8429C62.1582 38.7298 62.057 38.6241 61.9572 38.5198C61.3133 37.9976 60.6134 37.5245 60.1056 36.8687C59.4145 36.3615 59.0119 36.1992 59.0119 36.1992H58.7754C58.7754 36.1992 55.3571 40.2568 52.4022 42.6619C49.4474 45.0671 42.7605 50.572 40.6333 54.815C38.5062 59.0587 37.6197 64.1273 40.6333 65.5419C43.647 66.9565 49.0249 64.068 51.3298 62.1824C53.4521 60.446 57.7447 56.415 58.4125 55.7871C58.9627 56.1859 59.1985 57.004 59.3373 57.715C59.7713 59.9286 60.2047 62.1428 60.6387 64.3564C60.6387 64.3564 92.2366 64.4368 92.3604 64.1798C92.5422 61.352 93.1717 58.482 93.9256 55.7394C93.968 55.7299 93.9912 55.7244 93.9912 55.7244C93.9912 55.7244 98.86 60.3199 101.165 62.2055C103.47 64.0919 108.847 66.9796 111.861 65.5651C114.875 64.1505 113.988 59.0819 111.861 54.8382H111.859Z" fill="white"/>
<path d="M68.5861 33.9537C68.9457 32.1812 69.4002 29.8013 69.6251 28.6165C69.9696 27.2135 71.1418 26.6947 72.4228 25.8201C77.729 23.2977 76.8896 21.7025 71.2287 24.1839L71.3196 24.0803C70.122 24.4123 69.6825 25.7785 68.6347 26.3177C68.0879 25.6278 69.2915 23.8056 69.5984 22.9671C70.204 20.9574 72.7509 21.3541 74.3079 20.834C74.9347 20.7699 75.6784 20.6049 75.9853 19.9914C76.1712 19.6335 76.2806 19.1215 75.6729 19.101C75.8014 18.2175 74.9928 18.0805 74.2854 18.1439L74.4679 18.0266C74.3585 17.7676 73.9169 17.6353 73.3011 17.5876C71.3476 17.4356 67.6203 18.1412 67.0086 18.4309C65.4447 20.1222 63.9888 24.3489 63.2041 26.3498C62.8322 27.825 62.7782 33.0136 62.3128 34.3798L60.1016 36.8701C60.6101 37.5266 61.31 37.9997 61.9539 38.5219C62.1535 38.6835 62.3483 38.8498 62.5294 39.0284C62.5636 39.025 62.5957 39.0516 62.6142 39.0823C63.2683 39.764 63.7707 40.5616 64.308 41.3327C64.6935 40.882 65.6135 39.7913 66.4618 38.6692C67.2731 37.5961 68.0181 36.4952 68.1685 35.898C68.2608 35.5305 68.4125 34.8134 68.5868 33.953L68.5861 33.9537Z" fill="#FFDDC0"/>
<path d="M90.0508 34.0337C89.8143 32.855 89.5778 27.6091 89.2826 26.3718C89.1452 25.7957 88.8957 25.221 88.6011 24.66C88.1923 23.5788 86.5109 19.2526 85.4781 18.4529C84.9155 18.0173 80.8752 17.6498 79.5628 17.5967C79.4548 17.5919 79.3626 17.5898 79.2949 17.5898C78.0188 17.5898 78.0188 18.0486 78.0188 18.0486L78.2013 18.1659C77.9579 18.1495 77.7125 18.1516 77.4788 18.1959C76.8827 18.3077 76.8144 18.5633 76.813 19.123C76.582 19.1544 76.4316 19.2103 76.3995 19.2996C76.3106 19.543 76.3804 19.7938 76.5013 20.0134C76.7187 20.4074 77.1179 20.6692 77.5601 20.7578L78.2436 20.8662C78.258 20.8355 78.2867 20.8137 78.3318 20.8185C78.96 20.8812 79.5868 20.9657 80.2047 21.0953C80.7706 21.2139 81.3338 21.3686 81.8608 21.61C82.0871 21.7136 82.3133 21.8342 82.5075 21.9917C82.7139 22.1587 82.8731 22.3796 82.9982 22.6121C83.2505 23.0818 83.3858 23.6033 83.5929 24.0928C83.8697 24.7466 84.0194 25.4365 84.109 26.138C84.1172 26.2054 84.0351 26.2559 83.977 26.2382C83.6886 26.1516 83.4582 25.9396 83.2258 25.7569C82.9449 25.536 82.6223 25.3731 82.325 25.1754C81.8308 24.8475 81.3995 24.4432 80.9415 24.0717C79.9948 23.7035 77.9169 22.9386 76.8868 22.8943C76.3291 22.8705 76.3544 23.5433 77.1233 24.1323C78.2272 24.9777 80.0632 25.8414 80.0632 25.8414C80.8964 26.3193 81.636 26.9144 82.122 27.3426C82.5061 27.6807 82.7658 28.1354 82.8608 28.6378C83.0673 29.7279 83.4692 31.8303 83.8116 33.5401C84.0222 34.5899 84.2101 35.4925 84.3174 35.92C84.4999 36.6487 85.5245 38.0974 86.4753 39.3306C86.5102 39.3763 86.5457 39.4213 86.5799 39.4663C87.4336 40.5659 88.1985 41.4624 88.1985 41.4624L90.5279 38.548C90.532 38.5432 92.1739 36.6903 92.1739 36.6903C90.5047 35.333 90.0734 34.1543 90.0495 34.0343L90.0508 34.0337Z" fill="#FFDDC0"/>
<path d="M77.0306 48.772C76.9459 48.772 76.8884 48.7679 76.859 48.7652H76.8276C76.6444 48.7761 74.7634 48.8443 72.1079 46.9525C70.1981 45.6245 69.585 44.2277 69.2193 43.3932C68.6622 42.2357 68.2015 40.6663 67.7743 38.4623C67.747 38.3212 67.8393 38.1849 67.9808 38.1576C68.1222 38.1303 68.2589 38.2224 68.2863 38.3635C68.7053 40.5225 69.1523 42.0516 69.6937 43.1764C70.0416 43.9693 70.6178 45.2816 72.4093 46.5271C74.978 48.3568 76.7804 48.2471 76.7996 48.2457H76.8748C76.8864 48.245 76.8973 48.2457 76.9083 48.2471C76.9219 48.2484 78.4551 48.4052 81.0108 46.6362C82.8529 45.3552 83.6724 43.9236 83.9971 43.1846C84.5419 42.0516 84.9889 40.5225 85.4079 38.3628C85.4352 38.2224 85.5712 38.1303 85.7134 38.1569C85.8549 38.1842 85.9472 38.3205 85.9198 38.4616C85.492 40.6657 85.0313 42.235 84.4708 43.4007C84.1283 44.182 83.2562 45.7084 81.3088 47.0623C79.0634 48.6159 77.5467 48.7706 77.0327 48.7706L77.0306 48.772Z" fill="black"/>
<path d="M68.1185 39.4135C67.7131 39.3597 67.1171 39.0815 66.6086 38.543C66.5498 38.6084 66.491 38.6732 66.4329 38.7393C66.3803 38.8095 66.3249 38.8784 66.2695 38.9465C66.8608 39.5519 67.5532 39.8628 68.0494 39.9282C68.061 39.9296 68.0727 39.9303 68.0843 39.9303C68.2128 39.9303 68.3249 39.8355 68.3427 39.7046C68.3618 39.5628 68.2613 39.4319 68.1191 39.4128L68.1185 39.4135Z" fill="black"/>
<path d="M76.9829 42.023C76.9228 42.023 76.862 42.0019 76.8128 41.9596C76.7041 41.8655 76.6925 41.7012 76.7868 41.5928C77.1326 41.1947 77.3008 40.8954 77.2857 40.7025C77.2748 40.5539 77.1402 40.4326 76.9221 40.2478C76.6453 40.0119 76.3001 39.7195 76.1798 39.1911C75.8298 37.8645 76.7649 35.9741 76.8052 35.8943C76.8695 35.7655 77.026 35.713 77.1545 35.7778C77.2837 35.8418 77.3356 35.998 77.2714 36.1261C77.0233 36.6211 76.4348 38.114 76.6863 39.0664C76.7704 39.4345 77.0082 39.637 77.2605 39.851C77.5147 40.0672 77.7779 40.2908 77.8059 40.663C77.8326 41.0134 77.6398 41.4047 77.1805 41.933C77.1292 41.9923 77.0568 42.023 76.9836 42.023H76.9829Z" fill="black"/>
<path d="M74.1203 34.5994C73.7177 34.5994 73.283 34.3935 72.825 34.1754C72.2085 33.8829 71.5099 33.5516 70.8298 33.705C70.6897 33.7363 70.5502 33.6491 70.5181 33.5087C70.4867 33.3689 70.5742 33.2291 70.715 33.1978C71.5714 33.0042 72.3568 33.3764 73.0492 33.7057C73.4703 33.9054 73.8667 34.0956 74.1558 34.0779C74.3014 34.0697 74.4224 34.1795 74.4306 34.3226C74.4388 34.4658 74.3288 34.5885 74.1852 34.5967C74.164 34.598 74.1422 34.5987 74.121 34.5987L74.1203 34.5994Z" fill="black"/>
<path d="M79.2214 34.601C79.0771 34.601 78.9609 34.4844 78.9609 34.3413C78.9609 34.1981 79.0778 34.0815 79.2214 34.0815C79.7648 34.0815 80.2166 33.8061 80.6944 33.515C81.22 33.1946 81.7634 32.8633 82.4715 32.8633C82.6157 32.8633 82.7319 32.9799 82.7319 33.123C82.7319 33.2662 82.6151 33.3828 82.4715 33.3828C81.9103 33.3828 81.4517 33.6623 80.9657 33.9581C80.4469 34.2738 79.911 34.601 79.2207 34.601H79.2214Z" fill="black"/>
<path d="M83.6902 32.9958C82.7988 32.2704 82.291 30.9915 81.7934 29.7371C81.0764 27.9278 80.3375 26.0558 78.4134 26.2256C78.2698 26.2379 78.1639 26.3647 78.1769 26.5071C78.1898 26.6503 78.3101 26.758 78.4592 26.743C79.9882 26.606 80.6027 28.1467 81.3088 29.928C81.898 31.4149 82.5425 33.0401 83.8638 33.7504C83.831 33.4934 83.7736 33.2412 83.6902 32.9951V32.9958Z" fill="black"/>
<path d="M76.1282 26.0374C75.5869 25.7081 75.1098 25.6181 74.6703 25.7606C73.7762 26.0517 73.2759 27.257 72.6963 28.6532C71.8624 30.6608 70.928 32.9003 68.6778 33.3298C68.6525 33.5111 68.6238 33.6911 68.5938 33.8717C71.2513 33.4866 72.3101 30.9417 73.1775 28.8522C73.7079 27.5747 74.1658 26.4716 74.8316 26.2549C75.1173 26.1621 75.4529 26.2358 75.8562 26.4812C75.9792 26.5562 76.1399 26.5173 76.2144 26.3946C76.2895 26.2719 76.2506 26.1124 76.1276 26.0374H76.1282Z" fill="black"/>
<path d="M77.6957 26.5738C77.6909 26.5738 77.6868 26.5738 77.682 26.5738C77.5384 26.5663 77.4277 26.4443 77.4352 26.3005C77.4592 25.8437 77.2377 25.3365 76.8576 24.9759C76.5268 24.663 76.1222 24.5055 75.7449 24.545C75.6041 24.5614 75.4735 24.4564 75.4585 24.3139C75.4434 24.1714 75.5473 24.0433 75.6902 24.0283C76.2192 23.9731 76.7743 24.181 77.2158 24.5989C77.7114 25.0679 77.9875 25.7142 77.9547 26.3277C77.9472 26.4661 77.8324 26.5738 77.695 26.5738H77.6957Z" fill="black"/>
<path fill-rule="evenodd" clip-rule="evenodd" d="M72.8866 37.1395C72.6193 37.1531 72.3282 37.1484 72.0636 37.0816C72.0096 37.0734 71.957 37.0577 71.903 37.0468C71.836 37.0461 71.7793 37.0345 71.7232 37.0195C71.7171 37.0666 71.7109 37.1136 71.7109 37.1627C71.7109 37.7108 72.0958 38.1485 72.5353 38.1485C72.9748 38.1485 73.3596 37.7101 73.3596 37.1627C73.3596 37.1361 73.3548 37.1116 73.3528 37.0857C73.1983 37.1204 73.037 37.1327 72.8873 37.1402L72.8866 37.1395Z" fill="black"/>
<path fill-rule="evenodd" clip-rule="evenodd" d="M81.4749 37.0538C81.2848 37.0708 81.0955 37.0919 80.9048 37.0967C80.6403 37.1035 80.3259 37.1028 80.1092 36.9297C80.0757 37.019 80.0586 37.1144 80.0586 37.216C80.0586 37.7641 80.388 38.2025 80.8822 38.2025C81.3217 38.2025 81.7066 37.7641 81.7066 37.216C81.7066 37.1553 81.6997 37.096 81.6908 37.0381C81.6191 37.0442 81.5473 37.0497 81.4749 37.0538Z" fill="black"/>
<path d="M79.2874 44.5883C79.2464 44.5883 79.2047 44.5788 79.1658 44.5584C78.5506 44.2339 78.1015 44.3163 77.582 44.4125C77.2977 44.465 77.0051 44.5195 76.6627 44.514C76.2581 44.5079 76.0168 44.4309 75.8042 44.3634C75.4658 44.2557 75.1733 44.1616 74.1097 44.4309C73.9696 44.465 73.8288 44.3818 73.7933 44.2427C73.7577 44.1036 73.8425 43.9618 73.9819 43.9271C75.1904 43.621 75.5656 43.741 75.9634 43.8684C76.1589 43.9312 76.3442 43.9898 76.6709 43.9946C76.9587 44.0007 77.2157 43.9516 77.4877 43.9019C78.0523 43.7975 78.6353 43.6898 79.4105 44.0996C79.5376 44.167 79.5861 44.3238 79.5185 44.4506C79.4713 44.5386 79.3818 44.589 79.2881 44.589L79.2874 44.5883Z" fill="black"/>
<path d="M72.4933 37.4C71.9977 37.4 71.5411 37.2712 71.213 37.1049C71.0845 37.0401 71.0333 36.8833 71.0989 36.7551C71.1638 36.6276 71.321 36.5758 71.4489 36.6413C71.8385 36.8383 72.7052 37.0592 73.4837 36.6372C73.6102 36.5683 73.7681 36.6154 73.8371 36.7415C73.9061 36.8676 73.859 37.0258 73.7325 37.0939C73.3258 37.3148 72.8966 37.4 72.4933 37.4Z" fill="black"/>
<path d="M80.9976 37.4C80.502 37.4 80.0454 37.2712 79.7166 37.1049C79.5881 37.0401 79.5376 36.8833 79.6025 36.7551C79.6674 36.6276 79.8246 36.5758 79.9531 36.6413C80.3421 36.839 81.2088 37.0599 81.988 36.6372C82.1138 36.5683 82.2723 36.6154 82.3414 36.7415C82.4104 36.8676 82.3639 37.0258 82.2368 37.0939C81.8301 37.3148 81.4008 37.4 80.9976 37.4Z" fill="black"/>
<path d="M78.129 34.9974C78.0613 34.9974 77.9936 34.9715 77.9424 34.919C77.5808 34.5502 77.5336 33.9666 77.5015 33.5801L77.4933 33.4785C77.4803 33.3354 77.5856 33.2092 77.7291 33.1963C77.8774 33.184 77.9991 33.289 78.0121 33.4315L78.021 33.5378C78.0462 33.8494 78.0845 34.3204 78.3149 34.5556C78.4153 34.6586 78.4133 34.8229 78.3101 34.9231C78.2595 34.9729 78.1939 34.9974 78.1283 34.9974H78.129Z" fill="black"/>
<path d="M60.3154 36.9249C60.2381 36.9249 60.1616 36.8908 60.1103 36.8253C60.0214 36.7122 60.0413 36.5492 60.154 36.4606C60.6585 36.0659 62.0057 34.847 62.1834 33.958C62.2894 33.431 62.3967 32.039 62.5115 30.5651C62.6482 28.8001 62.7897 26.9744 62.9538 26.2866C63.2251 25.1495 63.9162 24.0185 64.5259 23.0211C64.6598 22.8016 64.7918 22.5862 64.9162 22.3756C65.4473 21.4764 65.8786 20.798 66.3153 20.175C66.3789 20.0843 66.4404 19.9902 66.5019 19.8954C66.7617 19.498 67.0556 19.0481 67.5388 18.8026C68.0146 18.5606 68.5511 18.53 69.0699 18.5006C69.2688 18.4891 69.4568 18.4788 69.6352 18.4563C70.0768 18.4011 70.5183 18.3493 70.9599 18.2968C71.8362 18.1932 72.7425 18.0868 73.6284 17.956C74.0952 17.8871 74.5901 17.8271 75.0583 17.915C75.8689 18.0678 75.9352 18.5402 75.9366 19.0972C75.9366 19.241 75.8225 19.363 75.6762 19.3576C75.5327 19.3576 75.4158 19.2417 75.4158 19.0978C75.4151 18.5995 75.3816 18.5047 74.9626 18.4263C74.5737 18.3534 74.1458 18.4052 73.7056 18.4706C72.8122 18.6029 71.9025 18.7099 71.0221 18.8136C70.5812 18.8654 70.141 18.9172 69.7008 18.9724C69.5047 18.9969 69.2989 19.0085 69.1 19.0201C68.6352 19.0467 68.154 19.074 67.776 19.2662C67.4172 19.4489 67.1848 19.8041 66.9394 20.1797C66.8745 20.2793 66.8095 20.3781 66.7432 20.4729C66.3146 21.0844 65.8895 21.7525 65.3659 22.6394C65.2408 22.8521 65.1075 23.0695 64.9715 23.2918C64.3816 24.2564 63.7138 25.3499 63.4609 26.4073C63.3065 27.0556 63.1602 28.9412 63.031 30.6053C62.9155 32.0949 62.8068 33.5026 62.6947 34.0603C62.4425 35.3187 60.556 36.8069 60.476 36.8696C60.4281 36.9071 60.3714 36.9249 60.3154 36.9249Z" fill="black"/>
<path d="M64.4485 41.4692C64.3883 41.4692 64.3275 41.4488 64.2783 41.4065C64.1689 41.3131 64.1566 41.1488 64.2509 41.0398C64.2844 41.0009 67.5831 37.1689 67.9187 35.83C68.1969 34.7216 69.0281 30.3783 69.3726 28.5629C69.4778 28.0073 69.7697 27.4953 70.1949 27.121C70.6808 26.6936 71.4396 26.0807 72.2967 25.5892C72.3028 25.5858 72.309 25.5824 72.3151 25.5797C72.3336 25.5715 74.1388 24.718 75.2078 23.8992C75.6425 23.5665 75.7567 23.2475 75.7212 23.1507C75.7143 23.1323 75.6624 23.1248 75.6138 23.1275C74.5284 23.1746 72.1415 24.0894 71.4361 24.3683C71.2735 24.4323 71.1203 24.5196 70.9809 24.6266L68.7041 26.3998C68.5537 26.517 68.3507 26.517 68.2003 26.3998C68.05 26.2825 68.0007 26.0862 68.0787 25.9117L69.3466 22.5406C69.6426 21.7559 70.1832 21.248 70.8688 21.1103L74.89 20.4743C75.2666 20.3979 75.5885 20.1736 75.7608 19.8607C75.8585 19.6841 75.8907 19.5287 75.8572 19.3978C75.2297 19.0692 69.985 19.8525 68.7813 20.2275C68.2612 20.3897 66.7725 23.2277 65.6337 25.8776C65.577 26.0092 65.4239 26.0705 65.2913 26.0139C65.1587 25.9573 65.0978 25.8046 65.1546 25.6724C65.5571 24.7357 67.6166 20.0455 68.6255 19.7312C69.1354 19.5723 70.9563 19.2322 72.6289 19.014C76.1087 18.5607 76.2502 18.9506 76.335 19.1831C76.4389 19.468 76.3992 19.7803 76.2167 20.1109C75.97 20.5581 75.5195 20.8765 74.9816 20.9849L70.9604 21.6209C70.3268 21.7491 69.9966 22.291 69.834 22.7233L68.6973 25.7453L70.6624 24.2155C70.8422 24.0778 71.0376 23.9667 71.2447 23.8849C72.1737 23.5175 74.4573 22.6571 75.592 22.608C75.8893 22.5958 76.1231 22.7314 76.2112 22.9728C76.352 23.3586 76.0827 23.8842 75.5257 24.311C74.4416 25.1406 72.7095 25.9683 72.5475 26.0446C71.7321 26.5136 71.0062 27.0999 70.54 27.5103C70.2017 27.8082 69.9686 28.2166 69.8845 28.659C69.5394 30.4792 68.7055 34.834 68.4245 35.9555C68.0588 37.413 64.7855 41.217 64.646 41.3779C64.5947 41.4379 64.5216 41.4686 64.4485 41.4686V41.4692Z" fill="black"/>
<path d="M63.7957 25.1397C63.7656 25.1397 63.7356 25.1343 63.7062 25.124C63.5708 25.075 63.5018 24.9257 63.551 24.7907C63.6351 24.5616 65.6235 19.1726 66.8504 18.2223C67.5715 17.664 72.5264 17.3047 73.1928 17.3047C74.6556 17.3047 74.7301 17.9032 74.7301 18.0232C74.7301 18.1671 74.6132 18.283 74.4696 18.283C74.3377 18.283 74.2284 18.1848 74.2113 18.0573C74.1921 18.0273 74.0308 17.8242 73.1935 17.8242C72.1703 17.8242 67.6713 18.2455 67.171 18.6327C66.2503 19.3458 64.5995 23.4484 64.0411 24.9693C64.0021 25.0743 63.9024 25.1397 63.7964 25.1397H63.7957Z" fill="black"/>
<path d="M42.5047 66.1732C41.7877 66.1732 41.1144 66.0532 40.5211 65.7751C39.666 65.3736 39.0632 64.6837 38.7303 63.7252C37.9982 61.6173 38.6216 58.2421 40.3995 54.6971C42.6031 50.3014 49.6024 44.6035 52.2367 42.4588C55.1383 40.0974 58.5409 36.0704 58.575 36.0302C58.6243 35.9716 58.6974 35.9375 58.7746 35.9375H59.0111C59.0446 35.9375 59.0774 35.9436 59.1082 35.9566C59.1636 35.9784 60.4855 36.5251 62.4534 38.6657C63.8026 40.1335 64.5142 41.3899 64.8184 42.0075C64.992 42.3607 64.8874 42.7909 64.5634 43.054L64.5019 43.1038C63.7049 43.75 62.7138 44.5545 60.8744 47.0128C59.7582 48.505 58.342 50.3157 56.8423 52.2327C54.6694 55.0107 52.4226 57.8828 51.1889 59.6764C49.1048 62.7053 46.6394 63.8997 46.5355 63.9488C46.4056 64.0094 46.2504 63.9556 46.1882 63.8261C46.126 63.6965 46.1814 63.5418 46.3113 63.4797C46.3359 63.4682 48.759 62.2895 50.759 59.3826C52.0023 57.576 54.2538 54.6971 56.4315 51.913C57.9291 49.998 59.344 48.1894 60.4568 46.7026C62.3344 44.1925 63.3536 43.3655 64.1731 42.7009L64.2346 42.6511C64.3481 42.5591 64.4281 42.3948 64.3508 42.2373C64.059 41.6442 63.3748 40.4375 62.0699 39.0175C60.3857 37.1851 59.1916 36.5688 58.9565 36.4583H58.8963C58.3652 37.0801 55.2593 40.6714 52.5676 42.8631C49.9565 44.9887 43.0201 50.6347 40.8663 54.931C39.176 58.3027 38.5464 61.6084 39.2238 63.5568C39.5095 64.3783 40.0208 64.9673 40.7446 65.3068C43.7679 66.7254 49.1657 63.6175 51.1643 61.9813C53.4356 60.1229 58.2757 55.5581 58.3242 55.5118C58.4288 55.4136 58.5935 55.4177 58.6926 55.522C58.7917 55.6263 58.7869 55.7906 58.6824 55.8895C58.6338 55.9351 53.7801 60.5129 51.4951 62.3829C49.7966 63.7729 45.7132 66.1753 42.5061 66.1753L42.5047 66.1732Z" fill="black"/>
<path d="M92.4165 37.129C92.3605 37.129 92.3038 37.1112 92.2566 37.0737C92.1664 37.0035 90.0488 35.3435 89.7959 34.0844C89.6845 33.5267 89.5751 32.1197 89.4596 30.6301C89.3304 28.966 89.1848 27.0797 89.0297 26.4314C88.7775 25.3747 88.109 24.2812 87.5198 23.3166C87.3838 23.0943 87.2512 22.8762 87.1254 22.6635C86.6025 21.7773 86.1773 21.1092 85.7481 20.497C85.6818 20.4022 85.6175 20.3034 85.5519 20.2038C85.3058 19.8275 85.0741 19.4724 84.7146 19.2897C84.3366 19.0974 83.8554 19.0701 83.3906 19.0436C83.1917 19.032 82.986 19.0204 82.7905 18.9958C82.3503 18.9406 81.9101 18.8888 81.4692 18.837C80.5888 18.7334 79.6791 18.6257 78.7857 18.4941C78.3455 18.4293 77.9176 18.3768 77.5287 18.4498C77.1097 18.5282 77.0762 18.6236 77.0755 19.1213C77.0755 19.2644 76.9586 19.381 76.8151 19.381C76.6709 19.381 76.554 19.2644 76.5547 19.1206C76.5554 18.5643 76.6224 18.0912 77.4323 17.9385C77.8999 17.8505 78.3954 17.9105 78.8623 17.9794C79.7481 18.1103 80.6538 18.2173 81.5307 18.3202C81.9723 18.3721 82.4145 18.4246 82.8554 18.4798C83.0345 18.5023 83.2218 18.5132 83.4207 18.5241C83.9395 18.5534 84.476 18.5841 84.9518 18.8261C85.435 19.0715 85.7289 19.5221 85.9887 19.9189C86.0509 20.0136 86.1117 20.1077 86.1753 20.1977C86.6127 20.8215 87.044 21.4998 87.5745 22.3983C87.6989 22.609 87.8308 22.8244 87.9648 23.0446C88.5745 24.0419 89.2655 25.1722 89.5369 26.3093C89.7009 26.9972 89.8424 28.8229 89.9798 30.5885C90.0939 32.0617 90.2019 33.4538 90.3072 33.9808C90.4856 34.8704 92.0064 36.2182 92.5772 36.6627C92.6906 36.7513 92.7111 36.9142 92.6223 37.0274C92.571 37.0928 92.4945 37.1276 92.4165 37.1276V37.129Z" fill="black"/>
<path d="M88.202 41.721C88.1282 41.721 88.055 41.6896 88.0038 41.6296C87.8582 41.4592 84.433 37.4384 84.068 35.9822C83.7844 34.8512 82.9525 30.5025 82.608 28.6851C82.524 28.2426 82.2916 27.8343 81.9532 27.5364C81.4871 27.126 80.7612 26.539 79.9457 26.0707C79.7837 25.9943 78.0517 25.1667 76.9676 24.337C76.4098 23.9103 76.1405 23.3847 76.282 22.9988C76.3702 22.7575 76.5985 22.6212 76.902 22.6341C78.0373 22.6832 80.3203 23.5435 81.2492 23.911C81.457 23.9935 81.6525 24.1039 81.8302 24.2409L83.7974 25.7728L82.6593 22.7493C82.4959 22.3178 82.1665 21.7758 81.5219 21.6456L77.5226 21.0137C76.9737 20.9032 76.5233 20.5848 76.2765 20.1376C76.094 19.807 76.0537 19.4948 76.1583 19.2098C76.2431 18.9773 76.3845 18.5888 79.8644 19.0407C81.5376 19.2582 83.3579 19.5984 83.8678 19.7579C84.8766 20.0722 86.9361 24.7624 87.3387 25.6991C87.3954 25.8307 87.3339 25.9841 87.202 26.0407C87.0701 26.0973 86.917 26.0359 86.8602 25.9043C85.7215 23.2545 84.2328 20.4165 83.7126 20.2542C82.5089 19.8793 77.2649 19.096 76.6368 19.4246C76.6033 19.5554 76.6361 19.7109 76.7331 19.8874C76.9061 20.2004 77.2273 20.4246 77.6156 20.503L81.6149 21.135C82.3114 21.2754 82.8514 21.7833 83.148 22.5673L84.4221 25.9534C84.4939 26.1129 84.4453 26.3093 84.2943 26.4265C84.1439 26.5438 83.9409 26.5438 83.7905 26.4265L81.5123 24.6527C81.3743 24.547 81.2212 24.4598 81.0585 24.3957C80.3531 24.1162 77.9669 23.202 76.8808 23.1549C76.8323 23.1515 76.7803 23.1604 76.7735 23.1781C76.7379 23.2749 76.8528 23.594 77.2868 23.9266C78.3558 24.7447 80.161 25.5982 80.1795 25.6071C80.1856 25.6098 80.1918 25.6132 80.1979 25.6166C81.0544 26.1075 81.8138 26.721 82.2998 27.1485C82.7249 27.5227 83.0168 28.0347 83.122 28.5903C83.4659 30.403 84.2957 34.7401 84.5759 35.8581C84.8548 36.9694 87.433 40.1598 88.4029 41.2949C88.4966 41.404 88.4829 41.5682 88.3736 41.661C88.3243 41.7025 88.2642 41.723 88.2047 41.723L88.202 41.721ZM83.9334 26.1388C83.9341 26.1422 83.9361 26.1457 83.9375 26.1491L83.9334 26.1388Z" fill="black"/>
<path d="M88.6038 24.9177C88.4978 24.9177 88.398 24.8523 88.3591 24.7473C87.8266 23.2946 86.2415 19.3692 85.3208 18.6561C84.8205 18.2689 80.3215 17.8476 79.2983 17.8476C78.4603 17.8476 78.299 18.0507 78.2805 18.0807C78.2634 18.2082 78.1547 18.3064 78.0221 18.3064C77.8779 18.3064 77.7617 18.1898 77.7617 18.0467C77.7617 17.9267 77.8355 17.3281 79.2983 17.3281C79.9647 17.3281 84.9196 17.6874 85.6407 18.2457C86.8676 19.196 88.7685 24.3499 88.8485 24.5687C88.8977 24.7037 88.8287 24.853 88.6933 24.9021C88.6639 24.913 88.6332 24.9177 88.6038 24.9177Z" fill="black"/>
<path d="M109.959 66.2049C107.847 66.2049 105.498 65.1625 104.074 64.4072C102.937 63.8038 101.815 63.0737 100.997 62.4043C98.7119 60.5343 93.8582 55.9565 93.8097 55.9108C93.7051 55.812 93.7003 55.6477 93.7994 55.5434C93.8985 55.4391 94.0633 55.435 94.1678 55.5332C94.2164 55.5788 99.0564 60.1443 101.328 62.0027C102.121 62.6517 103.211 63.3607 104.319 63.949C105.782 64.7255 109.436 66.4135 111.747 65.3288C112.471 64.9893 112.983 64.4003 113.268 63.5789C113.945 61.6305 113.315 58.3248 111.625 54.953C109.471 50.6575 102.536 45.0108 99.9245 42.8852C97.2327 40.6941 94.1261 37.1021 93.595 36.4804H93.5349C93.3011 36.5902 92.1063 37.2064 90.4214 39.0396C89.1166 40.4589 88.4317 41.6663 88.1398 42.2594C88.0619 42.4175 88.1419 42.5811 88.256 42.6732L88.3176 42.7229C89.1371 43.3876 90.1562 44.2139 92.0339 46.7246C93.1466 48.2122 94.5615 50.0208 96.0591 51.9357C98.2369 54.7192 100.488 57.5981 101.731 59.4047C103.736 62.319 106.154 63.4902 106.179 63.5018C106.309 63.5639 106.364 63.7186 106.302 63.8481C106.24 63.9777 106.085 64.0329 105.955 63.9715C105.851 63.9224 103.386 62.7281 101.302 59.6992C100.068 57.9056 97.822 55.0335 95.649 52.2561C94.1494 50.3391 92.7331 48.5278 91.6169 47.0362C89.7776 44.5779 88.7864 43.7735 87.9895 43.1272L87.9279 43.0774C87.604 42.8143 87.4994 42.3841 87.673 42.031C87.9772 41.4127 88.6894 40.1569 90.038 38.6892C92.0058 36.5486 93.3278 36.0025 93.3831 35.98C93.4139 35.9678 93.4467 35.9609 93.4802 35.9609H93.7167C93.7939 35.9609 93.8664 35.995 93.9163 36.0537C93.9505 36.0939 97.3531 40.1208 100.255 42.4823C102.89 44.6277 109.888 50.3248 112.093 54.7206C113.87 58.2662 114.494 61.6414 113.761 63.7486C113.428 64.7071 112.825 65.397 111.97 65.7985C111.356 66.0862 110.671 66.2049 109.959 66.2049H109.959Z" fill="black"/>
<path d="M60.5678 64.2946C60.4475 64.2946 60.3402 64.2114 60.3135 64.09C60.3039 64.0457 59.3429 59.6234 58.9348 57.8182C58.5343 56.0478 57.3169 53.7811 57.3046 53.7586C57.2363 53.6318 57.2841 53.4743 57.4106 53.4061C57.537 53.3379 57.6956 53.3857 57.7633 53.5118C57.8145 53.6072 59.0257 55.863 59.4427 57.7037C59.8521 59.5116 60.8132 63.9353 60.8227 63.9803C60.8535 64.1207 60.7639 64.2591 60.6231 64.2891C60.6047 64.2932 60.5862 64.2952 60.5678 64.2952V64.2946Z" fill="black"/>
<path d="M74.968 17.4828C74.8866 17.4828 74.8074 17.4453 74.7561 17.3744C74.672 17.2579 74.6987 17.0956 74.8156 17.0118C75.5189 16.5073 76.3781 16.4228 77.2872 16.3328C78.2872 16.2339 79.3213 16.1317 80.2434 15.4568C80.3596 15.3715 80.5223 15.3968 80.6077 15.5127C80.6925 15.6286 80.6679 15.7908 80.5517 15.876C79.5148 16.6355 78.3589 16.7493 77.3384 16.8502C76.5004 16.9327 75.7096 17.0111 75.1197 17.4338C75.0739 17.4665 75.0206 17.4828 74.968 17.4828Z" fill="black"/>
<path d="M72.2179 17.6731C72.1892 17.6731 72.1605 17.6684 72.1318 17.6581C71.9958 17.6104 71.924 17.4625 71.9719 17.3268C71.9794 17.305 71.9876 17.277 71.9978 17.2443C72.1263 16.823 72.4667 15.7043 74.112 15.3464C74.6937 15.2196 75.816 14.7731 77.8632 13.3619C77.9274 13.3176 77.9698 13.2883 77.9869 13.2781C78.1092 13.2017 78.2699 13.2385 78.3464 13.3606C78.423 13.4819 78.3861 13.6428 78.2637 13.7185C78.2494 13.7273 78.2138 13.7525 78.1598 13.7894C76.4606 14.9612 75.1359 15.6559 74.2234 15.8543C72.8769 16.1474 72.6103 17.0221 72.4961 17.3957C72.4838 17.4366 72.4729 17.4713 72.4633 17.4986C72.4257 17.6056 72.3252 17.6724 72.2172 17.6724L72.2179 17.6731Z" fill="black"/>
<path d="M83.0608 18.0146C83.0095 18.0146 82.9576 17.9996 82.9125 17.9682C82.7942 17.8864 82.7648 17.7249 82.8469 17.6069C83.2044 17.0922 83.1879 16.5407 83.0704 15.8979C82.6008 16.4078 81.9036 16.6593 81.3616 16.7827C81.2454 16.8093 81.1381 16.8305 81.0342 16.8516C80.6384 16.9307 80.326 16.9927 79.7389 17.294C79.6111 17.3595 79.4539 17.309 79.3882 17.1815C79.3226 17.0541 79.3725 16.8973 79.501 16.8311C80.1531 16.4964 80.5318 16.4214 80.9323 16.3417C81.0314 16.3219 81.1346 16.3014 81.2461 16.2762C81.689 16.1753 82.4873 15.9183 82.8537 15.3279C82.9323 15.2018 83.0765 15.1364 83.2221 15.1616C83.3664 15.1861 83.4791 15.2952 83.5099 15.4384C83.7006 16.3273 83.8147 17.1263 83.2761 17.9021C83.2255 17.9751 83.1442 18.0139 83.0615 18.0139L83.0608 18.0146Z" fill="black"/>
<path d="M71.9901 17.6743C71.9027 17.6743 71.8172 17.6307 71.768 17.5509C71.4707 17.0703 70.9526 15.7914 72.5541 14.3114C72.66 14.2139 72.8247 14.2201 72.9225 14.3257C73.0202 14.4307 73.0141 14.5957 72.9081 14.6932C71.6374 15.8678 71.9259 16.8174 72.2116 17.2789C72.2868 17.401 72.2492 17.5612 72.1262 17.6368C72.0838 17.6628 72.0366 17.6757 71.9895 17.6757L71.9901 17.6743Z" fill="black"/>
<path d="M71.5008 51.902C71.4783 51.902 71.455 51.8992 71.4318 51.8945C71.2766 51.8597 71.0422 51.8072 69.8241 49.2453C69.2035 47.9391 68.4783 46.2839 68.0196 45.1256C66.8276 42.1145 67.1488 39.7884 67.1632 39.691C67.1844 39.5492 67.3156 39.451 67.4585 39.4714C67.6006 39.4919 67.6997 39.6235 67.6792 39.7659C67.6758 39.7884 67.3669 42.0606 68.5043 44.9348C69.3901 47.1715 70.9533 50.5331 71.4858 51.2775C71.5938 51.1275 71.712 50.9223 71.8344 50.7096C72.2636 49.9631 72.8522 48.9412 73.8583 48.7838C74.5863 48.6699 75.3867 49.0176 76.3026 49.8486C76.4092 49.9454 76.4167 50.1097 76.3204 50.2154C76.2233 50.3217 76.0586 50.3292 75.9519 50.2331C75.1713 49.5248 74.494 49.2105 73.939 49.2971C73.1802 49.4164 72.6847 50.2767 72.2862 50.968C72.0798 51.3259 71.9021 51.6354 71.7038 51.8215C71.6471 51.874 71.576 51.9026 71.5001 51.9026L71.5008 51.902Z" fill="black"/>
<path d="M80.9464 52.1427C80.7625 52.1427 80.6545 51.9948 80.403 51.6519C79.7345 50.7391 78.3422 48.8371 76.2793 50.2544C76.1603 50.3355 75.9984 50.3062 75.917 50.1876C75.8357 50.0696 75.8651 49.9074 75.984 49.8262C78.4631 48.1219 80.1788 50.4637 80.8247 51.3451C80.8534 51.3847 80.8835 51.4256 80.9129 51.4651C81.0127 51.3015 81.1296 51.1133 81.2594 50.9034C82.1097 49.5304 83.5328 47.2323 84.2574 45.4019C85.3995 42.5168 85.187 39.7777 85.1842 39.7504C85.1726 39.6072 85.2786 39.4818 85.4221 39.4695C85.5643 39.4586 85.6914 39.5636 85.7037 39.7068C85.714 39.8233 85.9313 42.5898 84.742 45.5928C84.0004 47.4661 82.5622 49.7888 81.7024 51.1767C81.4953 51.5115 81.3216 51.7916 81.1986 51.9996C81.1487 52.0841 81.0612 52.138 80.9642 52.1421C80.958 52.1421 80.9525 52.1421 80.9464 52.1421V52.1427Z" fill="black"/>
<path d="M92.3587 64.4379C92.3478 64.4379 92.3369 64.4379 92.3259 64.4358C92.1831 64.4181 92.0819 64.2879 92.0997 64.1454C92.3451 62.1957 92.5843 60.4157 93.0341 58.3746C93.3827 56.793 93.7825 55.2033 94.2227 53.6503C94.2624 53.5119 94.4066 53.4315 94.5446 53.471C94.6834 53.5105 94.7634 53.6537 94.7244 53.7921C94.287 55.3355 93.8891 56.9151 93.5426 58.4871C93.0976 60.5071 92.8598 62.2748 92.6164 64.2109C92.6 64.3424 92.4872 64.4385 92.3581 64.4385L92.3587 64.4379Z" fill="black"/>
<path d="M76.2889 50.3426C76.2691 50.3426 76.25 50.3406 76.2308 50.3358C76.1502 50.3174 76.0832 50.2615 76.0504 50.1858C75.7442 49.4823 75.2691 48.8517 74.6765 48.3629C74.5658 48.2715 74.5501 48.1079 74.6417 47.9968C74.7332 47.8857 74.898 47.8707 75.0087 47.962C75.574 48.4283 76.0422 49.0105 76.3771 49.6609C76.913 49.1871 77.4311 48.684 77.9198 48.1618C78.0183 48.0568 78.183 48.0513 78.2883 48.1495C78.3935 48.2477 78.399 48.412 78.3006 48.517C77.7209 49.136 77.101 49.7291 76.4591 50.2799C76.4113 50.3208 76.3511 50.3426 76.2896 50.3426H76.2889Z" fill="black"/>
<path d="M76.3712 64.489C76.2338 64.489 76.119 64.382 76.1115 64.2436C76.0876 63.823 75.525 53.8957 76.0301 50.0508C76.0486 49.9083 76.1826 49.8074 76.322 49.8265C76.4649 49.8449 76.5653 49.9758 76.5469 50.1176C76.0486 53.9141 76.6262 64.1107 76.6323 64.2136C76.6405 64.3568 76.5305 64.4795 76.3869 64.4877C76.3822 64.4877 76.3767 64.4877 76.3719 64.4877L76.3712 64.489Z" fill="black"/>
<path d="M150.738 64.4882H113.268C113.124 64.4882 113.008 64.3716 113.008 64.2285C113.008 64.0853 113.125 63.9688 113.268 63.9688H150.738C150.883 63.9688 150.999 64.0853 150.999 64.2285C150.999 64.3716 150.882 64.4882 150.738 64.4882Z" fill="black"/>
<path d="M104.199 64.4882H48.1589C48.0146 64.4882 47.8984 64.3716 47.8984 64.2285C47.8984 64.0853 48.0153 63.9688 48.1589 63.9688H104.199C104.343 63.9688 104.459 64.0853 104.459 64.2285C104.459 64.3716 104.342 64.4882 104.199 64.4882Z" fill="black"/>
<path d="M39.867 64.4882H0.264329C0.120105 64.4882 0.00390625 64.3716 0.00390625 64.2285C0.00390625 64.0853 0.120789 63.9688 0.264329 63.9688H39.867C40.0112 63.9688 40.1274 64.0853 40.1274 64.2285C40.1274 64.3716 40.0106 64.4882 39.867 64.4882Z" fill="black"/>
<path d="M138.844 80.3515L139.451 80.2472L140.937 79.9922L126.399 66.2773L111.389 68.013L113.306 70.3854L113.507 70.6335L103.898 71.2198L113.802 89.4988L130.634 86.1986L127.226 82.3455L127.528 82.2937L130.83 86.0261C130.891 86.0964 130.911 86.1938 130.881 86.2818C130.851 86.3697 130.777 86.4352 130.685 86.4536L126.002 87.3719L128.002 90.1274L144.973 87.1258L138.843 80.3515H138.844Z" fill="white"/>
<path d="M104.47 87.1927L97.5752 68.7773H82.7721L82.9143 69.8347L82.9491 70.0951H72.3846L71.7578 90.4111H90.9395L90.3599 87.7803L90.6244 87.7694L104.47 87.1927Z" fill="white"/>
<path d="M145.678 87.1279L139.453 80.25L138.845 80.3543L144.976 87.1286L128.004 90.1302L126.005 87.3747L125.441 87.4851L127.677 90.5665C127.726 90.6347 127.806 90.6742 127.888 90.6742C127.903 90.6742 127.919 90.6729 127.934 90.6701L145.53 87.5581C145.623 87.5417 145.7 87.4763 145.73 87.3863C145.761 87.297 145.741 87.1981 145.677 87.1279H145.678Z" fill="black"/>
<path d="M126.005 87.3725L130.688 86.4542C130.779 86.4365 130.854 86.371 130.884 86.2824C130.914 86.1945 130.894 86.097 130.832 86.0268L127.53 82.2943L126.927 82.398L130.141 86.0316L125.588 86.9246L113.943 89.2084L104.324 71.4557L113.524 70.8946C113.58 70.8912 113.628 70.8666 113.669 70.8339L113.308 70.3867L103.885 70.9614C103.796 70.9669 103.716 71.0173 103.673 71.0943C103.63 71.1721 103.63 71.2661 103.672 71.3445L113.576 89.6235C113.621 89.7088 113.71 89.7599 113.805 89.7599C113.821 89.7599 113.838 89.7585 113.855 89.7551L125.442 87.4829L126.005 87.3725Z" fill="black"/>
<path d="M123.489 83.2463C123.411 83.2463 123.336 83.2115 123.286 83.1495L111.186 68.1748C111.127 68.1011 111.113 68.0009 111.148 67.913C111.184 67.8257 111.265 67.7644 111.359 67.7534L126.369 66.0178C126.445 66.0076 126.522 66.0341 126.578 66.0873L141.117 79.8022C141.188 79.8697 141.216 79.972 141.187 80.066C141.158 80.1601 141.079 80.2303 140.982 80.2467L123.533 83.2422C123.519 83.2449 123.503 83.2463 123.488 83.2463H123.489ZM111.889 68.2157L123.596 82.7043L140.38 79.8227L126.308 66.5482L111.889 68.2157Z" fill="black"/>
<path d="M90.6233 87.7668L90.0942 87.7886L90.6144 90.148H72.0253L72.6363 70.3515H82.9835L82.9138 69.832H72.3834C72.2426 69.832 72.1271 69.9438 72.123 70.0843L71.4962 90.4003C71.4942 90.4705 71.5208 90.5386 71.5693 90.5891C71.6186 90.6395 71.6855 90.6682 71.7566 90.6682H90.9384C91.0177 90.6682 91.0922 90.6327 91.1414 90.5714C91.1906 90.51 91.2097 90.4296 91.1926 90.3525L90.6226 87.7675L90.6233 87.7668Z" fill="black"/>
<path d="M85.3562 88.2474C85.2263 88.2474 85.1156 88.1513 85.0978 88.0217L82.5141 68.8101C82.5038 68.7358 82.5271 68.6608 82.5763 68.6042C82.6255 68.5477 82.6973 68.5156 82.7725 68.5156H97.5755C97.6842 68.5156 97.7813 68.5831 97.8196 68.6847L104.714 87.0994C104.744 87.1771 104.733 87.2643 104.688 87.3339C104.641 87.4034 104.565 87.4464 104.481 87.4498L85.3671 88.246C85.3637 88.246 85.3596 88.246 85.3562 88.246V88.2474ZM83.0705 69.0358L85.5831 87.7177L104.101 86.946L97.3951 69.0358H83.0705Z" fill="black"/>
<path d="M79.8609 5.58616C79.4535 5.62775 78.7283 5.64888 77.6859 5.64888C77.4344 5.64888 77.3086 5.53231 77.3086 5.29916C77.3086 5.06601 77.4344 4.94944 77.6859 4.94944C77.9224 4.94944 78.2778 4.93921 78.7508 4.91808C79.2238 4.89694 79.5793 4.88672 79.8158 4.88672C80.0823 4.88672 80.2156 5.00329 80.2156 5.23644C80.2156 5.44232 80.0974 5.5589 79.8609 5.58616Z" fill="#A0C1D8"/>
<path d="M84.0862 0.381082V1.13848H84.104C84.3917 1.13848 84.7198 1.18756 85.0883 1.28641C85.5708 1.41525 85.8121 1.57955 85.8121 1.77929C85.8121 2.04244 85.6788 2.17333 85.4122 2.17333C85.2926 2.17333 85.0821 2.14129 84.7807 2.07721C84.4792 2.01312 84.2482 1.98245 84.0862 1.98517V3.80946C84.7485 3.86945 85.2667 4.08556 85.6412 4.45914C85.983 4.80546 86.1532 5.22404 86.1532 5.71419C86.1532 6.31479 85.9447 6.81177 85.5285 7.20648C85.16 7.5528 84.6788 7.78117 84.0862 7.89229V9.08463C84.0862 9.2012 84.0479 9.29732 83.9714 9.37368C83.8948 9.45003 83.7985 9.48821 83.6816 9.48821C83.4177 9.48821 83.2865 9.35663 83.2865 9.09349V7.95092C81.8244 7.92979 81.0938 7.55212 81.0938 6.81722C81.0938 6.54862 81.2181 6.41364 81.467 6.41364C81.6078 6.41364 81.7424 6.46886 81.8716 6.5793C82.063 6.74359 82.2086 6.8513 82.3077 6.90175C82.5476 7.02105 82.8736 7.08991 83.2872 7.10763V4.56617H83.2509C82.7868 4.54845 82.3849 4.4346 82.0466 4.22531C81.6269 3.9683 81.4171 3.61108 81.4171 3.15433C81.4171 2.74529 81.6091 2.35944 81.9926 1.99813C82.346 1.6634 82.7773 1.42003 83.2865 1.268V0.40767C83.2865 0.291096 83.3261 0.19429 83.4054 0.116574C83.4847 0.0388576 83.5825 0 83.6993 0C83.957 0 84.0862 0.1268 84.0862 0.381082ZM83.2865 3.73788V2.12902C82.6905 2.3533 82.3924 2.69962 82.3924 3.16864C82.3924 3.45838 82.6905 3.64857 83.2865 3.73788ZM84.0862 4.68343V7.01424C84.4034 6.90652 84.6686 6.74836 84.8812 6.53908C85.1176 6.29979 85.2359 6.04142 85.2359 5.76396C85.2359 5.24449 84.8524 4.88386 84.0855 4.68411L84.0862 4.68343Z" fill="#A0C1D8"/>
<path d="M94.8666 12.2013C94.3416 12.2552 93.4072 12.2825 92.0641 12.2825C91.7401 12.2825 91.5781 12.1325 91.5781 11.8318C91.5781 11.5312 91.7401 11.3812 92.0641 11.3812C92.369 11.3812 92.8262 11.3676 93.4366 11.341C94.0463 11.3144 94.5036 11.3008 94.8091 11.3008C95.1523 11.3008 95.3245 11.4508 95.3245 11.7514C95.3245 12.0173 95.1721 12.1672 94.8672 12.202L94.8666 12.2013Z" fill="#5586B7"/>
<path d="M100.308 5.49474V6.47029H100.331C100.701 6.47029 101.124 6.53369 101.599 6.66117C102.22 6.82683 102.531 7.03816 102.531 7.29654C102.531 7.63535 102.359 7.80442 102.016 7.80442C101.861 7.80442 101.59 7.76283 101.202 7.68034C100.815 7.59786 100.517 7.55832 100.308 7.56173V9.91162C101.161 9.98866 101.829 10.2675 102.311 10.7488C102.751 11.1953 102.971 11.7345 102.971 12.3658C102.971 13.1396 102.703 13.7804 102.167 14.289C101.692 14.7355 101.072 15.03 100.308 15.1725V16.7084C100.308 16.8584 100.259 16.9824 100.161 17.0806C100.062 17.1788 99.9377 17.2279 99.7873 17.2279C99.4476 17.2279 99.2781 17.0581 99.2781 16.72V15.2475C97.3943 15.2209 96.4531 14.7334 96.4531 13.7865C96.4531 13.4402 96.6131 13.2671 96.9336 13.2671C97.1148 13.2671 97.2884 13.3386 97.4545 13.4804C97.7012 13.6925 97.8885 13.8308 98.0157 13.8963C98.3246 14.0504 98.745 14.139 99.2781 14.1622V10.8878H99.2316C98.6336 10.8647 98.1161 10.7188 97.68 10.4488C97.1394 10.1175 96.8694 9.65802 96.8694 9.06901C96.8694 8.54136 97.1161 8.04507 97.6103 7.57945C98.0656 7.1486 98.6213 6.83433 99.2781 6.63799V5.52951C99.2781 5.37953 99.3294 5.2541 99.4312 5.15388C99.5338 5.05367 99.6602 5.00391 99.8106 5.00391C100.143 5.00391 100.309 5.16752 100.309 5.49474H100.308ZM99.2768 9.82027V7.74715C98.5085 8.0362 98.1243 8.48273 98.1243 9.08674C98.1243 9.46032 98.5085 9.70438 99.2768 9.82027ZM100.308 11.0385V14.0415C100.716 13.9031 101.058 13.6993 101.332 13.4293C101.637 13.1212 101.789 12.7885 101.789 12.4306C101.789 11.7605 101.295 11.2969 100.308 11.0392V11.0385Z" fill="#5586B7"/>
<path d="M34.804 39.1565C34.1437 39.2246 32.9694 39.258 31.2797 39.258C30.8717 39.258 30.668 39.0692 30.668 38.6915C30.668 38.3139 30.8717 38.125 31.2797 38.125C31.6632 38.125 32.238 38.108 33.0049 38.0746C33.7719 38.0405 34.3474 38.0234 34.7308 38.0234C35.1628 38.0234 35.3788 38.2123 35.3788 38.5899C35.3788 38.924 35.1867 39.1128 34.8033 39.1565H34.804Z" fill="#5586B7"/>
<path d="M41.6465 30.727V31.9541H41.6759C42.142 31.9541 42.6731 32.0339 43.2705 32.1934C44.0518 32.4013 44.4428 32.6679 44.4428 32.9924C44.4428 33.4185 44.2268 33.6311 43.7948 33.6311C43.6007 33.6311 43.2596 33.5793 42.7716 33.475C42.2835 33.3707 41.9089 33.3216 41.6465 33.3257V36.2817C42.7189 36.3785 43.559 36.7296 44.1659 37.3349C44.7196 37.8967 44.9957 38.5743 44.9957 39.3678C44.9957 40.3413 44.6581 41.1471 43.9834 41.7859C43.3867 42.3476 42.6075 42.7178 41.6465 42.8971V44.8284C41.6465 45.0173 41.5843 45.1734 41.4606 45.2968C41.3368 45.4202 41.1803 45.4822 40.991 45.4822C40.5638 45.4822 40.3498 45.2695 40.3498 44.8434V42.9919C37.9814 42.9578 36.7969 42.3456 36.7969 41.1546C36.7969 40.719 36.9985 40.5009 37.4011 40.5009C37.6294 40.5009 37.8475 40.5908 38.0566 40.7695C38.3669 41.0353 38.6027 41.2099 38.7627 41.2923C39.1509 41.4859 39.68 41.5971 40.3498 41.6264V37.5088H40.2917C39.5392 37.4795 38.8891 37.2961 38.3403 36.9566C37.6608 36.5401 37.3211 35.962 37.3211 35.2209C37.3211 34.5576 37.6315 33.9332 38.2528 33.3476C38.8256 32.8056 39.5241 32.4109 40.3498 32.1641V30.77C40.3498 30.5811 40.4141 30.4237 40.5426 30.2982C40.6711 30.1721 40.8303 30.1094 41.0197 30.1094C41.4373 30.1094 41.6458 30.3153 41.6458 30.7263L41.6465 30.727ZM40.3505 36.1658V33.5589C39.3847 33.9222 38.9014 34.484 38.9014 35.2434C38.9014 35.7131 39.384 36.0206 40.3505 36.1658ZM41.6465 37.6983V41.4744C42.1612 41.2998 42.5904 41.0435 42.9349 40.7047C43.3184 40.3175 43.5104 39.8989 43.5104 39.4483C43.5104 38.6057 42.8891 38.0221 41.6465 37.6983Z" fill="#5586B7"/>
<path d="M127.74 51.2151C127.332 51.2567 126.607 51.2778 125.565 51.2778C125.313 51.2778 125.188 51.1612 125.188 50.9281C125.188 50.6949 125.313 50.5783 125.565 50.5783C125.801 50.5783 126.157 50.5681 126.63 50.547C127.103 50.5258 127.458 50.5156 127.695 50.5156C127.961 50.5156 128.095 50.6322 128.095 50.8653C128.095 51.0712 127.976 51.1878 127.74 51.2151Z" fill="#A0C1D8"/>
<path d="M131.966 46.01V46.7674H131.984C132.271 46.7674 132.599 46.8165 132.968 46.9153C133.45 47.0442 133.691 47.2078 133.691 47.4082C133.691 47.6713 133.558 47.8022 133.291 47.8022C133.172 47.8022 132.961 47.7702 132.66 47.7061C132.358 47.642 132.127 47.6114 131.965 47.6141V49.4384C132.627 49.4984 133.146 49.7145 133.52 50.0881C133.861 50.4344 134.032 50.8529 134.032 51.3431C134.032 51.9437 133.824 52.4407 133.407 52.8354C133.039 53.1817 132.558 53.4108 131.965 53.5212V54.7135C131.965 54.8301 131.927 54.9262 131.85 55.0026C131.774 55.0789 131.677 55.1171 131.56 55.1171C131.297 55.1171 131.165 54.9855 131.165 54.7224V53.5798C129.703 53.5587 128.973 53.181 128.973 52.4454C128.973 52.1768 129.097 52.0419 129.346 52.0419C129.487 52.0419 129.621 52.0971 129.751 52.2075C129.942 52.3718 130.087 52.4795 130.187 52.53C130.426 52.6493 130.753 52.7181 131.166 52.7359V50.1944H131.13C130.666 50.1767 130.264 50.0628 129.925 49.8542C129.506 49.5972 129.296 49.24 129.296 48.7832C129.296 48.3742 129.488 47.9883 129.871 47.627C130.225 47.2923 130.656 47.0489 131.165 46.8969V46.0366C131.165 45.92 131.205 45.8232 131.284 45.7455C131.364 45.6678 131.461 45.6289 131.578 45.6289C131.836 45.6289 131.965 45.7557 131.965 46.01H131.966ZM131.166 49.3675V47.7586C130.57 47.9829 130.272 48.3292 130.272 48.7982C130.272 49.088 130.57 49.2782 131.166 49.3675ZM131.966 50.313V52.6438C132.283 52.5361 132.548 52.3779 132.761 52.1687C132.997 51.9294 133.115 51.671 133.115 51.3929C133.115 50.8734 132.732 50.5128 131.965 50.313H131.966Z" fill="#A0C1D8"/>
<path d="M51.4835 21.8902C51.1015 21.929 50.4213 21.9488 49.4439 21.9488C49.2081 21.9488 49.0898 21.8397 49.0898 21.6209C49.0898 21.4021 49.2081 21.293 49.4439 21.293C49.6661 21.293 49.9989 21.2835 50.4425 21.2637C50.8861 21.2439 51.219 21.2344 51.4412 21.2344C51.6913 21.2344 51.8164 21.3435 51.8164 21.5623C51.8164 21.7559 51.7057 21.865 51.4835 21.8902Z" fill="#5586B7"/>
<path d="M55.4426 17.0102V17.7206H55.4597C55.729 17.7206 56.0372 17.767 56.3824 17.859C56.8349 17.9797 57.0612 18.1337 57.0612 18.3212C57.0612 18.568 56.9361 18.6914 56.6859 18.6914C56.5738 18.6914 56.3763 18.6614 56.094 18.6007C55.8117 18.5407 55.5943 18.5121 55.4433 18.5148V20.2252C56.0639 20.2811 56.5499 20.4843 56.9012 20.8347C57.2218 21.1599 57.3817 21.5519 57.3817 22.0114C57.3817 22.5745 57.1863 23.0408 56.796 23.4109C56.4501 23.7361 55.9997 23.9502 55.4433 24.0538V25.1718C55.4433 25.2809 55.4077 25.3716 55.336 25.4431C55.2642 25.5147 55.174 25.5502 55.0639 25.5502C54.8165 25.5502 54.6928 25.4268 54.6928 25.18V24.1083C53.3216 24.0886 52.6367 23.7341 52.6367 23.0448C52.6367 22.7926 52.7529 22.6665 52.9867 22.6665C53.1186 22.6665 53.2451 22.7183 53.366 22.8219C53.5458 22.976 53.6818 23.0769 53.7748 23.1246C53.9997 23.2364 54.3059 23.3012 54.6934 23.3182V20.9356H54.6599C54.2245 20.9186 53.8479 20.8122 53.5308 20.6159C53.1377 20.3752 52.9409 20.0398 52.9409 19.6117C52.9409 19.2279 53.1207 18.8666 53.4802 18.5271C53.8117 18.2135 54.2163 17.9851 54.6934 17.8419V17.0348C54.6934 16.9257 54.7304 16.8344 54.8049 16.7614C54.8794 16.6885 54.9716 16.6523 55.081 16.6523C55.3223 16.6523 55.4433 16.7716 55.4433 17.0096L55.4426 17.0102ZM54.6928 20.1584V18.6498C54.1336 18.8598 53.8541 19.1849 53.8541 19.6246C53.8541 19.8967 54.1336 20.0746 54.6928 20.1584ZM55.4426 21.0447V23.2303C55.7406 23.1294 55.9887 22.9808 56.1883 22.7851C56.4105 22.5608 56.5212 22.3188 56.5212 22.0577C56.5212 21.5703 56.1617 21.2328 55.4426 21.0447Z" fill="#5586B7"/>
<path d="M107.831 39.8661C107.306 39.9199 106.372 39.9472 105.029 39.9472C104.705 39.9472 104.543 39.7972 104.543 39.4966C104.543 39.1959 104.705 39.046 105.029 39.046C105.334 39.046 105.791 39.0323 106.401 39.0051C107.011 38.9785 107.468 38.9648 107.774 38.9648C108.118 38.9648 108.289 39.1148 108.289 39.4155C108.289 39.6813 108.137 39.8313 107.832 39.8661H107.831Z" fill="#5586B7"/>
<path d="M113.274 33.1615V34.1371H113.297C113.667 34.1371 114.09 34.2005 114.565 34.3273C115.186 34.4929 115.497 34.705 115.497 34.9626C115.497 35.3015 115.326 35.4705 114.982 35.4705C114.827 35.4705 114.557 35.4296 114.168 35.3465C113.781 35.2633 113.482 35.2244 113.274 35.2278V37.5777C114.127 37.6548 114.795 37.9336 115.277 38.4149C115.717 38.8614 115.937 39.4007 115.937 40.0319C115.937 40.8057 115.669 41.4465 115.133 41.9544C114.659 42.4009 114.039 42.6954 113.274 42.8379V44.3738C113.274 44.5238 113.225 44.6479 113.127 44.746C113.028 44.8442 112.904 44.8933 112.753 44.8933C112.413 44.8933 112.244 44.7235 112.244 44.3847V42.9122C110.36 42.8849 109.418 42.3982 109.418 41.4513C109.418 41.105 109.578 40.9318 109.898 40.9318C110.08 40.9318 110.253 41.0034 110.419 41.1452C110.666 41.3572 110.853 41.4956 110.981 41.561C111.289 41.7151 111.71 41.8037 112.243 41.8269V38.5526H112.196C111.598 38.5294 111.081 38.3835 110.645 38.1136C110.104 37.7822 109.834 37.3228 109.834 36.7331C109.834 36.2054 110.081 35.7091 110.575 35.2435C111.03 34.8127 111.586 34.4984 112.243 34.3021V33.1936C112.243 33.0436 112.294 32.9182 112.396 32.8179C112.499 32.7177 112.625 32.668 112.775 32.668C113.107 32.668 113.274 32.8316 113.274 33.1588V33.1615ZM112.243 37.4864V35.4133C111.475 35.7023 111.091 36.1488 111.091 36.7528C111.091 37.1264 111.475 37.3705 112.243 37.4864ZM113.274 38.7053V41.7083C113.682 41.5699 114.024 41.3654 114.298 41.0961C114.603 40.788 114.756 40.4553 114.756 40.0974C114.756 39.4272 114.261 38.9637 113.274 38.706V38.7053Z" fill="#5586B7"/>
<path d="M19.3235 44.973C18.9476 45.0119 18.2784 45.031 17.3167 45.031C17.0843 45.031 16.9688 44.9233 16.9688 44.7085C16.9688 44.4938 17.0849 44.3861 17.3167 44.3861C17.5347 44.3861 17.8628 44.3765 18.2996 44.3574C18.7363 44.3384 19.0638 44.3281 19.2825 44.3281C19.5285 44.3281 19.6516 44.4358 19.6516 44.6506C19.6516 44.8408 19.5422 44.9485 19.3242 44.973H19.3235Z" fill="#7FA6C6"/>
<path d="M23.2224 40.1728V40.8715H23.2388C23.504 40.8715 23.8068 40.9172 24.1465 41.0079C24.5915 41.1265 24.8143 41.2778 24.8143 41.4626C24.8143 41.7053 24.6913 41.8266 24.4452 41.8266C24.3345 41.8266 24.1403 41.7973 23.8628 41.738C23.5853 41.6787 23.3714 41.6507 23.2224 41.6535V43.3366C23.8334 43.3919 24.3112 43.5916 24.6571 43.9365C24.9722 44.2563 25.1294 44.6428 25.1294 45.0948C25.1294 45.649 24.9373 46.1078 24.5532 46.4719C24.2135 46.7916 23.7699 47.0023 23.2224 47.1045V48.2041C23.2224 48.3118 23.1868 48.4005 23.1164 48.4707C23.046 48.5409 22.9565 48.5763 22.8492 48.5763C22.6058 48.5763 22.4842 48.455 22.4842 48.2123V47.1577C21.1349 47.1386 20.4609 46.7896 20.4609 46.1112C20.4609 45.8631 20.5758 45.739 20.8054 45.739C20.9353 45.739 21.0597 45.7902 21.1786 45.8917C21.3557 46.0438 21.4896 46.1426 21.5805 46.1896C21.8013 46.3001 22.1028 46.3635 22.4842 46.3798V44.0347H22.4507C22.0221 44.0184 21.6516 43.9134 21.3393 43.7204C20.9524 43.4832 20.759 43.1539 20.759 42.7319C20.759 42.3543 20.936 41.9984 21.2901 41.6651C21.6161 41.3562 22.0146 41.1313 22.4842 40.9908V40.1966C22.4842 40.0889 22.5204 39.9996 22.5942 39.928C22.668 39.8564 22.7583 39.8203 22.8656 39.8203C23.1034 39.8203 23.2224 39.9376 23.2224 40.1721V40.1728ZM22.4842 43.2705V41.7857C21.9339 41.9923 21.6592 42.3127 21.6592 42.7456C21.6592 43.0128 21.9339 43.188 22.4842 43.2705ZM23.2224 44.1431V46.2939C23.5156 46.1944 23.7596 46.0485 23.9565 45.8556C24.1745 45.6354 24.2839 45.3968 24.2839 45.1398C24.2839 44.6599 23.9298 44.3279 23.2224 44.1431Z" fill="#7FA6C6"/>
<path d="M38.5159 56.1626C38.4032 55.6186 37.9609 55.2205 37.4332 55.1878L1.471 53.6389C0.716385 53.5918 0.127187 54.3179 0.288499 55.0957L6.65416 76.9885C6.80248 77.7009 7.38143 78.2225 8.07247 78.2654L44.518 80.6903C44.762 80.7026 44.9636 80.5546 45.047 80.3508L43.2459 73.3679L38.5159 56.1619V56.1626Z" fill="#828282"/>
<path d="M60.0973 72.6943L42.7461 71.4297L43.2464 73.3699L45.0475 80.3527L45.0708 80.4421L60.2245 73.6092C60.4043 73.528 60.2915 72.7093 60.0967 72.6943H60.0973Z" fill="#828282"/>
<path d="M45.0798 80.103C44.9807 80.103 44.8857 80.0464 44.8419 79.9496C44.7825 79.8187 44.8412 79.6646 44.9725 79.606L59.822 72.9333L42.7257 71.6871C42.5822 71.6769 42.4742 71.5522 42.4851 71.409C42.4954 71.2658 42.6212 71.1608 42.764 71.1683L60.1153 72.4329C60.3224 72.4486 60.4857 72.5986 60.522 72.8065C60.5596 73.0185 60.455 73.219 60.2622 73.3055L45.1864 80.0798C45.1516 80.0955 45.1153 80.103 45.0798 80.103Z" fill="black"/>
<path d="M44.8193 80.8143C44.7188 80.8143 44.6238 80.7564 44.5808 80.6589C44.5227 80.5273 44.5828 80.3739 44.714 80.3167C50.4249 77.8073 58.9648 74.0162 59.9737 73.4661L60.0004 73.01C60.0086 72.8668 60.1309 72.7591 60.2758 72.7659C60.4194 72.7741 60.5294 72.8975 60.5205 73.0407L60.4864 73.6256C60.4741 73.8308 60.4734 73.8437 57.9225 75.0074C56.6436 75.591 54.861 76.392 52.6245 77.3873C48.8172 79.0814 44.9622 80.7755 44.9239 80.7925C44.8897 80.8075 44.8542 80.8143 44.8186 80.8143H44.8193Z" fill="black"/>
<path d="M19.772 63.7953C18.6435 64.2036 18.1917 65.9141 18.7631 67.615C19.3345 69.3159 20.7125 70.3637 21.841 69.9553C22.9695 69.547 23.4213 67.8365 22.8499 66.1356C22.2785 64.4347 20.9005 63.3869 19.772 63.7953Z" fill="white"/>
<path d="M21.3325 70.3028C21.0338 70.3028 20.7262 70.2292 20.4213 70.082C19.5963 69.6852 18.8841 68.7935 18.5157 67.6966C17.9005 65.8655 18.4241 64.0051 19.6824 63.5497C20.1554 63.3786 20.677 63.4181 21.191 63.6663C22.0153 64.063 22.7275 64.9547 23.0959 66.0516C23.7111 67.8827 23.1875 69.7425 21.9292 70.1985C21.7371 70.2681 21.5368 70.3028 21.3318 70.3028H21.3325ZM20.2798 63.9662C20.1349 63.9662 19.9948 63.9901 19.8615 64.0385C18.8663 64.3984 18.4849 65.9657 19.0105 67.5316C19.3352 68.4983 19.9476 69.2768 20.6482 69.6143C21.0324 69.799 21.4138 69.8324 21.7521 69.7104C22.7473 69.3505 23.1288 67.7832 22.6031 66.2173C22.2784 65.2506 21.666 64.4721 20.9654 64.1346C20.733 64.0228 20.5013 63.9662 20.2798 63.9662Z" fill="black"/>
<path d="M44.4336 80.9441C44.4145 80.9441 44.3961 80.9441 44.3769 80.9421C44.3762 80.9421 8.0524 78.5349 8.0524 78.5349C7.24858 78.4852 6.5671 77.875 6.39622 77.0515L0.0353479 55.1778C-0.0664972 54.6917 0.0544865 54.2206 0.362756 53.8661C0.649152 53.5362 1.05995 53.3651 1.48442 53.3889L37.4419 54.9371C38.0892 54.9773 38.6326 55.4634 38.7686 56.1185L45.3304 79.7682C45.3967 80.0845 45.3154 80.3994 45.1172 80.6278C44.9408 80.8303 44.6948 80.9434 44.4336 80.9434V80.9441ZM44.4104 80.4233C44.5697 80.4315 44.6756 80.3422 44.7228 80.2876C44.8164 80.1799 44.8533 80.0347 44.8233 79.8909L38.2614 56.2412C38.1685 55.7981 37.8219 55.4818 37.4132 55.4566L1.45571 53.9084C1.18777 53.8907 0.934865 54.0011 0.755099 54.207C0.554143 54.4381 0.475537 54.7455 0.539789 55.0523L6.90066 76.9254C7.02916 77.5396 7.51378 77.98 8.08521 78.0154L44.4097 80.4233H44.4104Z" fill="black"/>
</g>
<defs>
<clipPath id="clip0_859_2018">
<rect width="151" height="89" fill="white"/>
</clipPath>
</defs>
</svg>
