<svg width="41" height="41" viewBox="0 0 41 41" fill="none" xmlns="http://www.w3.org/2000/svg">
<path d="M5.76562 36.5156L35.2344 36.5156C35.9431 36.5156 36.5156 35.9431 36.5156 35.2344L36.5156 5.76562C36.5156 5.05693 35.9431 4.48438 35.2344 4.48438L5.76562 4.48438C5.05693 4.48438 4.48437 5.05693 4.48437 5.76563L4.48438 35.2344C4.48438 35.9431 5.05693 36.5156 5.76562 36.5156ZM13.373 16.0156H15.2509C15.6593 16.0156 16.0477 16.2118 16.2879 16.5441L20.5 22.3658L24.7121 16.5441C24.9523 16.2118 25.3367 16.0156 25.7491 16.0156L27.627 16.0156C27.8872 16.0156 28.0394 16.3119 27.8872 16.5241L20.7603 26.3737C20.6321 26.5499 20.3719 26.5499 20.2437 26.3737L13.1168 16.5241C12.9606 16.3119 13.1128 16.0156 13.373 16.0156Z" fill="white"/>
</svg>
