<svg width="50" height="50" viewBox="0 0 50 50" fill="none" xmlns="http://www.w3.org/2000/svg">
<path d="M45.3542 12.0626C45.509 11.9221 45.6341 11.7519 45.7221 11.5622C45.81 11.3725 45.8589 11.167 45.866 10.958C45.873 10.749 45.8381 10.5408 45.7632 10.3455C45.6883 10.1503 45.5749 9.97209 45.4299 9.82146C45.2848 9.67083 45.111 9.55085 44.9188 9.46863C44.7265 9.38641 44.5197 9.34361 44.3106 9.34279C44.1014 9.34196 43.8943 9.38311 43.7014 9.46381C43.5085 9.54451 43.3337 9.66311 43.1875 9.81259L29.125 23.3543C28.9701 23.4947 28.845 23.6649 28.7571 23.8546C28.6692 24.0444 28.6202 24.2498 28.6132 24.4588C28.6061 24.6678 28.6411 24.8761 28.716 25.0713C28.7909 25.2665 28.9042 25.4448 29.0493 25.5954C29.1943 25.746 29.3681 25.866 29.5604 25.9482C29.7527 26.0304 29.9595 26.0732 30.1686 26.0741C30.3777 26.0749 30.5848 26.0337 30.7778 25.953C30.9707 25.8723 31.1454 25.7537 31.2917 25.6043L45.3542 12.0626ZM39.5562 10.4168H9.47916C8.07019 10.4168 6.71894 10.9765 5.72265 11.9727C4.72636 12.969 4.16666 14.3203 4.16666 15.7293V30.1043C4.16666 30.8019 4.30407 31.4927 4.57105 32.1373C4.83802 32.7818 5.22934 33.3674 5.72265 33.8608C6.21596 34.3541 6.80161 34.7454 7.44615 35.0124C8.09069 35.2793 8.78151 35.4168 9.47916 35.4168H40.5208C41.2185 35.4168 41.9093 35.2793 42.5538 35.0124C43.1984 34.7454 43.784 34.3541 44.2773 33.8608C44.7706 33.3674 45.162 32.7818 45.4289 32.1373C45.6959 31.4927 45.8333 30.8019 45.8333 30.1043V15.7293C45.8333 15.3431 45.7937 14.9695 45.7146 14.6084L32.7354 27.1063C32.0387 27.7768 31.1041 28.1431 30.1373 28.1245C29.1705 28.106 28.2507 27.7041 27.5802 27.0074C26.9097 26.3106 26.5434 25.3761 26.562 24.4093C26.5806 23.4425 26.9824 22.5227 27.6792 21.8522L39.5562 10.4168ZM9.37499 19.2709C9.37499 18.8565 9.53961 18.4591 9.83263 18.1661C10.1257 17.873 10.5231 17.7084 10.9375 17.7084H15.1042C15.5186 17.7084 15.916 17.873 16.209 18.1661C16.502 18.4591 16.6667 18.8565 16.6667 19.2709C16.6667 19.6853 16.502 20.0827 16.209 20.3758C15.916 20.6688 15.5186 20.8334 15.1042 20.8334H10.9375C10.5231 20.8334 10.1257 20.6688 9.83263 20.3758C9.53961 20.0827 9.37499 19.6853 9.37499 19.2709ZM9.37499 26.5626C9.37499 26.1482 9.53961 25.7508 9.83263 25.4577C10.1257 25.1647 10.5231 25.0001 10.9375 25.0001H21.3542C21.7686 25.0001 22.166 25.1647 22.459 25.4577C22.752 25.7508 22.9167 26.1482 22.9167 26.5626C22.9167 26.977 22.752 27.3744 22.459 27.6674C22.166 27.9605 21.7686 28.1251 21.3542 28.1251H10.9375C10.5231 28.1251 10.1257 27.9605 9.83263 27.6674C9.53961 27.3744 9.37499 26.977 9.37499 26.5626Z" fill="#4D4D4D"/>
</svg>
